%TF.GenerationSoftware,KiCad,Pcbnew,9.0.7*%
%TF.CreationDate,2026-02-07T22:16:38-08:00*%
%TF.ProjectId,hackpad,6861636b-7061-4642-9e6b-696361645f70,rev?*%
%TF.SameCoordinates,Original*%
%TF.FileFunction,Drillmap*%
%TF.FilePolarity,Positive*%
%FSLAX45Y45*%
G04 Gerber Fmt 4.5, Leading zero omitted, Abs format (unit mm)*
G04 Created by KiCad (PCBNEW 9.0.7) date 2026-02-07 22:16:38*
%MOMM*%
%LPD*%
G01*
G04 APERTURE LIST*
%ADD10C,0.050000*%
%ADD11C,0.100000*%
%ADD12C,0.200000*%
%ADD13C,0.150000*%
G04 APERTURE END LIST*
D10*
X2600000Y-2400000D02*
X12600000Y-2400000D01*
X12600000Y-12400000D01*
X2600000Y-12400000D01*
X2600000Y-2400000D01*
D11*
X11010000Y-9110000D02*
X11010000Y-8969432D01*
X11100555Y-8889716D02*
X11259445Y-8889716D01*
X11259445Y-9189716D02*
X11100555Y-9189716D01*
X11350000Y-8969432D02*
X11350000Y-9110000D01*
X11005052Y-8947744D02*
G75*
G02*
X11010000Y-8969432I-45051J-21688D01*
G01*
X11005052Y-8947744D02*
G75*
G02*
X11075329Y-8882886I45052J21688D01*
G01*
X11010000Y-9110000D02*
G75*
G02*
X11005052Y-9131688I-49999J0D01*
G01*
X11075329Y-9196546D02*
G75*
G02*
X11005052Y-9131688I-25226J43170D01*
G01*
X11075329Y-9196546D02*
G75*
G02*
X11100555Y-9189716I25226J-43171D01*
G01*
X11100555Y-8889716D02*
G75*
G02*
X11075329Y-8882886I0J50001D01*
G01*
X11259445Y-9189716D02*
G75*
G02*
X11284671Y-9196546I0J-50001D01*
G01*
X11284671Y-8882886D02*
G75*
G02*
X11259445Y-8889716I-25226J43171D01*
G01*
X11284671Y-8882886D02*
G75*
G02*
X11354948Y-8947744I25226J-43170D01*
G01*
X11350000Y-8969432D02*
G75*
G02*
X11354948Y-8947744I50000J2D01*
G01*
X11354948Y-9131688D02*
G75*
G02*
X11284671Y-9196546I-45051J-21688D01*
G01*
X11354948Y-9131688D02*
G75*
G02*
X11350000Y-9110000I45052J21688D01*
G01*
X11510000Y-3800000D02*
X11510000Y-3659432D01*
X11600555Y-3579716D02*
X11759445Y-3579716D01*
X11759445Y-3879716D02*
X11600555Y-3879716D01*
X11850000Y-3659432D02*
X11850000Y-3800000D01*
X11505052Y-3637744D02*
G75*
G02*
X11510000Y-3659432I-45051J-21688D01*
G01*
X11505052Y-3637744D02*
G75*
G02*
X11575329Y-3572886I45052J21688D01*
G01*
X11510000Y-3800000D02*
G75*
G02*
X11505052Y-3821688I-49999J0D01*
G01*
X11575329Y-3886545D02*
G75*
G02*
X11505052Y-3821688I-25226J43170D01*
G01*
X11575329Y-3886546D02*
G75*
G02*
X11600555Y-3879716I25226J-43171D01*
G01*
X11600555Y-3579716D02*
G75*
G02*
X11575329Y-3572886I0J50001D01*
G01*
X11759445Y-3879716D02*
G75*
G02*
X11784671Y-3886546I0J-50001D01*
G01*
X11784671Y-3572886D02*
G75*
G02*
X11759445Y-3579716I-25226J43171D01*
G01*
X11784671Y-3572886D02*
G75*
G02*
X11854948Y-3637744I25226J-43170D01*
G01*
X11850000Y-3659431D02*
G75*
G02*
X11854948Y-3637743I50000J2D01*
G01*
X11854948Y-3821688D02*
G75*
G02*
X11784671Y-3886546I-45051J-21688D01*
G01*
X11854948Y-3821688D02*
G75*
G02*
X11850000Y-3800000I45052J21688D01*
G01*
X11010000Y-6680000D02*
X11010000Y-6539432D01*
X11100555Y-6459716D02*
X11259445Y-6459716D01*
X11259445Y-6759716D02*
X11100555Y-6759716D01*
X11350000Y-6539432D02*
X11350000Y-6680000D01*
X11005052Y-6517744D02*
G75*
G02*
X11010000Y-6539432I-45051J-21688D01*
G01*
X11005052Y-6517744D02*
G75*
G02*
X11075329Y-6452886I45052J21688D01*
G01*
X11010000Y-6680000D02*
G75*
G02*
X11005052Y-6701688I-49999J0D01*
G01*
X11075329Y-6766545D02*
G75*
G02*
X11005052Y-6701688I-25226J43170D01*
G01*
X11075329Y-6766546D02*
G75*
G02*
X11100555Y-6759716I25226J-43171D01*
G01*
X11100555Y-6459716D02*
G75*
G02*
X11075329Y-6452886I0J50001D01*
G01*
X11259445Y-6759716D02*
G75*
G02*
X11284671Y-6766546I0J-50001D01*
G01*
X11284671Y-6452886D02*
G75*
G02*
X11259445Y-6459716I-25226J43171D01*
G01*
X11284671Y-6452886D02*
G75*
G02*
X11354948Y-6517744I25226J-43170D01*
G01*
X11350000Y-6539431D02*
G75*
G02*
X11354948Y-6517743I50000J2D01*
G01*
X11354948Y-6701688D02*
G75*
G02*
X11284671Y-6766546I-45051J-21688D01*
G01*
X11354948Y-6701688D02*
G75*
G02*
X11350000Y-6680000I45052J21688D01*
G01*
X7690000Y-11490000D02*
X7690000Y-11349432D01*
X7780555Y-11269716D02*
X7939445Y-11269716D01*
X7939445Y-11569716D02*
X7780555Y-11569716D01*
X8030000Y-11349432D02*
X8030000Y-11490000D01*
X7685052Y-11327744D02*
G75*
G02*
X7690000Y-11349432I-45051J-21688D01*
G01*
X7685052Y-11327744D02*
G75*
G02*
X7755329Y-11262886I45052J21688D01*
G01*
X7690000Y-11490000D02*
G75*
G02*
X7685052Y-11511688I-49999J0D01*
G01*
X7755329Y-11576545D02*
G75*
G02*
X7685052Y-11511688I-25226J43170D01*
G01*
X7755329Y-11576546D02*
G75*
G02*
X7780555Y-11569716I25226J-43171D01*
G01*
X7780555Y-11269716D02*
G75*
G02*
X7755329Y-11262886I0J50001D01*
G01*
X7939445Y-11569716D02*
G75*
G02*
X7964671Y-11576546I0J-50001D01*
G01*
X7964671Y-11262886D02*
G75*
G02*
X7939445Y-11269716I-25226J43171D01*
G01*
X7964671Y-11262886D02*
G75*
G02*
X8034948Y-11327744I25226J-43170D01*
G01*
X8030000Y-11349431D02*
G75*
G02*
X8034948Y-11327743I50000J2D01*
G01*
X8034948Y-11511688D02*
G75*
G02*
X7964671Y-11576546I-45051J-21688D01*
G01*
X8034948Y-11511688D02*
G75*
G02*
X8030000Y-11490000I45052J21688D01*
G01*
X6260000Y-6690000D02*
X6260000Y-6549432D01*
X6350555Y-6469716D02*
X6509445Y-6469716D01*
X6509445Y-6769716D02*
X6350555Y-6769716D01*
X6600000Y-6549432D02*
X6600000Y-6690000D01*
X6255052Y-6527744D02*
G75*
G02*
X6260000Y-6549432I-45051J-21688D01*
G01*
X6255052Y-6527744D02*
G75*
G02*
X6325329Y-6462886I45052J21688D01*
G01*
X6260000Y-6690000D02*
G75*
G02*
X6255052Y-6711688I-49999J0D01*
G01*
X6325329Y-6776545D02*
G75*
G02*
X6255052Y-6711688I-25226J43170D01*
G01*
X6325329Y-6776546D02*
G75*
G02*
X6350555Y-6769716I25226J-43171D01*
G01*
X6350555Y-6469716D02*
G75*
G02*
X6325329Y-6462886I0J50001D01*
G01*
X6509445Y-6769716D02*
G75*
G02*
X6534671Y-6776546I0J-50001D01*
G01*
X6534671Y-6462886D02*
G75*
G02*
X6509445Y-6469716I-25226J43171D01*
G01*
X6534671Y-6462886D02*
G75*
G02*
X6604948Y-6527744I25226J-43170D01*
G01*
X6600000Y-6549431D02*
G75*
G02*
X6604948Y-6527743I50000J2D01*
G01*
X6604948Y-6711688D02*
G75*
G02*
X6534671Y-6776546I-45051J-21688D01*
G01*
X6604948Y-6711688D02*
G75*
G02*
X6600000Y-6690000I45052J21688D01*
G01*
X6260000Y-9090000D02*
X6260000Y-8949432D01*
X6350555Y-8869716D02*
X6509445Y-8869716D01*
X6509445Y-9169716D02*
X6350555Y-9169716D01*
X6600000Y-8949432D02*
X6600000Y-9090000D01*
X6255052Y-8927744D02*
G75*
G02*
X6260000Y-8949432I-45051J-21688D01*
G01*
X6255052Y-8927744D02*
G75*
G02*
X6325329Y-8862886I45052J21688D01*
G01*
X6260000Y-9090000D02*
G75*
G02*
X6255052Y-9111688I-49999J0D01*
G01*
X6325329Y-9176546D02*
G75*
G02*
X6255052Y-9111688I-25226J43170D01*
G01*
X6325329Y-9176546D02*
G75*
G02*
X6350555Y-9169716I25226J-43171D01*
G01*
X6350555Y-8869716D02*
G75*
G02*
X6325329Y-8862886I0J50001D01*
G01*
X6509445Y-9169716D02*
G75*
G02*
X6534671Y-9176546I0J-50001D01*
G01*
X6534671Y-8862886D02*
G75*
G02*
X6509445Y-8869716I-25226J43171D01*
G01*
X6534671Y-8862886D02*
G75*
G02*
X6604948Y-8927744I25226J-43170D01*
G01*
X6600000Y-8949432D02*
G75*
G02*
X6604948Y-8927744I50000J2D01*
G01*
X6604948Y-9111688D02*
G75*
G02*
X6534671Y-9176546I-45051J-21688D01*
G01*
X6604948Y-9111688D02*
G75*
G02*
X6600000Y-9090000I45052J21688D01*
G01*
X3870000Y-11470000D02*
X3870000Y-11329432D01*
X3960555Y-11249716D02*
X4119445Y-11249716D01*
X4119445Y-11549716D02*
X3960555Y-11549716D01*
X4210000Y-11329432D02*
X4210000Y-11470000D01*
X3865052Y-11307744D02*
G75*
G02*
X3870000Y-11329432I-45051J-21688D01*
G01*
X3865052Y-11307744D02*
G75*
G02*
X3935329Y-11242886I45052J21688D01*
G01*
X3870000Y-11470000D02*
G75*
G02*
X3865052Y-11491688I-49999J0D01*
G01*
X3935329Y-11556545D02*
G75*
G02*
X3865052Y-11491688I-25226J43170D01*
G01*
X3935329Y-11556546D02*
G75*
G02*
X3960555Y-11549716I25226J-43171D01*
G01*
X3960555Y-11249716D02*
G75*
G02*
X3935329Y-11242886I0J50001D01*
G01*
X4119445Y-11549716D02*
G75*
G02*
X4144671Y-11556546I0J-50001D01*
G01*
X4144671Y-11242886D02*
G75*
G02*
X4119445Y-11249716I-25226J43171D01*
G01*
X4144671Y-11242886D02*
G75*
G02*
X4214948Y-11307744I25226J-43170D01*
G01*
X4210000Y-11329431D02*
G75*
G02*
X4214948Y-11307743I50000J2D01*
G01*
X4214949Y-11491688D02*
G75*
G02*
X4144671Y-11556546I-45051J-21688D01*
G01*
X4214949Y-11491688D02*
G75*
G02*
X4210000Y-11470000I45052J21688D01*
G01*
X8630000Y-6660000D02*
X8630000Y-6519432D01*
X8720555Y-6439716D02*
X8879445Y-6439716D01*
X8879445Y-6739716D02*
X8720555Y-6739716D01*
X8970000Y-6519432D02*
X8970000Y-6660000D01*
X8625052Y-6497744D02*
G75*
G02*
X8630000Y-6519432I-45051J-21688D01*
G01*
X8625052Y-6497744D02*
G75*
G02*
X8695329Y-6432886I45052J21688D01*
G01*
X8630000Y-6660000D02*
G75*
G02*
X8625052Y-6681688I-49999J0D01*
G01*
X8695329Y-6746545D02*
G75*
G02*
X8625052Y-6681688I-25226J43170D01*
G01*
X8695329Y-6746546D02*
G75*
G02*
X8720555Y-6739716I25226J-43171D01*
G01*
X8720555Y-6439716D02*
G75*
G02*
X8695329Y-6432886I0J50001D01*
G01*
X8879445Y-6739716D02*
G75*
G02*
X8904671Y-6746546I0J-50001D01*
G01*
X8904671Y-6432886D02*
G75*
G02*
X8879445Y-6439716I-25226J43171D01*
G01*
X8904671Y-6432886D02*
G75*
G02*
X8974948Y-6497744I25226J-43170D01*
G01*
X8970000Y-6519431D02*
G75*
G02*
X8974948Y-6497743I50000J2D01*
G01*
X8974949Y-6681688D02*
G75*
G02*
X8904671Y-6746546I-45051J-21688D01*
G01*
X8974949Y-6681688D02*
G75*
G02*
X8970000Y-6660000I45052J21688D01*
G01*
X8630000Y-9090000D02*
X8630000Y-8949432D01*
X8720555Y-8869716D02*
X8879445Y-8869716D01*
X8879445Y-9169716D02*
X8720555Y-9169716D01*
X8970000Y-8949432D02*
X8970000Y-9090000D01*
X8625052Y-8927744D02*
G75*
G02*
X8630000Y-8949432I-45051J-21688D01*
G01*
X8625052Y-8927744D02*
G75*
G02*
X8695329Y-8862886I45052J21688D01*
G01*
X8630000Y-9090000D02*
G75*
G02*
X8625052Y-9111688I-49999J0D01*
G01*
X8695329Y-9176546D02*
G75*
G02*
X8625052Y-9111688I-25226J43170D01*
G01*
X8695329Y-9176546D02*
G75*
G02*
X8720555Y-9169716I25226J-43171D01*
G01*
X8720555Y-8869716D02*
G75*
G02*
X8695329Y-8862886I0J50001D01*
G01*
X8879445Y-9169716D02*
G75*
G02*
X8904671Y-9176546I0J-50001D01*
G01*
X8904671Y-8862886D02*
G75*
G02*
X8879445Y-8869716I-25226J43171D01*
G01*
X8904671Y-8862886D02*
G75*
G02*
X8974948Y-8927744I25226J-43170D01*
G01*
X8970000Y-8949432D02*
G75*
G02*
X8974948Y-8927744I50000J2D01*
G01*
X8974949Y-9111688D02*
G75*
G02*
X8904671Y-9176546I-45051J-21688D01*
G01*
X8974949Y-9111688D02*
G75*
G02*
X8970000Y-9090000I45052J21688D01*
G01*
D12*
D11*
X3795000Y-7315000D02*
X3825000Y-7345000D01*
X3825000Y-7315000D02*
X3795000Y-7345000D01*
X3905000Y-4205000D02*
X3935000Y-4235000D01*
X3935000Y-4205000D02*
X3905000Y-4235000D01*
X4435000Y-9585000D02*
X4465000Y-9615000D01*
X4465000Y-9585000D02*
X4435000Y-9615000D01*
X4455000Y-5565000D02*
X4485000Y-5595000D01*
X4485000Y-5565000D02*
X4455000Y-5595000D01*
X5195000Y-9815000D02*
X5225000Y-9845000D01*
X5225000Y-9815000D02*
X5195000Y-9845000D01*
X5695000Y-3695000D02*
X5725000Y-3725000D01*
X5725000Y-3695000D02*
X5695000Y-3725000D01*
X5775000Y-4435000D02*
X5805000Y-4465000D01*
X5805000Y-4435000D02*
X5775000Y-4465000D01*
X5955000Y-4605000D02*
X5985000Y-4635000D01*
X5985000Y-4605000D02*
X5955000Y-4635000D01*
X5995000Y-4245000D02*
X6025000Y-4275000D01*
X6025000Y-4245000D02*
X5995000Y-4275000D01*
X6355000Y-4605000D02*
X6385000Y-4635000D01*
X6385000Y-4605000D02*
X6355000Y-4635000D01*
X7085000Y-7365000D02*
X7115000Y-7395000D01*
X7115000Y-7365000D02*
X7085000Y-7395000D01*
X7165000Y-4755000D02*
X7195000Y-4785000D01*
X7195000Y-4755000D02*
X7165000Y-4785000D01*
X7385000Y-10085000D02*
X7415000Y-10115000D01*
X7415000Y-10085000D02*
X7385000Y-10115000D01*
X7405000Y-8935000D02*
X7435000Y-8965000D01*
X7435000Y-8935000D02*
X7405000Y-8965000D01*
X7565000Y-6685000D02*
X7595000Y-6715000D01*
X7595000Y-6685000D02*
X7565000Y-6715000D01*
X7605000Y-4525000D02*
X7635000Y-4555000D01*
X7635000Y-4525000D02*
X7605000Y-4555000D01*
X7715000Y-4645000D02*
X7745000Y-4675000D01*
X7745000Y-4645000D02*
X7715000Y-4675000D01*
X7835000Y-9845000D02*
X7865000Y-9875000D01*
X7865000Y-9845000D02*
X7835000Y-9875000D01*
X8065000Y-7735000D02*
X8095000Y-7765000D01*
X8095000Y-7735000D02*
X8065000Y-7765000D01*
X8145000Y-8895000D02*
X8175000Y-8925000D01*
X8175000Y-8895000D02*
X8145000Y-8925000D01*
X8145000Y-9385000D02*
X8175000Y-9415000D01*
X8175000Y-9385000D02*
X8145000Y-9415000D01*
X8955000Y-10155000D02*
X8985000Y-10185000D01*
X8985000Y-10155000D02*
X8955000Y-10185000D01*
X9285000Y-9065000D02*
X9315000Y-9095000D01*
X9315000Y-9065000D02*
X9285000Y-9095000D01*
X9475000Y-7415000D02*
X9505000Y-7445000D01*
X9505000Y-7415000D02*
X9475000Y-7445000D01*
X9475000Y-10155000D02*
X9505000Y-10185000D01*
X9505000Y-10155000D02*
X9475000Y-10185000D01*
X9585000Y-7735000D02*
X9615000Y-7765000D01*
X9615000Y-7735000D02*
X9585000Y-7765000D01*
X9615000Y-9005000D02*
X9645000Y-9035000D01*
X9645000Y-9005000D02*
X9615000Y-9035000D01*
X9855000Y-6655000D02*
X9885000Y-6685000D01*
X9885000Y-6655000D02*
X9855000Y-6685000D01*
X9855000Y-8025000D02*
X9885000Y-8055000D01*
X9885000Y-8025000D02*
X9855000Y-8055000D01*
X9945000Y-9815000D02*
X9975000Y-9845000D01*
X9975000Y-9815000D02*
X9945000Y-9845000D01*
X10035000Y-7345000D02*
X10065000Y-7375000D01*
X10065000Y-7345000D02*
X10035000Y-7375000D01*
X10125000Y-4955000D02*
X10155000Y-4985000D01*
X10155000Y-4955000D02*
X10125000Y-4985000D01*
X10375000Y-8925000D02*
X10405000Y-8955000D01*
X10405000Y-8925000D02*
X10375000Y-8955000D01*
X10645000Y-10025000D02*
X10675000Y-10055000D01*
X10675000Y-10025000D02*
X10645000Y-10055000D01*
X10865000Y-8735000D02*
X10895000Y-8765000D01*
X10895000Y-8735000D02*
X10865000Y-8765000D01*
X12075000Y-4835000D02*
X12105000Y-4865000D01*
X12105000Y-4835000D02*
X12075000Y-4865000D01*
X12215000Y-4695000D02*
X12245000Y-4725000D01*
X12245000Y-4695000D02*
X12215000Y-4725000D01*
X3689000Y-11970000D02*
G75*
G02*
X3609000Y-11970000I-40000J0D01*
G01*
X3609000Y-11970000D02*
G75*
G02*
X3689000Y-11970000I40000J0D01*
G01*
X4451000Y-11970000D02*
G75*
G02*
X4371000Y-11970000I-40000J0D01*
G01*
X4371000Y-11970000D02*
G75*
G02*
X4451000Y-11970000I40000J0D01*
G01*
X6088000Y-7170000D02*
G75*
G02*
X6008000Y-7170000I-40000J0D01*
G01*
X6008000Y-7170000D02*
G75*
G02*
X6088000Y-7170000I40000J0D01*
G01*
X6089000Y-9590000D02*
G75*
G02*
X6009000Y-9590000I-40000J0D01*
G01*
X6009000Y-9590000D02*
G75*
G02*
X6089000Y-9590000I40000J0D01*
G01*
X6850000Y-7170000D02*
G75*
G02*
X6770000Y-7170000I-40000J0D01*
G01*
X6770000Y-7170000D02*
G75*
G02*
X6850000Y-7170000I40000J0D01*
G01*
X6851000Y-9590000D02*
G75*
G02*
X6771000Y-9590000I-40000J0D01*
G01*
X6771000Y-9590000D02*
G75*
G02*
X6851000Y-9590000I40000J0D01*
G01*
X7509000Y-11970000D02*
G75*
G02*
X7429000Y-11970000I-40000J0D01*
G01*
X7429000Y-11970000D02*
G75*
G02*
X7509000Y-11970000I40000J0D01*
G01*
X8271000Y-11970000D02*
G75*
G02*
X8191000Y-11970000I-40000J0D01*
G01*
X8191000Y-11970000D02*
G75*
G02*
X8271000Y-11970000I40000J0D01*
G01*
X8458000Y-9590000D02*
G75*
G02*
X8378000Y-9590000I-40000J0D01*
G01*
X8378000Y-9590000D02*
G75*
G02*
X8458000Y-9590000I40000J0D01*
G01*
X8469000Y-7170000D02*
G75*
G02*
X8389000Y-7170000I-40000J0D01*
G01*
X8389000Y-7170000D02*
G75*
G02*
X8469000Y-7170000I40000J0D01*
G01*
X9220000Y-9590000D02*
G75*
G02*
X9140000Y-9590000I-40000J0D01*
G01*
X9140000Y-9590000D02*
G75*
G02*
X9220000Y-9590000I40000J0D01*
G01*
X9231000Y-7170000D02*
G75*
G02*
X9151000Y-7170000I-40000J0D01*
G01*
X9151000Y-7170000D02*
G75*
G02*
X9231000Y-7170000I40000J0D01*
G01*
X9878000Y-11960000D02*
G75*
G02*
X9798000Y-11960000I-40000J0D01*
G01*
X9798000Y-11960000D02*
G75*
G02*
X9878000Y-11960000I40000J0D01*
G01*
X10640000Y-11960000D02*
G75*
G02*
X10560000Y-11960000I-40000J0D01*
G01*
X10560000Y-11960000D02*
G75*
G02*
X10640000Y-11960000I40000J0D01*
G01*
X10879000Y-7160000D02*
G75*
G02*
X10799000Y-7160000I-40000J0D01*
G01*
X10799000Y-7160000D02*
G75*
G02*
X10879000Y-7160000I40000J0D01*
G01*
X10879000Y-9590000D02*
G75*
G02*
X10799000Y-9590000I-40000J0D01*
G01*
X10799000Y-9590000D02*
G75*
G02*
X10879000Y-9590000I40000J0D01*
G01*
X11641000Y-7160000D02*
G75*
G02*
X11561000Y-7160000I-40000J0D01*
G01*
X11561000Y-7160000D02*
G75*
G02*
X11641000Y-7160000I40000J0D01*
G01*
X11641000Y-9590000D02*
G75*
G02*
X11561000Y-9590000I-40000J0D01*
G01*
X11561000Y-9590000D02*
G75*
G02*
X11641000Y-9590000I40000J0D01*
G01*
X3338000Y-2650400D02*
X3338000Y-2739300D01*
X3293550Y-2694850D02*
X3382450Y-2694850D01*
X3338000Y-2904400D02*
X3338000Y-2993300D01*
X3293550Y-2948850D02*
X3382450Y-2948850D01*
X3338000Y-3158400D02*
X3338000Y-3247300D01*
X3293550Y-3202850D02*
X3382450Y-3202850D01*
X3338000Y-3412400D02*
X3338000Y-3501300D01*
X3293550Y-3456850D02*
X3382450Y-3456850D01*
X3338000Y-3666400D02*
X3338000Y-3755300D01*
X3293550Y-3710850D02*
X3382450Y-3710850D01*
X3338000Y-3920400D02*
X3338000Y-4009300D01*
X3293550Y-3964850D02*
X3382450Y-3964850D01*
X3338000Y-4174400D02*
X3338000Y-4263300D01*
X3293550Y-4218850D02*
X3382450Y-4218850D01*
X4862000Y-2650400D02*
X4862000Y-2739300D01*
X4817550Y-2694850D02*
X4906450Y-2694850D01*
X4862000Y-2904400D02*
X4862000Y-2993300D01*
X4817550Y-2948850D02*
X4906450Y-2948850D01*
X4862000Y-3158400D02*
X4862000Y-3247300D01*
X4817550Y-3202850D02*
X4906450Y-3202850D01*
X4862000Y-3412400D02*
X4862000Y-3501300D01*
X4817550Y-3456850D02*
X4906450Y-3456850D01*
X4862000Y-3666400D02*
X4862000Y-3755300D01*
X4817550Y-3710850D02*
X4906450Y-3710850D01*
X4862000Y-3920400D02*
X4862000Y-4009300D01*
X4817550Y-3964850D02*
X4906450Y-3964850D01*
X4862000Y-4174400D02*
X4862000Y-4263300D01*
X4817550Y-4218850D02*
X4906450Y-4218850D01*
X6765356Y-3394356D02*
X6765356Y-3323644D01*
X6694644Y-3323644D01*
X6694644Y-3394356D01*
X6765356Y-3394356D01*
X6765356Y-3648356D02*
X6765356Y-3577644D01*
X6694644Y-3577644D01*
X6694644Y-3648356D01*
X6765356Y-3648356D01*
X6765356Y-3902356D02*
X6765356Y-3831644D01*
X6694644Y-3831644D01*
X6694644Y-3902356D01*
X6765356Y-3902356D01*
X6765356Y-4156356D02*
X6765356Y-4085644D01*
X6694644Y-4085644D01*
X6694644Y-4156356D01*
X6765356Y-4156356D01*
X9549731Y-10739106D02*
X9549731Y-10668394D01*
X9479019Y-10668394D01*
X9479019Y-10739106D01*
X9549731Y-10739106D01*
X9549731Y-11239106D02*
X9549731Y-11168394D01*
X9479019Y-11168394D01*
X9479019Y-11239106D01*
X9549731Y-11239106D01*
X10999731Y-10739106D02*
X10999731Y-10668394D01*
X10929019Y-10668394D01*
X10929019Y-10739106D01*
X10999731Y-10739106D01*
X10999731Y-10989106D02*
X10999731Y-10918394D01*
X10929019Y-10918394D01*
X10929019Y-10989106D01*
X10999731Y-10989106D01*
X10999731Y-11239106D02*
X10999731Y-11168394D01*
X10929019Y-11168394D01*
X10929019Y-11239106D01*
X10999731Y-11239106D01*
D13*
X3667125Y-10774750D02*
X3742125Y-10699750D01*
X3667125Y-10624750D01*
X3592125Y-10699750D01*
X3667125Y-10774750D01*
X4302125Y-10520750D02*
X4377125Y-10445750D01*
X4302125Y-10370750D01*
X4227125Y-10445750D01*
X4302125Y-10520750D01*
X6048375Y-5966000D02*
X6123375Y-5891000D01*
X6048375Y-5816000D01*
X5973375Y-5891000D01*
X6048375Y-5966000D01*
X6048375Y-8393500D02*
X6123375Y-8318500D01*
X6048375Y-8243500D01*
X5973375Y-8318500D01*
X6048375Y-8393500D01*
X6683375Y-5712000D02*
X6758375Y-5637000D01*
X6683375Y-5562000D01*
X6608375Y-5637000D01*
X6683375Y-5712000D01*
X6683375Y-8139500D02*
X6758375Y-8064500D01*
X6683375Y-7989500D01*
X6608375Y-8064500D01*
X6683375Y-8139500D01*
X7477125Y-10774750D02*
X7552125Y-10699750D01*
X7477125Y-10624750D01*
X7402125Y-10699750D01*
X7477125Y-10774750D01*
X8112125Y-10520750D02*
X8187125Y-10445750D01*
X8112125Y-10370750D01*
X8037125Y-10445750D01*
X8112125Y-10520750D01*
X8419625Y-5966000D02*
X8494625Y-5891000D01*
X8419625Y-5816000D01*
X8344625Y-5891000D01*
X8419625Y-5966000D01*
X8429625Y-8393500D02*
X8504625Y-8318500D01*
X8429625Y-8243500D01*
X8354625Y-8318500D01*
X8429625Y-8393500D01*
X9054625Y-5712000D02*
X9129625Y-5637000D01*
X9054625Y-5562000D01*
X8979625Y-5637000D01*
X9054625Y-5712000D01*
X9064625Y-8139500D02*
X9139625Y-8064500D01*
X9064625Y-7989500D01*
X8989625Y-8064500D01*
X9064625Y-8139500D01*
X10214375Y-10468750D02*
X10289375Y-10393750D01*
X10214375Y-10318750D01*
X10139375Y-10393750D01*
X10214375Y-10468750D01*
D11*
X10279375Y-10318750D02*
X10149375Y-10318750D01*
X10149375Y-10468750D02*
G75*
G02*
X10149375Y-10318750I0J75000D01*
G01*
X10149375Y-10468750D02*
X10279375Y-10468750D01*
X10279375Y-10468750D02*
G75*
G03*
X10279375Y-10318750I0J75000D01*
G01*
D13*
X10214375Y-11588750D02*
X10289375Y-11513750D01*
X10214375Y-11438750D01*
X10139375Y-11513750D01*
X10214375Y-11588750D01*
D11*
X10279375Y-11438750D02*
X10149375Y-11438750D01*
X10149375Y-11588750D02*
G75*
G02*
X10149375Y-11438750I0J75000D01*
G01*
X10149375Y-11588750D02*
X10279375Y-11588750D01*
X10279375Y-11588750D02*
G75*
G03*
X10279375Y-11438750I0J75000D01*
G01*
D13*
X10810875Y-5966000D02*
X10885875Y-5891000D01*
X10810875Y-5816000D01*
X10735875Y-5891000D01*
X10810875Y-5966000D01*
X10810875Y-8393500D02*
X10885875Y-8318500D01*
X10810875Y-8243500D01*
X10735875Y-8318500D01*
X10810875Y-8393500D01*
X11445875Y-5712000D02*
X11520875Y-5637000D01*
X11445875Y-5562000D01*
X11370875Y-5637000D01*
X11445875Y-5712000D01*
X11445875Y-8139500D02*
X11520875Y-8064500D01*
X11445875Y-7989500D01*
X11370875Y-8064500D01*
X11445875Y-8139500D01*
D12*
X2858277Y-12713984D02*
X2858277Y-12513984D01*
X2858277Y-12513984D02*
X2905896Y-12513984D01*
X2905896Y-12513984D02*
X2934467Y-12523508D01*
X2934467Y-12523508D02*
X2953515Y-12542555D01*
X2953515Y-12542555D02*
X2963039Y-12561603D01*
X2963039Y-12561603D02*
X2972562Y-12599698D01*
X2972562Y-12599698D02*
X2972562Y-12628269D01*
X2972562Y-12628269D02*
X2963039Y-12666365D01*
X2963039Y-12666365D02*
X2953515Y-12685412D01*
X2953515Y-12685412D02*
X2934467Y-12704460D01*
X2934467Y-12704460D02*
X2905896Y-12713984D01*
X2905896Y-12713984D02*
X2858277Y-12713984D01*
X3058277Y-12713984D02*
X3058277Y-12580650D01*
X3058277Y-12618746D02*
X3067801Y-12599698D01*
X3067801Y-12599698D02*
X3077324Y-12590174D01*
X3077324Y-12590174D02*
X3096372Y-12580650D01*
X3096372Y-12580650D02*
X3115420Y-12580650D01*
X3182086Y-12713984D02*
X3182086Y-12580650D01*
X3182086Y-12513984D02*
X3172562Y-12523508D01*
X3172562Y-12523508D02*
X3182086Y-12533031D01*
X3182086Y-12533031D02*
X3191610Y-12523508D01*
X3191610Y-12523508D02*
X3182086Y-12513984D01*
X3182086Y-12513984D02*
X3182086Y-12533031D01*
X3305896Y-12713984D02*
X3286848Y-12704460D01*
X3286848Y-12704460D02*
X3277324Y-12685412D01*
X3277324Y-12685412D02*
X3277324Y-12513984D01*
X3410658Y-12713984D02*
X3391610Y-12704460D01*
X3391610Y-12704460D02*
X3382086Y-12685412D01*
X3382086Y-12685412D02*
X3382086Y-12513984D01*
X3639229Y-12713984D02*
X3639229Y-12513984D01*
X3639229Y-12513984D02*
X3705896Y-12656841D01*
X3705896Y-12656841D02*
X3772562Y-12513984D01*
X3772562Y-12513984D02*
X3772562Y-12713984D01*
X3953515Y-12713984D02*
X3953515Y-12609222D01*
X3953515Y-12609222D02*
X3943991Y-12590174D01*
X3943991Y-12590174D02*
X3924943Y-12580650D01*
X3924943Y-12580650D02*
X3886848Y-12580650D01*
X3886848Y-12580650D02*
X3867801Y-12590174D01*
X3953515Y-12704460D02*
X3934467Y-12713984D01*
X3934467Y-12713984D02*
X3886848Y-12713984D01*
X3886848Y-12713984D02*
X3867801Y-12704460D01*
X3867801Y-12704460D02*
X3858277Y-12685412D01*
X3858277Y-12685412D02*
X3858277Y-12666365D01*
X3858277Y-12666365D02*
X3867801Y-12647317D01*
X3867801Y-12647317D02*
X3886848Y-12637793D01*
X3886848Y-12637793D02*
X3934467Y-12637793D01*
X3934467Y-12637793D02*
X3953515Y-12628269D01*
X4048753Y-12580650D02*
X4048753Y-12780650D01*
X4048753Y-12590174D02*
X4067801Y-12580650D01*
X4067801Y-12580650D02*
X4105896Y-12580650D01*
X4105896Y-12580650D02*
X4124943Y-12590174D01*
X4124943Y-12590174D02*
X4134467Y-12599698D01*
X4134467Y-12599698D02*
X4143991Y-12618746D01*
X4143991Y-12618746D02*
X4143991Y-12675888D01*
X4143991Y-12675888D02*
X4134467Y-12694936D01*
X4134467Y-12694936D02*
X4124943Y-12704460D01*
X4124943Y-12704460D02*
X4105896Y-12713984D01*
X4105896Y-12713984D02*
X4067801Y-12713984D01*
X4067801Y-12713984D02*
X4048753Y-12704460D01*
X4229705Y-12694936D02*
X4239229Y-12704460D01*
X4239229Y-12704460D02*
X4229705Y-12713984D01*
X4229705Y-12713984D02*
X4220182Y-12704460D01*
X4220182Y-12704460D02*
X4229705Y-12694936D01*
X4229705Y-12694936D02*
X4229705Y-12713984D01*
X4229705Y-12590174D02*
X4239229Y-12599698D01*
X4239229Y-12599698D02*
X4229705Y-12609222D01*
X4229705Y-12609222D02*
X4220182Y-12599698D01*
X4220182Y-12599698D02*
X4229705Y-12590174D01*
X4229705Y-12590174D02*
X4229705Y-12609222D01*
D11*
X2567500Y-13027500D02*
X2597500Y-13057500D01*
X2597500Y-13027500D02*
X2567500Y-13057500D01*
D12*
X2896372Y-12933984D02*
X2915420Y-12933984D01*
X2915420Y-12933984D02*
X2934467Y-12943508D01*
X2934467Y-12943508D02*
X2943991Y-12953031D01*
X2943991Y-12953031D02*
X2953515Y-12972079D01*
X2953515Y-12972079D02*
X2963039Y-13010174D01*
X2963039Y-13010174D02*
X2963039Y-13057793D01*
X2963039Y-13057793D02*
X2953515Y-13095888D01*
X2953515Y-13095888D02*
X2943991Y-13114936D01*
X2943991Y-13114936D02*
X2934467Y-13124460D01*
X2934467Y-13124460D02*
X2915420Y-13133984D01*
X2915420Y-13133984D02*
X2896372Y-13133984D01*
X2896372Y-13133984D02*
X2877324Y-13124460D01*
X2877324Y-13124460D02*
X2867801Y-13114936D01*
X2867801Y-13114936D02*
X2858277Y-13095888D01*
X2858277Y-13095888D02*
X2848753Y-13057793D01*
X2848753Y-13057793D02*
X2848753Y-13010174D01*
X2848753Y-13010174D02*
X2858277Y-12972079D01*
X2858277Y-12972079D02*
X2867801Y-12953031D01*
X2867801Y-12953031D02*
X2877324Y-12943508D01*
X2877324Y-12943508D02*
X2896372Y-12933984D01*
X3048753Y-13114936D02*
X3058277Y-13124460D01*
X3058277Y-13124460D02*
X3048753Y-13133984D01*
X3048753Y-13133984D02*
X3039229Y-13124460D01*
X3039229Y-13124460D02*
X3048753Y-13114936D01*
X3048753Y-13114936D02*
X3048753Y-13133984D01*
X3124943Y-12933984D02*
X3248753Y-12933984D01*
X3248753Y-12933984D02*
X3182086Y-13010174D01*
X3182086Y-13010174D02*
X3210658Y-13010174D01*
X3210658Y-13010174D02*
X3229705Y-13019698D01*
X3229705Y-13019698D02*
X3239229Y-13029222D01*
X3239229Y-13029222D02*
X3248753Y-13048269D01*
X3248753Y-13048269D02*
X3248753Y-13095888D01*
X3248753Y-13095888D02*
X3239229Y-13114936D01*
X3239229Y-13114936D02*
X3229705Y-13124460D01*
X3229705Y-13124460D02*
X3210658Y-13133984D01*
X3210658Y-13133984D02*
X3153515Y-13133984D01*
X3153515Y-13133984D02*
X3134467Y-13124460D01*
X3134467Y-13124460D02*
X3124943Y-13114936D01*
X3372562Y-12933984D02*
X3391610Y-12933984D01*
X3391610Y-12933984D02*
X3410658Y-12943508D01*
X3410658Y-12943508D02*
X3420182Y-12953031D01*
X3420182Y-12953031D02*
X3429705Y-12972079D01*
X3429705Y-12972079D02*
X3439229Y-13010174D01*
X3439229Y-13010174D02*
X3439229Y-13057793D01*
X3439229Y-13057793D02*
X3429705Y-13095888D01*
X3429705Y-13095888D02*
X3420182Y-13114936D01*
X3420182Y-13114936D02*
X3410658Y-13124460D01*
X3410658Y-13124460D02*
X3391610Y-13133984D01*
X3391610Y-13133984D02*
X3372562Y-13133984D01*
X3372562Y-13133984D02*
X3353515Y-13124460D01*
X3353515Y-13124460D02*
X3343991Y-13114936D01*
X3343991Y-13114936D02*
X3334467Y-13095888D01*
X3334467Y-13095888D02*
X3324943Y-13057793D01*
X3324943Y-13057793D02*
X3324943Y-13010174D01*
X3324943Y-13010174D02*
X3334467Y-12972079D01*
X3334467Y-12972079D02*
X3343991Y-12953031D01*
X3343991Y-12953031D02*
X3353515Y-12943508D01*
X3353515Y-12943508D02*
X3372562Y-12933984D01*
X3563039Y-12933984D02*
X3582086Y-12933984D01*
X3582086Y-12933984D02*
X3601134Y-12943508D01*
X3601134Y-12943508D02*
X3610658Y-12953031D01*
X3610658Y-12953031D02*
X3620182Y-12972079D01*
X3620182Y-12972079D02*
X3629705Y-13010174D01*
X3629705Y-13010174D02*
X3629705Y-13057793D01*
X3629705Y-13057793D02*
X3620182Y-13095888D01*
X3620182Y-13095888D02*
X3610658Y-13114936D01*
X3610658Y-13114936D02*
X3601134Y-13124460D01*
X3601134Y-13124460D02*
X3582086Y-13133984D01*
X3582086Y-13133984D02*
X3563039Y-13133984D01*
X3563039Y-13133984D02*
X3543991Y-13124460D01*
X3543991Y-13124460D02*
X3534467Y-13114936D01*
X3534467Y-13114936D02*
X3524943Y-13095888D01*
X3524943Y-13095888D02*
X3515420Y-13057793D01*
X3515420Y-13057793D02*
X3515420Y-13010174D01*
X3515420Y-13010174D02*
X3524943Y-12972079D01*
X3524943Y-12972079D02*
X3534467Y-12953031D01*
X3534467Y-12953031D02*
X3543991Y-12943508D01*
X3543991Y-12943508D02*
X3563039Y-12933984D01*
X3715420Y-13133984D02*
X3715420Y-13000650D01*
X3715420Y-13019698D02*
X3724943Y-13010174D01*
X3724943Y-13010174D02*
X3743991Y-13000650D01*
X3743991Y-13000650D02*
X3772563Y-13000650D01*
X3772563Y-13000650D02*
X3791610Y-13010174D01*
X3791610Y-13010174D02*
X3801134Y-13029222D01*
X3801134Y-13029222D02*
X3801134Y-13133984D01*
X3801134Y-13029222D02*
X3810658Y-13010174D01*
X3810658Y-13010174D02*
X3829705Y-13000650D01*
X3829705Y-13000650D02*
X3858277Y-13000650D01*
X3858277Y-13000650D02*
X3877324Y-13010174D01*
X3877324Y-13010174D02*
X3886848Y-13029222D01*
X3886848Y-13029222D02*
X3886848Y-13133984D01*
X3982086Y-13133984D02*
X3982086Y-13000650D01*
X3982086Y-13019698D02*
X3991610Y-13010174D01*
X3991610Y-13010174D02*
X4010658Y-13000650D01*
X4010658Y-13000650D02*
X4039229Y-13000650D01*
X4039229Y-13000650D02*
X4058277Y-13010174D01*
X4058277Y-13010174D02*
X4067801Y-13029222D01*
X4067801Y-13029222D02*
X4067801Y-13133984D01*
X4067801Y-13029222D02*
X4077324Y-13010174D01*
X4077324Y-13010174D02*
X4096372Y-13000650D01*
X4096372Y-13000650D02*
X4124943Y-13000650D01*
X4124943Y-13000650D02*
X4143991Y-13010174D01*
X4143991Y-13010174D02*
X4153515Y-13029222D01*
X4153515Y-13029222D02*
X4153515Y-13133984D01*
X4543991Y-12924460D02*
X4372563Y-13181603D01*
X4801134Y-12933984D02*
X4820182Y-12933984D01*
X4820182Y-12933984D02*
X4839229Y-12943508D01*
X4839229Y-12943508D02*
X4848753Y-12953031D01*
X4848753Y-12953031D02*
X4858277Y-12972079D01*
X4858277Y-12972079D02*
X4867801Y-13010174D01*
X4867801Y-13010174D02*
X4867801Y-13057793D01*
X4867801Y-13057793D02*
X4858277Y-13095888D01*
X4858277Y-13095888D02*
X4848753Y-13114936D01*
X4848753Y-13114936D02*
X4839229Y-13124460D01*
X4839229Y-13124460D02*
X4820182Y-13133984D01*
X4820182Y-13133984D02*
X4801134Y-13133984D01*
X4801134Y-13133984D02*
X4782087Y-13124460D01*
X4782087Y-13124460D02*
X4772563Y-13114936D01*
X4772563Y-13114936D02*
X4763039Y-13095888D01*
X4763039Y-13095888D02*
X4753515Y-13057793D01*
X4753515Y-13057793D02*
X4753515Y-13010174D01*
X4753515Y-13010174D02*
X4763039Y-12972079D01*
X4763039Y-12972079D02*
X4772563Y-12953031D01*
X4772563Y-12953031D02*
X4782087Y-12943508D01*
X4782087Y-12943508D02*
X4801134Y-12933984D01*
X4953515Y-13114936D02*
X4963039Y-13124460D01*
X4963039Y-13124460D02*
X4953515Y-13133984D01*
X4953515Y-13133984D02*
X4943991Y-13124460D01*
X4943991Y-13124460D02*
X4953515Y-13114936D01*
X4953515Y-13114936D02*
X4953515Y-13133984D01*
X5086848Y-12933984D02*
X5105896Y-12933984D01*
X5105896Y-12933984D02*
X5124944Y-12943508D01*
X5124944Y-12943508D02*
X5134468Y-12953031D01*
X5134468Y-12953031D02*
X5143991Y-12972079D01*
X5143991Y-12972079D02*
X5153515Y-13010174D01*
X5153515Y-13010174D02*
X5153515Y-13057793D01*
X5153515Y-13057793D02*
X5143991Y-13095888D01*
X5143991Y-13095888D02*
X5134468Y-13114936D01*
X5134468Y-13114936D02*
X5124944Y-13124460D01*
X5124944Y-13124460D02*
X5105896Y-13133984D01*
X5105896Y-13133984D02*
X5086848Y-13133984D01*
X5086848Y-13133984D02*
X5067801Y-13124460D01*
X5067801Y-13124460D02*
X5058277Y-13114936D01*
X5058277Y-13114936D02*
X5048753Y-13095888D01*
X5048753Y-13095888D02*
X5039229Y-13057793D01*
X5039229Y-13057793D02*
X5039229Y-13010174D01*
X5039229Y-13010174D02*
X5048753Y-12972079D01*
X5048753Y-12972079D02*
X5058277Y-12953031D01*
X5058277Y-12953031D02*
X5067801Y-12943508D01*
X5067801Y-12943508D02*
X5086848Y-12933984D01*
X5343991Y-13133984D02*
X5229706Y-13133984D01*
X5286848Y-13133984D02*
X5286848Y-12933984D01*
X5286848Y-12933984D02*
X5267801Y-12962555D01*
X5267801Y-12962555D02*
X5248753Y-12981603D01*
X5248753Y-12981603D02*
X5229706Y-12991127D01*
X5534468Y-13133984D02*
X5420182Y-13133984D01*
X5477325Y-13133984D02*
X5477325Y-12933984D01*
X5477325Y-12933984D02*
X5458277Y-12962555D01*
X5458277Y-12962555D02*
X5439229Y-12981603D01*
X5439229Y-12981603D02*
X5420182Y-12991127D01*
X5648753Y-13019698D02*
X5629706Y-13010174D01*
X5629706Y-13010174D02*
X5620182Y-13000650D01*
X5620182Y-13000650D02*
X5610658Y-12981603D01*
X5610658Y-12981603D02*
X5610658Y-12972079D01*
X5610658Y-12972079D02*
X5620182Y-12953031D01*
X5620182Y-12953031D02*
X5629706Y-12943508D01*
X5629706Y-12943508D02*
X5648753Y-12933984D01*
X5648753Y-12933984D02*
X5686848Y-12933984D01*
X5686848Y-12933984D02*
X5705896Y-12943508D01*
X5705896Y-12943508D02*
X5715420Y-12953031D01*
X5715420Y-12953031D02*
X5724944Y-12972079D01*
X5724944Y-12972079D02*
X5724944Y-12981603D01*
X5724944Y-12981603D02*
X5715420Y-13000650D01*
X5715420Y-13000650D02*
X5705896Y-13010174D01*
X5705896Y-13010174D02*
X5686848Y-13019698D01*
X5686848Y-13019698D02*
X5648753Y-13019698D01*
X5648753Y-13019698D02*
X5629706Y-13029222D01*
X5629706Y-13029222D02*
X5620182Y-13038746D01*
X5620182Y-13038746D02*
X5610658Y-13057793D01*
X5610658Y-13057793D02*
X5610658Y-13095888D01*
X5610658Y-13095888D02*
X5620182Y-13114936D01*
X5620182Y-13114936D02*
X5629706Y-13124460D01*
X5629706Y-13124460D02*
X5648753Y-13133984D01*
X5648753Y-13133984D02*
X5686848Y-13133984D01*
X5686848Y-13133984D02*
X5705896Y-13124460D01*
X5705896Y-13124460D02*
X5715420Y-13114936D01*
X5715420Y-13114936D02*
X5724944Y-13095888D01*
X5724944Y-13095888D02*
X5724944Y-13057793D01*
X5724944Y-13057793D02*
X5715420Y-13038746D01*
X5715420Y-13038746D02*
X5705896Y-13029222D01*
X5705896Y-13029222D02*
X5686848Y-13019698D01*
X5801134Y-12933984D02*
X5801134Y-12972079D01*
X5877325Y-12933984D02*
X5877325Y-12972079D01*
X6172563Y-13210174D02*
X6163039Y-13200650D01*
X6163039Y-13200650D02*
X6143991Y-13172079D01*
X6143991Y-13172079D02*
X6134468Y-13153031D01*
X6134468Y-13153031D02*
X6124944Y-13124460D01*
X6124944Y-13124460D02*
X6115420Y-13076841D01*
X6115420Y-13076841D02*
X6115420Y-13038746D01*
X6115420Y-13038746D02*
X6124944Y-12991127D01*
X6124944Y-12991127D02*
X6134468Y-12962555D01*
X6134468Y-12962555D02*
X6143991Y-12943508D01*
X6143991Y-12943508D02*
X6163039Y-12914936D01*
X6163039Y-12914936D02*
X6172563Y-12905412D01*
X6229706Y-12933984D02*
X6353515Y-12933984D01*
X6353515Y-12933984D02*
X6286848Y-13010174D01*
X6286848Y-13010174D02*
X6315420Y-13010174D01*
X6315420Y-13010174D02*
X6334468Y-13019698D01*
X6334468Y-13019698D02*
X6343991Y-13029222D01*
X6343991Y-13029222D02*
X6353515Y-13048269D01*
X6353515Y-13048269D02*
X6353515Y-13095888D01*
X6353515Y-13095888D02*
X6343991Y-13114936D01*
X6343991Y-13114936D02*
X6334468Y-13124460D01*
X6334468Y-13124460D02*
X6315420Y-13133984D01*
X6315420Y-13133984D02*
X6258277Y-13133984D01*
X6258277Y-13133984D02*
X6239229Y-13124460D01*
X6239229Y-13124460D02*
X6229706Y-13114936D01*
X6420182Y-12933984D02*
X6553515Y-12933984D01*
X6553515Y-12933984D02*
X6467801Y-13133984D01*
X6782087Y-13133984D02*
X6782087Y-12933984D01*
X6867801Y-13133984D02*
X6867801Y-13029222D01*
X6867801Y-13029222D02*
X6858277Y-13010174D01*
X6858277Y-13010174D02*
X6839230Y-13000650D01*
X6839230Y-13000650D02*
X6810658Y-13000650D01*
X6810658Y-13000650D02*
X6791610Y-13010174D01*
X6791610Y-13010174D02*
X6782087Y-13019698D01*
X6991610Y-13133984D02*
X6972563Y-13124460D01*
X6972563Y-13124460D02*
X6963039Y-13114936D01*
X6963039Y-13114936D02*
X6953515Y-13095888D01*
X6953515Y-13095888D02*
X6953515Y-13038746D01*
X6953515Y-13038746D02*
X6963039Y-13019698D01*
X6963039Y-13019698D02*
X6972563Y-13010174D01*
X6972563Y-13010174D02*
X6991610Y-13000650D01*
X6991610Y-13000650D02*
X7020182Y-13000650D01*
X7020182Y-13000650D02*
X7039230Y-13010174D01*
X7039230Y-13010174D02*
X7048753Y-13019698D01*
X7048753Y-13019698D02*
X7058277Y-13038746D01*
X7058277Y-13038746D02*
X7058277Y-13095888D01*
X7058277Y-13095888D02*
X7048753Y-13114936D01*
X7048753Y-13114936D02*
X7039230Y-13124460D01*
X7039230Y-13124460D02*
X7020182Y-13133984D01*
X7020182Y-13133984D02*
X6991610Y-13133984D01*
X7172563Y-13133984D02*
X7153515Y-13124460D01*
X7153515Y-13124460D02*
X7143991Y-13105412D01*
X7143991Y-13105412D02*
X7143991Y-12933984D01*
X7324944Y-13124460D02*
X7305896Y-13133984D01*
X7305896Y-13133984D02*
X7267801Y-13133984D01*
X7267801Y-13133984D02*
X7248753Y-13124460D01*
X7248753Y-13124460D02*
X7239230Y-13105412D01*
X7239230Y-13105412D02*
X7239230Y-13029222D01*
X7239230Y-13029222D02*
X7248753Y-13010174D01*
X7248753Y-13010174D02*
X7267801Y-13000650D01*
X7267801Y-13000650D02*
X7305896Y-13000650D01*
X7305896Y-13000650D02*
X7324944Y-13010174D01*
X7324944Y-13010174D02*
X7334468Y-13029222D01*
X7334468Y-13029222D02*
X7334468Y-13048269D01*
X7334468Y-13048269D02*
X7239230Y-13067317D01*
X7410658Y-13124460D02*
X7429706Y-13133984D01*
X7429706Y-13133984D02*
X7467801Y-13133984D01*
X7467801Y-13133984D02*
X7486849Y-13124460D01*
X7486849Y-13124460D02*
X7496372Y-13105412D01*
X7496372Y-13105412D02*
X7496372Y-13095888D01*
X7496372Y-13095888D02*
X7486849Y-13076841D01*
X7486849Y-13076841D02*
X7467801Y-13067317D01*
X7467801Y-13067317D02*
X7439230Y-13067317D01*
X7439230Y-13067317D02*
X7420182Y-13057793D01*
X7420182Y-13057793D02*
X7410658Y-13038746D01*
X7410658Y-13038746D02*
X7410658Y-13029222D01*
X7410658Y-13029222D02*
X7420182Y-13010174D01*
X7420182Y-13010174D02*
X7439230Y-13000650D01*
X7439230Y-13000650D02*
X7467801Y-13000650D01*
X7467801Y-13000650D02*
X7486849Y-13010174D01*
X7563039Y-13210174D02*
X7572563Y-13200650D01*
X7572563Y-13200650D02*
X7591611Y-13172079D01*
X7591611Y-13172079D02*
X7601134Y-13153031D01*
X7601134Y-13153031D02*
X7610658Y-13124460D01*
X7610658Y-13124460D02*
X7620182Y-13076841D01*
X7620182Y-13076841D02*
X7620182Y-13038746D01*
X7620182Y-13038746D02*
X7610658Y-12991127D01*
X7610658Y-12991127D02*
X7601134Y-12962555D01*
X7601134Y-12962555D02*
X7591611Y-12943508D01*
X7591611Y-12943508D02*
X7572563Y-12914936D01*
X7572563Y-12914936D02*
X7563039Y-12905412D01*
D11*
X2597500Y-13306500D02*
G75*
G02*
X2517500Y-13306500I-40000J0D01*
G01*
X2517500Y-13306500D02*
G75*
G02*
X2597500Y-13306500I40000J0D01*
G01*
D12*
X2896372Y-13197984D02*
X2915420Y-13197984D01*
X2915420Y-13197984D02*
X2934467Y-13207508D01*
X2934467Y-13207508D02*
X2943991Y-13217031D01*
X2943991Y-13217031D02*
X2953515Y-13236079D01*
X2953515Y-13236079D02*
X2963039Y-13274174D01*
X2963039Y-13274174D02*
X2963039Y-13321793D01*
X2963039Y-13321793D02*
X2953515Y-13359888D01*
X2953515Y-13359888D02*
X2943991Y-13378936D01*
X2943991Y-13378936D02*
X2934467Y-13388460D01*
X2934467Y-13388460D02*
X2915420Y-13397984D01*
X2915420Y-13397984D02*
X2896372Y-13397984D01*
X2896372Y-13397984D02*
X2877324Y-13388460D01*
X2877324Y-13388460D02*
X2867801Y-13378936D01*
X2867801Y-13378936D02*
X2858277Y-13359888D01*
X2858277Y-13359888D02*
X2848753Y-13321793D01*
X2848753Y-13321793D02*
X2848753Y-13274174D01*
X2848753Y-13274174D02*
X2858277Y-13236079D01*
X2858277Y-13236079D02*
X2867801Y-13217031D01*
X2867801Y-13217031D02*
X2877324Y-13207508D01*
X2877324Y-13207508D02*
X2896372Y-13197984D01*
X3048753Y-13378936D02*
X3058277Y-13388460D01*
X3058277Y-13388460D02*
X3048753Y-13397984D01*
X3048753Y-13397984D02*
X3039229Y-13388460D01*
X3039229Y-13388460D02*
X3048753Y-13378936D01*
X3048753Y-13378936D02*
X3048753Y-13397984D01*
X3172562Y-13283698D02*
X3153515Y-13274174D01*
X3153515Y-13274174D02*
X3143991Y-13264650D01*
X3143991Y-13264650D02*
X3134467Y-13245603D01*
X3134467Y-13245603D02*
X3134467Y-13236079D01*
X3134467Y-13236079D02*
X3143991Y-13217031D01*
X3143991Y-13217031D02*
X3153515Y-13207508D01*
X3153515Y-13207508D02*
X3172562Y-13197984D01*
X3172562Y-13197984D02*
X3210658Y-13197984D01*
X3210658Y-13197984D02*
X3229705Y-13207508D01*
X3229705Y-13207508D02*
X3239229Y-13217031D01*
X3239229Y-13217031D02*
X3248753Y-13236079D01*
X3248753Y-13236079D02*
X3248753Y-13245603D01*
X3248753Y-13245603D02*
X3239229Y-13264650D01*
X3239229Y-13264650D02*
X3229705Y-13274174D01*
X3229705Y-13274174D02*
X3210658Y-13283698D01*
X3210658Y-13283698D02*
X3172562Y-13283698D01*
X3172562Y-13283698D02*
X3153515Y-13293222D01*
X3153515Y-13293222D02*
X3143991Y-13302746D01*
X3143991Y-13302746D02*
X3134467Y-13321793D01*
X3134467Y-13321793D02*
X3134467Y-13359888D01*
X3134467Y-13359888D02*
X3143991Y-13378936D01*
X3143991Y-13378936D02*
X3153515Y-13388460D01*
X3153515Y-13388460D02*
X3172562Y-13397984D01*
X3172562Y-13397984D02*
X3210658Y-13397984D01*
X3210658Y-13397984D02*
X3229705Y-13388460D01*
X3229705Y-13388460D02*
X3239229Y-13378936D01*
X3239229Y-13378936D02*
X3248753Y-13359888D01*
X3248753Y-13359888D02*
X3248753Y-13321793D01*
X3248753Y-13321793D02*
X3239229Y-13302746D01*
X3239229Y-13302746D02*
X3229705Y-13293222D01*
X3229705Y-13293222D02*
X3210658Y-13283698D01*
X3372562Y-13197984D02*
X3391610Y-13197984D01*
X3391610Y-13197984D02*
X3410658Y-13207508D01*
X3410658Y-13207508D02*
X3420182Y-13217031D01*
X3420182Y-13217031D02*
X3429705Y-13236079D01*
X3429705Y-13236079D02*
X3439229Y-13274174D01*
X3439229Y-13274174D02*
X3439229Y-13321793D01*
X3439229Y-13321793D02*
X3429705Y-13359888D01*
X3429705Y-13359888D02*
X3420182Y-13378936D01*
X3420182Y-13378936D02*
X3410658Y-13388460D01*
X3410658Y-13388460D02*
X3391610Y-13397984D01*
X3391610Y-13397984D02*
X3372562Y-13397984D01*
X3372562Y-13397984D02*
X3353515Y-13388460D01*
X3353515Y-13388460D02*
X3343991Y-13378936D01*
X3343991Y-13378936D02*
X3334467Y-13359888D01*
X3334467Y-13359888D02*
X3324943Y-13321793D01*
X3324943Y-13321793D02*
X3324943Y-13274174D01*
X3324943Y-13274174D02*
X3334467Y-13236079D01*
X3334467Y-13236079D02*
X3343991Y-13217031D01*
X3343991Y-13217031D02*
X3353515Y-13207508D01*
X3353515Y-13207508D02*
X3372562Y-13197984D01*
X3563039Y-13197984D02*
X3582086Y-13197984D01*
X3582086Y-13197984D02*
X3601134Y-13207508D01*
X3601134Y-13207508D02*
X3610658Y-13217031D01*
X3610658Y-13217031D02*
X3620182Y-13236079D01*
X3620182Y-13236079D02*
X3629705Y-13274174D01*
X3629705Y-13274174D02*
X3629705Y-13321793D01*
X3629705Y-13321793D02*
X3620182Y-13359888D01*
X3620182Y-13359888D02*
X3610658Y-13378936D01*
X3610658Y-13378936D02*
X3601134Y-13388460D01*
X3601134Y-13388460D02*
X3582086Y-13397984D01*
X3582086Y-13397984D02*
X3563039Y-13397984D01*
X3563039Y-13397984D02*
X3543991Y-13388460D01*
X3543991Y-13388460D02*
X3534467Y-13378936D01*
X3534467Y-13378936D02*
X3524943Y-13359888D01*
X3524943Y-13359888D02*
X3515420Y-13321793D01*
X3515420Y-13321793D02*
X3515420Y-13274174D01*
X3515420Y-13274174D02*
X3524943Y-13236079D01*
X3524943Y-13236079D02*
X3534467Y-13217031D01*
X3534467Y-13217031D02*
X3543991Y-13207508D01*
X3543991Y-13207508D02*
X3563039Y-13197984D01*
X3715420Y-13397984D02*
X3715420Y-13264650D01*
X3715420Y-13283698D02*
X3724943Y-13274174D01*
X3724943Y-13274174D02*
X3743991Y-13264650D01*
X3743991Y-13264650D02*
X3772563Y-13264650D01*
X3772563Y-13264650D02*
X3791610Y-13274174D01*
X3791610Y-13274174D02*
X3801134Y-13293222D01*
X3801134Y-13293222D02*
X3801134Y-13397984D01*
X3801134Y-13293222D02*
X3810658Y-13274174D01*
X3810658Y-13274174D02*
X3829705Y-13264650D01*
X3829705Y-13264650D02*
X3858277Y-13264650D01*
X3858277Y-13264650D02*
X3877324Y-13274174D01*
X3877324Y-13274174D02*
X3886848Y-13293222D01*
X3886848Y-13293222D02*
X3886848Y-13397984D01*
X3982086Y-13397984D02*
X3982086Y-13264650D01*
X3982086Y-13283698D02*
X3991610Y-13274174D01*
X3991610Y-13274174D02*
X4010658Y-13264650D01*
X4010658Y-13264650D02*
X4039229Y-13264650D01*
X4039229Y-13264650D02*
X4058277Y-13274174D01*
X4058277Y-13274174D02*
X4067801Y-13293222D01*
X4067801Y-13293222D02*
X4067801Y-13397984D01*
X4067801Y-13293222D02*
X4077324Y-13274174D01*
X4077324Y-13274174D02*
X4096372Y-13264650D01*
X4096372Y-13264650D02*
X4124943Y-13264650D01*
X4124943Y-13264650D02*
X4143991Y-13274174D01*
X4143991Y-13274174D02*
X4153515Y-13293222D01*
X4153515Y-13293222D02*
X4153515Y-13397984D01*
X4543991Y-13188460D02*
X4372563Y-13445603D01*
X4801134Y-13197984D02*
X4820182Y-13197984D01*
X4820182Y-13197984D02*
X4839229Y-13207508D01*
X4839229Y-13207508D02*
X4848753Y-13217031D01*
X4848753Y-13217031D02*
X4858277Y-13236079D01*
X4858277Y-13236079D02*
X4867801Y-13274174D01*
X4867801Y-13274174D02*
X4867801Y-13321793D01*
X4867801Y-13321793D02*
X4858277Y-13359888D01*
X4858277Y-13359888D02*
X4848753Y-13378936D01*
X4848753Y-13378936D02*
X4839229Y-13388460D01*
X4839229Y-13388460D02*
X4820182Y-13397984D01*
X4820182Y-13397984D02*
X4801134Y-13397984D01*
X4801134Y-13397984D02*
X4782087Y-13388460D01*
X4782087Y-13388460D02*
X4772563Y-13378936D01*
X4772563Y-13378936D02*
X4763039Y-13359888D01*
X4763039Y-13359888D02*
X4753515Y-13321793D01*
X4753515Y-13321793D02*
X4753515Y-13274174D01*
X4753515Y-13274174D02*
X4763039Y-13236079D01*
X4763039Y-13236079D02*
X4772563Y-13217031D01*
X4772563Y-13217031D02*
X4782087Y-13207508D01*
X4782087Y-13207508D02*
X4801134Y-13197984D01*
X4953515Y-13378936D02*
X4963039Y-13388460D01*
X4963039Y-13388460D02*
X4953515Y-13397984D01*
X4953515Y-13397984D02*
X4943991Y-13388460D01*
X4943991Y-13388460D02*
X4953515Y-13378936D01*
X4953515Y-13378936D02*
X4953515Y-13397984D01*
X5086848Y-13197984D02*
X5105896Y-13197984D01*
X5105896Y-13197984D02*
X5124944Y-13207508D01*
X5124944Y-13207508D02*
X5134468Y-13217031D01*
X5134468Y-13217031D02*
X5143991Y-13236079D01*
X5143991Y-13236079D02*
X5153515Y-13274174D01*
X5153515Y-13274174D02*
X5153515Y-13321793D01*
X5153515Y-13321793D02*
X5143991Y-13359888D01*
X5143991Y-13359888D02*
X5134468Y-13378936D01*
X5134468Y-13378936D02*
X5124944Y-13388460D01*
X5124944Y-13388460D02*
X5105896Y-13397984D01*
X5105896Y-13397984D02*
X5086848Y-13397984D01*
X5086848Y-13397984D02*
X5067801Y-13388460D01*
X5067801Y-13388460D02*
X5058277Y-13378936D01*
X5058277Y-13378936D02*
X5048753Y-13359888D01*
X5048753Y-13359888D02*
X5039229Y-13321793D01*
X5039229Y-13321793D02*
X5039229Y-13274174D01*
X5039229Y-13274174D02*
X5048753Y-13236079D01*
X5048753Y-13236079D02*
X5058277Y-13217031D01*
X5058277Y-13217031D02*
X5067801Y-13207508D01*
X5067801Y-13207508D02*
X5086848Y-13197984D01*
X5220182Y-13197984D02*
X5343991Y-13197984D01*
X5343991Y-13197984D02*
X5277325Y-13274174D01*
X5277325Y-13274174D02*
X5305896Y-13274174D01*
X5305896Y-13274174D02*
X5324944Y-13283698D01*
X5324944Y-13283698D02*
X5334468Y-13293222D01*
X5334468Y-13293222D02*
X5343991Y-13312269D01*
X5343991Y-13312269D02*
X5343991Y-13359888D01*
X5343991Y-13359888D02*
X5334468Y-13378936D01*
X5334468Y-13378936D02*
X5324944Y-13388460D01*
X5324944Y-13388460D02*
X5305896Y-13397984D01*
X5305896Y-13397984D02*
X5248753Y-13397984D01*
X5248753Y-13397984D02*
X5229706Y-13388460D01*
X5229706Y-13388460D02*
X5220182Y-13378936D01*
X5534468Y-13397984D02*
X5420182Y-13397984D01*
X5477325Y-13397984D02*
X5477325Y-13197984D01*
X5477325Y-13197984D02*
X5458277Y-13226555D01*
X5458277Y-13226555D02*
X5439229Y-13245603D01*
X5439229Y-13245603D02*
X5420182Y-13255127D01*
X5715420Y-13197984D02*
X5620182Y-13197984D01*
X5620182Y-13197984D02*
X5610658Y-13293222D01*
X5610658Y-13293222D02*
X5620182Y-13283698D01*
X5620182Y-13283698D02*
X5639229Y-13274174D01*
X5639229Y-13274174D02*
X5686848Y-13274174D01*
X5686848Y-13274174D02*
X5705896Y-13283698D01*
X5705896Y-13283698D02*
X5715420Y-13293222D01*
X5715420Y-13293222D02*
X5724944Y-13312269D01*
X5724944Y-13312269D02*
X5724944Y-13359888D01*
X5724944Y-13359888D02*
X5715420Y-13378936D01*
X5715420Y-13378936D02*
X5705896Y-13388460D01*
X5705896Y-13388460D02*
X5686848Y-13397984D01*
X5686848Y-13397984D02*
X5639229Y-13397984D01*
X5639229Y-13397984D02*
X5620182Y-13388460D01*
X5620182Y-13388460D02*
X5610658Y-13378936D01*
X5801134Y-13197984D02*
X5801134Y-13236079D01*
X5877325Y-13197984D02*
X5877325Y-13236079D01*
X6172563Y-13474174D02*
X6163039Y-13464650D01*
X6163039Y-13464650D02*
X6143991Y-13436079D01*
X6143991Y-13436079D02*
X6134468Y-13417031D01*
X6134468Y-13417031D02*
X6124944Y-13388460D01*
X6124944Y-13388460D02*
X6115420Y-13340841D01*
X6115420Y-13340841D02*
X6115420Y-13302746D01*
X6115420Y-13302746D02*
X6124944Y-13255127D01*
X6124944Y-13255127D02*
X6134468Y-13226555D01*
X6134468Y-13226555D02*
X6143991Y-13207508D01*
X6143991Y-13207508D02*
X6163039Y-13178936D01*
X6163039Y-13178936D02*
X6172563Y-13169412D01*
X6353515Y-13397984D02*
X6239229Y-13397984D01*
X6296372Y-13397984D02*
X6296372Y-13197984D01*
X6296372Y-13197984D02*
X6277325Y-13226555D01*
X6277325Y-13226555D02*
X6258277Y-13245603D01*
X6258277Y-13245603D02*
X6239229Y-13255127D01*
X6467801Y-13283698D02*
X6448753Y-13274174D01*
X6448753Y-13274174D02*
X6439229Y-13264650D01*
X6439229Y-13264650D02*
X6429706Y-13245603D01*
X6429706Y-13245603D02*
X6429706Y-13236079D01*
X6429706Y-13236079D02*
X6439229Y-13217031D01*
X6439229Y-13217031D02*
X6448753Y-13207508D01*
X6448753Y-13207508D02*
X6467801Y-13197984D01*
X6467801Y-13197984D02*
X6505896Y-13197984D01*
X6505896Y-13197984D02*
X6524944Y-13207508D01*
X6524944Y-13207508D02*
X6534468Y-13217031D01*
X6534468Y-13217031D02*
X6543991Y-13236079D01*
X6543991Y-13236079D02*
X6543991Y-13245603D01*
X6543991Y-13245603D02*
X6534468Y-13264650D01*
X6534468Y-13264650D02*
X6524944Y-13274174D01*
X6524944Y-13274174D02*
X6505896Y-13283698D01*
X6505896Y-13283698D02*
X6467801Y-13283698D01*
X6467801Y-13283698D02*
X6448753Y-13293222D01*
X6448753Y-13293222D02*
X6439229Y-13302746D01*
X6439229Y-13302746D02*
X6429706Y-13321793D01*
X6429706Y-13321793D02*
X6429706Y-13359888D01*
X6429706Y-13359888D02*
X6439229Y-13378936D01*
X6439229Y-13378936D02*
X6448753Y-13388460D01*
X6448753Y-13388460D02*
X6467801Y-13397984D01*
X6467801Y-13397984D02*
X6505896Y-13397984D01*
X6505896Y-13397984D02*
X6524944Y-13388460D01*
X6524944Y-13388460D02*
X6534468Y-13378936D01*
X6534468Y-13378936D02*
X6543991Y-13359888D01*
X6543991Y-13359888D02*
X6543991Y-13321793D01*
X6543991Y-13321793D02*
X6534468Y-13302746D01*
X6534468Y-13302746D02*
X6524944Y-13293222D01*
X6524944Y-13293222D02*
X6505896Y-13283698D01*
X6782087Y-13397984D02*
X6782087Y-13197984D01*
X6867801Y-13397984D02*
X6867801Y-13293222D01*
X6867801Y-13293222D02*
X6858277Y-13274174D01*
X6858277Y-13274174D02*
X6839230Y-13264650D01*
X6839230Y-13264650D02*
X6810658Y-13264650D01*
X6810658Y-13264650D02*
X6791610Y-13274174D01*
X6791610Y-13274174D02*
X6782087Y-13283698D01*
X6991610Y-13397984D02*
X6972563Y-13388460D01*
X6972563Y-13388460D02*
X6963039Y-13378936D01*
X6963039Y-13378936D02*
X6953515Y-13359888D01*
X6953515Y-13359888D02*
X6953515Y-13302746D01*
X6953515Y-13302746D02*
X6963039Y-13283698D01*
X6963039Y-13283698D02*
X6972563Y-13274174D01*
X6972563Y-13274174D02*
X6991610Y-13264650D01*
X6991610Y-13264650D02*
X7020182Y-13264650D01*
X7020182Y-13264650D02*
X7039230Y-13274174D01*
X7039230Y-13274174D02*
X7048753Y-13283698D01*
X7048753Y-13283698D02*
X7058277Y-13302746D01*
X7058277Y-13302746D02*
X7058277Y-13359888D01*
X7058277Y-13359888D02*
X7048753Y-13378936D01*
X7048753Y-13378936D02*
X7039230Y-13388460D01*
X7039230Y-13388460D02*
X7020182Y-13397984D01*
X7020182Y-13397984D02*
X6991610Y-13397984D01*
X7172563Y-13397984D02*
X7153515Y-13388460D01*
X7153515Y-13388460D02*
X7143991Y-13369412D01*
X7143991Y-13369412D02*
X7143991Y-13197984D01*
X7324944Y-13388460D02*
X7305896Y-13397984D01*
X7305896Y-13397984D02*
X7267801Y-13397984D01*
X7267801Y-13397984D02*
X7248753Y-13388460D01*
X7248753Y-13388460D02*
X7239230Y-13369412D01*
X7239230Y-13369412D02*
X7239230Y-13293222D01*
X7239230Y-13293222D02*
X7248753Y-13274174D01*
X7248753Y-13274174D02*
X7267801Y-13264650D01*
X7267801Y-13264650D02*
X7305896Y-13264650D01*
X7305896Y-13264650D02*
X7324944Y-13274174D01*
X7324944Y-13274174D02*
X7334468Y-13293222D01*
X7334468Y-13293222D02*
X7334468Y-13312269D01*
X7334468Y-13312269D02*
X7239230Y-13331317D01*
X7410658Y-13388460D02*
X7429706Y-13397984D01*
X7429706Y-13397984D02*
X7467801Y-13397984D01*
X7467801Y-13397984D02*
X7486849Y-13388460D01*
X7486849Y-13388460D02*
X7496372Y-13369412D01*
X7496372Y-13369412D02*
X7496372Y-13359888D01*
X7496372Y-13359888D02*
X7486849Y-13340841D01*
X7486849Y-13340841D02*
X7467801Y-13331317D01*
X7467801Y-13331317D02*
X7439230Y-13331317D01*
X7439230Y-13331317D02*
X7420182Y-13321793D01*
X7420182Y-13321793D02*
X7410658Y-13302746D01*
X7410658Y-13302746D02*
X7410658Y-13293222D01*
X7410658Y-13293222D02*
X7420182Y-13274174D01*
X7420182Y-13274174D02*
X7439230Y-13264650D01*
X7439230Y-13264650D02*
X7467801Y-13264650D01*
X7467801Y-13264650D02*
X7486849Y-13274174D01*
X7563039Y-13474174D02*
X7572563Y-13464650D01*
X7572563Y-13464650D02*
X7591611Y-13436079D01*
X7591611Y-13436079D02*
X7601134Y-13417031D01*
X7601134Y-13417031D02*
X7610658Y-13388460D01*
X7610658Y-13388460D02*
X7620182Y-13340841D01*
X7620182Y-13340841D02*
X7620182Y-13302746D01*
X7620182Y-13302746D02*
X7610658Y-13255127D01*
X7610658Y-13255127D02*
X7601134Y-13226555D01*
X7601134Y-13226555D02*
X7591611Y-13207508D01*
X7591611Y-13207508D02*
X7572563Y-13178936D01*
X7572563Y-13178936D02*
X7563039Y-13169412D01*
D11*
X2553050Y-13526050D02*
X2553050Y-13614950D01*
X2508600Y-13570500D02*
X2597500Y-13570500D01*
D12*
X2896372Y-13461984D02*
X2915420Y-13461984D01*
X2915420Y-13461984D02*
X2934467Y-13471508D01*
X2934467Y-13471508D02*
X2943991Y-13481031D01*
X2943991Y-13481031D02*
X2953515Y-13500079D01*
X2953515Y-13500079D02*
X2963039Y-13538174D01*
X2963039Y-13538174D02*
X2963039Y-13585793D01*
X2963039Y-13585793D02*
X2953515Y-13623888D01*
X2953515Y-13623888D02*
X2943991Y-13642936D01*
X2943991Y-13642936D02*
X2934467Y-13652460D01*
X2934467Y-13652460D02*
X2915420Y-13661984D01*
X2915420Y-13661984D02*
X2896372Y-13661984D01*
X2896372Y-13661984D02*
X2877324Y-13652460D01*
X2877324Y-13652460D02*
X2867801Y-13642936D01*
X2867801Y-13642936D02*
X2858277Y-13623888D01*
X2858277Y-13623888D02*
X2848753Y-13585793D01*
X2848753Y-13585793D02*
X2848753Y-13538174D01*
X2848753Y-13538174D02*
X2858277Y-13500079D01*
X2858277Y-13500079D02*
X2867801Y-13481031D01*
X2867801Y-13481031D02*
X2877324Y-13471508D01*
X2877324Y-13471508D02*
X2896372Y-13461984D01*
X3048753Y-13642936D02*
X3058277Y-13652460D01*
X3058277Y-13652460D02*
X3048753Y-13661984D01*
X3048753Y-13661984D02*
X3039229Y-13652460D01*
X3039229Y-13652460D02*
X3048753Y-13642936D01*
X3048753Y-13642936D02*
X3048753Y-13661984D01*
X3172562Y-13547698D02*
X3153515Y-13538174D01*
X3153515Y-13538174D02*
X3143991Y-13528650D01*
X3143991Y-13528650D02*
X3134467Y-13509603D01*
X3134467Y-13509603D02*
X3134467Y-13500079D01*
X3134467Y-13500079D02*
X3143991Y-13481031D01*
X3143991Y-13481031D02*
X3153515Y-13471508D01*
X3153515Y-13471508D02*
X3172562Y-13461984D01*
X3172562Y-13461984D02*
X3210658Y-13461984D01*
X3210658Y-13461984D02*
X3229705Y-13471508D01*
X3229705Y-13471508D02*
X3239229Y-13481031D01*
X3239229Y-13481031D02*
X3248753Y-13500079D01*
X3248753Y-13500079D02*
X3248753Y-13509603D01*
X3248753Y-13509603D02*
X3239229Y-13528650D01*
X3239229Y-13528650D02*
X3229705Y-13538174D01*
X3229705Y-13538174D02*
X3210658Y-13547698D01*
X3210658Y-13547698D02*
X3172562Y-13547698D01*
X3172562Y-13547698D02*
X3153515Y-13557222D01*
X3153515Y-13557222D02*
X3143991Y-13566746D01*
X3143991Y-13566746D02*
X3134467Y-13585793D01*
X3134467Y-13585793D02*
X3134467Y-13623888D01*
X3134467Y-13623888D02*
X3143991Y-13642936D01*
X3143991Y-13642936D02*
X3153515Y-13652460D01*
X3153515Y-13652460D02*
X3172562Y-13661984D01*
X3172562Y-13661984D02*
X3210658Y-13661984D01*
X3210658Y-13661984D02*
X3229705Y-13652460D01*
X3229705Y-13652460D02*
X3239229Y-13642936D01*
X3239229Y-13642936D02*
X3248753Y-13623888D01*
X3248753Y-13623888D02*
X3248753Y-13585793D01*
X3248753Y-13585793D02*
X3239229Y-13566746D01*
X3239229Y-13566746D02*
X3229705Y-13557222D01*
X3229705Y-13557222D02*
X3210658Y-13547698D01*
X3363039Y-13547698D02*
X3343991Y-13538174D01*
X3343991Y-13538174D02*
X3334467Y-13528650D01*
X3334467Y-13528650D02*
X3324943Y-13509603D01*
X3324943Y-13509603D02*
X3324943Y-13500079D01*
X3324943Y-13500079D02*
X3334467Y-13481031D01*
X3334467Y-13481031D02*
X3343991Y-13471508D01*
X3343991Y-13471508D02*
X3363039Y-13461984D01*
X3363039Y-13461984D02*
X3401134Y-13461984D01*
X3401134Y-13461984D02*
X3420182Y-13471508D01*
X3420182Y-13471508D02*
X3429705Y-13481031D01*
X3429705Y-13481031D02*
X3439229Y-13500079D01*
X3439229Y-13500079D02*
X3439229Y-13509603D01*
X3439229Y-13509603D02*
X3429705Y-13528650D01*
X3429705Y-13528650D02*
X3420182Y-13538174D01*
X3420182Y-13538174D02*
X3401134Y-13547698D01*
X3401134Y-13547698D02*
X3363039Y-13547698D01*
X3363039Y-13547698D02*
X3343991Y-13557222D01*
X3343991Y-13557222D02*
X3334467Y-13566746D01*
X3334467Y-13566746D02*
X3324943Y-13585793D01*
X3324943Y-13585793D02*
X3324943Y-13623888D01*
X3324943Y-13623888D02*
X3334467Y-13642936D01*
X3334467Y-13642936D02*
X3343991Y-13652460D01*
X3343991Y-13652460D02*
X3363039Y-13661984D01*
X3363039Y-13661984D02*
X3401134Y-13661984D01*
X3401134Y-13661984D02*
X3420182Y-13652460D01*
X3420182Y-13652460D02*
X3429705Y-13642936D01*
X3429705Y-13642936D02*
X3439229Y-13623888D01*
X3439229Y-13623888D02*
X3439229Y-13585793D01*
X3439229Y-13585793D02*
X3429705Y-13566746D01*
X3429705Y-13566746D02*
X3420182Y-13557222D01*
X3420182Y-13557222D02*
X3401134Y-13547698D01*
X3534467Y-13661984D02*
X3572562Y-13661984D01*
X3572562Y-13661984D02*
X3591610Y-13652460D01*
X3591610Y-13652460D02*
X3601134Y-13642936D01*
X3601134Y-13642936D02*
X3620182Y-13614365D01*
X3620182Y-13614365D02*
X3629705Y-13576269D01*
X3629705Y-13576269D02*
X3629705Y-13500079D01*
X3629705Y-13500079D02*
X3620182Y-13481031D01*
X3620182Y-13481031D02*
X3610658Y-13471508D01*
X3610658Y-13471508D02*
X3591610Y-13461984D01*
X3591610Y-13461984D02*
X3553515Y-13461984D01*
X3553515Y-13461984D02*
X3534467Y-13471508D01*
X3534467Y-13471508D02*
X3524943Y-13481031D01*
X3524943Y-13481031D02*
X3515420Y-13500079D01*
X3515420Y-13500079D02*
X3515420Y-13547698D01*
X3515420Y-13547698D02*
X3524943Y-13566746D01*
X3524943Y-13566746D02*
X3534467Y-13576269D01*
X3534467Y-13576269D02*
X3553515Y-13585793D01*
X3553515Y-13585793D02*
X3591610Y-13585793D01*
X3591610Y-13585793D02*
X3610658Y-13576269D01*
X3610658Y-13576269D02*
X3620182Y-13566746D01*
X3620182Y-13566746D02*
X3629705Y-13547698D01*
X3715420Y-13661984D02*
X3715420Y-13528650D01*
X3715420Y-13547698D02*
X3724943Y-13538174D01*
X3724943Y-13538174D02*
X3743991Y-13528650D01*
X3743991Y-13528650D02*
X3772563Y-13528650D01*
X3772563Y-13528650D02*
X3791610Y-13538174D01*
X3791610Y-13538174D02*
X3801134Y-13557222D01*
X3801134Y-13557222D02*
X3801134Y-13661984D01*
X3801134Y-13557222D02*
X3810658Y-13538174D01*
X3810658Y-13538174D02*
X3829705Y-13528650D01*
X3829705Y-13528650D02*
X3858277Y-13528650D01*
X3858277Y-13528650D02*
X3877324Y-13538174D01*
X3877324Y-13538174D02*
X3886848Y-13557222D01*
X3886848Y-13557222D02*
X3886848Y-13661984D01*
X3982086Y-13661984D02*
X3982086Y-13528650D01*
X3982086Y-13547698D02*
X3991610Y-13538174D01*
X3991610Y-13538174D02*
X4010658Y-13528650D01*
X4010658Y-13528650D02*
X4039229Y-13528650D01*
X4039229Y-13528650D02*
X4058277Y-13538174D01*
X4058277Y-13538174D02*
X4067801Y-13557222D01*
X4067801Y-13557222D02*
X4067801Y-13661984D01*
X4067801Y-13557222D02*
X4077324Y-13538174D01*
X4077324Y-13538174D02*
X4096372Y-13528650D01*
X4096372Y-13528650D02*
X4124943Y-13528650D01*
X4124943Y-13528650D02*
X4143991Y-13538174D01*
X4143991Y-13538174D02*
X4153515Y-13557222D01*
X4153515Y-13557222D02*
X4153515Y-13661984D01*
X4543991Y-13452460D02*
X4372563Y-13709603D01*
X4801134Y-13461984D02*
X4820182Y-13461984D01*
X4820182Y-13461984D02*
X4839229Y-13471508D01*
X4839229Y-13471508D02*
X4848753Y-13481031D01*
X4848753Y-13481031D02*
X4858277Y-13500079D01*
X4858277Y-13500079D02*
X4867801Y-13538174D01*
X4867801Y-13538174D02*
X4867801Y-13585793D01*
X4867801Y-13585793D02*
X4858277Y-13623888D01*
X4858277Y-13623888D02*
X4848753Y-13642936D01*
X4848753Y-13642936D02*
X4839229Y-13652460D01*
X4839229Y-13652460D02*
X4820182Y-13661984D01*
X4820182Y-13661984D02*
X4801134Y-13661984D01*
X4801134Y-13661984D02*
X4782087Y-13652460D01*
X4782087Y-13652460D02*
X4772563Y-13642936D01*
X4772563Y-13642936D02*
X4763039Y-13623888D01*
X4763039Y-13623888D02*
X4753515Y-13585793D01*
X4753515Y-13585793D02*
X4753515Y-13538174D01*
X4753515Y-13538174D02*
X4763039Y-13500079D01*
X4763039Y-13500079D02*
X4772563Y-13481031D01*
X4772563Y-13481031D02*
X4782087Y-13471508D01*
X4782087Y-13471508D02*
X4801134Y-13461984D01*
X4953515Y-13642936D02*
X4963039Y-13652460D01*
X4963039Y-13652460D02*
X4953515Y-13661984D01*
X4953515Y-13661984D02*
X4943991Y-13652460D01*
X4943991Y-13652460D02*
X4953515Y-13642936D01*
X4953515Y-13642936D02*
X4953515Y-13661984D01*
X5086848Y-13461984D02*
X5105896Y-13461984D01*
X5105896Y-13461984D02*
X5124944Y-13471508D01*
X5124944Y-13471508D02*
X5134468Y-13481031D01*
X5134468Y-13481031D02*
X5143991Y-13500079D01*
X5143991Y-13500079D02*
X5153515Y-13538174D01*
X5153515Y-13538174D02*
X5153515Y-13585793D01*
X5153515Y-13585793D02*
X5143991Y-13623888D01*
X5143991Y-13623888D02*
X5134468Y-13642936D01*
X5134468Y-13642936D02*
X5124944Y-13652460D01*
X5124944Y-13652460D02*
X5105896Y-13661984D01*
X5105896Y-13661984D02*
X5086848Y-13661984D01*
X5086848Y-13661984D02*
X5067801Y-13652460D01*
X5067801Y-13652460D02*
X5058277Y-13642936D01*
X5058277Y-13642936D02*
X5048753Y-13623888D01*
X5048753Y-13623888D02*
X5039229Y-13585793D01*
X5039229Y-13585793D02*
X5039229Y-13538174D01*
X5039229Y-13538174D02*
X5048753Y-13500079D01*
X5048753Y-13500079D02*
X5058277Y-13481031D01*
X5058277Y-13481031D02*
X5067801Y-13471508D01*
X5067801Y-13471508D02*
X5086848Y-13461984D01*
X5220182Y-13461984D02*
X5343991Y-13461984D01*
X5343991Y-13461984D02*
X5277325Y-13538174D01*
X5277325Y-13538174D02*
X5305896Y-13538174D01*
X5305896Y-13538174D02*
X5324944Y-13547698D01*
X5324944Y-13547698D02*
X5334468Y-13557222D01*
X5334468Y-13557222D02*
X5343991Y-13576269D01*
X5343991Y-13576269D02*
X5343991Y-13623888D01*
X5343991Y-13623888D02*
X5334468Y-13642936D01*
X5334468Y-13642936D02*
X5324944Y-13652460D01*
X5324944Y-13652460D02*
X5305896Y-13661984D01*
X5305896Y-13661984D02*
X5248753Y-13661984D01*
X5248753Y-13661984D02*
X5229706Y-13652460D01*
X5229706Y-13652460D02*
X5220182Y-13642936D01*
X5524944Y-13461984D02*
X5429706Y-13461984D01*
X5429706Y-13461984D02*
X5420182Y-13557222D01*
X5420182Y-13557222D02*
X5429706Y-13547698D01*
X5429706Y-13547698D02*
X5448753Y-13538174D01*
X5448753Y-13538174D02*
X5496372Y-13538174D01*
X5496372Y-13538174D02*
X5515420Y-13547698D01*
X5515420Y-13547698D02*
X5524944Y-13557222D01*
X5524944Y-13557222D02*
X5534468Y-13576269D01*
X5534468Y-13576269D02*
X5534468Y-13623888D01*
X5534468Y-13623888D02*
X5524944Y-13642936D01*
X5524944Y-13642936D02*
X5515420Y-13652460D01*
X5515420Y-13652460D02*
X5496372Y-13661984D01*
X5496372Y-13661984D02*
X5448753Y-13661984D01*
X5448753Y-13661984D02*
X5429706Y-13652460D01*
X5429706Y-13652460D02*
X5420182Y-13642936D01*
X5658277Y-13461984D02*
X5677325Y-13461984D01*
X5677325Y-13461984D02*
X5696372Y-13471508D01*
X5696372Y-13471508D02*
X5705896Y-13481031D01*
X5705896Y-13481031D02*
X5715420Y-13500079D01*
X5715420Y-13500079D02*
X5724944Y-13538174D01*
X5724944Y-13538174D02*
X5724944Y-13585793D01*
X5724944Y-13585793D02*
X5715420Y-13623888D01*
X5715420Y-13623888D02*
X5705896Y-13642936D01*
X5705896Y-13642936D02*
X5696372Y-13652460D01*
X5696372Y-13652460D02*
X5677325Y-13661984D01*
X5677325Y-13661984D02*
X5658277Y-13661984D01*
X5658277Y-13661984D02*
X5639229Y-13652460D01*
X5639229Y-13652460D02*
X5629706Y-13642936D01*
X5629706Y-13642936D02*
X5620182Y-13623888D01*
X5620182Y-13623888D02*
X5610658Y-13585793D01*
X5610658Y-13585793D02*
X5610658Y-13538174D01*
X5610658Y-13538174D02*
X5620182Y-13500079D01*
X5620182Y-13500079D02*
X5629706Y-13481031D01*
X5629706Y-13481031D02*
X5639229Y-13471508D01*
X5639229Y-13471508D02*
X5658277Y-13461984D01*
X5801134Y-13461984D02*
X5801134Y-13500079D01*
X5877325Y-13461984D02*
X5877325Y-13500079D01*
X6172563Y-13738174D02*
X6163039Y-13728650D01*
X6163039Y-13728650D02*
X6143991Y-13700079D01*
X6143991Y-13700079D02*
X6134468Y-13681031D01*
X6134468Y-13681031D02*
X6124944Y-13652460D01*
X6124944Y-13652460D02*
X6115420Y-13604841D01*
X6115420Y-13604841D02*
X6115420Y-13566746D01*
X6115420Y-13566746D02*
X6124944Y-13519127D01*
X6124944Y-13519127D02*
X6134468Y-13490555D01*
X6134468Y-13490555D02*
X6143991Y-13471508D01*
X6143991Y-13471508D02*
X6163039Y-13442936D01*
X6163039Y-13442936D02*
X6172563Y-13433412D01*
X6353515Y-13661984D02*
X6239229Y-13661984D01*
X6296372Y-13661984D02*
X6296372Y-13461984D01*
X6296372Y-13461984D02*
X6277325Y-13490555D01*
X6277325Y-13490555D02*
X6258277Y-13509603D01*
X6258277Y-13509603D02*
X6239229Y-13519127D01*
X6524944Y-13528650D02*
X6524944Y-13661984D01*
X6477325Y-13452460D02*
X6429706Y-13595317D01*
X6429706Y-13595317D02*
X6553515Y-13595317D01*
X6782087Y-13661984D02*
X6782087Y-13461984D01*
X6867801Y-13661984D02*
X6867801Y-13557222D01*
X6867801Y-13557222D02*
X6858277Y-13538174D01*
X6858277Y-13538174D02*
X6839230Y-13528650D01*
X6839230Y-13528650D02*
X6810658Y-13528650D01*
X6810658Y-13528650D02*
X6791610Y-13538174D01*
X6791610Y-13538174D02*
X6782087Y-13547698D01*
X6991610Y-13661984D02*
X6972563Y-13652460D01*
X6972563Y-13652460D02*
X6963039Y-13642936D01*
X6963039Y-13642936D02*
X6953515Y-13623888D01*
X6953515Y-13623888D02*
X6953515Y-13566746D01*
X6953515Y-13566746D02*
X6963039Y-13547698D01*
X6963039Y-13547698D02*
X6972563Y-13538174D01*
X6972563Y-13538174D02*
X6991610Y-13528650D01*
X6991610Y-13528650D02*
X7020182Y-13528650D01*
X7020182Y-13528650D02*
X7039230Y-13538174D01*
X7039230Y-13538174D02*
X7048753Y-13547698D01*
X7048753Y-13547698D02*
X7058277Y-13566746D01*
X7058277Y-13566746D02*
X7058277Y-13623888D01*
X7058277Y-13623888D02*
X7048753Y-13642936D01*
X7048753Y-13642936D02*
X7039230Y-13652460D01*
X7039230Y-13652460D02*
X7020182Y-13661984D01*
X7020182Y-13661984D02*
X6991610Y-13661984D01*
X7172563Y-13661984D02*
X7153515Y-13652460D01*
X7153515Y-13652460D02*
X7143991Y-13633412D01*
X7143991Y-13633412D02*
X7143991Y-13461984D01*
X7324944Y-13652460D02*
X7305896Y-13661984D01*
X7305896Y-13661984D02*
X7267801Y-13661984D01*
X7267801Y-13661984D02*
X7248753Y-13652460D01*
X7248753Y-13652460D02*
X7239230Y-13633412D01*
X7239230Y-13633412D02*
X7239230Y-13557222D01*
X7239230Y-13557222D02*
X7248753Y-13538174D01*
X7248753Y-13538174D02*
X7267801Y-13528650D01*
X7267801Y-13528650D02*
X7305896Y-13528650D01*
X7305896Y-13528650D02*
X7324944Y-13538174D01*
X7324944Y-13538174D02*
X7334468Y-13557222D01*
X7334468Y-13557222D02*
X7334468Y-13576269D01*
X7334468Y-13576269D02*
X7239230Y-13595317D01*
X7410658Y-13652460D02*
X7429706Y-13661984D01*
X7429706Y-13661984D02*
X7467801Y-13661984D01*
X7467801Y-13661984D02*
X7486849Y-13652460D01*
X7486849Y-13652460D02*
X7496372Y-13633412D01*
X7496372Y-13633412D02*
X7496372Y-13623888D01*
X7496372Y-13623888D02*
X7486849Y-13604841D01*
X7486849Y-13604841D02*
X7467801Y-13595317D01*
X7467801Y-13595317D02*
X7439230Y-13595317D01*
X7439230Y-13595317D02*
X7420182Y-13585793D01*
X7420182Y-13585793D02*
X7410658Y-13566746D01*
X7410658Y-13566746D02*
X7410658Y-13557222D01*
X7410658Y-13557222D02*
X7420182Y-13538174D01*
X7420182Y-13538174D02*
X7439230Y-13528650D01*
X7439230Y-13528650D02*
X7467801Y-13528650D01*
X7467801Y-13528650D02*
X7486849Y-13538174D01*
X7563039Y-13738174D02*
X7572563Y-13728650D01*
X7572563Y-13728650D02*
X7591611Y-13700079D01*
X7591611Y-13700079D02*
X7601134Y-13681031D01*
X7601134Y-13681031D02*
X7610658Y-13652460D01*
X7610658Y-13652460D02*
X7620182Y-13604841D01*
X7620182Y-13604841D02*
X7620182Y-13566746D01*
X7620182Y-13566746D02*
X7610658Y-13519127D01*
X7610658Y-13519127D02*
X7601134Y-13490555D01*
X7601134Y-13490555D02*
X7591611Y-13471508D01*
X7591611Y-13471508D02*
X7572563Y-13442936D01*
X7572563Y-13442936D02*
X7563039Y-13433412D01*
D11*
X2582856Y-13869856D02*
X2582856Y-13799144D01*
X2512144Y-13799144D01*
X2512144Y-13869856D01*
X2582856Y-13869856D01*
D12*
X2963039Y-13925984D02*
X2848753Y-13925984D01*
X2905896Y-13925984D02*
X2905896Y-13725984D01*
X2905896Y-13725984D02*
X2886848Y-13754555D01*
X2886848Y-13754555D02*
X2867801Y-13773603D01*
X2867801Y-13773603D02*
X2848753Y-13783127D01*
X3048753Y-13906936D02*
X3058277Y-13916460D01*
X3058277Y-13916460D02*
X3048753Y-13925984D01*
X3048753Y-13925984D02*
X3039229Y-13916460D01*
X3039229Y-13916460D02*
X3048753Y-13906936D01*
X3048753Y-13906936D02*
X3048753Y-13925984D01*
X3182086Y-13725984D02*
X3201134Y-13725984D01*
X3201134Y-13725984D02*
X3220182Y-13735508D01*
X3220182Y-13735508D02*
X3229705Y-13745031D01*
X3229705Y-13745031D02*
X3239229Y-13764079D01*
X3239229Y-13764079D02*
X3248753Y-13802174D01*
X3248753Y-13802174D02*
X3248753Y-13849793D01*
X3248753Y-13849793D02*
X3239229Y-13887888D01*
X3239229Y-13887888D02*
X3229705Y-13906936D01*
X3229705Y-13906936D02*
X3220182Y-13916460D01*
X3220182Y-13916460D02*
X3201134Y-13925984D01*
X3201134Y-13925984D02*
X3182086Y-13925984D01*
X3182086Y-13925984D02*
X3163039Y-13916460D01*
X3163039Y-13916460D02*
X3153515Y-13906936D01*
X3153515Y-13906936D02*
X3143991Y-13887888D01*
X3143991Y-13887888D02*
X3134467Y-13849793D01*
X3134467Y-13849793D02*
X3134467Y-13802174D01*
X3134467Y-13802174D02*
X3143991Y-13764079D01*
X3143991Y-13764079D02*
X3153515Y-13745031D01*
X3153515Y-13745031D02*
X3163039Y-13735508D01*
X3163039Y-13735508D02*
X3182086Y-13725984D01*
X3372562Y-13725984D02*
X3391610Y-13725984D01*
X3391610Y-13725984D02*
X3410658Y-13735508D01*
X3410658Y-13735508D02*
X3420182Y-13745031D01*
X3420182Y-13745031D02*
X3429705Y-13764079D01*
X3429705Y-13764079D02*
X3439229Y-13802174D01*
X3439229Y-13802174D02*
X3439229Y-13849793D01*
X3439229Y-13849793D02*
X3429705Y-13887888D01*
X3429705Y-13887888D02*
X3420182Y-13906936D01*
X3420182Y-13906936D02*
X3410658Y-13916460D01*
X3410658Y-13916460D02*
X3391610Y-13925984D01*
X3391610Y-13925984D02*
X3372562Y-13925984D01*
X3372562Y-13925984D02*
X3353515Y-13916460D01*
X3353515Y-13916460D02*
X3343991Y-13906936D01*
X3343991Y-13906936D02*
X3334467Y-13887888D01*
X3334467Y-13887888D02*
X3324943Y-13849793D01*
X3324943Y-13849793D02*
X3324943Y-13802174D01*
X3324943Y-13802174D02*
X3334467Y-13764079D01*
X3334467Y-13764079D02*
X3343991Y-13745031D01*
X3343991Y-13745031D02*
X3353515Y-13735508D01*
X3353515Y-13735508D02*
X3372562Y-13725984D01*
X3563039Y-13725984D02*
X3582086Y-13725984D01*
X3582086Y-13725984D02*
X3601134Y-13735508D01*
X3601134Y-13735508D02*
X3610658Y-13745031D01*
X3610658Y-13745031D02*
X3620182Y-13764079D01*
X3620182Y-13764079D02*
X3629705Y-13802174D01*
X3629705Y-13802174D02*
X3629705Y-13849793D01*
X3629705Y-13849793D02*
X3620182Y-13887888D01*
X3620182Y-13887888D02*
X3610658Y-13906936D01*
X3610658Y-13906936D02*
X3601134Y-13916460D01*
X3601134Y-13916460D02*
X3582086Y-13925984D01*
X3582086Y-13925984D02*
X3563039Y-13925984D01*
X3563039Y-13925984D02*
X3543991Y-13916460D01*
X3543991Y-13916460D02*
X3534467Y-13906936D01*
X3534467Y-13906936D02*
X3524943Y-13887888D01*
X3524943Y-13887888D02*
X3515420Y-13849793D01*
X3515420Y-13849793D02*
X3515420Y-13802174D01*
X3515420Y-13802174D02*
X3524943Y-13764079D01*
X3524943Y-13764079D02*
X3534467Y-13745031D01*
X3534467Y-13745031D02*
X3543991Y-13735508D01*
X3543991Y-13735508D02*
X3563039Y-13725984D01*
X3715420Y-13925984D02*
X3715420Y-13792650D01*
X3715420Y-13811698D02*
X3724943Y-13802174D01*
X3724943Y-13802174D02*
X3743991Y-13792650D01*
X3743991Y-13792650D02*
X3772563Y-13792650D01*
X3772563Y-13792650D02*
X3791610Y-13802174D01*
X3791610Y-13802174D02*
X3801134Y-13821222D01*
X3801134Y-13821222D02*
X3801134Y-13925984D01*
X3801134Y-13821222D02*
X3810658Y-13802174D01*
X3810658Y-13802174D02*
X3829705Y-13792650D01*
X3829705Y-13792650D02*
X3858277Y-13792650D01*
X3858277Y-13792650D02*
X3877324Y-13802174D01*
X3877324Y-13802174D02*
X3886848Y-13821222D01*
X3886848Y-13821222D02*
X3886848Y-13925984D01*
X3982086Y-13925984D02*
X3982086Y-13792650D01*
X3982086Y-13811698D02*
X3991610Y-13802174D01*
X3991610Y-13802174D02*
X4010658Y-13792650D01*
X4010658Y-13792650D02*
X4039229Y-13792650D01*
X4039229Y-13792650D02*
X4058277Y-13802174D01*
X4058277Y-13802174D02*
X4067801Y-13821222D01*
X4067801Y-13821222D02*
X4067801Y-13925984D01*
X4067801Y-13821222D02*
X4077324Y-13802174D01*
X4077324Y-13802174D02*
X4096372Y-13792650D01*
X4096372Y-13792650D02*
X4124943Y-13792650D01*
X4124943Y-13792650D02*
X4143991Y-13802174D01*
X4143991Y-13802174D02*
X4153515Y-13821222D01*
X4153515Y-13821222D02*
X4153515Y-13925984D01*
X4543991Y-13716460D02*
X4372563Y-13973603D01*
X4801134Y-13725984D02*
X4820182Y-13725984D01*
X4820182Y-13725984D02*
X4839229Y-13735508D01*
X4839229Y-13735508D02*
X4848753Y-13745031D01*
X4848753Y-13745031D02*
X4858277Y-13764079D01*
X4858277Y-13764079D02*
X4867801Y-13802174D01*
X4867801Y-13802174D02*
X4867801Y-13849793D01*
X4867801Y-13849793D02*
X4858277Y-13887888D01*
X4858277Y-13887888D02*
X4848753Y-13906936D01*
X4848753Y-13906936D02*
X4839229Y-13916460D01*
X4839229Y-13916460D02*
X4820182Y-13925984D01*
X4820182Y-13925984D02*
X4801134Y-13925984D01*
X4801134Y-13925984D02*
X4782087Y-13916460D01*
X4782087Y-13916460D02*
X4772563Y-13906936D01*
X4772563Y-13906936D02*
X4763039Y-13887888D01*
X4763039Y-13887888D02*
X4753515Y-13849793D01*
X4753515Y-13849793D02*
X4753515Y-13802174D01*
X4753515Y-13802174D02*
X4763039Y-13764079D01*
X4763039Y-13764079D02*
X4772563Y-13745031D01*
X4772563Y-13745031D02*
X4782087Y-13735508D01*
X4782087Y-13735508D02*
X4801134Y-13725984D01*
X4953515Y-13906936D02*
X4963039Y-13916460D01*
X4963039Y-13916460D02*
X4953515Y-13925984D01*
X4953515Y-13925984D02*
X4943991Y-13916460D01*
X4943991Y-13916460D02*
X4953515Y-13906936D01*
X4953515Y-13906936D02*
X4953515Y-13925984D01*
X5086848Y-13725984D02*
X5105896Y-13725984D01*
X5105896Y-13725984D02*
X5124944Y-13735508D01*
X5124944Y-13735508D02*
X5134468Y-13745031D01*
X5134468Y-13745031D02*
X5143991Y-13764079D01*
X5143991Y-13764079D02*
X5153515Y-13802174D01*
X5153515Y-13802174D02*
X5153515Y-13849793D01*
X5153515Y-13849793D02*
X5143991Y-13887888D01*
X5143991Y-13887888D02*
X5134468Y-13906936D01*
X5134468Y-13906936D02*
X5124944Y-13916460D01*
X5124944Y-13916460D02*
X5105896Y-13925984D01*
X5105896Y-13925984D02*
X5086848Y-13925984D01*
X5086848Y-13925984D02*
X5067801Y-13916460D01*
X5067801Y-13916460D02*
X5058277Y-13906936D01*
X5058277Y-13906936D02*
X5048753Y-13887888D01*
X5048753Y-13887888D02*
X5039229Y-13849793D01*
X5039229Y-13849793D02*
X5039229Y-13802174D01*
X5039229Y-13802174D02*
X5048753Y-13764079D01*
X5048753Y-13764079D02*
X5058277Y-13745031D01*
X5058277Y-13745031D02*
X5067801Y-13735508D01*
X5067801Y-13735508D02*
X5086848Y-13725984D01*
X5220182Y-13725984D02*
X5343991Y-13725984D01*
X5343991Y-13725984D02*
X5277325Y-13802174D01*
X5277325Y-13802174D02*
X5305896Y-13802174D01*
X5305896Y-13802174D02*
X5324944Y-13811698D01*
X5324944Y-13811698D02*
X5334468Y-13821222D01*
X5334468Y-13821222D02*
X5343991Y-13840269D01*
X5343991Y-13840269D02*
X5343991Y-13887888D01*
X5343991Y-13887888D02*
X5334468Y-13906936D01*
X5334468Y-13906936D02*
X5324944Y-13916460D01*
X5324944Y-13916460D02*
X5305896Y-13925984D01*
X5305896Y-13925984D02*
X5248753Y-13925984D01*
X5248753Y-13925984D02*
X5229706Y-13916460D01*
X5229706Y-13916460D02*
X5220182Y-13906936D01*
X5439229Y-13925984D02*
X5477325Y-13925984D01*
X5477325Y-13925984D02*
X5496372Y-13916460D01*
X5496372Y-13916460D02*
X5505896Y-13906936D01*
X5505896Y-13906936D02*
X5524944Y-13878365D01*
X5524944Y-13878365D02*
X5534468Y-13840269D01*
X5534468Y-13840269D02*
X5534468Y-13764079D01*
X5534468Y-13764079D02*
X5524944Y-13745031D01*
X5524944Y-13745031D02*
X5515420Y-13735508D01*
X5515420Y-13735508D02*
X5496372Y-13725984D01*
X5496372Y-13725984D02*
X5458277Y-13725984D01*
X5458277Y-13725984D02*
X5439229Y-13735508D01*
X5439229Y-13735508D02*
X5429706Y-13745031D01*
X5429706Y-13745031D02*
X5420182Y-13764079D01*
X5420182Y-13764079D02*
X5420182Y-13811698D01*
X5420182Y-13811698D02*
X5429706Y-13830746D01*
X5429706Y-13830746D02*
X5439229Y-13840269D01*
X5439229Y-13840269D02*
X5458277Y-13849793D01*
X5458277Y-13849793D02*
X5496372Y-13849793D01*
X5496372Y-13849793D02*
X5515420Y-13840269D01*
X5515420Y-13840269D02*
X5524944Y-13830746D01*
X5524944Y-13830746D02*
X5534468Y-13811698D01*
X5705896Y-13792650D02*
X5705896Y-13925984D01*
X5658277Y-13716460D02*
X5610658Y-13859317D01*
X5610658Y-13859317D02*
X5734467Y-13859317D01*
X5801134Y-13725984D02*
X5801134Y-13764079D01*
X5877325Y-13725984D02*
X5877325Y-13764079D01*
X6172563Y-14002174D02*
X6163039Y-13992650D01*
X6163039Y-13992650D02*
X6143991Y-13964079D01*
X6143991Y-13964079D02*
X6134468Y-13945031D01*
X6134468Y-13945031D02*
X6124944Y-13916460D01*
X6124944Y-13916460D02*
X6115420Y-13868841D01*
X6115420Y-13868841D02*
X6115420Y-13830746D01*
X6115420Y-13830746D02*
X6124944Y-13783127D01*
X6124944Y-13783127D02*
X6134468Y-13754555D01*
X6134468Y-13754555D02*
X6143991Y-13735508D01*
X6143991Y-13735508D02*
X6163039Y-13706936D01*
X6163039Y-13706936D02*
X6172563Y-13697412D01*
X6258277Y-13925984D02*
X6296372Y-13925984D01*
X6296372Y-13925984D02*
X6315420Y-13916460D01*
X6315420Y-13916460D02*
X6324944Y-13906936D01*
X6324944Y-13906936D02*
X6343991Y-13878365D01*
X6343991Y-13878365D02*
X6353515Y-13840269D01*
X6353515Y-13840269D02*
X6353515Y-13764079D01*
X6353515Y-13764079D02*
X6343991Y-13745031D01*
X6343991Y-13745031D02*
X6334468Y-13735508D01*
X6334468Y-13735508D02*
X6315420Y-13725984D01*
X6315420Y-13725984D02*
X6277325Y-13725984D01*
X6277325Y-13725984D02*
X6258277Y-13735508D01*
X6258277Y-13735508D02*
X6248753Y-13745031D01*
X6248753Y-13745031D02*
X6239229Y-13764079D01*
X6239229Y-13764079D02*
X6239229Y-13811698D01*
X6239229Y-13811698D02*
X6248753Y-13830746D01*
X6248753Y-13830746D02*
X6258277Y-13840269D01*
X6258277Y-13840269D02*
X6277325Y-13849793D01*
X6277325Y-13849793D02*
X6315420Y-13849793D01*
X6315420Y-13849793D02*
X6334468Y-13840269D01*
X6334468Y-13840269D02*
X6343991Y-13830746D01*
X6343991Y-13830746D02*
X6353515Y-13811698D01*
X6591610Y-13925984D02*
X6591610Y-13725984D01*
X6677325Y-13925984D02*
X6677325Y-13821222D01*
X6677325Y-13821222D02*
X6667801Y-13802174D01*
X6667801Y-13802174D02*
X6648753Y-13792650D01*
X6648753Y-13792650D02*
X6620182Y-13792650D01*
X6620182Y-13792650D02*
X6601134Y-13802174D01*
X6601134Y-13802174D02*
X6591610Y-13811698D01*
X6801134Y-13925984D02*
X6782087Y-13916460D01*
X6782087Y-13916460D02*
X6772563Y-13906936D01*
X6772563Y-13906936D02*
X6763039Y-13887888D01*
X6763039Y-13887888D02*
X6763039Y-13830746D01*
X6763039Y-13830746D02*
X6772563Y-13811698D01*
X6772563Y-13811698D02*
X6782087Y-13802174D01*
X6782087Y-13802174D02*
X6801134Y-13792650D01*
X6801134Y-13792650D02*
X6829706Y-13792650D01*
X6829706Y-13792650D02*
X6848753Y-13802174D01*
X6848753Y-13802174D02*
X6858277Y-13811698D01*
X6858277Y-13811698D02*
X6867801Y-13830746D01*
X6867801Y-13830746D02*
X6867801Y-13887888D01*
X6867801Y-13887888D02*
X6858277Y-13906936D01*
X6858277Y-13906936D02*
X6848753Y-13916460D01*
X6848753Y-13916460D02*
X6829706Y-13925984D01*
X6829706Y-13925984D02*
X6801134Y-13925984D01*
X6982087Y-13925984D02*
X6963039Y-13916460D01*
X6963039Y-13916460D02*
X6953515Y-13897412D01*
X6953515Y-13897412D02*
X6953515Y-13725984D01*
X7134468Y-13916460D02*
X7115420Y-13925984D01*
X7115420Y-13925984D02*
X7077325Y-13925984D01*
X7077325Y-13925984D02*
X7058277Y-13916460D01*
X7058277Y-13916460D02*
X7048753Y-13897412D01*
X7048753Y-13897412D02*
X7048753Y-13821222D01*
X7048753Y-13821222D02*
X7058277Y-13802174D01*
X7058277Y-13802174D02*
X7077325Y-13792650D01*
X7077325Y-13792650D02*
X7115420Y-13792650D01*
X7115420Y-13792650D02*
X7134468Y-13802174D01*
X7134468Y-13802174D02*
X7143991Y-13821222D01*
X7143991Y-13821222D02*
X7143991Y-13840269D01*
X7143991Y-13840269D02*
X7048753Y-13859317D01*
X7220182Y-13916460D02*
X7239230Y-13925984D01*
X7239230Y-13925984D02*
X7277325Y-13925984D01*
X7277325Y-13925984D02*
X7296372Y-13916460D01*
X7296372Y-13916460D02*
X7305896Y-13897412D01*
X7305896Y-13897412D02*
X7305896Y-13887888D01*
X7305896Y-13887888D02*
X7296372Y-13868841D01*
X7296372Y-13868841D02*
X7277325Y-13859317D01*
X7277325Y-13859317D02*
X7248753Y-13859317D01*
X7248753Y-13859317D02*
X7229706Y-13849793D01*
X7229706Y-13849793D02*
X7220182Y-13830746D01*
X7220182Y-13830746D02*
X7220182Y-13821222D01*
X7220182Y-13821222D02*
X7229706Y-13802174D01*
X7229706Y-13802174D02*
X7248753Y-13792650D01*
X7248753Y-13792650D02*
X7277325Y-13792650D01*
X7277325Y-13792650D02*
X7296372Y-13802174D01*
X7372563Y-14002174D02*
X7382087Y-13992650D01*
X7382087Y-13992650D02*
X7401134Y-13964079D01*
X7401134Y-13964079D02*
X7410658Y-13945031D01*
X7410658Y-13945031D02*
X7420182Y-13916460D01*
X7420182Y-13916460D02*
X7429706Y-13868841D01*
X7429706Y-13868841D02*
X7429706Y-13830746D01*
X7429706Y-13830746D02*
X7420182Y-13783127D01*
X7420182Y-13783127D02*
X7410658Y-13754555D01*
X7410658Y-13754555D02*
X7401134Y-13735508D01*
X7401134Y-13735508D02*
X7382087Y-13706936D01*
X7382087Y-13706936D02*
X7372563Y-13697412D01*
D13*
X2522500Y-14173500D02*
X2597500Y-14098500D01*
X2522500Y-14023500D01*
X2447500Y-14098500D01*
X2522500Y-14173500D01*
D12*
X2963039Y-14189984D02*
X2848753Y-14189984D01*
X2905896Y-14189984D02*
X2905896Y-13989984D01*
X2905896Y-13989984D02*
X2886848Y-14018555D01*
X2886848Y-14018555D02*
X2867801Y-14037603D01*
X2867801Y-14037603D02*
X2848753Y-14047127D01*
X3048753Y-14170936D02*
X3058277Y-14180460D01*
X3058277Y-14180460D02*
X3048753Y-14189984D01*
X3048753Y-14189984D02*
X3039229Y-14180460D01*
X3039229Y-14180460D02*
X3048753Y-14170936D01*
X3048753Y-14170936D02*
X3048753Y-14189984D01*
X3239229Y-13989984D02*
X3143991Y-13989984D01*
X3143991Y-13989984D02*
X3134467Y-14085222D01*
X3134467Y-14085222D02*
X3143991Y-14075698D01*
X3143991Y-14075698D02*
X3163039Y-14066174D01*
X3163039Y-14066174D02*
X3210658Y-14066174D01*
X3210658Y-14066174D02*
X3229705Y-14075698D01*
X3229705Y-14075698D02*
X3239229Y-14085222D01*
X3239229Y-14085222D02*
X3248753Y-14104269D01*
X3248753Y-14104269D02*
X3248753Y-14151888D01*
X3248753Y-14151888D02*
X3239229Y-14170936D01*
X3239229Y-14170936D02*
X3229705Y-14180460D01*
X3229705Y-14180460D02*
X3210658Y-14189984D01*
X3210658Y-14189984D02*
X3163039Y-14189984D01*
X3163039Y-14189984D02*
X3143991Y-14180460D01*
X3143991Y-14180460D02*
X3134467Y-14170936D01*
X3372562Y-13989984D02*
X3391610Y-13989984D01*
X3391610Y-13989984D02*
X3410658Y-13999508D01*
X3410658Y-13999508D02*
X3420182Y-14009031D01*
X3420182Y-14009031D02*
X3429705Y-14028079D01*
X3429705Y-14028079D02*
X3439229Y-14066174D01*
X3439229Y-14066174D02*
X3439229Y-14113793D01*
X3439229Y-14113793D02*
X3429705Y-14151888D01*
X3429705Y-14151888D02*
X3420182Y-14170936D01*
X3420182Y-14170936D02*
X3410658Y-14180460D01*
X3410658Y-14180460D02*
X3391610Y-14189984D01*
X3391610Y-14189984D02*
X3372562Y-14189984D01*
X3372562Y-14189984D02*
X3353515Y-14180460D01*
X3353515Y-14180460D02*
X3343991Y-14170936D01*
X3343991Y-14170936D02*
X3334467Y-14151888D01*
X3334467Y-14151888D02*
X3324943Y-14113793D01*
X3324943Y-14113793D02*
X3324943Y-14066174D01*
X3324943Y-14066174D02*
X3334467Y-14028079D01*
X3334467Y-14028079D02*
X3343991Y-14009031D01*
X3343991Y-14009031D02*
X3353515Y-13999508D01*
X3353515Y-13999508D02*
X3372562Y-13989984D01*
X3563039Y-13989984D02*
X3582086Y-13989984D01*
X3582086Y-13989984D02*
X3601134Y-13999508D01*
X3601134Y-13999508D02*
X3610658Y-14009031D01*
X3610658Y-14009031D02*
X3620182Y-14028079D01*
X3620182Y-14028079D02*
X3629705Y-14066174D01*
X3629705Y-14066174D02*
X3629705Y-14113793D01*
X3629705Y-14113793D02*
X3620182Y-14151888D01*
X3620182Y-14151888D02*
X3610658Y-14170936D01*
X3610658Y-14170936D02*
X3601134Y-14180460D01*
X3601134Y-14180460D02*
X3582086Y-14189984D01*
X3582086Y-14189984D02*
X3563039Y-14189984D01*
X3563039Y-14189984D02*
X3543991Y-14180460D01*
X3543991Y-14180460D02*
X3534467Y-14170936D01*
X3534467Y-14170936D02*
X3524943Y-14151888D01*
X3524943Y-14151888D02*
X3515420Y-14113793D01*
X3515420Y-14113793D02*
X3515420Y-14066174D01*
X3515420Y-14066174D02*
X3524943Y-14028079D01*
X3524943Y-14028079D02*
X3534467Y-14009031D01*
X3534467Y-14009031D02*
X3543991Y-13999508D01*
X3543991Y-13999508D02*
X3563039Y-13989984D01*
X3715420Y-14189984D02*
X3715420Y-14056650D01*
X3715420Y-14075698D02*
X3724943Y-14066174D01*
X3724943Y-14066174D02*
X3743991Y-14056650D01*
X3743991Y-14056650D02*
X3772563Y-14056650D01*
X3772563Y-14056650D02*
X3791610Y-14066174D01*
X3791610Y-14066174D02*
X3801134Y-14085222D01*
X3801134Y-14085222D02*
X3801134Y-14189984D01*
X3801134Y-14085222D02*
X3810658Y-14066174D01*
X3810658Y-14066174D02*
X3829705Y-14056650D01*
X3829705Y-14056650D02*
X3858277Y-14056650D01*
X3858277Y-14056650D02*
X3877324Y-14066174D01*
X3877324Y-14066174D02*
X3886848Y-14085222D01*
X3886848Y-14085222D02*
X3886848Y-14189984D01*
X3982086Y-14189984D02*
X3982086Y-14056650D01*
X3982086Y-14075698D02*
X3991610Y-14066174D01*
X3991610Y-14066174D02*
X4010658Y-14056650D01*
X4010658Y-14056650D02*
X4039229Y-14056650D01*
X4039229Y-14056650D02*
X4058277Y-14066174D01*
X4058277Y-14066174D02*
X4067801Y-14085222D01*
X4067801Y-14085222D02*
X4067801Y-14189984D01*
X4067801Y-14085222D02*
X4077324Y-14066174D01*
X4077324Y-14066174D02*
X4096372Y-14056650D01*
X4096372Y-14056650D02*
X4124943Y-14056650D01*
X4124943Y-14056650D02*
X4143991Y-14066174D01*
X4143991Y-14066174D02*
X4153515Y-14085222D01*
X4153515Y-14085222D02*
X4153515Y-14189984D01*
X4543991Y-13980460D02*
X4372563Y-14237603D01*
X4801134Y-13989984D02*
X4820182Y-13989984D01*
X4820182Y-13989984D02*
X4839229Y-13999508D01*
X4839229Y-13999508D02*
X4848753Y-14009031D01*
X4848753Y-14009031D02*
X4858277Y-14028079D01*
X4858277Y-14028079D02*
X4867801Y-14066174D01*
X4867801Y-14066174D02*
X4867801Y-14113793D01*
X4867801Y-14113793D02*
X4858277Y-14151888D01*
X4858277Y-14151888D02*
X4848753Y-14170936D01*
X4848753Y-14170936D02*
X4839229Y-14180460D01*
X4839229Y-14180460D02*
X4820182Y-14189984D01*
X4820182Y-14189984D02*
X4801134Y-14189984D01*
X4801134Y-14189984D02*
X4782087Y-14180460D01*
X4782087Y-14180460D02*
X4772563Y-14170936D01*
X4772563Y-14170936D02*
X4763039Y-14151888D01*
X4763039Y-14151888D02*
X4753515Y-14113793D01*
X4753515Y-14113793D02*
X4753515Y-14066174D01*
X4753515Y-14066174D02*
X4763039Y-14028079D01*
X4763039Y-14028079D02*
X4772563Y-14009031D01*
X4772563Y-14009031D02*
X4782087Y-13999508D01*
X4782087Y-13999508D02*
X4801134Y-13989984D01*
X4953515Y-14170936D02*
X4963039Y-14180460D01*
X4963039Y-14180460D02*
X4953515Y-14189984D01*
X4953515Y-14189984D02*
X4943991Y-14180460D01*
X4943991Y-14180460D02*
X4953515Y-14170936D01*
X4953515Y-14170936D02*
X4953515Y-14189984D01*
X5086848Y-13989984D02*
X5105896Y-13989984D01*
X5105896Y-13989984D02*
X5124944Y-13999508D01*
X5124944Y-13999508D02*
X5134468Y-14009031D01*
X5134468Y-14009031D02*
X5143991Y-14028079D01*
X5143991Y-14028079D02*
X5153515Y-14066174D01*
X5153515Y-14066174D02*
X5153515Y-14113793D01*
X5153515Y-14113793D02*
X5143991Y-14151888D01*
X5143991Y-14151888D02*
X5134468Y-14170936D01*
X5134468Y-14170936D02*
X5124944Y-14180460D01*
X5124944Y-14180460D02*
X5105896Y-14189984D01*
X5105896Y-14189984D02*
X5086848Y-14189984D01*
X5086848Y-14189984D02*
X5067801Y-14180460D01*
X5067801Y-14180460D02*
X5058277Y-14170936D01*
X5058277Y-14170936D02*
X5048753Y-14151888D01*
X5048753Y-14151888D02*
X5039229Y-14113793D01*
X5039229Y-14113793D02*
X5039229Y-14066174D01*
X5039229Y-14066174D02*
X5048753Y-14028079D01*
X5048753Y-14028079D02*
X5058277Y-14009031D01*
X5058277Y-14009031D02*
X5067801Y-13999508D01*
X5067801Y-13999508D02*
X5086848Y-13989984D01*
X5334468Y-13989984D02*
X5239229Y-13989984D01*
X5239229Y-13989984D02*
X5229706Y-14085222D01*
X5229706Y-14085222D02*
X5239229Y-14075698D01*
X5239229Y-14075698D02*
X5258277Y-14066174D01*
X5258277Y-14066174D02*
X5305896Y-14066174D01*
X5305896Y-14066174D02*
X5324944Y-14075698D01*
X5324944Y-14075698D02*
X5334468Y-14085222D01*
X5334468Y-14085222D02*
X5343991Y-14104269D01*
X5343991Y-14104269D02*
X5343991Y-14151888D01*
X5343991Y-14151888D02*
X5334468Y-14170936D01*
X5334468Y-14170936D02*
X5324944Y-14180460D01*
X5324944Y-14180460D02*
X5305896Y-14189984D01*
X5305896Y-14189984D02*
X5258277Y-14189984D01*
X5258277Y-14189984D02*
X5239229Y-14180460D01*
X5239229Y-14180460D02*
X5229706Y-14170936D01*
X5439229Y-14189984D02*
X5477325Y-14189984D01*
X5477325Y-14189984D02*
X5496372Y-14180460D01*
X5496372Y-14180460D02*
X5505896Y-14170936D01*
X5505896Y-14170936D02*
X5524944Y-14142365D01*
X5524944Y-14142365D02*
X5534468Y-14104269D01*
X5534468Y-14104269D02*
X5534468Y-14028079D01*
X5534468Y-14028079D02*
X5524944Y-14009031D01*
X5524944Y-14009031D02*
X5515420Y-13999508D01*
X5515420Y-13999508D02*
X5496372Y-13989984D01*
X5496372Y-13989984D02*
X5458277Y-13989984D01*
X5458277Y-13989984D02*
X5439229Y-13999508D01*
X5439229Y-13999508D02*
X5429706Y-14009031D01*
X5429706Y-14009031D02*
X5420182Y-14028079D01*
X5420182Y-14028079D02*
X5420182Y-14075698D01*
X5420182Y-14075698D02*
X5429706Y-14094746D01*
X5429706Y-14094746D02*
X5439229Y-14104269D01*
X5439229Y-14104269D02*
X5458277Y-14113793D01*
X5458277Y-14113793D02*
X5496372Y-14113793D01*
X5496372Y-14113793D02*
X5515420Y-14104269D01*
X5515420Y-14104269D02*
X5524944Y-14094746D01*
X5524944Y-14094746D02*
X5534468Y-14075698D01*
X5724944Y-14189984D02*
X5610658Y-14189984D01*
X5667801Y-14189984D02*
X5667801Y-13989984D01*
X5667801Y-13989984D02*
X5648753Y-14018555D01*
X5648753Y-14018555D02*
X5629706Y-14037603D01*
X5629706Y-14037603D02*
X5610658Y-14047127D01*
X5801134Y-13989984D02*
X5801134Y-14028079D01*
X5877325Y-13989984D02*
X5877325Y-14028079D01*
X6172563Y-14266174D02*
X6163039Y-14256650D01*
X6163039Y-14256650D02*
X6143991Y-14228079D01*
X6143991Y-14228079D02*
X6134468Y-14209031D01*
X6134468Y-14209031D02*
X6124944Y-14180460D01*
X6124944Y-14180460D02*
X6115420Y-14132841D01*
X6115420Y-14132841D02*
X6115420Y-14094746D01*
X6115420Y-14094746D02*
X6124944Y-14047127D01*
X6124944Y-14047127D02*
X6134468Y-14018555D01*
X6134468Y-14018555D02*
X6143991Y-13999508D01*
X6143991Y-13999508D02*
X6163039Y-13970936D01*
X6163039Y-13970936D02*
X6172563Y-13961412D01*
X6353515Y-14189984D02*
X6239229Y-14189984D01*
X6296372Y-14189984D02*
X6296372Y-13989984D01*
X6296372Y-13989984D02*
X6277325Y-14018555D01*
X6277325Y-14018555D02*
X6258277Y-14037603D01*
X6258277Y-14037603D02*
X6239229Y-14047127D01*
X6524944Y-13989984D02*
X6486848Y-13989984D01*
X6486848Y-13989984D02*
X6467801Y-13999508D01*
X6467801Y-13999508D02*
X6458277Y-14009031D01*
X6458277Y-14009031D02*
X6439229Y-14037603D01*
X6439229Y-14037603D02*
X6429706Y-14075698D01*
X6429706Y-14075698D02*
X6429706Y-14151888D01*
X6429706Y-14151888D02*
X6439229Y-14170936D01*
X6439229Y-14170936D02*
X6448753Y-14180460D01*
X6448753Y-14180460D02*
X6467801Y-14189984D01*
X6467801Y-14189984D02*
X6505896Y-14189984D01*
X6505896Y-14189984D02*
X6524944Y-14180460D01*
X6524944Y-14180460D02*
X6534468Y-14170936D01*
X6534468Y-14170936D02*
X6543991Y-14151888D01*
X6543991Y-14151888D02*
X6543991Y-14104269D01*
X6543991Y-14104269D02*
X6534468Y-14085222D01*
X6534468Y-14085222D02*
X6524944Y-14075698D01*
X6524944Y-14075698D02*
X6505896Y-14066174D01*
X6505896Y-14066174D02*
X6467801Y-14066174D01*
X6467801Y-14066174D02*
X6448753Y-14075698D01*
X6448753Y-14075698D02*
X6439229Y-14085222D01*
X6439229Y-14085222D02*
X6429706Y-14104269D01*
X6782087Y-14189984D02*
X6782087Y-13989984D01*
X6867801Y-14189984D02*
X6867801Y-14085222D01*
X6867801Y-14085222D02*
X6858277Y-14066174D01*
X6858277Y-14066174D02*
X6839230Y-14056650D01*
X6839230Y-14056650D02*
X6810658Y-14056650D01*
X6810658Y-14056650D02*
X6791610Y-14066174D01*
X6791610Y-14066174D02*
X6782087Y-14075698D01*
X6991610Y-14189984D02*
X6972563Y-14180460D01*
X6972563Y-14180460D02*
X6963039Y-14170936D01*
X6963039Y-14170936D02*
X6953515Y-14151888D01*
X6953515Y-14151888D02*
X6953515Y-14094746D01*
X6953515Y-14094746D02*
X6963039Y-14075698D01*
X6963039Y-14075698D02*
X6972563Y-14066174D01*
X6972563Y-14066174D02*
X6991610Y-14056650D01*
X6991610Y-14056650D02*
X7020182Y-14056650D01*
X7020182Y-14056650D02*
X7039230Y-14066174D01*
X7039230Y-14066174D02*
X7048753Y-14075698D01*
X7048753Y-14075698D02*
X7058277Y-14094746D01*
X7058277Y-14094746D02*
X7058277Y-14151888D01*
X7058277Y-14151888D02*
X7048753Y-14170936D01*
X7048753Y-14170936D02*
X7039230Y-14180460D01*
X7039230Y-14180460D02*
X7020182Y-14189984D01*
X7020182Y-14189984D02*
X6991610Y-14189984D01*
X7172563Y-14189984D02*
X7153515Y-14180460D01*
X7153515Y-14180460D02*
X7143991Y-14161412D01*
X7143991Y-14161412D02*
X7143991Y-13989984D01*
X7324944Y-14180460D02*
X7305896Y-14189984D01*
X7305896Y-14189984D02*
X7267801Y-14189984D01*
X7267801Y-14189984D02*
X7248753Y-14180460D01*
X7248753Y-14180460D02*
X7239230Y-14161412D01*
X7239230Y-14161412D02*
X7239230Y-14085222D01*
X7239230Y-14085222D02*
X7248753Y-14066174D01*
X7248753Y-14066174D02*
X7267801Y-14056650D01*
X7267801Y-14056650D02*
X7305896Y-14056650D01*
X7305896Y-14056650D02*
X7324944Y-14066174D01*
X7324944Y-14066174D02*
X7334468Y-14085222D01*
X7334468Y-14085222D02*
X7334468Y-14104269D01*
X7334468Y-14104269D02*
X7239230Y-14123317D01*
X7410658Y-14180460D02*
X7429706Y-14189984D01*
X7429706Y-14189984D02*
X7467801Y-14189984D01*
X7467801Y-14189984D02*
X7486849Y-14180460D01*
X7486849Y-14180460D02*
X7496372Y-14161412D01*
X7496372Y-14161412D02*
X7496372Y-14151888D01*
X7496372Y-14151888D02*
X7486849Y-14132841D01*
X7486849Y-14132841D02*
X7467801Y-14123317D01*
X7467801Y-14123317D02*
X7439230Y-14123317D01*
X7439230Y-14123317D02*
X7420182Y-14113793D01*
X7420182Y-14113793D02*
X7410658Y-14094746D01*
X7410658Y-14094746D02*
X7410658Y-14085222D01*
X7410658Y-14085222D02*
X7420182Y-14066174D01*
X7420182Y-14066174D02*
X7439230Y-14056650D01*
X7439230Y-14056650D02*
X7467801Y-14056650D01*
X7467801Y-14056650D02*
X7486849Y-14066174D01*
X7734468Y-14113793D02*
X7886849Y-14113793D01*
X7810658Y-14189984D02*
X7810658Y-14037603D01*
X8124944Y-14009031D02*
X8134468Y-13999508D01*
X8134468Y-13999508D02*
X8153515Y-13989984D01*
X8153515Y-13989984D02*
X8201134Y-13989984D01*
X8201134Y-13989984D02*
X8220182Y-13999508D01*
X8220182Y-13999508D02*
X8229706Y-14009031D01*
X8229706Y-14009031D02*
X8239230Y-14028079D01*
X8239230Y-14028079D02*
X8239230Y-14047127D01*
X8239230Y-14047127D02*
X8229706Y-14075698D01*
X8229706Y-14075698D02*
X8115420Y-14189984D01*
X8115420Y-14189984D02*
X8239230Y-14189984D01*
X8467801Y-14180460D02*
X8486849Y-14189984D01*
X8486849Y-14189984D02*
X8524944Y-14189984D01*
X8524944Y-14189984D02*
X8543992Y-14180460D01*
X8543992Y-14180460D02*
X8553516Y-14161412D01*
X8553516Y-14161412D02*
X8553516Y-14151888D01*
X8553516Y-14151888D02*
X8543992Y-14132841D01*
X8543992Y-14132841D02*
X8524944Y-14123317D01*
X8524944Y-14123317D02*
X8496373Y-14123317D01*
X8496373Y-14123317D02*
X8477325Y-14113793D01*
X8477325Y-14113793D02*
X8467801Y-14094746D01*
X8467801Y-14094746D02*
X8467801Y-14085222D01*
X8467801Y-14085222D02*
X8477325Y-14066174D01*
X8477325Y-14066174D02*
X8496373Y-14056650D01*
X8496373Y-14056650D02*
X8524944Y-14056650D01*
X8524944Y-14056650D02*
X8543992Y-14066174D01*
X8667801Y-14189984D02*
X8648754Y-14180460D01*
X8648754Y-14180460D02*
X8639230Y-14161412D01*
X8639230Y-14161412D02*
X8639230Y-13989984D01*
X8772563Y-14189984D02*
X8753516Y-14180460D01*
X8753516Y-14180460D02*
X8743992Y-14170936D01*
X8743992Y-14170936D02*
X8734468Y-14151888D01*
X8734468Y-14151888D02*
X8734468Y-14094746D01*
X8734468Y-14094746D02*
X8743992Y-14075698D01*
X8743992Y-14075698D02*
X8753516Y-14066174D01*
X8753516Y-14066174D02*
X8772563Y-14056650D01*
X8772563Y-14056650D02*
X8801135Y-14056650D01*
X8801135Y-14056650D02*
X8820182Y-14066174D01*
X8820182Y-14066174D02*
X8829706Y-14075698D01*
X8829706Y-14075698D02*
X8839230Y-14094746D01*
X8839230Y-14094746D02*
X8839230Y-14151888D01*
X8839230Y-14151888D02*
X8829706Y-14170936D01*
X8829706Y-14170936D02*
X8820182Y-14180460D01*
X8820182Y-14180460D02*
X8801135Y-14189984D01*
X8801135Y-14189984D02*
X8772563Y-14189984D01*
X8896373Y-14056650D02*
X8972563Y-14056650D01*
X8924944Y-13989984D02*
X8924944Y-14161412D01*
X8924944Y-14161412D02*
X8934468Y-14180460D01*
X8934468Y-14180460D02*
X8953516Y-14189984D01*
X8953516Y-14189984D02*
X8972563Y-14189984D01*
X9029706Y-14180460D02*
X9048754Y-14189984D01*
X9048754Y-14189984D02*
X9086849Y-14189984D01*
X9086849Y-14189984D02*
X9105897Y-14180460D01*
X9105897Y-14180460D02*
X9115420Y-14161412D01*
X9115420Y-14161412D02*
X9115420Y-14151888D01*
X9115420Y-14151888D02*
X9105897Y-14132841D01*
X9105897Y-14132841D02*
X9086849Y-14123317D01*
X9086849Y-14123317D02*
X9058277Y-14123317D01*
X9058277Y-14123317D02*
X9039230Y-14113793D01*
X9039230Y-14113793D02*
X9029706Y-14094746D01*
X9029706Y-14094746D02*
X9029706Y-14085222D01*
X9029706Y-14085222D02*
X9039230Y-14066174D01*
X9039230Y-14066174D02*
X9058277Y-14056650D01*
X9058277Y-14056650D02*
X9086849Y-14056650D01*
X9086849Y-14056650D02*
X9105897Y-14066174D01*
X9182087Y-14266174D02*
X9191611Y-14256650D01*
X9191611Y-14256650D02*
X9210658Y-14228079D01*
X9210658Y-14228079D02*
X9220182Y-14209031D01*
X9220182Y-14209031D02*
X9229706Y-14180460D01*
X9229706Y-14180460D02*
X9239230Y-14132841D01*
X9239230Y-14132841D02*
X9239230Y-14094746D01*
X9239230Y-14094746D02*
X9229706Y-14047127D01*
X9229706Y-14047127D02*
X9220182Y-14018555D01*
X9220182Y-14018555D02*
X9210658Y-13999508D01*
X9210658Y-13999508D02*
X9191611Y-13970936D01*
X9191611Y-13970936D02*
X9182087Y-13961412D01*
M02*
