%TF.GenerationSoftware,KiCad,Pcbnew,9.0.7*%
%TF.CreationDate,2026-02-07T22:16:38-08:00*%
%TF.ProjectId,hackpad,6861636b-7061-4642-9e6b-696361645f70,rev?*%
%TF.SameCoordinates,Original*%
%TF.FileFunction,Drillmap*%
%TF.FilePolarity,Positive*%
%FSLAX45Y45*%
G04 Gerber Fmt 4.5, Leading zero omitted, Abs format (unit mm)*
G04 Created by KiCad (PCBNEW 9.0.7) date 2026-02-07 22:16:38*
%MOMM*%
%LPD*%
G01*
G04 APERTURE LIST*
%ADD10C,0.050000*%
%ADD11C,0.100000*%
%ADD12C,0.200000*%
%ADD13C,0.170000*%
%ADD14C,0.400000*%
G04 APERTURE END LIST*
D10*
X2600000Y-2400000D02*
X12600000Y-2400000D01*
X12600000Y-12400000D01*
X2600000Y-12400000D01*
X2600000Y-2400000D01*
D11*
X11010000Y-9110000D02*
X11010000Y-8969432D01*
X11100555Y-8889716D02*
X11259445Y-8889716D01*
X11259445Y-9189716D02*
X11100555Y-9189716D01*
X11350000Y-8969432D02*
X11350000Y-9110000D01*
X11005052Y-8947744D02*
G75*
G02*
X11010000Y-8969432I-45051J-21688D01*
G01*
X11005052Y-8947744D02*
G75*
G02*
X11075329Y-8882886I45052J21688D01*
G01*
X11010000Y-9110000D02*
G75*
G02*
X11005052Y-9131688I-49999J0D01*
G01*
X11075329Y-9196546D02*
G75*
G02*
X11005052Y-9131688I-25226J43170D01*
G01*
X11075329Y-9196546D02*
G75*
G02*
X11100555Y-9189716I25226J-43171D01*
G01*
X11100555Y-8889716D02*
G75*
G02*
X11075329Y-8882886I0J50001D01*
G01*
X11259445Y-9189716D02*
G75*
G02*
X11284671Y-9196546I0J-50001D01*
G01*
X11284671Y-8882886D02*
G75*
G02*
X11259445Y-8889716I-25226J43171D01*
G01*
X11284671Y-8882886D02*
G75*
G02*
X11354948Y-8947744I25226J-43170D01*
G01*
X11350000Y-8969432D02*
G75*
G02*
X11354948Y-8947744I50000J2D01*
G01*
X11354948Y-9131688D02*
G75*
G02*
X11284671Y-9196546I-45051J-21688D01*
G01*
X11354948Y-9131688D02*
G75*
G02*
X11350000Y-9110000I45052J21688D01*
G01*
X11510000Y-3800000D02*
X11510000Y-3659432D01*
X11600555Y-3579716D02*
X11759445Y-3579716D01*
X11759445Y-3879716D02*
X11600555Y-3879716D01*
X11850000Y-3659432D02*
X11850000Y-3800000D01*
X11505052Y-3637744D02*
G75*
G02*
X11510000Y-3659432I-45051J-21688D01*
G01*
X11505052Y-3637744D02*
G75*
G02*
X11575329Y-3572886I45052J21688D01*
G01*
X11510000Y-3800000D02*
G75*
G02*
X11505052Y-3821688I-49999J0D01*
G01*
X11575329Y-3886545D02*
G75*
G02*
X11505052Y-3821688I-25226J43170D01*
G01*
X11575329Y-3886546D02*
G75*
G02*
X11600555Y-3879716I25226J-43171D01*
G01*
X11600555Y-3579716D02*
G75*
G02*
X11575329Y-3572886I0J50001D01*
G01*
X11759445Y-3879716D02*
G75*
G02*
X11784671Y-3886546I0J-50001D01*
G01*
X11784671Y-3572886D02*
G75*
G02*
X11759445Y-3579716I-25226J43171D01*
G01*
X11784671Y-3572886D02*
G75*
G02*
X11854948Y-3637744I25226J-43170D01*
G01*
X11850000Y-3659431D02*
G75*
G02*
X11854948Y-3637743I50000J2D01*
G01*
X11854948Y-3821688D02*
G75*
G02*
X11784671Y-3886546I-45051J-21688D01*
G01*
X11854948Y-3821688D02*
G75*
G02*
X11850000Y-3800000I45052J21688D01*
G01*
X11010000Y-6680000D02*
X11010000Y-6539432D01*
X11100555Y-6459716D02*
X11259445Y-6459716D01*
X11259445Y-6759716D02*
X11100555Y-6759716D01*
X11350000Y-6539432D02*
X11350000Y-6680000D01*
X11005052Y-6517744D02*
G75*
G02*
X11010000Y-6539432I-45051J-21688D01*
G01*
X11005052Y-6517744D02*
G75*
G02*
X11075329Y-6452886I45052J21688D01*
G01*
X11010000Y-6680000D02*
G75*
G02*
X11005052Y-6701688I-49999J0D01*
G01*
X11075329Y-6766545D02*
G75*
G02*
X11005052Y-6701688I-25226J43170D01*
G01*
X11075329Y-6766546D02*
G75*
G02*
X11100555Y-6759716I25226J-43171D01*
G01*
X11100555Y-6459716D02*
G75*
G02*
X11075329Y-6452886I0J50001D01*
G01*
X11259445Y-6759716D02*
G75*
G02*
X11284671Y-6766546I0J-50001D01*
G01*
X11284671Y-6452886D02*
G75*
G02*
X11259445Y-6459716I-25226J43171D01*
G01*
X11284671Y-6452886D02*
G75*
G02*
X11354948Y-6517744I25226J-43170D01*
G01*
X11350000Y-6539431D02*
G75*
G02*
X11354948Y-6517743I50000J2D01*
G01*
X11354948Y-6701688D02*
G75*
G02*
X11284671Y-6766546I-45051J-21688D01*
G01*
X11354948Y-6701688D02*
G75*
G02*
X11350000Y-6680000I45052J21688D01*
G01*
X7690000Y-11490000D02*
X7690000Y-11349432D01*
X7780555Y-11269716D02*
X7939445Y-11269716D01*
X7939445Y-11569716D02*
X7780555Y-11569716D01*
X8030000Y-11349432D02*
X8030000Y-11490000D01*
X7685052Y-11327744D02*
G75*
G02*
X7690000Y-11349432I-45051J-21688D01*
G01*
X7685052Y-11327744D02*
G75*
G02*
X7755329Y-11262886I45052J21688D01*
G01*
X7690000Y-11490000D02*
G75*
G02*
X7685052Y-11511688I-49999J0D01*
G01*
X7755329Y-11576545D02*
G75*
G02*
X7685052Y-11511688I-25226J43170D01*
G01*
X7755329Y-11576546D02*
G75*
G02*
X7780555Y-11569716I25226J-43171D01*
G01*
X7780555Y-11269716D02*
G75*
G02*
X7755329Y-11262886I0J50001D01*
G01*
X7939445Y-11569716D02*
G75*
G02*
X7964671Y-11576546I0J-50001D01*
G01*
X7964671Y-11262886D02*
G75*
G02*
X7939445Y-11269716I-25226J43171D01*
G01*
X7964671Y-11262886D02*
G75*
G02*
X8034948Y-11327744I25226J-43170D01*
G01*
X8030000Y-11349431D02*
G75*
G02*
X8034948Y-11327743I50000J2D01*
G01*
X8034948Y-11511688D02*
G75*
G02*
X7964671Y-11576546I-45051J-21688D01*
G01*
X8034948Y-11511688D02*
G75*
G02*
X8030000Y-11490000I45052J21688D01*
G01*
X6260000Y-6690000D02*
X6260000Y-6549432D01*
X6350555Y-6469716D02*
X6509445Y-6469716D01*
X6509445Y-6769716D02*
X6350555Y-6769716D01*
X6600000Y-6549432D02*
X6600000Y-6690000D01*
X6255052Y-6527744D02*
G75*
G02*
X6260000Y-6549432I-45051J-21688D01*
G01*
X6255052Y-6527744D02*
G75*
G02*
X6325329Y-6462886I45052J21688D01*
G01*
X6260000Y-6690000D02*
G75*
G02*
X6255052Y-6711688I-49999J0D01*
G01*
X6325329Y-6776545D02*
G75*
G02*
X6255052Y-6711688I-25226J43170D01*
G01*
X6325329Y-6776546D02*
G75*
G02*
X6350555Y-6769716I25226J-43171D01*
G01*
X6350555Y-6469716D02*
G75*
G02*
X6325329Y-6462886I0J50001D01*
G01*
X6509445Y-6769716D02*
G75*
G02*
X6534671Y-6776546I0J-50001D01*
G01*
X6534671Y-6462886D02*
G75*
G02*
X6509445Y-6469716I-25226J43171D01*
G01*
X6534671Y-6462886D02*
G75*
G02*
X6604948Y-6527744I25226J-43170D01*
G01*
X6600000Y-6549431D02*
G75*
G02*
X6604948Y-6527743I50000J2D01*
G01*
X6604948Y-6711688D02*
G75*
G02*
X6534671Y-6776546I-45051J-21688D01*
G01*
X6604948Y-6711688D02*
G75*
G02*
X6600000Y-6690000I45052J21688D01*
G01*
X6260000Y-9090000D02*
X6260000Y-8949432D01*
X6350555Y-8869716D02*
X6509445Y-8869716D01*
X6509445Y-9169716D02*
X6350555Y-9169716D01*
X6600000Y-8949432D02*
X6600000Y-9090000D01*
X6255052Y-8927744D02*
G75*
G02*
X6260000Y-8949432I-45051J-21688D01*
G01*
X6255052Y-8927744D02*
G75*
G02*
X6325329Y-8862886I45052J21688D01*
G01*
X6260000Y-9090000D02*
G75*
G02*
X6255052Y-9111688I-49999J0D01*
G01*
X6325329Y-9176546D02*
G75*
G02*
X6255052Y-9111688I-25226J43170D01*
G01*
X6325329Y-9176546D02*
G75*
G02*
X6350555Y-9169716I25226J-43171D01*
G01*
X6350555Y-8869716D02*
G75*
G02*
X6325329Y-8862886I0J50001D01*
G01*
X6509445Y-9169716D02*
G75*
G02*
X6534671Y-9176546I0J-50001D01*
G01*
X6534671Y-8862886D02*
G75*
G02*
X6509445Y-8869716I-25226J43171D01*
G01*
X6534671Y-8862886D02*
G75*
G02*
X6604948Y-8927744I25226J-43170D01*
G01*
X6600000Y-8949432D02*
G75*
G02*
X6604948Y-8927744I50000J2D01*
G01*
X6604948Y-9111688D02*
G75*
G02*
X6534671Y-9176546I-45051J-21688D01*
G01*
X6604948Y-9111688D02*
G75*
G02*
X6600000Y-9090000I45052J21688D01*
G01*
X3870000Y-11470000D02*
X3870000Y-11329432D01*
X3960555Y-11249716D02*
X4119445Y-11249716D01*
X4119445Y-11549716D02*
X3960555Y-11549716D01*
X4210000Y-11329432D02*
X4210000Y-11470000D01*
X3865052Y-11307744D02*
G75*
G02*
X3870000Y-11329432I-45051J-21688D01*
G01*
X3865052Y-11307744D02*
G75*
G02*
X3935329Y-11242886I45052J21688D01*
G01*
X3870000Y-11470000D02*
G75*
G02*
X3865052Y-11491688I-49999J0D01*
G01*
X3935329Y-11556545D02*
G75*
G02*
X3865052Y-11491688I-25226J43170D01*
G01*
X3935329Y-11556546D02*
G75*
G02*
X3960555Y-11549716I25226J-43171D01*
G01*
X3960555Y-11249716D02*
G75*
G02*
X3935329Y-11242886I0J50001D01*
G01*
X4119445Y-11549716D02*
G75*
G02*
X4144671Y-11556546I0J-50001D01*
G01*
X4144671Y-11242886D02*
G75*
G02*
X4119445Y-11249716I-25226J43171D01*
G01*
X4144671Y-11242886D02*
G75*
G02*
X4214948Y-11307744I25226J-43170D01*
G01*
X4210000Y-11329431D02*
G75*
G02*
X4214948Y-11307743I50000J2D01*
G01*
X4214949Y-11491688D02*
G75*
G02*
X4144671Y-11556546I-45051J-21688D01*
G01*
X4214949Y-11491688D02*
G75*
G02*
X4210000Y-11470000I45052J21688D01*
G01*
X8630000Y-6660000D02*
X8630000Y-6519432D01*
X8720555Y-6439716D02*
X8879445Y-6439716D01*
X8879445Y-6739716D02*
X8720555Y-6739716D01*
X8970000Y-6519432D02*
X8970000Y-6660000D01*
X8625052Y-6497744D02*
G75*
G02*
X8630000Y-6519432I-45051J-21688D01*
G01*
X8625052Y-6497744D02*
G75*
G02*
X8695329Y-6432886I45052J21688D01*
G01*
X8630000Y-6660000D02*
G75*
G02*
X8625052Y-6681688I-49999J0D01*
G01*
X8695329Y-6746545D02*
G75*
G02*
X8625052Y-6681688I-25226J43170D01*
G01*
X8695329Y-6746546D02*
G75*
G02*
X8720555Y-6739716I25226J-43171D01*
G01*
X8720555Y-6439716D02*
G75*
G02*
X8695329Y-6432886I0J50001D01*
G01*
X8879445Y-6739716D02*
G75*
G02*
X8904671Y-6746546I0J-50001D01*
G01*
X8904671Y-6432886D02*
G75*
G02*
X8879445Y-6439716I-25226J43171D01*
G01*
X8904671Y-6432886D02*
G75*
G02*
X8974948Y-6497744I25226J-43170D01*
G01*
X8970000Y-6519431D02*
G75*
G02*
X8974948Y-6497743I50000J2D01*
G01*
X8974949Y-6681688D02*
G75*
G02*
X8904671Y-6746546I-45051J-21688D01*
G01*
X8974949Y-6681688D02*
G75*
G02*
X8970000Y-6660000I45052J21688D01*
G01*
X8630000Y-9090000D02*
X8630000Y-8949432D01*
X8720555Y-8869716D02*
X8879445Y-8869716D01*
X8879445Y-9169716D02*
X8720555Y-9169716D01*
X8970000Y-8949432D02*
X8970000Y-9090000D01*
X8625052Y-8927744D02*
G75*
G02*
X8630000Y-8949432I-45051J-21688D01*
G01*
X8625052Y-8927744D02*
G75*
G02*
X8695329Y-8862886I45052J21688D01*
G01*
X8630000Y-9090000D02*
G75*
G02*
X8625052Y-9111688I-49999J0D01*
G01*
X8695329Y-9176546D02*
G75*
G02*
X8625052Y-9111688I-25226J43170D01*
G01*
X8695329Y-9176546D02*
G75*
G02*
X8720555Y-9169716I25226J-43171D01*
G01*
X8720555Y-8869716D02*
G75*
G02*
X8695329Y-8862886I0J50001D01*
G01*
X8879445Y-9169716D02*
G75*
G02*
X8904671Y-9176546I0J-50001D01*
G01*
X8904671Y-8862886D02*
G75*
G02*
X8879445Y-8869716I-25226J43171D01*
G01*
X8904671Y-8862886D02*
G75*
G02*
X8974948Y-8927744I25226J-43170D01*
G01*
X8970000Y-8949432D02*
G75*
G02*
X8974948Y-8927744I50000J2D01*
G01*
X8974949Y-9111688D02*
G75*
G02*
X8904671Y-9176546I-45051J-21688D01*
G01*
X8974949Y-9111688D02*
G75*
G02*
X8970000Y-9090000I45052J21688D01*
G01*
D12*
D13*
X3455125Y-10868750D02*
X3625125Y-11038750D01*
X3625125Y-10868750D02*
X3455125Y-11038750D01*
X4471125Y-10868750D02*
X4641125Y-11038750D01*
X4641125Y-10868750D02*
X4471125Y-11038750D01*
X5836375Y-6060000D02*
X6006375Y-6230000D01*
X6006375Y-6060000D02*
X5836375Y-6230000D01*
X5836375Y-8487500D02*
X6006375Y-8657500D01*
X6006375Y-8487500D02*
X5836375Y-8657500D01*
X6852375Y-6060000D02*
X7022375Y-6230000D01*
X7022375Y-6060000D02*
X6852375Y-6230000D01*
X6852375Y-8487500D02*
X7022375Y-8657500D01*
X7022375Y-8487500D02*
X6852375Y-8657500D01*
X7265125Y-10868750D02*
X7435125Y-11038750D01*
X7435125Y-10868750D02*
X7265125Y-11038750D01*
X8207625Y-6060000D02*
X8377625Y-6230000D01*
X8377625Y-6060000D02*
X8207625Y-6230000D01*
X8217625Y-8487500D02*
X8387625Y-8657500D01*
X8387625Y-8487500D02*
X8217625Y-8657500D01*
X8281125Y-10868750D02*
X8451125Y-11038750D01*
X8451125Y-10868750D02*
X8281125Y-11038750D01*
X9223625Y-6060000D02*
X9393625Y-6230000D01*
X9393625Y-6060000D02*
X9223625Y-6230000D01*
X9233625Y-8487500D02*
X9403625Y-8657500D01*
X9403625Y-8487500D02*
X9233625Y-8657500D01*
X10598875Y-6060000D02*
X10768875Y-6230000D01*
X10768875Y-6060000D02*
X10598875Y-6230000D01*
X10598875Y-8487500D02*
X10768875Y-8657500D01*
X10768875Y-8487500D02*
X10598875Y-8657500D01*
X11614875Y-6060000D02*
X11784875Y-6230000D01*
X11784875Y-6060000D02*
X11614875Y-6230000D01*
X11614875Y-8487500D02*
X11784875Y-8657500D01*
X11784875Y-8487500D02*
X11614875Y-8657500D01*
D14*
X4248125Y-10953750D02*
G75*
G02*
X3848125Y-10953750I-200000J0D01*
G01*
X3848125Y-10953750D02*
G75*
G02*
X4248125Y-10953750I200000J0D01*
G01*
X6629375Y-6145000D02*
G75*
G02*
X6229375Y-6145000I-200000J0D01*
G01*
X6229375Y-6145000D02*
G75*
G02*
X6629375Y-6145000I200000J0D01*
G01*
X6629375Y-8572500D02*
G75*
G02*
X6229375Y-8572500I-200000J0D01*
G01*
X6229375Y-8572500D02*
G75*
G02*
X6629375Y-8572500I200000J0D01*
G01*
X8058125Y-10953750D02*
G75*
G02*
X7658125Y-10953750I-200000J0D01*
G01*
X7658125Y-10953750D02*
G75*
G02*
X8058125Y-10953750I200000J0D01*
G01*
X9000625Y-6145000D02*
G75*
G02*
X8600625Y-6145000I-200000J0D01*
G01*
X8600625Y-6145000D02*
G75*
G02*
X9000625Y-6145000I200000J0D01*
G01*
X9010625Y-8572500D02*
G75*
G02*
X8610625Y-8572500I-200000J0D01*
G01*
X8610625Y-8572500D02*
G75*
G02*
X9010625Y-8572500I200000J0D01*
G01*
X11391875Y-6145000D02*
G75*
G02*
X10991875Y-6145000I-200000J0D01*
G01*
X10991875Y-6145000D02*
G75*
G02*
X11391875Y-6145000I200000J0D01*
G01*
X11391875Y-8572500D02*
G75*
G02*
X10991875Y-8572500I-200000J0D01*
G01*
X10991875Y-8572500D02*
G75*
G02*
X11391875Y-8572500I200000J0D01*
G01*
D12*
X2858277Y-12713984D02*
X2858277Y-12513984D01*
X2858277Y-12513984D02*
X2905896Y-12513984D01*
X2905896Y-12513984D02*
X2934467Y-12523508D01*
X2934467Y-12523508D02*
X2953515Y-12542555D01*
X2953515Y-12542555D02*
X2963039Y-12561603D01*
X2963039Y-12561603D02*
X2972562Y-12599698D01*
X2972562Y-12599698D02*
X2972562Y-12628269D01*
X2972562Y-12628269D02*
X2963039Y-12666365D01*
X2963039Y-12666365D02*
X2953515Y-12685412D01*
X2953515Y-12685412D02*
X2934467Y-12704460D01*
X2934467Y-12704460D02*
X2905896Y-12713984D01*
X2905896Y-12713984D02*
X2858277Y-12713984D01*
X3058277Y-12713984D02*
X3058277Y-12580650D01*
X3058277Y-12618746D02*
X3067801Y-12599698D01*
X3067801Y-12599698D02*
X3077324Y-12590174D01*
X3077324Y-12590174D02*
X3096372Y-12580650D01*
X3096372Y-12580650D02*
X3115420Y-12580650D01*
X3182086Y-12713984D02*
X3182086Y-12580650D01*
X3182086Y-12513984D02*
X3172562Y-12523508D01*
X3172562Y-12523508D02*
X3182086Y-12533031D01*
X3182086Y-12533031D02*
X3191610Y-12523508D01*
X3191610Y-12523508D02*
X3182086Y-12513984D01*
X3182086Y-12513984D02*
X3182086Y-12533031D01*
X3305896Y-12713984D02*
X3286848Y-12704460D01*
X3286848Y-12704460D02*
X3277324Y-12685412D01*
X3277324Y-12685412D02*
X3277324Y-12513984D01*
X3410658Y-12713984D02*
X3391610Y-12704460D01*
X3391610Y-12704460D02*
X3382086Y-12685412D01*
X3382086Y-12685412D02*
X3382086Y-12513984D01*
X3639229Y-12713984D02*
X3639229Y-12513984D01*
X3639229Y-12513984D02*
X3705896Y-12656841D01*
X3705896Y-12656841D02*
X3772562Y-12513984D01*
X3772562Y-12513984D02*
X3772562Y-12713984D01*
X3953515Y-12713984D02*
X3953515Y-12609222D01*
X3953515Y-12609222D02*
X3943991Y-12590174D01*
X3943991Y-12590174D02*
X3924943Y-12580650D01*
X3924943Y-12580650D02*
X3886848Y-12580650D01*
X3886848Y-12580650D02*
X3867801Y-12590174D01*
X3953515Y-12704460D02*
X3934467Y-12713984D01*
X3934467Y-12713984D02*
X3886848Y-12713984D01*
X3886848Y-12713984D02*
X3867801Y-12704460D01*
X3867801Y-12704460D02*
X3858277Y-12685412D01*
X3858277Y-12685412D02*
X3858277Y-12666365D01*
X3858277Y-12666365D02*
X3867801Y-12647317D01*
X3867801Y-12647317D02*
X3886848Y-12637793D01*
X3886848Y-12637793D02*
X3934467Y-12637793D01*
X3934467Y-12637793D02*
X3953515Y-12628269D01*
X4048753Y-12580650D02*
X4048753Y-12780650D01*
X4048753Y-12590174D02*
X4067801Y-12580650D01*
X4067801Y-12580650D02*
X4105896Y-12580650D01*
X4105896Y-12580650D02*
X4124943Y-12590174D01*
X4124943Y-12590174D02*
X4134467Y-12599698D01*
X4134467Y-12599698D02*
X4143991Y-12618746D01*
X4143991Y-12618746D02*
X4143991Y-12675888D01*
X4143991Y-12675888D02*
X4134467Y-12694936D01*
X4134467Y-12694936D02*
X4124943Y-12704460D01*
X4124943Y-12704460D02*
X4105896Y-12713984D01*
X4105896Y-12713984D02*
X4067801Y-12713984D01*
X4067801Y-12713984D02*
X4048753Y-12704460D01*
X4229705Y-12694936D02*
X4239229Y-12704460D01*
X4239229Y-12704460D02*
X4229705Y-12713984D01*
X4229705Y-12713984D02*
X4220182Y-12704460D01*
X4220182Y-12704460D02*
X4229705Y-12694936D01*
X4229705Y-12694936D02*
X4229705Y-12713984D01*
X4229705Y-12590174D02*
X4239229Y-12599698D01*
X4239229Y-12599698D02*
X4229705Y-12609222D01*
X4229705Y-12609222D02*
X4220182Y-12599698D01*
X4220182Y-12599698D02*
X4229705Y-12590174D01*
X4229705Y-12590174D02*
X4229705Y-12609222D01*
D13*
X2427500Y-12957500D02*
X2597500Y-13127500D01*
X2597500Y-12957500D02*
X2427500Y-13127500D01*
D12*
X2963039Y-13133984D02*
X2848753Y-13133984D01*
X2905896Y-13133984D02*
X2905896Y-12933984D01*
X2905896Y-12933984D02*
X2886848Y-12962555D01*
X2886848Y-12962555D02*
X2867801Y-12981603D01*
X2867801Y-12981603D02*
X2848753Y-12991127D01*
X3048753Y-13114936D02*
X3058277Y-13124460D01*
X3058277Y-13124460D02*
X3048753Y-13133984D01*
X3048753Y-13133984D02*
X3039229Y-13124460D01*
X3039229Y-13124460D02*
X3048753Y-13114936D01*
X3048753Y-13114936D02*
X3048753Y-13133984D01*
X3124943Y-12933984D02*
X3258277Y-12933984D01*
X3258277Y-12933984D02*
X3172562Y-13133984D01*
X3372562Y-12933984D02*
X3391610Y-12933984D01*
X3391610Y-12933984D02*
X3410658Y-12943508D01*
X3410658Y-12943508D02*
X3420182Y-12953031D01*
X3420182Y-12953031D02*
X3429705Y-12972079D01*
X3429705Y-12972079D02*
X3439229Y-13010174D01*
X3439229Y-13010174D02*
X3439229Y-13057793D01*
X3439229Y-13057793D02*
X3429705Y-13095888D01*
X3429705Y-13095888D02*
X3420182Y-13114936D01*
X3420182Y-13114936D02*
X3410658Y-13124460D01*
X3410658Y-13124460D02*
X3391610Y-13133984D01*
X3391610Y-13133984D02*
X3372562Y-13133984D01*
X3372562Y-13133984D02*
X3353515Y-13124460D01*
X3353515Y-13124460D02*
X3343991Y-13114936D01*
X3343991Y-13114936D02*
X3334467Y-13095888D01*
X3334467Y-13095888D02*
X3324943Y-13057793D01*
X3324943Y-13057793D02*
X3324943Y-13010174D01*
X3324943Y-13010174D02*
X3334467Y-12972079D01*
X3334467Y-12972079D02*
X3343991Y-12953031D01*
X3343991Y-12953031D02*
X3353515Y-12943508D01*
X3353515Y-12943508D02*
X3372562Y-12933984D01*
X3563039Y-12933984D02*
X3582086Y-12933984D01*
X3582086Y-12933984D02*
X3601134Y-12943508D01*
X3601134Y-12943508D02*
X3610658Y-12953031D01*
X3610658Y-12953031D02*
X3620182Y-12972079D01*
X3620182Y-12972079D02*
X3629705Y-13010174D01*
X3629705Y-13010174D02*
X3629705Y-13057793D01*
X3629705Y-13057793D02*
X3620182Y-13095888D01*
X3620182Y-13095888D02*
X3610658Y-13114936D01*
X3610658Y-13114936D02*
X3601134Y-13124460D01*
X3601134Y-13124460D02*
X3582086Y-13133984D01*
X3582086Y-13133984D02*
X3563039Y-13133984D01*
X3563039Y-13133984D02*
X3543991Y-13124460D01*
X3543991Y-13124460D02*
X3534467Y-13114936D01*
X3534467Y-13114936D02*
X3524943Y-13095888D01*
X3524943Y-13095888D02*
X3515420Y-13057793D01*
X3515420Y-13057793D02*
X3515420Y-13010174D01*
X3515420Y-13010174D02*
X3524943Y-12972079D01*
X3524943Y-12972079D02*
X3534467Y-12953031D01*
X3534467Y-12953031D02*
X3543991Y-12943508D01*
X3543991Y-12943508D02*
X3563039Y-12933984D01*
X3715420Y-13133984D02*
X3715420Y-13000650D01*
X3715420Y-13019698D02*
X3724943Y-13010174D01*
X3724943Y-13010174D02*
X3743991Y-13000650D01*
X3743991Y-13000650D02*
X3772563Y-13000650D01*
X3772563Y-13000650D02*
X3791610Y-13010174D01*
X3791610Y-13010174D02*
X3801134Y-13029222D01*
X3801134Y-13029222D02*
X3801134Y-13133984D01*
X3801134Y-13029222D02*
X3810658Y-13010174D01*
X3810658Y-13010174D02*
X3829705Y-13000650D01*
X3829705Y-13000650D02*
X3858277Y-13000650D01*
X3858277Y-13000650D02*
X3877324Y-13010174D01*
X3877324Y-13010174D02*
X3886848Y-13029222D01*
X3886848Y-13029222D02*
X3886848Y-13133984D01*
X3982086Y-13133984D02*
X3982086Y-13000650D01*
X3982086Y-13019698D02*
X3991610Y-13010174D01*
X3991610Y-13010174D02*
X4010658Y-13000650D01*
X4010658Y-13000650D02*
X4039229Y-13000650D01*
X4039229Y-13000650D02*
X4058277Y-13010174D01*
X4058277Y-13010174D02*
X4067801Y-13029222D01*
X4067801Y-13029222D02*
X4067801Y-13133984D01*
X4067801Y-13029222D02*
X4077324Y-13010174D01*
X4077324Y-13010174D02*
X4096372Y-13000650D01*
X4096372Y-13000650D02*
X4124943Y-13000650D01*
X4124943Y-13000650D02*
X4143991Y-13010174D01*
X4143991Y-13010174D02*
X4153515Y-13029222D01*
X4153515Y-13029222D02*
X4153515Y-13133984D01*
X4543991Y-12924460D02*
X4372563Y-13181603D01*
X4801134Y-12933984D02*
X4820182Y-12933984D01*
X4820182Y-12933984D02*
X4839229Y-12943508D01*
X4839229Y-12943508D02*
X4848753Y-12953031D01*
X4848753Y-12953031D02*
X4858277Y-12972079D01*
X4858277Y-12972079D02*
X4867801Y-13010174D01*
X4867801Y-13010174D02*
X4867801Y-13057793D01*
X4867801Y-13057793D02*
X4858277Y-13095888D01*
X4858277Y-13095888D02*
X4848753Y-13114936D01*
X4848753Y-13114936D02*
X4839229Y-13124460D01*
X4839229Y-13124460D02*
X4820182Y-13133984D01*
X4820182Y-13133984D02*
X4801134Y-13133984D01*
X4801134Y-13133984D02*
X4782087Y-13124460D01*
X4782087Y-13124460D02*
X4772563Y-13114936D01*
X4772563Y-13114936D02*
X4763039Y-13095888D01*
X4763039Y-13095888D02*
X4753515Y-13057793D01*
X4753515Y-13057793D02*
X4753515Y-13010174D01*
X4753515Y-13010174D02*
X4763039Y-12972079D01*
X4763039Y-12972079D02*
X4772563Y-12953031D01*
X4772563Y-12953031D02*
X4782087Y-12943508D01*
X4782087Y-12943508D02*
X4801134Y-12933984D01*
X4953515Y-13114936D02*
X4963039Y-13124460D01*
X4963039Y-13124460D02*
X4953515Y-13133984D01*
X4953515Y-13133984D02*
X4943991Y-13124460D01*
X4943991Y-13124460D02*
X4953515Y-13114936D01*
X4953515Y-13114936D02*
X4953515Y-13133984D01*
X5086848Y-12933984D02*
X5105896Y-12933984D01*
X5105896Y-12933984D02*
X5124944Y-12943508D01*
X5124944Y-12943508D02*
X5134468Y-12953031D01*
X5134468Y-12953031D02*
X5143991Y-12972079D01*
X5143991Y-12972079D02*
X5153515Y-13010174D01*
X5153515Y-13010174D02*
X5153515Y-13057793D01*
X5153515Y-13057793D02*
X5143991Y-13095888D01*
X5143991Y-13095888D02*
X5134468Y-13114936D01*
X5134468Y-13114936D02*
X5124944Y-13124460D01*
X5124944Y-13124460D02*
X5105896Y-13133984D01*
X5105896Y-13133984D02*
X5086848Y-13133984D01*
X5086848Y-13133984D02*
X5067801Y-13124460D01*
X5067801Y-13124460D02*
X5058277Y-13114936D01*
X5058277Y-13114936D02*
X5048753Y-13095888D01*
X5048753Y-13095888D02*
X5039229Y-13057793D01*
X5039229Y-13057793D02*
X5039229Y-13010174D01*
X5039229Y-13010174D02*
X5048753Y-12972079D01*
X5048753Y-12972079D02*
X5058277Y-12953031D01*
X5058277Y-12953031D02*
X5067801Y-12943508D01*
X5067801Y-12943508D02*
X5086848Y-12933984D01*
X5324944Y-12933984D02*
X5286848Y-12933984D01*
X5286848Y-12933984D02*
X5267801Y-12943508D01*
X5267801Y-12943508D02*
X5258277Y-12953031D01*
X5258277Y-12953031D02*
X5239229Y-12981603D01*
X5239229Y-12981603D02*
X5229706Y-13019698D01*
X5229706Y-13019698D02*
X5229706Y-13095888D01*
X5229706Y-13095888D02*
X5239229Y-13114936D01*
X5239229Y-13114936D02*
X5248753Y-13124460D01*
X5248753Y-13124460D02*
X5267801Y-13133984D01*
X5267801Y-13133984D02*
X5305896Y-13133984D01*
X5305896Y-13133984D02*
X5324944Y-13124460D01*
X5324944Y-13124460D02*
X5334468Y-13114936D01*
X5334468Y-13114936D02*
X5343991Y-13095888D01*
X5343991Y-13095888D02*
X5343991Y-13048269D01*
X5343991Y-13048269D02*
X5334468Y-13029222D01*
X5334468Y-13029222D02*
X5324944Y-13019698D01*
X5324944Y-13019698D02*
X5305896Y-13010174D01*
X5305896Y-13010174D02*
X5267801Y-13010174D01*
X5267801Y-13010174D02*
X5248753Y-13019698D01*
X5248753Y-13019698D02*
X5239229Y-13029222D01*
X5239229Y-13029222D02*
X5229706Y-13048269D01*
X5515420Y-12933984D02*
X5477325Y-12933984D01*
X5477325Y-12933984D02*
X5458277Y-12943508D01*
X5458277Y-12943508D02*
X5448753Y-12953031D01*
X5448753Y-12953031D02*
X5429706Y-12981603D01*
X5429706Y-12981603D02*
X5420182Y-13019698D01*
X5420182Y-13019698D02*
X5420182Y-13095888D01*
X5420182Y-13095888D02*
X5429706Y-13114936D01*
X5429706Y-13114936D02*
X5439229Y-13124460D01*
X5439229Y-13124460D02*
X5458277Y-13133984D01*
X5458277Y-13133984D02*
X5496372Y-13133984D01*
X5496372Y-13133984D02*
X5515420Y-13124460D01*
X5515420Y-13124460D02*
X5524944Y-13114936D01*
X5524944Y-13114936D02*
X5534468Y-13095888D01*
X5534468Y-13095888D02*
X5534468Y-13048269D01*
X5534468Y-13048269D02*
X5524944Y-13029222D01*
X5524944Y-13029222D02*
X5515420Y-13019698D01*
X5515420Y-13019698D02*
X5496372Y-13010174D01*
X5496372Y-13010174D02*
X5458277Y-13010174D01*
X5458277Y-13010174D02*
X5439229Y-13019698D01*
X5439229Y-13019698D02*
X5429706Y-13029222D01*
X5429706Y-13029222D02*
X5420182Y-13048269D01*
X5629706Y-13133984D02*
X5667801Y-13133984D01*
X5667801Y-13133984D02*
X5686848Y-13124460D01*
X5686848Y-13124460D02*
X5696372Y-13114936D01*
X5696372Y-13114936D02*
X5715420Y-13086365D01*
X5715420Y-13086365D02*
X5724944Y-13048269D01*
X5724944Y-13048269D02*
X5724944Y-12972079D01*
X5724944Y-12972079D02*
X5715420Y-12953031D01*
X5715420Y-12953031D02*
X5705896Y-12943508D01*
X5705896Y-12943508D02*
X5686848Y-12933984D01*
X5686848Y-12933984D02*
X5648753Y-12933984D01*
X5648753Y-12933984D02*
X5629706Y-12943508D01*
X5629706Y-12943508D02*
X5620182Y-12953031D01*
X5620182Y-12953031D02*
X5610658Y-12972079D01*
X5610658Y-12972079D02*
X5610658Y-13019698D01*
X5610658Y-13019698D02*
X5620182Y-13038746D01*
X5620182Y-13038746D02*
X5629706Y-13048269D01*
X5629706Y-13048269D02*
X5648753Y-13057793D01*
X5648753Y-13057793D02*
X5686848Y-13057793D01*
X5686848Y-13057793D02*
X5705896Y-13048269D01*
X5705896Y-13048269D02*
X5715420Y-13038746D01*
X5715420Y-13038746D02*
X5724944Y-13019698D01*
X5801134Y-12933984D02*
X5801134Y-12972079D01*
X5877325Y-12933984D02*
X5877325Y-12972079D01*
X6172563Y-13210174D02*
X6163039Y-13200650D01*
X6163039Y-13200650D02*
X6143991Y-13172079D01*
X6143991Y-13172079D02*
X6134468Y-13153031D01*
X6134468Y-13153031D02*
X6124944Y-13124460D01*
X6124944Y-13124460D02*
X6115420Y-13076841D01*
X6115420Y-13076841D02*
X6115420Y-13038746D01*
X6115420Y-13038746D02*
X6124944Y-12991127D01*
X6124944Y-12991127D02*
X6134468Y-12962555D01*
X6134468Y-12962555D02*
X6143991Y-12943508D01*
X6143991Y-12943508D02*
X6163039Y-12914936D01*
X6163039Y-12914936D02*
X6172563Y-12905412D01*
X6353515Y-13133984D02*
X6239229Y-13133984D01*
X6296372Y-13133984D02*
X6296372Y-12933984D01*
X6296372Y-12933984D02*
X6277325Y-12962555D01*
X6277325Y-12962555D02*
X6258277Y-12981603D01*
X6258277Y-12981603D02*
X6239229Y-12991127D01*
X6524944Y-12933984D02*
X6486848Y-12933984D01*
X6486848Y-12933984D02*
X6467801Y-12943508D01*
X6467801Y-12943508D02*
X6458277Y-12953031D01*
X6458277Y-12953031D02*
X6439229Y-12981603D01*
X6439229Y-12981603D02*
X6429706Y-13019698D01*
X6429706Y-13019698D02*
X6429706Y-13095888D01*
X6429706Y-13095888D02*
X6439229Y-13114936D01*
X6439229Y-13114936D02*
X6448753Y-13124460D01*
X6448753Y-13124460D02*
X6467801Y-13133984D01*
X6467801Y-13133984D02*
X6505896Y-13133984D01*
X6505896Y-13133984D02*
X6524944Y-13124460D01*
X6524944Y-13124460D02*
X6534468Y-13114936D01*
X6534468Y-13114936D02*
X6543991Y-13095888D01*
X6543991Y-13095888D02*
X6543991Y-13048269D01*
X6543991Y-13048269D02*
X6534468Y-13029222D01*
X6534468Y-13029222D02*
X6524944Y-13019698D01*
X6524944Y-13019698D02*
X6505896Y-13010174D01*
X6505896Y-13010174D02*
X6467801Y-13010174D01*
X6467801Y-13010174D02*
X6448753Y-13019698D01*
X6448753Y-13019698D02*
X6439229Y-13029222D01*
X6439229Y-13029222D02*
X6429706Y-13048269D01*
X6782087Y-13133984D02*
X6782087Y-12933984D01*
X6867801Y-13133984D02*
X6867801Y-13029222D01*
X6867801Y-13029222D02*
X6858277Y-13010174D01*
X6858277Y-13010174D02*
X6839230Y-13000650D01*
X6839230Y-13000650D02*
X6810658Y-13000650D01*
X6810658Y-13000650D02*
X6791610Y-13010174D01*
X6791610Y-13010174D02*
X6782087Y-13019698D01*
X6991610Y-13133984D02*
X6972563Y-13124460D01*
X6972563Y-13124460D02*
X6963039Y-13114936D01*
X6963039Y-13114936D02*
X6953515Y-13095888D01*
X6953515Y-13095888D02*
X6953515Y-13038746D01*
X6953515Y-13038746D02*
X6963039Y-13019698D01*
X6963039Y-13019698D02*
X6972563Y-13010174D01*
X6972563Y-13010174D02*
X6991610Y-13000650D01*
X6991610Y-13000650D02*
X7020182Y-13000650D01*
X7020182Y-13000650D02*
X7039230Y-13010174D01*
X7039230Y-13010174D02*
X7048753Y-13019698D01*
X7048753Y-13019698D02*
X7058277Y-13038746D01*
X7058277Y-13038746D02*
X7058277Y-13095888D01*
X7058277Y-13095888D02*
X7048753Y-13114936D01*
X7048753Y-13114936D02*
X7039230Y-13124460D01*
X7039230Y-13124460D02*
X7020182Y-13133984D01*
X7020182Y-13133984D02*
X6991610Y-13133984D01*
X7172563Y-13133984D02*
X7153515Y-13124460D01*
X7153515Y-13124460D02*
X7143991Y-13105412D01*
X7143991Y-13105412D02*
X7143991Y-12933984D01*
X7324944Y-13124460D02*
X7305896Y-13133984D01*
X7305896Y-13133984D02*
X7267801Y-13133984D01*
X7267801Y-13133984D02*
X7248753Y-13124460D01*
X7248753Y-13124460D02*
X7239230Y-13105412D01*
X7239230Y-13105412D02*
X7239230Y-13029222D01*
X7239230Y-13029222D02*
X7248753Y-13010174D01*
X7248753Y-13010174D02*
X7267801Y-13000650D01*
X7267801Y-13000650D02*
X7305896Y-13000650D01*
X7305896Y-13000650D02*
X7324944Y-13010174D01*
X7324944Y-13010174D02*
X7334468Y-13029222D01*
X7334468Y-13029222D02*
X7334468Y-13048269D01*
X7334468Y-13048269D02*
X7239230Y-13067317D01*
X7410658Y-13124460D02*
X7429706Y-13133984D01*
X7429706Y-13133984D02*
X7467801Y-13133984D01*
X7467801Y-13133984D02*
X7486849Y-13124460D01*
X7486849Y-13124460D02*
X7496372Y-13105412D01*
X7496372Y-13105412D02*
X7496372Y-13095888D01*
X7496372Y-13095888D02*
X7486849Y-13076841D01*
X7486849Y-13076841D02*
X7467801Y-13067317D01*
X7467801Y-13067317D02*
X7439230Y-13067317D01*
X7439230Y-13067317D02*
X7420182Y-13057793D01*
X7420182Y-13057793D02*
X7410658Y-13038746D01*
X7410658Y-13038746D02*
X7410658Y-13029222D01*
X7410658Y-13029222D02*
X7420182Y-13010174D01*
X7420182Y-13010174D02*
X7439230Y-13000650D01*
X7439230Y-13000650D02*
X7467801Y-13000650D01*
X7467801Y-13000650D02*
X7486849Y-13010174D01*
X7563039Y-13210174D02*
X7572563Y-13200650D01*
X7572563Y-13200650D02*
X7591611Y-13172079D01*
X7591611Y-13172079D02*
X7601134Y-13153031D01*
X7601134Y-13153031D02*
X7610658Y-13124460D01*
X7610658Y-13124460D02*
X7620182Y-13076841D01*
X7620182Y-13076841D02*
X7620182Y-13038746D01*
X7620182Y-13038746D02*
X7610658Y-12991127D01*
X7610658Y-12991127D02*
X7601134Y-12962555D01*
X7601134Y-12962555D02*
X7591611Y-12943508D01*
X7591611Y-12943508D02*
X7572563Y-12914936D01*
X7572563Y-12914936D02*
X7563039Y-12905412D01*
X7924944Y-13210174D02*
X7915420Y-13200650D01*
X7915420Y-13200650D02*
X7896372Y-13172079D01*
X7896372Y-13172079D02*
X7886849Y-13153031D01*
X7886849Y-13153031D02*
X7877325Y-13124460D01*
X7877325Y-13124460D02*
X7867801Y-13076841D01*
X7867801Y-13076841D02*
X7867801Y-13038746D01*
X7867801Y-13038746D02*
X7877325Y-12991127D01*
X7877325Y-12991127D02*
X7886849Y-12962555D01*
X7886849Y-12962555D02*
X7896372Y-12943508D01*
X7896372Y-12943508D02*
X7915420Y-12914936D01*
X7915420Y-12914936D02*
X7924944Y-12905412D01*
X8001134Y-13000650D02*
X8001134Y-13133984D01*
X8001134Y-13019698D02*
X8010658Y-13010174D01*
X8010658Y-13010174D02*
X8029706Y-13000650D01*
X8029706Y-13000650D02*
X8058277Y-13000650D01*
X8058277Y-13000650D02*
X8077325Y-13010174D01*
X8077325Y-13010174D02*
X8086849Y-13029222D01*
X8086849Y-13029222D02*
X8086849Y-13133984D01*
X8210658Y-13133984D02*
X8191611Y-13124460D01*
X8191611Y-13124460D02*
X8182087Y-13114936D01*
X8182087Y-13114936D02*
X8172563Y-13095888D01*
X8172563Y-13095888D02*
X8172563Y-13038746D01*
X8172563Y-13038746D02*
X8182087Y-13019698D01*
X8182087Y-13019698D02*
X8191611Y-13010174D01*
X8191611Y-13010174D02*
X8210658Y-13000650D01*
X8210658Y-13000650D02*
X8239230Y-13000650D01*
X8239230Y-13000650D02*
X8258277Y-13010174D01*
X8258277Y-13010174D02*
X8267801Y-13019698D01*
X8267801Y-13019698D02*
X8277325Y-13038746D01*
X8277325Y-13038746D02*
X8277325Y-13095888D01*
X8277325Y-13095888D02*
X8267801Y-13114936D01*
X8267801Y-13114936D02*
X8258277Y-13124460D01*
X8258277Y-13124460D02*
X8239230Y-13133984D01*
X8239230Y-13133984D02*
X8210658Y-13133984D01*
X8334468Y-13000650D02*
X8410658Y-13000650D01*
X8363039Y-12933984D02*
X8363039Y-13105412D01*
X8363039Y-13105412D02*
X8372563Y-13124460D01*
X8372563Y-13124460D02*
X8391611Y-13133984D01*
X8391611Y-13133984D02*
X8410658Y-13133984D01*
X8629706Y-13000650D02*
X8629706Y-13200650D01*
X8629706Y-13010174D02*
X8648754Y-13000650D01*
X8648754Y-13000650D02*
X8686849Y-13000650D01*
X8686849Y-13000650D02*
X8705896Y-13010174D01*
X8705896Y-13010174D02*
X8715420Y-13019698D01*
X8715420Y-13019698D02*
X8724944Y-13038746D01*
X8724944Y-13038746D02*
X8724944Y-13095888D01*
X8724944Y-13095888D02*
X8715420Y-13114936D01*
X8715420Y-13114936D02*
X8705896Y-13124460D01*
X8705896Y-13124460D02*
X8686849Y-13133984D01*
X8686849Y-13133984D02*
X8648754Y-13133984D01*
X8648754Y-13133984D02*
X8629706Y-13124460D01*
X8839230Y-13133984D02*
X8820182Y-13124460D01*
X8820182Y-13124460D02*
X8810658Y-13105412D01*
X8810658Y-13105412D02*
X8810658Y-12933984D01*
X9001135Y-13133984D02*
X9001135Y-13029222D01*
X9001135Y-13029222D02*
X8991611Y-13010174D01*
X8991611Y-13010174D02*
X8972563Y-13000650D01*
X8972563Y-13000650D02*
X8934468Y-13000650D01*
X8934468Y-13000650D02*
X8915420Y-13010174D01*
X9001135Y-13124460D02*
X8982087Y-13133984D01*
X8982087Y-13133984D02*
X8934468Y-13133984D01*
X8934468Y-13133984D02*
X8915420Y-13124460D01*
X8915420Y-13124460D02*
X8905896Y-13105412D01*
X8905896Y-13105412D02*
X8905896Y-13086365D01*
X8905896Y-13086365D02*
X8915420Y-13067317D01*
X8915420Y-13067317D02*
X8934468Y-13057793D01*
X8934468Y-13057793D02*
X8982087Y-13057793D01*
X8982087Y-13057793D02*
X9001135Y-13048269D01*
X9067801Y-13000650D02*
X9143992Y-13000650D01*
X9096373Y-12933984D02*
X9096373Y-13105412D01*
X9096373Y-13105412D02*
X9105896Y-13124460D01*
X9105896Y-13124460D02*
X9124944Y-13133984D01*
X9124944Y-13133984D02*
X9143992Y-13133984D01*
X9286849Y-13124460D02*
X9267801Y-13133984D01*
X9267801Y-13133984D02*
X9229706Y-13133984D01*
X9229706Y-13133984D02*
X9210658Y-13124460D01*
X9210658Y-13124460D02*
X9201135Y-13105412D01*
X9201135Y-13105412D02*
X9201135Y-13029222D01*
X9201135Y-13029222D02*
X9210658Y-13010174D01*
X9210658Y-13010174D02*
X9229706Y-13000650D01*
X9229706Y-13000650D02*
X9267801Y-13000650D01*
X9267801Y-13000650D02*
X9286849Y-13010174D01*
X9286849Y-13010174D02*
X9296373Y-13029222D01*
X9296373Y-13029222D02*
X9296373Y-13048269D01*
X9296373Y-13048269D02*
X9201135Y-13067317D01*
X9467801Y-13133984D02*
X9467801Y-12933984D01*
X9467801Y-13124460D02*
X9448754Y-13133984D01*
X9448754Y-13133984D02*
X9410658Y-13133984D01*
X9410658Y-13133984D02*
X9391611Y-13124460D01*
X9391611Y-13124460D02*
X9382087Y-13114936D01*
X9382087Y-13114936D02*
X9372563Y-13095888D01*
X9372563Y-13095888D02*
X9372563Y-13038746D01*
X9372563Y-13038746D02*
X9382087Y-13019698D01*
X9382087Y-13019698D02*
X9391611Y-13010174D01*
X9391611Y-13010174D02*
X9410658Y-13000650D01*
X9410658Y-13000650D02*
X9448754Y-13000650D01*
X9448754Y-13000650D02*
X9467801Y-13010174D01*
X9543992Y-13210174D02*
X9553516Y-13200650D01*
X9553516Y-13200650D02*
X9572563Y-13172079D01*
X9572563Y-13172079D02*
X9582087Y-13153031D01*
X9582087Y-13153031D02*
X9591611Y-13124460D01*
X9591611Y-13124460D02*
X9601135Y-13076841D01*
X9601135Y-13076841D02*
X9601135Y-13038746D01*
X9601135Y-13038746D02*
X9591611Y-12991127D01*
X9591611Y-12991127D02*
X9582087Y-12962555D01*
X9582087Y-12962555D02*
X9572563Y-12943508D01*
X9572563Y-12943508D02*
X9553516Y-12914936D01*
X9553516Y-12914936D02*
X9543992Y-12905412D01*
X2597500Y-13332500D02*
G75*
G02*
X2397500Y-13332500I-100000J0D01*
G01*
X2397500Y-13332500D02*
G75*
G02*
X2597500Y-13332500I100000J0D01*
G01*
X2943991Y-13290650D02*
X2943991Y-13423984D01*
X2896372Y-13214460D02*
X2848753Y-13357317D01*
X2848753Y-13357317D02*
X2972562Y-13357317D01*
X3048753Y-13404936D02*
X3058277Y-13414460D01*
X3058277Y-13414460D02*
X3048753Y-13423984D01*
X3048753Y-13423984D02*
X3039229Y-13414460D01*
X3039229Y-13414460D02*
X3048753Y-13404936D01*
X3048753Y-13404936D02*
X3048753Y-13423984D01*
X3182086Y-13223984D02*
X3201134Y-13223984D01*
X3201134Y-13223984D02*
X3220182Y-13233508D01*
X3220182Y-13233508D02*
X3229705Y-13243031D01*
X3229705Y-13243031D02*
X3239229Y-13262079D01*
X3239229Y-13262079D02*
X3248753Y-13300174D01*
X3248753Y-13300174D02*
X3248753Y-13347793D01*
X3248753Y-13347793D02*
X3239229Y-13385888D01*
X3239229Y-13385888D02*
X3229705Y-13404936D01*
X3229705Y-13404936D02*
X3220182Y-13414460D01*
X3220182Y-13414460D02*
X3201134Y-13423984D01*
X3201134Y-13423984D02*
X3182086Y-13423984D01*
X3182086Y-13423984D02*
X3163039Y-13414460D01*
X3163039Y-13414460D02*
X3153515Y-13404936D01*
X3153515Y-13404936D02*
X3143991Y-13385888D01*
X3143991Y-13385888D02*
X3134467Y-13347793D01*
X3134467Y-13347793D02*
X3134467Y-13300174D01*
X3134467Y-13300174D02*
X3143991Y-13262079D01*
X3143991Y-13262079D02*
X3153515Y-13243031D01*
X3153515Y-13243031D02*
X3163039Y-13233508D01*
X3163039Y-13233508D02*
X3182086Y-13223984D01*
X3372562Y-13223984D02*
X3391610Y-13223984D01*
X3391610Y-13223984D02*
X3410658Y-13233508D01*
X3410658Y-13233508D02*
X3420182Y-13243031D01*
X3420182Y-13243031D02*
X3429705Y-13262079D01*
X3429705Y-13262079D02*
X3439229Y-13300174D01*
X3439229Y-13300174D02*
X3439229Y-13347793D01*
X3439229Y-13347793D02*
X3429705Y-13385888D01*
X3429705Y-13385888D02*
X3420182Y-13404936D01*
X3420182Y-13404936D02*
X3410658Y-13414460D01*
X3410658Y-13414460D02*
X3391610Y-13423984D01*
X3391610Y-13423984D02*
X3372562Y-13423984D01*
X3372562Y-13423984D02*
X3353515Y-13414460D01*
X3353515Y-13414460D02*
X3343991Y-13404936D01*
X3343991Y-13404936D02*
X3334467Y-13385888D01*
X3334467Y-13385888D02*
X3324943Y-13347793D01*
X3324943Y-13347793D02*
X3324943Y-13300174D01*
X3324943Y-13300174D02*
X3334467Y-13262079D01*
X3334467Y-13262079D02*
X3343991Y-13243031D01*
X3343991Y-13243031D02*
X3353515Y-13233508D01*
X3353515Y-13233508D02*
X3372562Y-13223984D01*
X3563039Y-13223984D02*
X3582086Y-13223984D01*
X3582086Y-13223984D02*
X3601134Y-13233508D01*
X3601134Y-13233508D02*
X3610658Y-13243031D01*
X3610658Y-13243031D02*
X3620182Y-13262079D01*
X3620182Y-13262079D02*
X3629705Y-13300174D01*
X3629705Y-13300174D02*
X3629705Y-13347793D01*
X3629705Y-13347793D02*
X3620182Y-13385888D01*
X3620182Y-13385888D02*
X3610658Y-13404936D01*
X3610658Y-13404936D02*
X3601134Y-13414460D01*
X3601134Y-13414460D02*
X3582086Y-13423984D01*
X3582086Y-13423984D02*
X3563039Y-13423984D01*
X3563039Y-13423984D02*
X3543991Y-13414460D01*
X3543991Y-13414460D02*
X3534467Y-13404936D01*
X3534467Y-13404936D02*
X3524943Y-13385888D01*
X3524943Y-13385888D02*
X3515420Y-13347793D01*
X3515420Y-13347793D02*
X3515420Y-13300174D01*
X3515420Y-13300174D02*
X3524943Y-13262079D01*
X3524943Y-13262079D02*
X3534467Y-13243031D01*
X3534467Y-13243031D02*
X3543991Y-13233508D01*
X3543991Y-13233508D02*
X3563039Y-13223984D01*
X3715420Y-13423984D02*
X3715420Y-13290650D01*
X3715420Y-13309698D02*
X3724943Y-13300174D01*
X3724943Y-13300174D02*
X3743991Y-13290650D01*
X3743991Y-13290650D02*
X3772563Y-13290650D01*
X3772563Y-13290650D02*
X3791610Y-13300174D01*
X3791610Y-13300174D02*
X3801134Y-13319222D01*
X3801134Y-13319222D02*
X3801134Y-13423984D01*
X3801134Y-13319222D02*
X3810658Y-13300174D01*
X3810658Y-13300174D02*
X3829705Y-13290650D01*
X3829705Y-13290650D02*
X3858277Y-13290650D01*
X3858277Y-13290650D02*
X3877324Y-13300174D01*
X3877324Y-13300174D02*
X3886848Y-13319222D01*
X3886848Y-13319222D02*
X3886848Y-13423984D01*
X3982086Y-13423984D02*
X3982086Y-13290650D01*
X3982086Y-13309698D02*
X3991610Y-13300174D01*
X3991610Y-13300174D02*
X4010658Y-13290650D01*
X4010658Y-13290650D02*
X4039229Y-13290650D01*
X4039229Y-13290650D02*
X4058277Y-13300174D01*
X4058277Y-13300174D02*
X4067801Y-13319222D01*
X4067801Y-13319222D02*
X4067801Y-13423984D01*
X4067801Y-13319222D02*
X4077324Y-13300174D01*
X4077324Y-13300174D02*
X4096372Y-13290650D01*
X4096372Y-13290650D02*
X4124943Y-13290650D01*
X4124943Y-13290650D02*
X4143991Y-13300174D01*
X4143991Y-13300174D02*
X4153515Y-13319222D01*
X4153515Y-13319222D02*
X4153515Y-13423984D01*
X4543991Y-13214460D02*
X4372563Y-13471603D01*
X4801134Y-13223984D02*
X4820182Y-13223984D01*
X4820182Y-13223984D02*
X4839229Y-13233508D01*
X4839229Y-13233508D02*
X4848753Y-13243031D01*
X4848753Y-13243031D02*
X4858277Y-13262079D01*
X4858277Y-13262079D02*
X4867801Y-13300174D01*
X4867801Y-13300174D02*
X4867801Y-13347793D01*
X4867801Y-13347793D02*
X4858277Y-13385888D01*
X4858277Y-13385888D02*
X4848753Y-13404936D01*
X4848753Y-13404936D02*
X4839229Y-13414460D01*
X4839229Y-13414460D02*
X4820182Y-13423984D01*
X4820182Y-13423984D02*
X4801134Y-13423984D01*
X4801134Y-13423984D02*
X4782087Y-13414460D01*
X4782087Y-13414460D02*
X4772563Y-13404936D01*
X4772563Y-13404936D02*
X4763039Y-13385888D01*
X4763039Y-13385888D02*
X4753515Y-13347793D01*
X4753515Y-13347793D02*
X4753515Y-13300174D01*
X4753515Y-13300174D02*
X4763039Y-13262079D01*
X4763039Y-13262079D02*
X4772563Y-13243031D01*
X4772563Y-13243031D02*
X4782087Y-13233508D01*
X4782087Y-13233508D02*
X4801134Y-13223984D01*
X4953515Y-13404936D02*
X4963039Y-13414460D01*
X4963039Y-13414460D02*
X4953515Y-13423984D01*
X4953515Y-13423984D02*
X4943991Y-13414460D01*
X4943991Y-13414460D02*
X4953515Y-13404936D01*
X4953515Y-13404936D02*
X4953515Y-13423984D01*
X5153515Y-13423984D02*
X5039229Y-13423984D01*
X5096372Y-13423984D02*
X5096372Y-13223984D01*
X5096372Y-13223984D02*
X5077325Y-13252555D01*
X5077325Y-13252555D02*
X5058277Y-13271603D01*
X5058277Y-13271603D02*
X5039229Y-13281127D01*
X5334468Y-13223984D02*
X5239229Y-13223984D01*
X5239229Y-13223984D02*
X5229706Y-13319222D01*
X5229706Y-13319222D02*
X5239229Y-13309698D01*
X5239229Y-13309698D02*
X5258277Y-13300174D01*
X5258277Y-13300174D02*
X5305896Y-13300174D01*
X5305896Y-13300174D02*
X5324944Y-13309698D01*
X5324944Y-13309698D02*
X5334468Y-13319222D01*
X5334468Y-13319222D02*
X5343991Y-13338269D01*
X5343991Y-13338269D02*
X5343991Y-13385888D01*
X5343991Y-13385888D02*
X5334468Y-13404936D01*
X5334468Y-13404936D02*
X5324944Y-13414460D01*
X5324944Y-13414460D02*
X5305896Y-13423984D01*
X5305896Y-13423984D02*
X5258277Y-13423984D01*
X5258277Y-13423984D02*
X5239229Y-13414460D01*
X5239229Y-13414460D02*
X5229706Y-13404936D01*
X5410658Y-13223984D02*
X5543991Y-13223984D01*
X5543991Y-13223984D02*
X5458277Y-13423984D01*
X5715420Y-13223984D02*
X5620182Y-13223984D01*
X5620182Y-13223984D02*
X5610658Y-13319222D01*
X5610658Y-13319222D02*
X5620182Y-13309698D01*
X5620182Y-13309698D02*
X5639229Y-13300174D01*
X5639229Y-13300174D02*
X5686848Y-13300174D01*
X5686848Y-13300174D02*
X5705896Y-13309698D01*
X5705896Y-13309698D02*
X5715420Y-13319222D01*
X5715420Y-13319222D02*
X5724944Y-13338269D01*
X5724944Y-13338269D02*
X5724944Y-13385888D01*
X5724944Y-13385888D02*
X5715420Y-13404936D01*
X5715420Y-13404936D02*
X5705896Y-13414460D01*
X5705896Y-13414460D02*
X5686848Y-13423984D01*
X5686848Y-13423984D02*
X5639229Y-13423984D01*
X5639229Y-13423984D02*
X5620182Y-13414460D01*
X5620182Y-13414460D02*
X5610658Y-13404936D01*
X5801134Y-13223984D02*
X5801134Y-13262079D01*
X5877325Y-13223984D02*
X5877325Y-13262079D01*
X6172563Y-13500174D02*
X6163039Y-13490650D01*
X6163039Y-13490650D02*
X6143991Y-13462079D01*
X6143991Y-13462079D02*
X6134468Y-13443031D01*
X6134468Y-13443031D02*
X6124944Y-13414460D01*
X6124944Y-13414460D02*
X6115420Y-13366841D01*
X6115420Y-13366841D02*
X6115420Y-13328746D01*
X6115420Y-13328746D02*
X6124944Y-13281127D01*
X6124944Y-13281127D02*
X6134468Y-13252555D01*
X6134468Y-13252555D02*
X6143991Y-13233508D01*
X6143991Y-13233508D02*
X6163039Y-13204936D01*
X6163039Y-13204936D02*
X6172563Y-13195412D01*
X6277325Y-13309698D02*
X6258277Y-13300174D01*
X6258277Y-13300174D02*
X6248753Y-13290650D01*
X6248753Y-13290650D02*
X6239229Y-13271603D01*
X6239229Y-13271603D02*
X6239229Y-13262079D01*
X6239229Y-13262079D02*
X6248753Y-13243031D01*
X6248753Y-13243031D02*
X6258277Y-13233508D01*
X6258277Y-13233508D02*
X6277325Y-13223984D01*
X6277325Y-13223984D02*
X6315420Y-13223984D01*
X6315420Y-13223984D02*
X6334468Y-13233508D01*
X6334468Y-13233508D02*
X6343991Y-13243031D01*
X6343991Y-13243031D02*
X6353515Y-13262079D01*
X6353515Y-13262079D02*
X6353515Y-13271603D01*
X6353515Y-13271603D02*
X6343991Y-13290650D01*
X6343991Y-13290650D02*
X6334468Y-13300174D01*
X6334468Y-13300174D02*
X6315420Y-13309698D01*
X6315420Y-13309698D02*
X6277325Y-13309698D01*
X6277325Y-13309698D02*
X6258277Y-13319222D01*
X6258277Y-13319222D02*
X6248753Y-13328746D01*
X6248753Y-13328746D02*
X6239229Y-13347793D01*
X6239229Y-13347793D02*
X6239229Y-13385888D01*
X6239229Y-13385888D02*
X6248753Y-13404936D01*
X6248753Y-13404936D02*
X6258277Y-13414460D01*
X6258277Y-13414460D02*
X6277325Y-13423984D01*
X6277325Y-13423984D02*
X6315420Y-13423984D01*
X6315420Y-13423984D02*
X6334468Y-13414460D01*
X6334468Y-13414460D02*
X6343991Y-13404936D01*
X6343991Y-13404936D02*
X6353515Y-13385888D01*
X6353515Y-13385888D02*
X6353515Y-13347793D01*
X6353515Y-13347793D02*
X6343991Y-13328746D01*
X6343991Y-13328746D02*
X6334468Y-13319222D01*
X6334468Y-13319222D02*
X6315420Y-13309698D01*
X6591610Y-13423984D02*
X6591610Y-13223984D01*
X6677325Y-13423984D02*
X6677325Y-13319222D01*
X6677325Y-13319222D02*
X6667801Y-13300174D01*
X6667801Y-13300174D02*
X6648753Y-13290650D01*
X6648753Y-13290650D02*
X6620182Y-13290650D01*
X6620182Y-13290650D02*
X6601134Y-13300174D01*
X6601134Y-13300174D02*
X6591610Y-13309698D01*
X6801134Y-13423984D02*
X6782087Y-13414460D01*
X6782087Y-13414460D02*
X6772563Y-13404936D01*
X6772563Y-13404936D02*
X6763039Y-13385888D01*
X6763039Y-13385888D02*
X6763039Y-13328746D01*
X6763039Y-13328746D02*
X6772563Y-13309698D01*
X6772563Y-13309698D02*
X6782087Y-13300174D01*
X6782087Y-13300174D02*
X6801134Y-13290650D01*
X6801134Y-13290650D02*
X6829706Y-13290650D01*
X6829706Y-13290650D02*
X6848753Y-13300174D01*
X6848753Y-13300174D02*
X6858277Y-13309698D01*
X6858277Y-13309698D02*
X6867801Y-13328746D01*
X6867801Y-13328746D02*
X6867801Y-13385888D01*
X6867801Y-13385888D02*
X6858277Y-13404936D01*
X6858277Y-13404936D02*
X6848753Y-13414460D01*
X6848753Y-13414460D02*
X6829706Y-13423984D01*
X6829706Y-13423984D02*
X6801134Y-13423984D01*
X6982087Y-13423984D02*
X6963039Y-13414460D01*
X6963039Y-13414460D02*
X6953515Y-13395412D01*
X6953515Y-13395412D02*
X6953515Y-13223984D01*
X7134468Y-13414460D02*
X7115420Y-13423984D01*
X7115420Y-13423984D02*
X7077325Y-13423984D01*
X7077325Y-13423984D02*
X7058277Y-13414460D01*
X7058277Y-13414460D02*
X7048753Y-13395412D01*
X7048753Y-13395412D02*
X7048753Y-13319222D01*
X7048753Y-13319222D02*
X7058277Y-13300174D01*
X7058277Y-13300174D02*
X7077325Y-13290650D01*
X7077325Y-13290650D02*
X7115420Y-13290650D01*
X7115420Y-13290650D02*
X7134468Y-13300174D01*
X7134468Y-13300174D02*
X7143991Y-13319222D01*
X7143991Y-13319222D02*
X7143991Y-13338269D01*
X7143991Y-13338269D02*
X7048753Y-13357317D01*
X7220182Y-13414460D02*
X7239230Y-13423984D01*
X7239230Y-13423984D02*
X7277325Y-13423984D01*
X7277325Y-13423984D02*
X7296372Y-13414460D01*
X7296372Y-13414460D02*
X7305896Y-13395412D01*
X7305896Y-13395412D02*
X7305896Y-13385888D01*
X7305896Y-13385888D02*
X7296372Y-13366841D01*
X7296372Y-13366841D02*
X7277325Y-13357317D01*
X7277325Y-13357317D02*
X7248753Y-13357317D01*
X7248753Y-13357317D02*
X7229706Y-13347793D01*
X7229706Y-13347793D02*
X7220182Y-13328746D01*
X7220182Y-13328746D02*
X7220182Y-13319222D01*
X7220182Y-13319222D02*
X7229706Y-13300174D01*
X7229706Y-13300174D02*
X7248753Y-13290650D01*
X7248753Y-13290650D02*
X7277325Y-13290650D01*
X7277325Y-13290650D02*
X7296372Y-13300174D01*
X7372563Y-13500174D02*
X7382087Y-13490650D01*
X7382087Y-13490650D02*
X7401134Y-13462079D01*
X7401134Y-13462079D02*
X7410658Y-13443031D01*
X7410658Y-13443031D02*
X7420182Y-13414460D01*
X7420182Y-13414460D02*
X7429706Y-13366841D01*
X7429706Y-13366841D02*
X7429706Y-13328746D01*
X7429706Y-13328746D02*
X7420182Y-13281127D01*
X7420182Y-13281127D02*
X7410658Y-13252555D01*
X7410658Y-13252555D02*
X7401134Y-13233508D01*
X7401134Y-13233508D02*
X7382087Y-13204936D01*
X7382087Y-13204936D02*
X7372563Y-13195412D01*
X7734468Y-13500174D02*
X7724944Y-13490650D01*
X7724944Y-13490650D02*
X7705896Y-13462079D01*
X7705896Y-13462079D02*
X7696372Y-13443031D01*
X7696372Y-13443031D02*
X7686849Y-13414460D01*
X7686849Y-13414460D02*
X7677325Y-13366841D01*
X7677325Y-13366841D02*
X7677325Y-13328746D01*
X7677325Y-13328746D02*
X7686849Y-13281127D01*
X7686849Y-13281127D02*
X7696372Y-13252555D01*
X7696372Y-13252555D02*
X7705896Y-13233508D01*
X7705896Y-13233508D02*
X7724944Y-13204936D01*
X7724944Y-13204936D02*
X7734468Y-13195412D01*
X7810658Y-13290650D02*
X7810658Y-13423984D01*
X7810658Y-13309698D02*
X7820182Y-13300174D01*
X7820182Y-13300174D02*
X7839230Y-13290650D01*
X7839230Y-13290650D02*
X7867801Y-13290650D01*
X7867801Y-13290650D02*
X7886849Y-13300174D01*
X7886849Y-13300174D02*
X7896372Y-13319222D01*
X7896372Y-13319222D02*
X7896372Y-13423984D01*
X8020182Y-13423984D02*
X8001134Y-13414460D01*
X8001134Y-13414460D02*
X7991611Y-13404936D01*
X7991611Y-13404936D02*
X7982087Y-13385888D01*
X7982087Y-13385888D02*
X7982087Y-13328746D01*
X7982087Y-13328746D02*
X7991611Y-13309698D01*
X7991611Y-13309698D02*
X8001134Y-13300174D01*
X8001134Y-13300174D02*
X8020182Y-13290650D01*
X8020182Y-13290650D02*
X8048753Y-13290650D01*
X8048753Y-13290650D02*
X8067801Y-13300174D01*
X8067801Y-13300174D02*
X8077325Y-13309698D01*
X8077325Y-13309698D02*
X8086849Y-13328746D01*
X8086849Y-13328746D02*
X8086849Y-13385888D01*
X8086849Y-13385888D02*
X8077325Y-13404936D01*
X8077325Y-13404936D02*
X8067801Y-13414460D01*
X8067801Y-13414460D02*
X8048753Y-13423984D01*
X8048753Y-13423984D02*
X8020182Y-13423984D01*
X8143992Y-13290650D02*
X8220182Y-13290650D01*
X8172563Y-13223984D02*
X8172563Y-13395412D01*
X8172563Y-13395412D02*
X8182087Y-13414460D01*
X8182087Y-13414460D02*
X8201134Y-13423984D01*
X8201134Y-13423984D02*
X8220182Y-13423984D01*
X8439230Y-13290650D02*
X8439230Y-13490650D01*
X8439230Y-13300174D02*
X8458277Y-13290650D01*
X8458277Y-13290650D02*
X8496373Y-13290650D01*
X8496373Y-13290650D02*
X8515420Y-13300174D01*
X8515420Y-13300174D02*
X8524944Y-13309698D01*
X8524944Y-13309698D02*
X8534468Y-13328746D01*
X8534468Y-13328746D02*
X8534468Y-13385888D01*
X8534468Y-13385888D02*
X8524944Y-13404936D01*
X8524944Y-13404936D02*
X8515420Y-13414460D01*
X8515420Y-13414460D02*
X8496373Y-13423984D01*
X8496373Y-13423984D02*
X8458277Y-13423984D01*
X8458277Y-13423984D02*
X8439230Y-13414460D01*
X8648754Y-13423984D02*
X8629706Y-13414460D01*
X8629706Y-13414460D02*
X8620182Y-13395412D01*
X8620182Y-13395412D02*
X8620182Y-13223984D01*
X8810658Y-13423984D02*
X8810658Y-13319222D01*
X8810658Y-13319222D02*
X8801135Y-13300174D01*
X8801135Y-13300174D02*
X8782087Y-13290650D01*
X8782087Y-13290650D02*
X8743992Y-13290650D01*
X8743992Y-13290650D02*
X8724944Y-13300174D01*
X8810658Y-13414460D02*
X8791611Y-13423984D01*
X8791611Y-13423984D02*
X8743992Y-13423984D01*
X8743992Y-13423984D02*
X8724944Y-13414460D01*
X8724944Y-13414460D02*
X8715420Y-13395412D01*
X8715420Y-13395412D02*
X8715420Y-13376365D01*
X8715420Y-13376365D02*
X8724944Y-13357317D01*
X8724944Y-13357317D02*
X8743992Y-13347793D01*
X8743992Y-13347793D02*
X8791611Y-13347793D01*
X8791611Y-13347793D02*
X8810658Y-13338269D01*
X8877325Y-13290650D02*
X8953515Y-13290650D01*
X8905896Y-13223984D02*
X8905896Y-13395412D01*
X8905896Y-13395412D02*
X8915420Y-13414460D01*
X8915420Y-13414460D02*
X8934468Y-13423984D01*
X8934468Y-13423984D02*
X8953515Y-13423984D01*
X9096373Y-13414460D02*
X9077325Y-13423984D01*
X9077325Y-13423984D02*
X9039230Y-13423984D01*
X9039230Y-13423984D02*
X9020182Y-13414460D01*
X9020182Y-13414460D02*
X9010658Y-13395412D01*
X9010658Y-13395412D02*
X9010658Y-13319222D01*
X9010658Y-13319222D02*
X9020182Y-13300174D01*
X9020182Y-13300174D02*
X9039230Y-13290650D01*
X9039230Y-13290650D02*
X9077325Y-13290650D01*
X9077325Y-13290650D02*
X9096373Y-13300174D01*
X9096373Y-13300174D02*
X9105896Y-13319222D01*
X9105896Y-13319222D02*
X9105896Y-13338269D01*
X9105896Y-13338269D02*
X9010658Y-13357317D01*
X9277325Y-13423984D02*
X9277325Y-13223984D01*
X9277325Y-13414460D02*
X9258277Y-13423984D01*
X9258277Y-13423984D02*
X9220182Y-13423984D01*
X9220182Y-13423984D02*
X9201135Y-13414460D01*
X9201135Y-13414460D02*
X9191611Y-13404936D01*
X9191611Y-13404936D02*
X9182087Y-13385888D01*
X9182087Y-13385888D02*
X9182087Y-13328746D01*
X9182087Y-13328746D02*
X9191611Y-13309698D01*
X9191611Y-13309698D02*
X9201135Y-13300174D01*
X9201135Y-13300174D02*
X9220182Y-13290650D01*
X9220182Y-13290650D02*
X9258277Y-13290650D01*
X9258277Y-13290650D02*
X9277325Y-13300174D01*
X9353516Y-13500174D02*
X9363039Y-13490650D01*
X9363039Y-13490650D02*
X9382087Y-13462079D01*
X9382087Y-13462079D02*
X9391611Y-13443031D01*
X9391611Y-13443031D02*
X9401135Y-13414460D01*
X9401135Y-13414460D02*
X9410658Y-13366841D01*
X9410658Y-13366841D02*
X9410658Y-13328746D01*
X9410658Y-13328746D02*
X9401135Y-13281127D01*
X9401135Y-13281127D02*
X9391611Y-13252555D01*
X9391611Y-13252555D02*
X9382087Y-13233508D01*
X9382087Y-13233508D02*
X9363039Y-13204936D01*
X9363039Y-13204936D02*
X9353516Y-13195412D01*
M02*
