G04 #@! TF.GenerationSoftware,KiCad,Pcbnew,9.0.7*
G04 #@! TF.CreationDate,2026-02-07T22:14:11-08:00*
G04 #@! TF.ProjectId,hackpad,6861636b-7061-4642-9e6b-696361645f70,rev?*
G04 #@! TF.SameCoordinates,Original*
G04 #@! TF.FileFunction,Profile,NP*
%FSLAX46Y46*%
G04 Gerber Fmt 4.6, Leading zero omitted, Abs format (unit mm)*
G04 Created by KiCad (PCBNEW 9.0.7) date 2026-02-07 22:14:11*
%MOMM*%
%LPD*%
G01*
G04 APERTURE LIST*
G04 #@! TA.AperFunction,Profile*
%ADD10C,0.050000*%
G04 #@! TD*
G04 #@! TA.AperFunction,Profile*
%ADD11C,0.100000*%
G04 #@! TD*
G04 APERTURE END LIST*
D10*
X26000000Y-24000000D02*
X126000000Y-24000000D01*
X126000000Y-124000000D01*
X26000000Y-124000000D01*
X26000000Y-24000000D01*
D11*
G04 #@! TO.C,D17*
X110100002Y-91100000D02*
X110100002Y-89694316D01*
X111005549Y-88897159D02*
X112594454Y-88897159D01*
X112594453Y-91897158D02*
X111005549Y-91897158D01*
X113500000Y-89694316D02*
X113500000Y-91100000D01*
X110050517Y-89477438D02*
G75*
G02*
X110100002Y-89694316I-450505J-216876D01*
G01*
X110050517Y-89477438D02*
G75*
G02*
X110753290Y-88828859I450515J216878D01*
G01*
X110100002Y-91100001D02*
G75*
G02*
X110050517Y-91316878I-499990J-1D01*
G01*
X110753290Y-91965455D02*
G75*
G02*
X110050517Y-91316878I-252258J431700D01*
G01*
X110753291Y-91965457D02*
G75*
G02*
X111005549Y-91897158I252261J-431710D01*
G01*
X111005548Y-88897158D02*
G75*
G02*
X110753290Y-88828859I3J500009D01*
G01*
X112594453Y-91897158D02*
G75*
G02*
X112846712Y-91965457I-3J-500012D01*
G01*
X112846712Y-88828860D02*
G75*
G02*
X112594454Y-88897160I-252262J431710D01*
G01*
X112846712Y-88828860D02*
G75*
G02*
X113549484Y-89477438I252258J-431700D01*
G01*
X113500000Y-89694315D02*
G75*
G02*
X113549479Y-89477435I500000J15D01*
G01*
X113549485Y-91316877D02*
G75*
G02*
X112846712Y-91965457I-450514J-216880D01*
G01*
X113549485Y-91316878D02*
G75*
G02*
X113500000Y-91100000I450515J216878D01*
G01*
G04 #@! TO.C,D18*
X115100002Y-38000000D02*
X115100002Y-36594316D01*
X116005549Y-35797159D02*
X117594454Y-35797159D01*
X117594453Y-38797158D02*
X116005549Y-38797158D01*
X118500000Y-36594316D02*
X118500000Y-38000000D01*
X115050517Y-36377438D02*
G75*
G02*
X115100002Y-36594316I-450505J-216876D01*
G01*
X115050517Y-36377438D02*
G75*
G02*
X115753290Y-35728859I450515J216878D01*
G01*
X115100002Y-38000001D02*
G75*
G02*
X115050517Y-38216878I-499990J-1D01*
G01*
X115753290Y-38865455D02*
G75*
G02*
X115050517Y-38216878I-252258J431700D01*
G01*
X115753291Y-38865457D02*
G75*
G02*
X116005549Y-38797158I252261J-431710D01*
G01*
X116005548Y-35797158D02*
G75*
G02*
X115753290Y-35728859I3J500009D01*
G01*
X117594453Y-38797158D02*
G75*
G02*
X117846712Y-38865457I-3J-500012D01*
G01*
X117846712Y-35728860D02*
G75*
G02*
X117594454Y-35797160I-252262J431710D01*
G01*
X117846712Y-35728860D02*
G75*
G02*
X118549484Y-36377438I252258J-431700D01*
G01*
X118500000Y-36594315D02*
G75*
G02*
X118549479Y-36377435I500000J15D01*
G01*
X118549485Y-38216877D02*
G75*
G02*
X117846712Y-38865457I-450514J-216880D01*
G01*
X118549485Y-38216878D02*
G75*
G02*
X118500000Y-38000000I450515J216878D01*
G01*
G04 #@! TO.C,D16*
X110100002Y-66800000D02*
X110100002Y-65394316D01*
X111005549Y-64597159D02*
X112594454Y-64597159D01*
X112594453Y-67597158D02*
X111005549Y-67597158D01*
X113500000Y-65394316D02*
X113500000Y-66800000D01*
X110050517Y-65177438D02*
G75*
G02*
X110100002Y-65394316I-450505J-216876D01*
G01*
X110050517Y-65177438D02*
G75*
G02*
X110753290Y-64528859I450515J216878D01*
G01*
X110100002Y-66800001D02*
G75*
G02*
X110050517Y-67016878I-499990J-1D01*
G01*
X110753290Y-67665455D02*
G75*
G02*
X110050517Y-67016878I-252258J431700D01*
G01*
X110753291Y-67665457D02*
G75*
G02*
X111005549Y-67597158I252261J-431710D01*
G01*
X111005548Y-64597158D02*
G75*
G02*
X110753290Y-64528859I3J500009D01*
G01*
X112594453Y-67597158D02*
G75*
G02*
X112846712Y-67665457I-3J-500012D01*
G01*
X112846712Y-64528860D02*
G75*
G02*
X112594454Y-64597160I-252262J431710D01*
G01*
X112846712Y-64528860D02*
G75*
G02*
X113549484Y-65177438I252258J-431700D01*
G01*
X113500000Y-65394315D02*
G75*
G02*
X113549479Y-65177435I500000J15D01*
G01*
X113549485Y-67016877D02*
G75*
G02*
X112846712Y-67665457I-450514J-216880D01*
G01*
X113549485Y-67016878D02*
G75*
G02*
X113500000Y-66800000I450515J216878D01*
G01*
G04 #@! TO.C,D4*
X76900002Y-114900000D02*
X76900002Y-113494316D01*
X77805549Y-112697159D02*
X79394454Y-112697159D01*
X79394453Y-115697158D02*
X77805549Y-115697158D01*
X80300000Y-113494316D02*
X80300000Y-114900000D01*
X76850517Y-113277438D02*
G75*
G02*
X76900002Y-113494316I-450505J-216876D01*
G01*
X76850517Y-113277438D02*
G75*
G02*
X77553290Y-112628859I450515J216878D01*
G01*
X76900002Y-114900001D02*
G75*
G02*
X76850517Y-115116878I-499990J-1D01*
G01*
X77553290Y-115765455D02*
G75*
G02*
X76850517Y-115116878I-252258J431700D01*
G01*
X77553291Y-115765457D02*
G75*
G02*
X77805549Y-115697158I252261J-431710D01*
G01*
X77805548Y-112697158D02*
G75*
G02*
X77553290Y-112628859I3J500009D01*
G01*
X79394453Y-115697158D02*
G75*
G02*
X79646712Y-115765457I-3J-500012D01*
G01*
X79646712Y-112628860D02*
G75*
G02*
X79394454Y-112697160I-252262J431710D01*
G01*
X79646712Y-112628860D02*
G75*
G02*
X80349484Y-113277438I252258J-431700D01*
G01*
X80300000Y-113494315D02*
G75*
G02*
X80349479Y-113277435I500000J15D01*
G01*
X80349485Y-115116877D02*
G75*
G02*
X79646712Y-115765457I-450514J-216880D01*
G01*
X80349485Y-115116878D02*
G75*
G02*
X80300000Y-114900000I450515J216878D01*
G01*
G04 #@! TO.C,D1*
X62600002Y-66900000D02*
X62600002Y-65494316D01*
X63505549Y-64697159D02*
X65094454Y-64697159D01*
X65094453Y-67697158D02*
X63505549Y-67697158D01*
X66000000Y-65494316D02*
X66000000Y-66900000D01*
X62550517Y-65277438D02*
G75*
G02*
X62600002Y-65494316I-450505J-216876D01*
G01*
X62550517Y-65277438D02*
G75*
G02*
X63253290Y-64628859I450515J216878D01*
G01*
X62600002Y-66900001D02*
G75*
G02*
X62550517Y-67116878I-499990J-1D01*
G01*
X63253290Y-67765455D02*
G75*
G02*
X62550517Y-67116878I-252258J431700D01*
G01*
X63253291Y-67765457D02*
G75*
G02*
X63505549Y-67697158I252261J-431710D01*
G01*
X63505548Y-64697158D02*
G75*
G02*
X63253290Y-64628859I3J500009D01*
G01*
X65094453Y-67697158D02*
G75*
G02*
X65346712Y-67765457I-3J-500012D01*
G01*
X65346712Y-64628860D02*
G75*
G02*
X65094454Y-64697160I-252262J431710D01*
G01*
X65346712Y-64628860D02*
G75*
G02*
X66049484Y-65277438I252258J-431700D01*
G01*
X66000000Y-65494315D02*
G75*
G02*
X66049479Y-65277435I500000J15D01*
G01*
X66049485Y-67116877D02*
G75*
G02*
X65346712Y-67765457I-450514J-216880D01*
G01*
X66049485Y-67116878D02*
G75*
G02*
X66000000Y-66900000I450515J216878D01*
G01*
G04 #@! TO.C,D2*
X62600002Y-90900000D02*
X62600002Y-89494316D01*
X63505549Y-88697159D02*
X65094454Y-88697159D01*
X65094453Y-91697158D02*
X63505549Y-91697158D01*
X66000000Y-89494316D02*
X66000000Y-90900000D01*
X62550517Y-89277438D02*
G75*
G02*
X62600002Y-89494316I-450505J-216876D01*
G01*
X62550517Y-89277438D02*
G75*
G02*
X63253290Y-88628859I450515J216878D01*
G01*
X62600002Y-90900001D02*
G75*
G02*
X62550517Y-91116878I-499990J-1D01*
G01*
X63253290Y-91765455D02*
G75*
G02*
X62550517Y-91116878I-252258J431700D01*
G01*
X63253291Y-91765457D02*
G75*
G02*
X63505549Y-91697158I252261J-431710D01*
G01*
X63505548Y-88697158D02*
G75*
G02*
X63253290Y-88628859I3J500009D01*
G01*
X65094453Y-91697158D02*
G75*
G02*
X65346712Y-91765457I-3J-500012D01*
G01*
X65346712Y-88628860D02*
G75*
G02*
X65094454Y-88697160I-252262J431710D01*
G01*
X65346712Y-88628860D02*
G75*
G02*
X66049484Y-89277438I252258J-431700D01*
G01*
X66000000Y-89494315D02*
G75*
G02*
X66049479Y-89277435I500000J15D01*
G01*
X66049485Y-91116877D02*
G75*
G02*
X65346712Y-91765457I-450514J-216880D01*
G01*
X66049485Y-91116878D02*
G75*
G02*
X66000000Y-90900000I450515J216878D01*
G01*
G04 #@! TO.C,D3*
X38700002Y-114700000D02*
X38700002Y-113294316D01*
X39605549Y-112497159D02*
X41194454Y-112497159D01*
X41194453Y-115497158D02*
X39605549Y-115497158D01*
X42100000Y-113294316D02*
X42100000Y-114700000D01*
X38650517Y-113077438D02*
G75*
G02*
X38700002Y-113294316I-450505J-216876D01*
G01*
X38650517Y-113077438D02*
G75*
G02*
X39353290Y-112428859I450515J216878D01*
G01*
X38700002Y-114700001D02*
G75*
G02*
X38650517Y-114916878I-499990J-1D01*
G01*
X39353290Y-115565455D02*
G75*
G02*
X38650517Y-114916878I-252258J431700D01*
G01*
X39353291Y-115565457D02*
G75*
G02*
X39605549Y-115497158I252261J-431710D01*
G01*
X39605548Y-112497158D02*
G75*
G02*
X39353290Y-112428859I3J500009D01*
G01*
X41194453Y-115497158D02*
G75*
G02*
X41446712Y-115565457I-3J-500012D01*
G01*
X41446712Y-112428860D02*
G75*
G02*
X41194454Y-112497160I-252262J431710D01*
G01*
X41446712Y-112428860D02*
G75*
G02*
X42149484Y-113077438I252258J-431700D01*
G01*
X42100000Y-113294315D02*
G75*
G02*
X42149479Y-113077435I500000J15D01*
G01*
X42149485Y-114916877D02*
G75*
G02*
X41446712Y-115565457I-450514J-216880D01*
G01*
X42149485Y-114916878D02*
G75*
G02*
X42100000Y-114700000I450515J216878D01*
G01*
G04 #@! TO.C,D6*
X86300002Y-66600000D02*
X86300002Y-65194316D01*
X87205549Y-64397159D02*
X88794454Y-64397159D01*
X88794453Y-67397158D02*
X87205549Y-67397158D01*
X89700000Y-65194316D02*
X89700000Y-66600000D01*
X86250517Y-64977438D02*
G75*
G02*
X86300002Y-65194316I-450505J-216876D01*
G01*
X86250517Y-64977438D02*
G75*
G02*
X86953290Y-64328859I450515J216878D01*
G01*
X86300002Y-66600001D02*
G75*
G02*
X86250517Y-66816878I-499990J-1D01*
G01*
X86953290Y-67465455D02*
G75*
G02*
X86250517Y-66816878I-252258J431700D01*
G01*
X86953291Y-67465457D02*
G75*
G02*
X87205549Y-67397158I252261J-431710D01*
G01*
X87205548Y-64397158D02*
G75*
G02*
X86953290Y-64328859I3J500009D01*
G01*
X88794453Y-67397158D02*
G75*
G02*
X89046712Y-67465457I-3J-500012D01*
G01*
X89046712Y-64328860D02*
G75*
G02*
X88794454Y-64397160I-252262J431710D01*
G01*
X89046712Y-64328860D02*
G75*
G02*
X89749484Y-64977438I252258J-431700D01*
G01*
X89700000Y-65194315D02*
G75*
G02*
X89749479Y-64977435I500000J15D01*
G01*
X89749485Y-66816877D02*
G75*
G02*
X89046712Y-67465457I-450514J-216880D01*
G01*
X89749485Y-66816878D02*
G75*
G02*
X89700000Y-66600000I450515J216878D01*
G01*
G04 #@! TO.C,D5*
X86300002Y-90900000D02*
X86300002Y-89494316D01*
X87205549Y-88697159D02*
X88794454Y-88697159D01*
X88794453Y-91697158D02*
X87205549Y-91697158D01*
X89700000Y-89494316D02*
X89700000Y-90900000D01*
X86250517Y-89277438D02*
G75*
G02*
X86300002Y-89494316I-450505J-216876D01*
G01*
X86250517Y-89277438D02*
G75*
G02*
X86953290Y-88628859I450515J216878D01*
G01*
X86300002Y-90900001D02*
G75*
G02*
X86250517Y-91116878I-499990J-1D01*
G01*
X86953290Y-91765455D02*
G75*
G02*
X86250517Y-91116878I-252258J431700D01*
G01*
X86953291Y-91765457D02*
G75*
G02*
X87205549Y-91697158I252261J-431710D01*
G01*
X87205548Y-88697158D02*
G75*
G02*
X86953290Y-88628859I3J500009D01*
G01*
X88794453Y-91697158D02*
G75*
G02*
X89046712Y-91765457I-3J-500012D01*
G01*
X89046712Y-88628860D02*
G75*
G02*
X88794454Y-88697160I-252262J431710D01*
G01*
X89046712Y-88628860D02*
G75*
G02*
X89749484Y-89277438I252258J-431700D01*
G01*
X89700000Y-89494315D02*
G75*
G02*
X89749479Y-89277435I500000J15D01*
G01*
X89749485Y-91116877D02*
G75*
G02*
X89046712Y-91765457I-450514J-216880D01*
G01*
X89749485Y-91116878D02*
G75*
G02*
X89700000Y-90900000I450515J216878D01*
G01*
G04 #@! TD*
M02*
