G04 #@! TF.GenerationSoftware,KiCad,Pcbnew,9.0.7*
G04 #@! TF.CreationDate,2026-02-07T22:14:11-08:00*
G04 #@! TF.ProjectId,hackpad,6861636b-7061-4642-9e6b-696361645f70,rev?*
G04 #@! TF.SameCoordinates,Original*
G04 #@! TF.FileFunction,AssemblyDrawing,Bot*
%FSLAX46Y46*%
G04 Gerber Fmt 4.6, Leading zero omitted, Abs format (unit mm)*
G04 Created by KiCad (PCBNEW 9.0.7) date 2026-02-07 22:14:11*
%MOMM*%
%LPD*%
G01*
G04 APERTURE LIST*
%ADD10C,0.100000*%
%ADD11C,0.100000*%
G04 #@! TD*
G04 APERTURE END LIST*
D10*
D11*
G04 #@! TO.C,D17*
D10*
X109918001Y-89237158D02*
X109949381Y-89243400D01*
X109975984Y-89261175D01*
X109993759Y-89287778D01*
X110000001Y-89319158D01*
X110000001Y-89975158D01*
X109993759Y-90006538D01*
X109975984Y-90033141D01*
X109949381Y-90050916D01*
X109918001Y-90057158D01*
X108482001Y-90057158D01*
X108450621Y-90050916D01*
X108424018Y-90033141D01*
X108406243Y-90006538D01*
X108400001Y-89975158D01*
X108400001Y-89319158D01*
X108406243Y-89287778D01*
X108424018Y-89261175D01*
X108450621Y-89243400D01*
X108482001Y-89237158D01*
X109918001Y-89237158D01*
D11*
D10*
X109918001Y-90737158D02*
X109949381Y-90743400D01*
X109975984Y-90761175D01*
X109993759Y-90787778D01*
X110000001Y-90819158D01*
X110000001Y-91475158D01*
X109993759Y-91506538D01*
X109975984Y-91533141D01*
X109949381Y-91550916D01*
X109918001Y-91557158D01*
X108482001Y-91557158D01*
X108450621Y-91550916D01*
X108424018Y-91533141D01*
X108406243Y-91506538D01*
X108400001Y-91475158D01*
X108400001Y-90819158D01*
X108406243Y-90787778D01*
X108424018Y-90761175D01*
X108450621Y-90743400D01*
X108482001Y-90737158D01*
X109918001Y-90737158D01*
D11*
D10*
X115118001Y-90737158D02*
X115149381Y-90743400D01*
X115175984Y-90761175D01*
X115193759Y-90787778D01*
X115200001Y-90819158D01*
X115200001Y-91475158D01*
X115193759Y-91506538D01*
X115175984Y-91533141D01*
X115149381Y-91550916D01*
X115118001Y-91557158D01*
X113682001Y-91557158D01*
X113650621Y-91550916D01*
X113624018Y-91533141D01*
X113606243Y-91506538D01*
X113600001Y-91475158D01*
X113600001Y-90819158D01*
X113606243Y-90787778D01*
X113624018Y-90761175D01*
X113650621Y-90743400D01*
X113682001Y-90737158D01*
X115118001Y-90737158D01*
D11*
D10*
X115118001Y-89237158D02*
X115149381Y-89243400D01*
X115175984Y-89261175D01*
X115193759Y-89287778D01*
X115200001Y-89319158D01*
X115200001Y-89975158D01*
X115193759Y-90006538D01*
X115175984Y-90033141D01*
X115149381Y-90050916D01*
X115118001Y-90057158D01*
X113682001Y-90057158D01*
X113650621Y-90050916D01*
X113624018Y-90033141D01*
X113606243Y-90006538D01*
X113600001Y-89975158D01*
X113600001Y-89319158D01*
X113606243Y-89287778D01*
X113624018Y-89261175D01*
X113650621Y-89243400D01*
X113682001Y-89237158D01*
X115118001Y-89237158D01*
G04 #@! TD*
G04 #@! TO.C,SW10*
X108643750Y-111037500D02*
X108643750Y-113037500D01*
X110643750Y-113037500D01*
X110643750Y-111037500D01*
X108643750Y-111037500D01*
X110643750Y-107037500D02*
G75*
G02*
X108643750Y-107037500I-1000000J0D01*
G01*
X108643750Y-107037500D02*
G75*
G02*
X110643750Y-107037500I1000000J0D01*
G01*
X110643750Y-109537500D02*
G75*
G02*
X108643750Y-109537500I-1000000J0D01*
G01*
X108643750Y-109537500D02*
G75*
G02*
X110643750Y-109537500I1000000J0D01*
G01*
X100543750Y-114137500D02*
X100543750Y-116137500D01*
X103743750Y-116137500D01*
X103743750Y-114137500D01*
X100543750Y-114137500D01*
X100543750Y-102937500D02*
X100543750Y-104937500D01*
X103743750Y-104937500D01*
X103743750Y-102937500D01*
X100543750Y-102937500D01*
X96143750Y-107037500D02*
G75*
G02*
X94143750Y-107037500I-1000000J0D01*
G01*
X94143750Y-107037500D02*
G75*
G02*
X96143750Y-107037500I1000000J0D01*
G01*
X96143750Y-112037500D02*
G75*
G02*
X94143750Y-112037500I-1000000J0D01*
G01*
X94143750Y-112037500D02*
G75*
G02*
X96143750Y-112037500I1000000J0D01*
G01*
G04 #@! TD*
G04 #@! TO.C,SW6*
X107688750Y-85725000D02*
G75*
G02*
X105988750Y-85725000I-850000J0D01*
G01*
X105988750Y-85725000D02*
G75*
G02*
X107688750Y-85725000I850000J0D01*
G01*
X113918750Y-85725000D02*
G75*
G02*
X109918750Y-85725000I-2000000J0D01*
G01*
X109918750Y-85725000D02*
G75*
G02*
X113918750Y-85725000I2000000J0D01*
G01*
X117848750Y-85725000D02*
G75*
G02*
X116148750Y-85725000I-850000J0D01*
G01*
X116148750Y-85725000D02*
G75*
G02*
X117848750Y-85725000I850000J0D01*
G01*
X115558750Y-80645000D02*
G75*
G02*
X113358750Y-80645000I-1100000J0D01*
G01*
X113358750Y-80645000D02*
G75*
G02*
X115558750Y-80645000I1100000J0D01*
G01*
X109208750Y-83185000D02*
G75*
G02*
X107008750Y-83185000I-1100000J0D01*
G01*
X107008750Y-83185000D02*
G75*
G02*
X109208750Y-83185000I1100000J0D01*
G01*
G04 #@! TD*
G04 #@! TO.C,SW1*
X60063750Y-61450000D02*
G75*
G02*
X58363750Y-61450000I-850000J0D01*
G01*
X58363750Y-61450000D02*
G75*
G02*
X60063750Y-61450000I850000J0D01*
G01*
X66293750Y-61450000D02*
G75*
G02*
X62293750Y-61450000I-2000000J0D01*
G01*
X62293750Y-61450000D02*
G75*
G02*
X66293750Y-61450000I2000000J0D01*
G01*
X70223750Y-61450000D02*
G75*
G02*
X68523750Y-61450000I-850000J0D01*
G01*
X68523750Y-61450000D02*
G75*
G02*
X70223750Y-61450000I850000J0D01*
G01*
X67933750Y-56370000D02*
G75*
G02*
X65733750Y-56370000I-1100000J0D01*
G01*
X65733750Y-56370000D02*
G75*
G02*
X67933750Y-56370000I1100000J0D01*
G01*
X61583750Y-58910000D02*
G75*
G02*
X59383750Y-58910000I-1100000J0D01*
G01*
X59383750Y-58910000D02*
G75*
G02*
X61583750Y-58910000I1100000J0D01*
G01*
G04 #@! TD*
D11*
G04 #@! TO.C,D15*
D10*
X97580000Y-119050000D02*
X97599030Y-118954329D01*
X97653223Y-118873223D01*
X97734329Y-118819030D01*
X97830000Y-118800000D01*
X98930000Y-118800000D01*
X99025671Y-118819030D01*
X99106777Y-118873223D01*
X99160970Y-118954329D01*
X99180000Y-119050000D01*
X99180000Y-120150000D01*
X99160970Y-120245671D01*
X99106777Y-120326777D01*
X99025671Y-120380970D01*
X98930000Y-120400000D01*
X97830000Y-120400000D01*
X97734329Y-120380970D01*
X97653223Y-120326777D01*
X97599030Y-120245671D01*
X97580000Y-120150000D01*
X97580000Y-119050000D01*
X106800000Y-119600000D02*
G75*
G02*
X105200000Y-119600000I-800000J0D01*
G01*
X105200000Y-119600000D02*
G75*
G02*
X106800000Y-119600000I800000J0D01*
G01*
G04 #@! TD*
D11*
G04 #@! TO.C,D7*
D10*
X59680000Y-71150000D02*
X59699030Y-71054329D01*
X59753223Y-70973223D01*
X59834329Y-70919030D01*
X59930000Y-70900000D01*
X61030000Y-70900000D01*
X61125671Y-70919030D01*
X61206777Y-70973223D01*
X61260970Y-71054329D01*
X61280000Y-71150000D01*
X61280000Y-72250000D01*
X61260970Y-72345671D01*
X61206777Y-72426777D01*
X61125671Y-72480970D01*
X61030000Y-72500000D01*
X59930000Y-72500000D01*
X59834329Y-72480970D01*
X59753223Y-72426777D01*
X59699030Y-72345671D01*
X59680000Y-72250000D01*
X59680000Y-71150000D01*
X68900000Y-71700000D02*
G75*
G02*
X67300000Y-71700000I-800000J0D01*
G01*
X67300000Y-71700000D02*
G75*
G02*
X68900000Y-71700000I800000J0D01*
G01*
G04 #@! TD*
D11*
G04 #@! TO.C,D11*
D10*
X83380000Y-95350000D02*
X83399030Y-95254329D01*
X83453223Y-95173223D01*
X83534329Y-95119030D01*
X83630000Y-95100000D01*
X84730000Y-95100000D01*
X84825671Y-95119030D01*
X84906777Y-95173223D01*
X84960970Y-95254329D01*
X84980000Y-95350000D01*
X84980000Y-96450000D01*
X84960970Y-96545671D01*
X84906777Y-96626777D01*
X84825671Y-96680970D01*
X84730000Y-96700000D01*
X83630000Y-96700000D01*
X83534329Y-96680970D01*
X83453223Y-96626777D01*
X83399030Y-96545671D01*
X83380000Y-96450000D01*
X83380000Y-95350000D01*
X92600000Y-95900000D02*
G75*
G02*
X91000000Y-95900000I-800000J0D01*
G01*
X91000000Y-95900000D02*
G75*
G02*
X92600000Y-95900000I800000J0D01*
G01*
G04 #@! TD*
G04 #@! TO.C,SW5*
X83876250Y-85725000D02*
G75*
G02*
X82176250Y-85725000I-850000J0D01*
G01*
X82176250Y-85725000D02*
G75*
G02*
X83876250Y-85725000I850000J0D01*
G01*
X90106250Y-85725000D02*
G75*
G02*
X86106250Y-85725000I-2000000J0D01*
G01*
X86106250Y-85725000D02*
G75*
G02*
X90106250Y-85725000I2000000J0D01*
G01*
X94036250Y-85725000D02*
G75*
G02*
X92336250Y-85725000I-850000J0D01*
G01*
X92336250Y-85725000D02*
G75*
G02*
X94036250Y-85725000I850000J0D01*
G01*
X91746250Y-80645000D02*
G75*
G02*
X89546250Y-80645000I-1100000J0D01*
G01*
X89546250Y-80645000D02*
G75*
G02*
X91746250Y-80645000I1100000J0D01*
G01*
X85396250Y-83185000D02*
G75*
G02*
X83196250Y-83185000I-1100000J0D01*
G01*
X83196250Y-83185000D02*
G75*
G02*
X85396250Y-83185000I1100000J0D01*
G01*
G04 #@! TD*
G04 #@! TO.C,SW4*
X60063750Y-85725000D02*
G75*
G02*
X58363750Y-85725000I-850000J0D01*
G01*
X58363750Y-85725000D02*
G75*
G02*
X60063750Y-85725000I850000J0D01*
G01*
X66293750Y-85725000D02*
G75*
G02*
X62293750Y-85725000I-2000000J0D01*
G01*
X62293750Y-85725000D02*
G75*
G02*
X66293750Y-85725000I2000000J0D01*
G01*
X70223750Y-85725000D02*
G75*
G02*
X68523750Y-85725000I-850000J0D01*
G01*
X68523750Y-85725000D02*
G75*
G02*
X70223750Y-85725000I850000J0D01*
G01*
X67933750Y-80645000D02*
G75*
G02*
X65733750Y-80645000I-1100000J0D01*
G01*
X65733750Y-80645000D02*
G75*
G02*
X67933750Y-80645000I1100000J0D01*
G01*
X61583750Y-83185000D02*
G75*
G02*
X59383750Y-83185000I-1100000J0D01*
G01*
X59383750Y-83185000D02*
G75*
G02*
X61583750Y-83185000I1100000J0D01*
G01*
G04 #@! TD*
D11*
G04 #@! TO.C,D13*
D10*
X35690000Y-119150000D02*
X35709030Y-119054329D01*
X35763223Y-118973223D01*
X35844329Y-118919030D01*
X35940000Y-118900000D01*
X37040000Y-118900000D01*
X37135671Y-118919030D01*
X37216777Y-118973223D01*
X37270970Y-119054329D01*
X37290000Y-119150000D01*
X37290000Y-120250000D01*
X37270970Y-120345671D01*
X37216777Y-120426777D01*
X37135671Y-120480970D01*
X37040000Y-120500000D01*
X35940000Y-120500000D01*
X35844329Y-120480970D01*
X35763223Y-120426777D01*
X35709030Y-120345671D01*
X35690000Y-120250000D01*
X35690000Y-119150000D01*
X44910000Y-119700000D02*
G75*
G02*
X43310000Y-119700000I-800000J0D01*
G01*
X43310000Y-119700000D02*
G75*
G02*
X44910000Y-119700000I800000J0D01*
G01*
G04 #@! TD*
G04 #@! TO.C,SW2*
X83776250Y-61450000D02*
G75*
G02*
X82076250Y-61450000I-850000J0D01*
G01*
X82076250Y-61450000D02*
G75*
G02*
X83776250Y-61450000I850000J0D01*
G01*
X90006250Y-61450000D02*
G75*
G02*
X86006250Y-61450000I-2000000J0D01*
G01*
X86006250Y-61450000D02*
G75*
G02*
X90006250Y-61450000I2000000J0D01*
G01*
X93936250Y-61450000D02*
G75*
G02*
X92236250Y-61450000I-850000J0D01*
G01*
X92236250Y-61450000D02*
G75*
G02*
X93936250Y-61450000I850000J0D01*
G01*
X91646250Y-56370000D02*
G75*
G02*
X89446250Y-56370000I-1100000J0D01*
G01*
X89446250Y-56370000D02*
G75*
G02*
X91646250Y-56370000I1100000J0D01*
G01*
X85296250Y-58910000D02*
G75*
G02*
X83096250Y-58910000I-1100000J0D01*
G01*
X83096250Y-58910000D02*
G75*
G02*
X85296250Y-58910000I1100000J0D01*
G01*
G04 #@! TD*
G04 #@! TO.C,SW7*
X36251250Y-109537500D02*
G75*
G02*
X34551250Y-109537500I-850000J0D01*
G01*
X34551250Y-109537500D02*
G75*
G02*
X36251250Y-109537500I850000J0D01*
G01*
X42481250Y-109537500D02*
G75*
G02*
X38481250Y-109537500I-2000000J0D01*
G01*
X38481250Y-109537500D02*
G75*
G02*
X42481250Y-109537500I2000000J0D01*
G01*
X46411250Y-109537500D02*
G75*
G02*
X44711250Y-109537500I-850000J0D01*
G01*
X44711250Y-109537500D02*
G75*
G02*
X46411250Y-109537500I850000J0D01*
G01*
X44121250Y-104457500D02*
G75*
G02*
X41921250Y-104457500I-1100000J0D01*
G01*
X41921250Y-104457500D02*
G75*
G02*
X44121250Y-104457500I1100000J0D01*
G01*
X37771250Y-106997500D02*
G75*
G02*
X35571250Y-106997500I-1100000J0D01*
G01*
X35571250Y-106997500D02*
G75*
G02*
X37771250Y-106997500I1100000J0D01*
G01*
G04 #@! TD*
D11*
G04 #@! TO.C,D18*
D10*
X114918001Y-36137158D02*
X114949381Y-36143400D01*
X114975984Y-36161175D01*
X114993759Y-36187778D01*
X115000001Y-36219158D01*
X115000001Y-36875158D01*
X114993759Y-36906538D01*
X114975984Y-36933141D01*
X114949381Y-36950916D01*
X114918001Y-36957158D01*
X113482001Y-36957158D01*
X113450621Y-36950916D01*
X113424018Y-36933141D01*
X113406243Y-36906538D01*
X113400001Y-36875158D01*
X113400001Y-36219158D01*
X113406243Y-36187778D01*
X113424018Y-36161175D01*
X113450621Y-36143400D01*
X113482001Y-36137158D01*
X114918001Y-36137158D01*
D11*
D10*
X114918001Y-37637158D02*
X114949381Y-37643400D01*
X114975984Y-37661175D01*
X114993759Y-37687778D01*
X115000001Y-37719158D01*
X115000001Y-38375158D01*
X114993759Y-38406538D01*
X114975984Y-38433141D01*
X114949381Y-38450916D01*
X114918001Y-38457158D01*
X113482001Y-38457158D01*
X113450621Y-38450916D01*
X113424018Y-38433141D01*
X113406243Y-38406538D01*
X113400001Y-38375158D01*
X113400001Y-37719158D01*
X113406243Y-37687778D01*
X113424018Y-37661175D01*
X113450621Y-37643400D01*
X113482001Y-37637158D01*
X114918001Y-37637158D01*
D11*
D10*
X120118001Y-37637158D02*
X120149381Y-37643400D01*
X120175984Y-37661175D01*
X120193759Y-37687778D01*
X120200001Y-37719158D01*
X120200001Y-38375158D01*
X120193759Y-38406538D01*
X120175984Y-38433141D01*
X120149381Y-38450916D01*
X120118001Y-38457158D01*
X118682001Y-38457158D01*
X118650621Y-38450916D01*
X118624018Y-38433141D01*
X118606243Y-38406538D01*
X118600001Y-38375158D01*
X118600001Y-37719158D01*
X118606243Y-37687778D01*
X118624018Y-37661175D01*
X118650621Y-37643400D01*
X118682001Y-37637158D01*
X120118001Y-37637158D01*
D11*
D10*
X120118001Y-36137158D02*
X120149381Y-36143400D01*
X120175984Y-36161175D01*
X120193759Y-36187778D01*
X120200001Y-36219158D01*
X120200001Y-36875158D01*
X120193759Y-36906538D01*
X120175984Y-36933141D01*
X120149381Y-36950916D01*
X120118001Y-36957158D01*
X118682001Y-36957158D01*
X118650621Y-36950916D01*
X118624018Y-36933141D01*
X118606243Y-36906538D01*
X118600001Y-36875158D01*
X118600001Y-36219158D01*
X118606243Y-36187778D01*
X118624018Y-36161175D01*
X118650621Y-36143400D01*
X118682001Y-36137158D01*
X120118001Y-36137158D01*
G04 #@! TD*
D11*
G04 #@! TO.C,D10*
D10*
X59690000Y-95350000D02*
X59709030Y-95254329D01*
X59763223Y-95173223D01*
X59844329Y-95119030D01*
X59940000Y-95100000D01*
X61040000Y-95100000D01*
X61135671Y-95119030D01*
X61216777Y-95173223D01*
X61270970Y-95254329D01*
X61290000Y-95350000D01*
X61290000Y-96450000D01*
X61270970Y-96545671D01*
X61216777Y-96626777D01*
X61135671Y-96680970D01*
X61040000Y-96700000D01*
X59940000Y-96700000D01*
X59844329Y-96680970D01*
X59763223Y-96626777D01*
X59709030Y-96545671D01*
X59690000Y-96450000D01*
X59690000Y-95350000D01*
X68910000Y-95900000D02*
G75*
G02*
X67310000Y-95900000I-800000J0D01*
G01*
X67310000Y-95900000D02*
G75*
G02*
X68910000Y-95900000I800000J0D01*
G01*
G04 #@! TD*
D11*
G04 #@! TO.C,D16*
D10*
X109918001Y-64937158D02*
X109949381Y-64943400D01*
X109975984Y-64961175D01*
X109993759Y-64987778D01*
X110000001Y-65019158D01*
X110000001Y-65675158D01*
X109993759Y-65706538D01*
X109975984Y-65733141D01*
X109949381Y-65750916D01*
X109918001Y-65757158D01*
X108482001Y-65757158D01*
X108450621Y-65750916D01*
X108424018Y-65733141D01*
X108406243Y-65706538D01*
X108400001Y-65675158D01*
X108400001Y-65019158D01*
X108406243Y-64987778D01*
X108424018Y-64961175D01*
X108450621Y-64943400D01*
X108482001Y-64937158D01*
X109918001Y-64937158D01*
D11*
D10*
X109918001Y-66437158D02*
X109949381Y-66443400D01*
X109975984Y-66461175D01*
X109993759Y-66487778D01*
X110000001Y-66519158D01*
X110000001Y-67175158D01*
X109993759Y-67206538D01*
X109975984Y-67233141D01*
X109949381Y-67250916D01*
X109918001Y-67257158D01*
X108482001Y-67257158D01*
X108450621Y-67250916D01*
X108424018Y-67233141D01*
X108406243Y-67206538D01*
X108400001Y-67175158D01*
X108400001Y-66519158D01*
X108406243Y-66487778D01*
X108424018Y-66461175D01*
X108450621Y-66443400D01*
X108482001Y-66437158D01*
X109918001Y-66437158D01*
D11*
D10*
X115118001Y-66437158D02*
X115149381Y-66443400D01*
X115175984Y-66461175D01*
X115193759Y-66487778D01*
X115200001Y-66519158D01*
X115200001Y-67175158D01*
X115193759Y-67206538D01*
X115175984Y-67233141D01*
X115149381Y-67250916D01*
X115118001Y-67257158D01*
X113682001Y-67257158D01*
X113650621Y-67250916D01*
X113624018Y-67233141D01*
X113606243Y-67206538D01*
X113600001Y-67175158D01*
X113600001Y-66519158D01*
X113606243Y-66487778D01*
X113624018Y-66461175D01*
X113650621Y-66443400D01*
X113682001Y-66437158D01*
X115118001Y-66437158D01*
D11*
D10*
X115118001Y-64937158D02*
X115149381Y-64943400D01*
X115175984Y-64961175D01*
X115193759Y-64987778D01*
X115200001Y-65019158D01*
X115200001Y-65675158D01*
X115193759Y-65706538D01*
X115175984Y-65733141D01*
X115149381Y-65750916D01*
X115118001Y-65757158D01*
X113682001Y-65757158D01*
X113650621Y-65750916D01*
X113624018Y-65733141D01*
X113606243Y-65706538D01*
X113600001Y-65675158D01*
X113600001Y-65019158D01*
X113606243Y-64987778D01*
X113624018Y-64961175D01*
X113650621Y-64943400D01*
X113682001Y-64937158D01*
X115118001Y-64937158D01*
G04 #@! TD*
D11*
G04 #@! TO.C,D12*
D10*
X107590000Y-95350000D02*
X107609030Y-95254329D01*
X107663223Y-95173223D01*
X107744329Y-95119030D01*
X107840000Y-95100000D01*
X108940000Y-95100000D01*
X109035671Y-95119030D01*
X109116777Y-95173223D01*
X109170970Y-95254329D01*
X109190000Y-95350000D01*
X109190000Y-96450000D01*
X109170970Y-96545671D01*
X109116777Y-96626777D01*
X109035671Y-96680970D01*
X108940000Y-96700000D01*
X107840000Y-96700000D01*
X107744329Y-96680970D01*
X107663223Y-96626777D01*
X107609030Y-96545671D01*
X107590000Y-96450000D01*
X107590000Y-95350000D01*
X116810000Y-95900000D02*
G75*
G02*
X115210000Y-95900000I-800000J0D01*
G01*
X115210000Y-95900000D02*
G75*
G02*
X116810000Y-95900000I800000J0D01*
G01*
G04 #@! TD*
D11*
G04 #@! TO.C,D4*
D10*
X76718001Y-113037158D02*
X76749381Y-113043400D01*
X76775984Y-113061175D01*
X76793759Y-113087778D01*
X76800001Y-113119158D01*
X76800001Y-113775158D01*
X76793759Y-113806538D01*
X76775984Y-113833141D01*
X76749381Y-113850916D01*
X76718001Y-113857158D01*
X75282001Y-113857158D01*
X75250621Y-113850916D01*
X75224018Y-113833141D01*
X75206243Y-113806538D01*
X75200001Y-113775158D01*
X75200001Y-113119158D01*
X75206243Y-113087778D01*
X75224018Y-113061175D01*
X75250621Y-113043400D01*
X75282001Y-113037158D01*
X76718001Y-113037158D01*
D11*
D10*
X76718001Y-114537158D02*
X76749381Y-114543400D01*
X76775984Y-114561175D01*
X76793759Y-114587778D01*
X76800001Y-114619158D01*
X76800001Y-115275158D01*
X76793759Y-115306538D01*
X76775984Y-115333141D01*
X76749381Y-115350916D01*
X76718001Y-115357158D01*
X75282001Y-115357158D01*
X75250621Y-115350916D01*
X75224018Y-115333141D01*
X75206243Y-115306538D01*
X75200001Y-115275158D01*
X75200001Y-114619158D01*
X75206243Y-114587778D01*
X75224018Y-114561175D01*
X75250621Y-114543400D01*
X75282001Y-114537158D01*
X76718001Y-114537158D01*
D11*
D10*
X81918001Y-114537158D02*
X81949381Y-114543400D01*
X81975984Y-114561175D01*
X81993759Y-114587778D01*
X82000001Y-114619158D01*
X82000001Y-115275158D01*
X81993759Y-115306538D01*
X81975984Y-115333141D01*
X81949381Y-115350916D01*
X81918001Y-115357158D01*
X80482001Y-115357158D01*
X80450621Y-115350916D01*
X80424018Y-115333141D01*
X80406243Y-115306538D01*
X80400001Y-115275158D01*
X80400001Y-114619158D01*
X80406243Y-114587778D01*
X80424018Y-114561175D01*
X80450621Y-114543400D01*
X80482001Y-114537158D01*
X81918001Y-114537158D01*
D11*
D10*
X81918001Y-113037158D02*
X81949381Y-113043400D01*
X81975984Y-113061175D01*
X81993759Y-113087778D01*
X82000001Y-113119158D01*
X82000001Y-113775158D01*
X81993759Y-113806538D01*
X81975984Y-113833141D01*
X81949381Y-113850916D01*
X81918001Y-113857158D01*
X80482001Y-113857158D01*
X80450621Y-113850916D01*
X80424018Y-113833141D01*
X80406243Y-113806538D01*
X80400001Y-113775158D01*
X80400001Y-113119158D01*
X80406243Y-113087778D01*
X80424018Y-113061175D01*
X80450621Y-113043400D01*
X80482001Y-113037158D01*
X81918001Y-113037158D01*
G04 #@! TD*
D11*
G04 #@! TO.C,U2*
D10*
X66620000Y-42060000D02*
X66554944Y-42047060D01*
X66499792Y-42010208D01*
X66462940Y-41955056D01*
X66450000Y-41890000D01*
X66450000Y-40530000D01*
X66462940Y-40464944D01*
X66499792Y-40409792D01*
X66554944Y-40372940D01*
X66620000Y-40360000D01*
X67980000Y-40360000D01*
X68045056Y-40372940D01*
X68100208Y-40409792D01*
X68137060Y-40464944D01*
X68150000Y-40530000D01*
X68150000Y-41890000D01*
X68137060Y-41955056D01*
X68100208Y-42010208D01*
X68045056Y-42047060D01*
X67980000Y-42060000D01*
X66620000Y-42060000D01*
X68150000Y-38670000D02*
G75*
G02*
X66450000Y-38670000I-850000J0D01*
G01*
X66450000Y-38670000D02*
G75*
G02*
X68150000Y-38670000I850000J0D01*
G01*
X68150000Y-36130000D02*
G75*
G02*
X66450000Y-36130000I-850000J0D01*
G01*
X66450000Y-36130000D02*
G75*
G02*
X68150000Y-36130000I850000J0D01*
G01*
X68150000Y-33590000D02*
G75*
G02*
X66450000Y-33590000I-850000J0D01*
G01*
X66450000Y-33590000D02*
G75*
G02*
X68150000Y-33590000I850000J0D01*
G01*
G04 #@! TD*
D11*
G04 #@! TO.C,D1*
D10*
X62418001Y-65037158D02*
X62449381Y-65043400D01*
X62475984Y-65061175D01*
X62493759Y-65087778D01*
X62500001Y-65119158D01*
X62500001Y-65775158D01*
X62493759Y-65806538D01*
X62475984Y-65833141D01*
X62449381Y-65850916D01*
X62418001Y-65857158D01*
X60982001Y-65857158D01*
X60950621Y-65850916D01*
X60924018Y-65833141D01*
X60906243Y-65806538D01*
X60900001Y-65775158D01*
X60900001Y-65119158D01*
X60906243Y-65087778D01*
X60924018Y-65061175D01*
X60950621Y-65043400D01*
X60982001Y-65037158D01*
X62418001Y-65037158D01*
D11*
D10*
X62418001Y-66537158D02*
X62449381Y-66543400D01*
X62475984Y-66561175D01*
X62493759Y-66587778D01*
X62500001Y-66619158D01*
X62500001Y-67275158D01*
X62493759Y-67306538D01*
X62475984Y-67333141D01*
X62449381Y-67350916D01*
X62418001Y-67357158D01*
X60982001Y-67357158D01*
X60950621Y-67350916D01*
X60924018Y-67333141D01*
X60906243Y-67306538D01*
X60900001Y-67275158D01*
X60900001Y-66619158D01*
X60906243Y-66587778D01*
X60924018Y-66561175D01*
X60950621Y-66543400D01*
X60982001Y-66537158D01*
X62418001Y-66537158D01*
D11*
D10*
X67618001Y-66537158D02*
X67649381Y-66543400D01*
X67675984Y-66561175D01*
X67693759Y-66587778D01*
X67700001Y-66619158D01*
X67700001Y-67275158D01*
X67693759Y-67306538D01*
X67675984Y-67333141D01*
X67649381Y-67350916D01*
X67618001Y-67357158D01*
X66182001Y-67357158D01*
X66150621Y-67350916D01*
X66124018Y-67333141D01*
X66106243Y-67306538D01*
X66100001Y-67275158D01*
X66100001Y-66619158D01*
X66106243Y-66587778D01*
X66124018Y-66561175D01*
X66150621Y-66543400D01*
X66182001Y-66537158D01*
X67618001Y-66537158D01*
D11*
D10*
X67618001Y-65037158D02*
X67649381Y-65043400D01*
X67675984Y-65061175D01*
X67693759Y-65087778D01*
X67700001Y-65119158D01*
X67700001Y-65775158D01*
X67693759Y-65806538D01*
X67675984Y-65833141D01*
X67649381Y-65850916D01*
X67618001Y-65857158D01*
X66182001Y-65857158D01*
X66150621Y-65850916D01*
X66124018Y-65833141D01*
X66106243Y-65806538D01*
X66100001Y-65775158D01*
X66100001Y-65119158D01*
X66106243Y-65087778D01*
X66124018Y-65061175D01*
X66150621Y-65043400D01*
X66182001Y-65037158D01*
X67618001Y-65037158D01*
G04 #@! TD*
G04 #@! TO.C,U1*
X34142000Y-26948500D02*
G75*
G02*
X32618000Y-26948500I-762000J0D01*
G01*
X32618000Y-26948500D02*
G75*
G02*
X34142000Y-26948500I762000J0D01*
G01*
X34142000Y-29488500D02*
G75*
G02*
X32618000Y-29488500I-762000J0D01*
G01*
X32618000Y-29488500D02*
G75*
G02*
X34142000Y-29488500I762000J0D01*
G01*
X34142000Y-32028500D02*
G75*
G02*
X32618000Y-32028500I-762000J0D01*
G01*
X32618000Y-32028500D02*
G75*
G02*
X34142000Y-32028500I762000J0D01*
G01*
X34142000Y-34568500D02*
G75*
G02*
X32618000Y-34568500I-762000J0D01*
G01*
X32618000Y-34568500D02*
G75*
G02*
X34142000Y-34568500I762000J0D01*
G01*
X34142000Y-37108500D02*
G75*
G02*
X32618000Y-37108500I-762000J0D01*
G01*
X32618000Y-37108500D02*
G75*
G02*
X34142000Y-37108500I762000J0D01*
G01*
X34142000Y-39648500D02*
G75*
G02*
X32618000Y-39648500I-762000J0D01*
G01*
X32618000Y-39648500D02*
G75*
G02*
X34142000Y-39648500I762000J0D01*
G01*
X34142000Y-42188500D02*
G75*
G02*
X32618000Y-42188500I-762000J0D01*
G01*
X32618000Y-42188500D02*
G75*
G02*
X34142000Y-42188500I762000J0D01*
G01*
X49382000Y-42188500D02*
G75*
G02*
X47858000Y-42188500I-762000J0D01*
G01*
X47858000Y-42188500D02*
G75*
G02*
X49382000Y-42188500I762000J0D01*
G01*
X49382000Y-39648500D02*
G75*
G02*
X47858000Y-39648500I-762000J0D01*
G01*
X47858000Y-39648500D02*
G75*
G02*
X49382000Y-39648500I762000J0D01*
G01*
X49382000Y-37108500D02*
G75*
G02*
X47858000Y-37108500I-762000J0D01*
G01*
X47858000Y-37108500D02*
G75*
G02*
X49382000Y-37108500I762000J0D01*
G01*
X49382000Y-34568500D02*
G75*
G02*
X47858000Y-34568500I-762000J0D01*
G01*
X47858000Y-34568500D02*
G75*
G02*
X49382000Y-34568500I762000J0D01*
G01*
X49382000Y-32028500D02*
G75*
G02*
X47858000Y-32028500I-762000J0D01*
G01*
X47858000Y-32028500D02*
G75*
G02*
X49382000Y-32028500I762000J0D01*
G01*
X49382000Y-29488500D02*
G75*
G02*
X47858000Y-29488500I-762000J0D01*
G01*
X47858000Y-29488500D02*
G75*
G02*
X49382000Y-29488500I762000J0D01*
G01*
X49382000Y-26948500D02*
G75*
G02*
X47858000Y-26948500I-762000J0D01*
G01*
X47858000Y-26948500D02*
G75*
G02*
X49382000Y-26948500I762000J0D01*
G01*
G04 #@! TD*
D11*
G04 #@! TO.C,D2*
D10*
X62418001Y-89037158D02*
X62449381Y-89043400D01*
X62475984Y-89061175D01*
X62493759Y-89087778D01*
X62500001Y-89119158D01*
X62500001Y-89775158D01*
X62493759Y-89806538D01*
X62475984Y-89833141D01*
X62449381Y-89850916D01*
X62418001Y-89857158D01*
X60982001Y-89857158D01*
X60950621Y-89850916D01*
X60924018Y-89833141D01*
X60906243Y-89806538D01*
X60900001Y-89775158D01*
X60900001Y-89119158D01*
X60906243Y-89087778D01*
X60924018Y-89061175D01*
X60950621Y-89043400D01*
X60982001Y-89037158D01*
X62418001Y-89037158D01*
D11*
D10*
X62418001Y-90537158D02*
X62449381Y-90543400D01*
X62475984Y-90561175D01*
X62493759Y-90587778D01*
X62500001Y-90619158D01*
X62500001Y-91275158D01*
X62493759Y-91306538D01*
X62475984Y-91333141D01*
X62449381Y-91350916D01*
X62418001Y-91357158D01*
X60982001Y-91357158D01*
X60950621Y-91350916D01*
X60924018Y-91333141D01*
X60906243Y-91306538D01*
X60900001Y-91275158D01*
X60900001Y-90619158D01*
X60906243Y-90587778D01*
X60924018Y-90561175D01*
X60950621Y-90543400D01*
X60982001Y-90537158D01*
X62418001Y-90537158D01*
D11*
D10*
X67618001Y-90537158D02*
X67649381Y-90543400D01*
X67675984Y-90561175D01*
X67693759Y-90587778D01*
X67700001Y-90619158D01*
X67700001Y-91275158D01*
X67693759Y-91306538D01*
X67675984Y-91333141D01*
X67649381Y-91350916D01*
X67618001Y-91357158D01*
X66182001Y-91357158D01*
X66150621Y-91350916D01*
X66124018Y-91333141D01*
X66106243Y-91306538D01*
X66100001Y-91275158D01*
X66100001Y-90619158D01*
X66106243Y-90587778D01*
X66124018Y-90561175D01*
X66150621Y-90543400D01*
X66182001Y-90537158D01*
X67618001Y-90537158D01*
D11*
D10*
X67618001Y-89037158D02*
X67649381Y-89043400D01*
X67675984Y-89061175D01*
X67693759Y-89087778D01*
X67700001Y-89119158D01*
X67700001Y-89775158D01*
X67693759Y-89806538D01*
X67675984Y-89833141D01*
X67649381Y-89850916D01*
X67618001Y-89857158D01*
X66182001Y-89857158D01*
X66150621Y-89850916D01*
X66124018Y-89833141D01*
X66106243Y-89806538D01*
X66100001Y-89775158D01*
X66100001Y-89119158D01*
X66106243Y-89087778D01*
X66124018Y-89061175D01*
X66150621Y-89043400D01*
X66182001Y-89037158D01*
X67618001Y-89037158D01*
G04 #@! TD*
D11*
G04 #@! TO.C,D9*
D10*
X107590000Y-71050000D02*
X107609030Y-70954329D01*
X107663223Y-70873223D01*
X107744329Y-70819030D01*
X107840000Y-70800000D01*
X108940000Y-70800000D01*
X109035671Y-70819030D01*
X109116777Y-70873223D01*
X109170970Y-70954329D01*
X109190000Y-71050000D01*
X109190000Y-72150000D01*
X109170970Y-72245671D01*
X109116777Y-72326777D01*
X109035671Y-72380970D01*
X108940000Y-72400000D01*
X107840000Y-72400000D01*
X107744329Y-72380970D01*
X107663223Y-72326777D01*
X107609030Y-72245671D01*
X107590000Y-72150000D01*
X107590000Y-71050000D01*
X116810000Y-71600000D02*
G75*
G02*
X115210000Y-71600000I-800000J0D01*
G01*
X115210000Y-71600000D02*
G75*
G02*
X116810000Y-71600000I800000J0D01*
G01*
G04 #@! TD*
G04 #@! TO.C,SW8*
X74351250Y-109537500D02*
G75*
G02*
X72651250Y-109537500I-850000J0D01*
G01*
X72651250Y-109537500D02*
G75*
G02*
X74351250Y-109537500I850000J0D01*
G01*
X80581250Y-109537500D02*
G75*
G02*
X76581250Y-109537500I-2000000J0D01*
G01*
X76581250Y-109537500D02*
G75*
G02*
X80581250Y-109537500I2000000J0D01*
G01*
X84511250Y-109537500D02*
G75*
G02*
X82811250Y-109537500I-850000J0D01*
G01*
X82811250Y-109537500D02*
G75*
G02*
X84511250Y-109537500I850000J0D01*
G01*
X82221250Y-104457500D02*
G75*
G02*
X80021250Y-104457500I-1100000J0D01*
G01*
X80021250Y-104457500D02*
G75*
G02*
X82221250Y-104457500I1100000J0D01*
G01*
X75871250Y-106997500D02*
G75*
G02*
X73671250Y-106997500I-1100000J0D01*
G01*
X73671250Y-106997500D02*
G75*
G02*
X75871250Y-106997500I1100000J0D01*
G01*
G04 #@! TD*
D11*
G04 #@! TO.C,D3*
D10*
X38518001Y-112837158D02*
X38549381Y-112843400D01*
X38575984Y-112861175D01*
X38593759Y-112887778D01*
X38600001Y-112919158D01*
X38600001Y-113575158D01*
X38593759Y-113606538D01*
X38575984Y-113633141D01*
X38549381Y-113650916D01*
X38518001Y-113657158D01*
X37082001Y-113657158D01*
X37050621Y-113650916D01*
X37024018Y-113633141D01*
X37006243Y-113606538D01*
X37000001Y-113575158D01*
X37000001Y-112919158D01*
X37006243Y-112887778D01*
X37024018Y-112861175D01*
X37050621Y-112843400D01*
X37082001Y-112837158D01*
X38518001Y-112837158D01*
D11*
D10*
X38518001Y-114337158D02*
X38549381Y-114343400D01*
X38575984Y-114361175D01*
X38593759Y-114387778D01*
X38600001Y-114419158D01*
X38600001Y-115075158D01*
X38593759Y-115106538D01*
X38575984Y-115133141D01*
X38549381Y-115150916D01*
X38518001Y-115157158D01*
X37082001Y-115157158D01*
X37050621Y-115150916D01*
X37024018Y-115133141D01*
X37006243Y-115106538D01*
X37000001Y-115075158D01*
X37000001Y-114419158D01*
X37006243Y-114387778D01*
X37024018Y-114361175D01*
X37050621Y-114343400D01*
X37082001Y-114337158D01*
X38518001Y-114337158D01*
D11*
D10*
X43718001Y-114337158D02*
X43749381Y-114343400D01*
X43775984Y-114361175D01*
X43793759Y-114387778D01*
X43800001Y-114419158D01*
X43800001Y-115075158D01*
X43793759Y-115106538D01*
X43775984Y-115133141D01*
X43749381Y-115150916D01*
X43718001Y-115157158D01*
X42282001Y-115157158D01*
X42250621Y-115150916D01*
X42224018Y-115133141D01*
X42206243Y-115106538D01*
X42200001Y-115075158D01*
X42200001Y-114419158D01*
X42206243Y-114387778D01*
X42224018Y-114361175D01*
X42250621Y-114343400D01*
X42282001Y-114337158D01*
X43718001Y-114337158D01*
D11*
D10*
X43718001Y-112837158D02*
X43749381Y-112843400D01*
X43775984Y-112861175D01*
X43793759Y-112887778D01*
X43800001Y-112919158D01*
X43800001Y-113575158D01*
X43793759Y-113606538D01*
X43775984Y-113633141D01*
X43749381Y-113650916D01*
X43718001Y-113657158D01*
X42282001Y-113657158D01*
X42250621Y-113650916D01*
X42224018Y-113633141D01*
X42206243Y-113606538D01*
X42200001Y-113575158D01*
X42200001Y-112919158D01*
X42206243Y-112887778D01*
X42224018Y-112861175D01*
X42250621Y-112843400D01*
X42282001Y-112837158D01*
X43718001Y-112837158D01*
G04 #@! TD*
G04 #@! TO.C,SW3*
X107688750Y-61450000D02*
G75*
G02*
X105988750Y-61450000I-850000J0D01*
G01*
X105988750Y-61450000D02*
G75*
G02*
X107688750Y-61450000I850000J0D01*
G01*
X113918750Y-61450000D02*
G75*
G02*
X109918750Y-61450000I-2000000J0D01*
G01*
X109918750Y-61450000D02*
G75*
G02*
X113918750Y-61450000I2000000J0D01*
G01*
X117848750Y-61450000D02*
G75*
G02*
X116148750Y-61450000I-850000J0D01*
G01*
X116148750Y-61450000D02*
G75*
G02*
X117848750Y-61450000I850000J0D01*
G01*
X115558750Y-56370000D02*
G75*
G02*
X113358750Y-56370000I-1100000J0D01*
G01*
X113358750Y-56370000D02*
G75*
G02*
X115558750Y-56370000I1100000J0D01*
G01*
X109208750Y-58910000D02*
G75*
G02*
X107008750Y-58910000I-1100000J0D01*
G01*
X107008750Y-58910000D02*
G75*
G02*
X109208750Y-58910000I1100000J0D01*
G01*
G04 #@! TD*
D11*
G04 #@! TO.C,D6*
D10*
X86118001Y-64737158D02*
X86149381Y-64743400D01*
X86175984Y-64761175D01*
X86193759Y-64787778D01*
X86200001Y-64819158D01*
X86200001Y-65475158D01*
X86193759Y-65506538D01*
X86175984Y-65533141D01*
X86149381Y-65550916D01*
X86118001Y-65557158D01*
X84682001Y-65557158D01*
X84650621Y-65550916D01*
X84624018Y-65533141D01*
X84606243Y-65506538D01*
X84600001Y-65475158D01*
X84600001Y-64819158D01*
X84606243Y-64787778D01*
X84624018Y-64761175D01*
X84650621Y-64743400D01*
X84682001Y-64737158D01*
X86118001Y-64737158D01*
D11*
D10*
X86118001Y-66237158D02*
X86149381Y-66243400D01*
X86175984Y-66261175D01*
X86193759Y-66287778D01*
X86200001Y-66319158D01*
X86200001Y-66975158D01*
X86193759Y-67006538D01*
X86175984Y-67033141D01*
X86149381Y-67050916D01*
X86118001Y-67057158D01*
X84682001Y-67057158D01*
X84650621Y-67050916D01*
X84624018Y-67033141D01*
X84606243Y-67006538D01*
X84600001Y-66975158D01*
X84600001Y-66319158D01*
X84606243Y-66287778D01*
X84624018Y-66261175D01*
X84650621Y-66243400D01*
X84682001Y-66237158D01*
X86118001Y-66237158D01*
D11*
D10*
X91318001Y-66237158D02*
X91349381Y-66243400D01*
X91375984Y-66261175D01*
X91393759Y-66287778D01*
X91400001Y-66319158D01*
X91400001Y-66975158D01*
X91393759Y-67006538D01*
X91375984Y-67033141D01*
X91349381Y-67050916D01*
X91318001Y-67057158D01*
X89882001Y-67057158D01*
X89850621Y-67050916D01*
X89824018Y-67033141D01*
X89806243Y-67006538D01*
X89800001Y-66975158D01*
X89800001Y-66319158D01*
X89806243Y-66287778D01*
X89824018Y-66261175D01*
X89850621Y-66243400D01*
X89882001Y-66237158D01*
X91318001Y-66237158D01*
D11*
D10*
X91318001Y-64737158D02*
X91349381Y-64743400D01*
X91375984Y-64761175D01*
X91393759Y-64787778D01*
X91400001Y-64819158D01*
X91400001Y-65475158D01*
X91393759Y-65506538D01*
X91375984Y-65533141D01*
X91349381Y-65550916D01*
X91318001Y-65557158D01*
X89882001Y-65557158D01*
X89850621Y-65550916D01*
X89824018Y-65533141D01*
X89806243Y-65506538D01*
X89800001Y-65475158D01*
X89800001Y-64819158D01*
X89806243Y-64787778D01*
X89824018Y-64761175D01*
X89850621Y-64743400D01*
X89882001Y-64737158D01*
X91318001Y-64737158D01*
G04 #@! TD*
D11*
G04 #@! TO.C,D14*
D10*
X73890000Y-119150000D02*
X73909030Y-119054329D01*
X73963223Y-118973223D01*
X74044329Y-118919030D01*
X74140000Y-118900000D01*
X75240000Y-118900000D01*
X75335671Y-118919030D01*
X75416777Y-118973223D01*
X75470970Y-119054329D01*
X75490000Y-119150000D01*
X75490000Y-120250000D01*
X75470970Y-120345671D01*
X75416777Y-120426777D01*
X75335671Y-120480970D01*
X75240000Y-120500000D01*
X74140000Y-120500000D01*
X74044329Y-120480970D01*
X73963223Y-120426777D01*
X73909030Y-120345671D01*
X73890000Y-120250000D01*
X73890000Y-119150000D01*
X83110000Y-119700000D02*
G75*
G02*
X81510000Y-119700000I-800000J0D01*
G01*
X81510000Y-119700000D02*
G75*
G02*
X83110000Y-119700000I800000J0D01*
G01*
G04 #@! TD*
D11*
G04 #@! TO.C,D5*
D10*
X86118001Y-89037158D02*
X86149381Y-89043400D01*
X86175984Y-89061175D01*
X86193759Y-89087778D01*
X86200001Y-89119158D01*
X86200001Y-89775158D01*
X86193759Y-89806538D01*
X86175984Y-89833141D01*
X86149381Y-89850916D01*
X86118001Y-89857158D01*
X84682001Y-89857158D01*
X84650621Y-89850916D01*
X84624018Y-89833141D01*
X84606243Y-89806538D01*
X84600001Y-89775158D01*
X84600001Y-89119158D01*
X84606243Y-89087778D01*
X84624018Y-89061175D01*
X84650621Y-89043400D01*
X84682001Y-89037158D01*
X86118001Y-89037158D01*
D11*
D10*
X86118001Y-90537158D02*
X86149381Y-90543400D01*
X86175984Y-90561175D01*
X86193759Y-90587778D01*
X86200001Y-90619158D01*
X86200001Y-91275158D01*
X86193759Y-91306538D01*
X86175984Y-91333141D01*
X86149381Y-91350916D01*
X86118001Y-91357158D01*
X84682001Y-91357158D01*
X84650621Y-91350916D01*
X84624018Y-91333141D01*
X84606243Y-91306538D01*
X84600001Y-91275158D01*
X84600001Y-90619158D01*
X84606243Y-90587778D01*
X84624018Y-90561175D01*
X84650621Y-90543400D01*
X84682001Y-90537158D01*
X86118001Y-90537158D01*
D11*
D10*
X91318001Y-90537158D02*
X91349381Y-90543400D01*
X91375984Y-90561175D01*
X91393759Y-90587778D01*
X91400001Y-90619158D01*
X91400001Y-91275158D01*
X91393759Y-91306538D01*
X91375984Y-91333141D01*
X91349381Y-91350916D01*
X91318001Y-91357158D01*
X89882001Y-91357158D01*
X89850621Y-91350916D01*
X89824018Y-91333141D01*
X89806243Y-91306538D01*
X89800001Y-91275158D01*
X89800001Y-90619158D01*
X89806243Y-90587778D01*
X89824018Y-90561175D01*
X89850621Y-90543400D01*
X89882001Y-90537158D01*
X91318001Y-90537158D01*
D11*
D10*
X91318001Y-89037158D02*
X91349381Y-89043400D01*
X91375984Y-89061175D01*
X91393759Y-89087778D01*
X91400001Y-89119158D01*
X91400001Y-89775158D01*
X91393759Y-89806538D01*
X91375984Y-89833141D01*
X91349381Y-89850916D01*
X91318001Y-89857158D01*
X89882001Y-89857158D01*
X89850621Y-89850916D01*
X89824018Y-89833141D01*
X89806243Y-89806538D01*
X89800001Y-89775158D01*
X89800001Y-89119158D01*
X89806243Y-89087778D01*
X89824018Y-89061175D01*
X89850621Y-89043400D01*
X89882001Y-89037158D01*
X91318001Y-89037158D01*
G04 #@! TD*
D11*
G04 #@! TO.C,D8*
D10*
X83490000Y-71150000D02*
X83509030Y-71054329D01*
X83563223Y-70973223D01*
X83644329Y-70919030D01*
X83740000Y-70900000D01*
X84840000Y-70900000D01*
X84935671Y-70919030D01*
X85016777Y-70973223D01*
X85070970Y-71054329D01*
X85090000Y-71150000D01*
X85090000Y-72250000D01*
X85070970Y-72345671D01*
X85016777Y-72426777D01*
X84935671Y-72480970D01*
X84840000Y-72500000D01*
X83740000Y-72500000D01*
X83644329Y-72480970D01*
X83563223Y-72426777D01*
X83509030Y-72345671D01*
X83490000Y-72250000D01*
X83490000Y-71150000D01*
X92710000Y-71700000D02*
G75*
G02*
X91110000Y-71700000I-800000J0D01*
G01*
X91110000Y-71700000D02*
G75*
G02*
X92710000Y-71700000I800000J0D01*
G01*
G04 #@! TD*
M02*
