M48
; DRILL file {KiCad 9.0.7} date 2026-02-07T22:16:38-0800
; FORMAT={-:-/ absolute / metric / decimal}
; #@! TF.CreationDate,2026-02-07T22:16:38-08:00
; #@! TF.GenerationSoftware,Kicad,Pcbnew,9.0.7
; #@! TF.FileFunction,NonPlated,1,2,NPTH
FMAT,2
METRIC
; #@! TA.AperFunction,NonPlated,NPTH,ComponentDrill
T1C1.700
; #@! TA.AperFunction,NonPlated,NPTH,ComponentDrill
T2C4.000
%
G90
G05
T1
X35.401Y-109.537
X45.561Y-109.537
X59.214Y-61.45
X59.214Y-85.725
X69.374Y-61.45
X69.374Y-85.725
X73.501Y-109.537
X82.926Y-61.45
X83.026Y-85.725
X83.661Y-109.537
X93.086Y-61.45
X93.186Y-85.725
X106.839Y-61.45
X106.839Y-85.725
X116.999Y-61.45
X116.999Y-85.725
T2
X40.481Y-109.537
X64.294Y-61.45
X64.294Y-85.725
X78.581Y-109.537
X88.006Y-61.45
X88.106Y-85.725
X111.919Y-61.45
X111.919Y-85.725
M30
