G04 #@! TF.GenerationSoftware,KiCad,Pcbnew,9.0.7*
G04 #@! TF.CreationDate,2026-02-07T22:14:11-08:00*
G04 #@! TF.ProjectId,hackpad,6861636b-7061-4642-9e6b-696361645f70,rev?*
G04 #@! TF.SameCoordinates,Original*
G04 #@! TF.FileFunction,AssemblyDrawing,Top*
%FSLAX46Y46*%
G04 Gerber Fmt 4.6, Leading zero omitted, Abs format (unit mm)*
G04 Created by KiCad (PCBNEW 9.0.7) date 2026-02-07 22:14:11*
%MOMM*%
%LPD*%
G01*
G04 APERTURE LIST*
%ADD10C,0.150000*%
%ADD11C,0.120000*%
%ADD12C,0.101600*%
%ADD13C,0.100000*%
%ADD14C,0.504000*%
%ADD15C,0.100000*%
G04 #@! TD*
G04 APERTURE END LIST*
D10*
X106466667Y-94277201D02*
X106609524Y-94324820D01*
X106609524Y-94324820D02*
X106847619Y-94324820D01*
X106847619Y-94324820D02*
X106942857Y-94277201D01*
X106942857Y-94277201D02*
X106990476Y-94229581D01*
X106990476Y-94229581D02*
X107038095Y-94134343D01*
X107038095Y-94134343D02*
X107038095Y-94039105D01*
X107038095Y-94039105D02*
X106990476Y-93943867D01*
X106990476Y-93943867D02*
X106942857Y-93896248D01*
X106942857Y-93896248D02*
X106847619Y-93848629D01*
X106847619Y-93848629D02*
X106657143Y-93801010D01*
X106657143Y-93801010D02*
X106561905Y-93753391D01*
X106561905Y-93753391D02*
X106514286Y-93705772D01*
X106514286Y-93705772D02*
X106466667Y-93610534D01*
X106466667Y-93610534D02*
X106466667Y-93515296D01*
X106466667Y-93515296D02*
X106514286Y-93420058D01*
X106514286Y-93420058D02*
X106561905Y-93372439D01*
X106561905Y-93372439D02*
X106657143Y-93324820D01*
X106657143Y-93324820D02*
X106895238Y-93324820D01*
X106895238Y-93324820D02*
X107038095Y-93372439D01*
X107466667Y-94324820D02*
X107466667Y-93324820D01*
X108038095Y-94324820D02*
X107609524Y-93753391D01*
X108038095Y-93324820D02*
X107466667Y-93896248D01*
X108895238Y-93324820D02*
X108704762Y-93324820D01*
X108704762Y-93324820D02*
X108609524Y-93372439D01*
X108609524Y-93372439D02*
X108561905Y-93420058D01*
X108561905Y-93420058D02*
X108466667Y-93562915D01*
X108466667Y-93562915D02*
X108419048Y-93753391D01*
X108419048Y-93753391D02*
X108419048Y-94134343D01*
X108419048Y-94134343D02*
X108466667Y-94229581D01*
X108466667Y-94229581D02*
X108514286Y-94277201D01*
X108514286Y-94277201D02*
X108609524Y-94324820D01*
X108609524Y-94324820D02*
X108800000Y-94324820D01*
X108800000Y-94324820D02*
X108895238Y-94277201D01*
X108895238Y-94277201D02*
X108942857Y-94229581D01*
X108942857Y-94229581D02*
X108990476Y-94134343D01*
X108990476Y-94134343D02*
X108990476Y-93896248D01*
X108990476Y-93896248D02*
X108942857Y-93801010D01*
X108942857Y-93801010D02*
X108895238Y-93753391D01*
X108895238Y-93753391D02*
X108800000Y-93705772D01*
X108800000Y-93705772D02*
X108609524Y-93705772D01*
X108609524Y-93705772D02*
X108514286Y-93753391D01*
X108514286Y-93753391D02*
X108466667Y-93801010D01*
X108466667Y-93801010D02*
X108419048Y-93896248D01*
X109561905Y-93753391D02*
X109466667Y-93705772D01*
X109466667Y-93705772D02*
X109419048Y-93658153D01*
X109419048Y-93658153D02*
X109371429Y-93562915D01*
X109371429Y-93562915D02*
X109371429Y-93515296D01*
X109371429Y-93515296D02*
X109419048Y-93420058D01*
X109419048Y-93420058D02*
X109466667Y-93372439D01*
X109466667Y-93372439D02*
X109561905Y-93324820D01*
X109561905Y-93324820D02*
X109752381Y-93324820D01*
X109752381Y-93324820D02*
X109847619Y-93372439D01*
X109847619Y-93372439D02*
X109895238Y-93420058D01*
X109895238Y-93420058D02*
X109942857Y-93515296D01*
X109942857Y-93515296D02*
X109942857Y-93562915D01*
X109942857Y-93562915D02*
X109895238Y-93658153D01*
X109895238Y-93658153D02*
X109847619Y-93705772D01*
X109847619Y-93705772D02*
X109752381Y-93753391D01*
X109752381Y-93753391D02*
X109561905Y-93753391D01*
X109561905Y-93753391D02*
X109466667Y-93801010D01*
X109466667Y-93801010D02*
X109419048Y-93848629D01*
X109419048Y-93848629D02*
X109371429Y-93943867D01*
X109371429Y-93943867D02*
X109371429Y-94134343D01*
X109371429Y-94134343D02*
X109419048Y-94229581D01*
X109419048Y-94229581D02*
X109466667Y-94277201D01*
X109466667Y-94277201D02*
X109561905Y-94324820D01*
X109561905Y-94324820D02*
X109752381Y-94324820D01*
X109752381Y-94324820D02*
X109847619Y-94277201D01*
X109847619Y-94277201D02*
X109895238Y-94229581D01*
X109895238Y-94229581D02*
X109942857Y-94134343D01*
X109942857Y-94134343D02*
X109942857Y-93943867D01*
X109942857Y-93943867D02*
X109895238Y-93848629D01*
X109895238Y-93848629D02*
X109847619Y-93801010D01*
X109847619Y-93801010D02*
X109752381Y-93753391D01*
X110895238Y-94324820D02*
X110323810Y-94324820D01*
X110609524Y-94324820D02*
X110609524Y-93324820D01*
X110609524Y-93324820D02*
X110514286Y-93467677D01*
X110514286Y-93467677D02*
X110419048Y-93562915D01*
X110419048Y-93562915D02*
X110323810Y-93610534D01*
X111276191Y-93420058D02*
X111323810Y-93372439D01*
X111323810Y-93372439D02*
X111419048Y-93324820D01*
X111419048Y-93324820D02*
X111657143Y-93324820D01*
X111657143Y-93324820D02*
X111752381Y-93372439D01*
X111752381Y-93372439D02*
X111800000Y-93420058D01*
X111800000Y-93420058D02*
X111847619Y-93515296D01*
X111847619Y-93515296D02*
X111847619Y-93610534D01*
X111847619Y-93610534D02*
X111800000Y-93753391D01*
X111800000Y-93753391D02*
X111228572Y-94324820D01*
X111228572Y-94324820D02*
X111847619Y-94324820D01*
X112276191Y-94324820D02*
X112276191Y-93324820D01*
X112276191Y-93324820D02*
X112609524Y-94039105D01*
X112609524Y-94039105D02*
X112942857Y-93324820D01*
X112942857Y-93324820D02*
X112942857Y-94324820D01*
X113419048Y-94324820D02*
X113419048Y-93324820D01*
X113895238Y-94324820D02*
X113895238Y-93324820D01*
X113895238Y-93324820D02*
X114466666Y-94324820D01*
X114466666Y-94324820D02*
X114466666Y-93324820D01*
X114942857Y-94324820D02*
X114942857Y-93324820D01*
X115419047Y-93943867D02*
X116180952Y-93943867D01*
X116657142Y-93801010D02*
X116990475Y-93801010D01*
X117133332Y-94324820D02*
X116657142Y-94324820D01*
X116657142Y-94324820D02*
X116657142Y-93324820D01*
X116657142Y-93324820D02*
X117133332Y-93324820D01*
X94810415Y-102092319D02*
X94477082Y-101616128D01*
X94238987Y-102092319D02*
X94238987Y-101092319D01*
X94238987Y-101092319D02*
X94619939Y-101092319D01*
X94619939Y-101092319D02*
X94715177Y-101139938D01*
X94715177Y-101139938D02*
X94762796Y-101187557D01*
X94762796Y-101187557D02*
X94810415Y-101282795D01*
X94810415Y-101282795D02*
X94810415Y-101425652D01*
X94810415Y-101425652D02*
X94762796Y-101520890D01*
X94762796Y-101520890D02*
X94715177Y-101568509D01*
X94715177Y-101568509D02*
X94619939Y-101616128D01*
X94619939Y-101616128D02*
X94238987Y-101616128D01*
X95381844Y-102092319D02*
X95286606Y-102044700D01*
X95286606Y-102044700D02*
X95238987Y-101997080D01*
X95238987Y-101997080D02*
X95191368Y-101901842D01*
X95191368Y-101901842D02*
X95191368Y-101616128D01*
X95191368Y-101616128D02*
X95238987Y-101520890D01*
X95238987Y-101520890D02*
X95286606Y-101473271D01*
X95286606Y-101473271D02*
X95381844Y-101425652D01*
X95381844Y-101425652D02*
X95524701Y-101425652D01*
X95524701Y-101425652D02*
X95619939Y-101473271D01*
X95619939Y-101473271D02*
X95667558Y-101520890D01*
X95667558Y-101520890D02*
X95715177Y-101616128D01*
X95715177Y-101616128D02*
X95715177Y-101901842D01*
X95715177Y-101901842D02*
X95667558Y-101997080D01*
X95667558Y-101997080D02*
X95619939Y-102044700D01*
X95619939Y-102044700D02*
X95524701Y-102092319D01*
X95524701Y-102092319D02*
X95381844Y-102092319D01*
X96000892Y-101425652D02*
X96381844Y-101425652D01*
X96143749Y-101092319D02*
X96143749Y-101949461D01*
X96143749Y-101949461D02*
X96191368Y-102044700D01*
X96191368Y-102044700D02*
X96286606Y-102092319D01*
X96286606Y-102092319D02*
X96381844Y-102092319D01*
X97143749Y-102092319D02*
X97143749Y-101568509D01*
X97143749Y-101568509D02*
X97096130Y-101473271D01*
X97096130Y-101473271D02*
X97000892Y-101425652D01*
X97000892Y-101425652D02*
X96810416Y-101425652D01*
X96810416Y-101425652D02*
X96715178Y-101473271D01*
X97143749Y-102044700D02*
X97048511Y-102092319D01*
X97048511Y-102092319D02*
X96810416Y-102092319D01*
X96810416Y-102092319D02*
X96715178Y-102044700D01*
X96715178Y-102044700D02*
X96667559Y-101949461D01*
X96667559Y-101949461D02*
X96667559Y-101854223D01*
X96667559Y-101854223D02*
X96715178Y-101758985D01*
X96715178Y-101758985D02*
X96810416Y-101711366D01*
X96810416Y-101711366D02*
X97048511Y-101711366D01*
X97048511Y-101711366D02*
X97143749Y-101663747D01*
X97619940Y-102092319D02*
X97619940Y-101425652D01*
X97619940Y-101616128D02*
X97667559Y-101520890D01*
X97667559Y-101520890D02*
X97715178Y-101473271D01*
X97715178Y-101473271D02*
X97810416Y-101425652D01*
X97810416Y-101425652D02*
X97905654Y-101425652D01*
X98143750Y-101425652D02*
X98381845Y-102092319D01*
X98619940Y-101425652D02*
X98381845Y-102092319D01*
X98381845Y-102092319D02*
X98286607Y-102330414D01*
X98286607Y-102330414D02*
X98238988Y-102378033D01*
X98238988Y-102378033D02*
X98143750Y-102425652D01*
X99000893Y-101568509D02*
X99334226Y-101568509D01*
X99477083Y-102092319D02*
X99000893Y-102092319D01*
X99000893Y-102092319D02*
X99000893Y-101092319D01*
X99000893Y-101092319D02*
X99477083Y-101092319D01*
X99905655Y-101425652D02*
X99905655Y-102092319D01*
X99905655Y-101520890D02*
X99953274Y-101473271D01*
X99953274Y-101473271D02*
X100048512Y-101425652D01*
X100048512Y-101425652D02*
X100191369Y-101425652D01*
X100191369Y-101425652D02*
X100286607Y-101473271D01*
X100286607Y-101473271D02*
X100334226Y-101568509D01*
X100334226Y-101568509D02*
X100334226Y-102092319D01*
X101238988Y-102044700D02*
X101143750Y-102092319D01*
X101143750Y-102092319D02*
X100953274Y-102092319D01*
X100953274Y-102092319D02*
X100858036Y-102044700D01*
X100858036Y-102044700D02*
X100810417Y-101997080D01*
X100810417Y-101997080D02*
X100762798Y-101901842D01*
X100762798Y-101901842D02*
X100762798Y-101616128D01*
X100762798Y-101616128D02*
X100810417Y-101520890D01*
X100810417Y-101520890D02*
X100858036Y-101473271D01*
X100858036Y-101473271D02*
X100953274Y-101425652D01*
X100953274Y-101425652D02*
X101143750Y-101425652D01*
X101143750Y-101425652D02*
X101238988Y-101473271D01*
X101810417Y-102092319D02*
X101715179Y-102044700D01*
X101715179Y-102044700D02*
X101667560Y-101997080D01*
X101667560Y-101997080D02*
X101619941Y-101901842D01*
X101619941Y-101901842D02*
X101619941Y-101616128D01*
X101619941Y-101616128D02*
X101667560Y-101520890D01*
X101667560Y-101520890D02*
X101715179Y-101473271D01*
X101715179Y-101473271D02*
X101810417Y-101425652D01*
X101810417Y-101425652D02*
X101953274Y-101425652D01*
X101953274Y-101425652D02*
X102048512Y-101473271D01*
X102048512Y-101473271D02*
X102096131Y-101520890D01*
X102096131Y-101520890D02*
X102143750Y-101616128D01*
X102143750Y-101616128D02*
X102143750Y-101901842D01*
X102143750Y-101901842D02*
X102096131Y-101997080D01*
X102096131Y-101997080D02*
X102048512Y-102044700D01*
X102048512Y-102044700D02*
X101953274Y-102092319D01*
X101953274Y-102092319D02*
X101810417Y-102092319D01*
X103000893Y-102092319D02*
X103000893Y-101092319D01*
X103000893Y-102044700D02*
X102905655Y-102092319D01*
X102905655Y-102092319D02*
X102715179Y-102092319D01*
X102715179Y-102092319D02*
X102619941Y-102044700D01*
X102619941Y-102044700D02*
X102572322Y-101997080D01*
X102572322Y-101997080D02*
X102524703Y-101901842D01*
X102524703Y-101901842D02*
X102524703Y-101616128D01*
X102524703Y-101616128D02*
X102572322Y-101520890D01*
X102572322Y-101520890D02*
X102619941Y-101473271D01*
X102619941Y-101473271D02*
X102715179Y-101425652D01*
X102715179Y-101425652D02*
X102905655Y-101425652D01*
X102905655Y-101425652D02*
X103000893Y-101473271D01*
X103858036Y-102044700D02*
X103762798Y-102092319D01*
X103762798Y-102092319D02*
X103572322Y-102092319D01*
X103572322Y-102092319D02*
X103477084Y-102044700D01*
X103477084Y-102044700D02*
X103429465Y-101949461D01*
X103429465Y-101949461D02*
X103429465Y-101568509D01*
X103429465Y-101568509D02*
X103477084Y-101473271D01*
X103477084Y-101473271D02*
X103572322Y-101425652D01*
X103572322Y-101425652D02*
X103762798Y-101425652D01*
X103762798Y-101425652D02*
X103858036Y-101473271D01*
X103858036Y-101473271D02*
X103905655Y-101568509D01*
X103905655Y-101568509D02*
X103905655Y-101663747D01*
X103905655Y-101663747D02*
X103429465Y-101758985D01*
X104334227Y-102092319D02*
X104334227Y-101425652D01*
X104334227Y-101616128D02*
X104381846Y-101520890D01*
X104381846Y-101520890D02*
X104429465Y-101473271D01*
X104429465Y-101473271D02*
X104524703Y-101425652D01*
X104524703Y-101425652D02*
X104619941Y-101425652D01*
X104715180Y-102187557D02*
X105477084Y-102187557D01*
X105667561Y-102044700D02*
X105810418Y-102092319D01*
X105810418Y-102092319D02*
X106048513Y-102092319D01*
X106048513Y-102092319D02*
X106143751Y-102044700D01*
X106143751Y-102044700D02*
X106191370Y-101997080D01*
X106191370Y-101997080D02*
X106238989Y-101901842D01*
X106238989Y-101901842D02*
X106238989Y-101806604D01*
X106238989Y-101806604D02*
X106191370Y-101711366D01*
X106191370Y-101711366D02*
X106143751Y-101663747D01*
X106143751Y-101663747D02*
X106048513Y-101616128D01*
X106048513Y-101616128D02*
X105858037Y-101568509D01*
X105858037Y-101568509D02*
X105762799Y-101520890D01*
X105762799Y-101520890D02*
X105715180Y-101473271D01*
X105715180Y-101473271D02*
X105667561Y-101378033D01*
X105667561Y-101378033D02*
X105667561Y-101282795D01*
X105667561Y-101282795D02*
X105715180Y-101187557D01*
X105715180Y-101187557D02*
X105762799Y-101139938D01*
X105762799Y-101139938D02*
X105858037Y-101092319D01*
X105858037Y-101092319D02*
X106096132Y-101092319D01*
X106096132Y-101092319D02*
X106238989Y-101139938D01*
X106572323Y-101425652D02*
X106762799Y-102092319D01*
X106762799Y-102092319D02*
X106953275Y-101616128D01*
X106953275Y-101616128D02*
X107143751Y-102092319D01*
X107143751Y-102092319D02*
X107334227Y-101425652D01*
X107715180Y-102092319D02*
X107715180Y-101425652D01*
X107715180Y-101092319D02*
X107667561Y-101139938D01*
X107667561Y-101139938D02*
X107715180Y-101187557D01*
X107715180Y-101187557D02*
X107762799Y-101139938D01*
X107762799Y-101139938D02*
X107715180Y-101092319D01*
X107715180Y-101092319D02*
X107715180Y-101187557D01*
X108048513Y-101425652D02*
X108429465Y-101425652D01*
X108191370Y-101092319D02*
X108191370Y-101949461D01*
X108191370Y-101949461D02*
X108238989Y-102044700D01*
X108238989Y-102044700D02*
X108334227Y-102092319D01*
X108334227Y-102092319D02*
X108429465Y-102092319D01*
X109191370Y-102044700D02*
X109096132Y-102092319D01*
X109096132Y-102092319D02*
X108905656Y-102092319D01*
X108905656Y-102092319D02*
X108810418Y-102044700D01*
X108810418Y-102044700D02*
X108762799Y-101997080D01*
X108762799Y-101997080D02*
X108715180Y-101901842D01*
X108715180Y-101901842D02*
X108715180Y-101616128D01*
X108715180Y-101616128D02*
X108762799Y-101520890D01*
X108762799Y-101520890D02*
X108810418Y-101473271D01*
X108810418Y-101473271D02*
X108905656Y-101425652D01*
X108905656Y-101425652D02*
X109096132Y-101425652D01*
X109096132Y-101425652D02*
X109191370Y-101473271D01*
X109619942Y-102092319D02*
X109619942Y-101092319D01*
X110048513Y-102092319D02*
X110048513Y-101568509D01*
X110048513Y-101568509D02*
X110000894Y-101473271D01*
X110000894Y-101473271D02*
X109905656Y-101425652D01*
X109905656Y-101425652D02*
X109762799Y-101425652D01*
X109762799Y-101425652D02*
X109667561Y-101473271D01*
X109667561Y-101473271D02*
X109619942Y-101520890D01*
X96734226Y-106144700D02*
X96877083Y-106192319D01*
X96877083Y-106192319D02*
X97115178Y-106192319D01*
X97115178Y-106192319D02*
X97210416Y-106144700D01*
X97210416Y-106144700D02*
X97258035Y-106097080D01*
X97258035Y-106097080D02*
X97305654Y-106001842D01*
X97305654Y-106001842D02*
X97305654Y-105906604D01*
X97305654Y-105906604D02*
X97258035Y-105811366D01*
X97258035Y-105811366D02*
X97210416Y-105763747D01*
X97210416Y-105763747D02*
X97115178Y-105716128D01*
X97115178Y-105716128D02*
X96924702Y-105668509D01*
X96924702Y-105668509D02*
X96829464Y-105620890D01*
X96829464Y-105620890D02*
X96781845Y-105573271D01*
X96781845Y-105573271D02*
X96734226Y-105478033D01*
X96734226Y-105478033D02*
X96734226Y-105382795D01*
X96734226Y-105382795D02*
X96781845Y-105287557D01*
X96781845Y-105287557D02*
X96829464Y-105239938D01*
X96829464Y-105239938D02*
X96924702Y-105192319D01*
X96924702Y-105192319D02*
X97162797Y-105192319D01*
X97162797Y-105192319D02*
X97305654Y-105239938D01*
X97638988Y-105192319D02*
X97877083Y-106192319D01*
X97877083Y-106192319D02*
X98067559Y-105478033D01*
X98067559Y-105478033D02*
X98258035Y-106192319D01*
X98258035Y-106192319D02*
X98496131Y-105192319D01*
X99400892Y-106192319D02*
X98829464Y-106192319D01*
X99115178Y-106192319D02*
X99115178Y-105192319D01*
X99115178Y-105192319D02*
X99019940Y-105335176D01*
X99019940Y-105335176D02*
X98924702Y-105430414D01*
X98924702Y-105430414D02*
X98829464Y-105478033D01*
X100019940Y-105192319D02*
X100115178Y-105192319D01*
X100115178Y-105192319D02*
X100210416Y-105239938D01*
X100210416Y-105239938D02*
X100258035Y-105287557D01*
X100258035Y-105287557D02*
X100305654Y-105382795D01*
X100305654Y-105382795D02*
X100353273Y-105573271D01*
X100353273Y-105573271D02*
X100353273Y-105811366D01*
X100353273Y-105811366D02*
X100305654Y-106001842D01*
X100305654Y-106001842D02*
X100258035Y-106097080D01*
X100258035Y-106097080D02*
X100210416Y-106144700D01*
X100210416Y-106144700D02*
X100115178Y-106192319D01*
X100115178Y-106192319D02*
X100019940Y-106192319D01*
X100019940Y-106192319D02*
X99924702Y-106144700D01*
X99924702Y-106144700D02*
X99877083Y-106097080D01*
X99877083Y-106097080D02*
X99829464Y-106001842D01*
X99829464Y-106001842D02*
X99781845Y-105811366D01*
X99781845Y-105811366D02*
X99781845Y-105573271D01*
X99781845Y-105573271D02*
X99829464Y-105382795D01*
X99829464Y-105382795D02*
X99877083Y-105287557D01*
X99877083Y-105287557D02*
X99924702Y-105239938D01*
X99924702Y-105239938D02*
X100019940Y-105192319D01*
X108871131Y-94006200D02*
X109013988Y-94053819D01*
X109013988Y-94053819D02*
X109252083Y-94053819D01*
X109252083Y-94053819D02*
X109347321Y-94006200D01*
X109347321Y-94006200D02*
X109394940Y-93958580D01*
X109394940Y-93958580D02*
X109442559Y-93863342D01*
X109442559Y-93863342D02*
X109442559Y-93768104D01*
X109442559Y-93768104D02*
X109394940Y-93672866D01*
X109394940Y-93672866D02*
X109347321Y-93625247D01*
X109347321Y-93625247D02*
X109252083Y-93577628D01*
X109252083Y-93577628D02*
X109061607Y-93530009D01*
X109061607Y-93530009D02*
X108966369Y-93482390D01*
X108966369Y-93482390D02*
X108918750Y-93434771D01*
X108918750Y-93434771D02*
X108871131Y-93339533D01*
X108871131Y-93339533D02*
X108871131Y-93244295D01*
X108871131Y-93244295D02*
X108918750Y-93149057D01*
X108918750Y-93149057D02*
X108966369Y-93101438D01*
X108966369Y-93101438D02*
X109061607Y-93053819D01*
X109061607Y-93053819D02*
X109299702Y-93053819D01*
X109299702Y-93053819D02*
X109442559Y-93101438D01*
X109775893Y-93053819D02*
X110013988Y-94053819D01*
X110013988Y-94053819D02*
X110204464Y-93339533D01*
X110204464Y-93339533D02*
X110394940Y-94053819D01*
X110394940Y-94053819D02*
X110633036Y-93053819D01*
X110775893Y-94149057D02*
X111537797Y-94149057D01*
X111775893Y-94053819D02*
X111775893Y-93053819D01*
X111775893Y-93053819D02*
X112156845Y-93053819D01*
X112156845Y-93053819D02*
X112252083Y-93101438D01*
X112252083Y-93101438D02*
X112299702Y-93149057D01*
X112299702Y-93149057D02*
X112347321Y-93244295D01*
X112347321Y-93244295D02*
X112347321Y-93387152D01*
X112347321Y-93387152D02*
X112299702Y-93482390D01*
X112299702Y-93482390D02*
X112252083Y-93530009D01*
X112252083Y-93530009D02*
X112156845Y-93577628D01*
X112156845Y-93577628D02*
X111775893Y-93577628D01*
X113204464Y-93387152D02*
X113204464Y-94053819D01*
X112775893Y-93387152D02*
X112775893Y-93910961D01*
X112775893Y-93910961D02*
X112823512Y-94006200D01*
X112823512Y-94006200D02*
X112918750Y-94053819D01*
X112918750Y-94053819D02*
X113061607Y-94053819D01*
X113061607Y-94053819D02*
X113156845Y-94006200D01*
X113156845Y-94006200D02*
X113204464Y-93958580D01*
X113633036Y-94006200D02*
X113728274Y-94053819D01*
X113728274Y-94053819D02*
X113918750Y-94053819D01*
X113918750Y-94053819D02*
X114013988Y-94006200D01*
X114013988Y-94006200D02*
X114061607Y-93910961D01*
X114061607Y-93910961D02*
X114061607Y-93863342D01*
X114061607Y-93863342D02*
X114013988Y-93768104D01*
X114013988Y-93768104D02*
X113918750Y-93720485D01*
X113918750Y-93720485D02*
X113775893Y-93720485D01*
X113775893Y-93720485D02*
X113680655Y-93672866D01*
X113680655Y-93672866D02*
X113633036Y-93577628D01*
X113633036Y-93577628D02*
X113633036Y-93530009D01*
X113633036Y-93530009D02*
X113680655Y-93434771D01*
X113680655Y-93434771D02*
X113775893Y-93387152D01*
X113775893Y-93387152D02*
X113918750Y-93387152D01*
X113918750Y-93387152D02*
X114013988Y-93434771D01*
X114490179Y-94053819D02*
X114490179Y-93053819D01*
X114918750Y-94053819D02*
X114918750Y-93530009D01*
X114918750Y-93530009D02*
X114871131Y-93434771D01*
X114871131Y-93434771D02*
X114775893Y-93387152D01*
X114775893Y-93387152D02*
X114633036Y-93387152D01*
X114633036Y-93387152D02*
X114537798Y-93434771D01*
X114537798Y-93434771D02*
X114490179Y-93482390D01*
X110585417Y-78258200D02*
X110728274Y-78305819D01*
X110728274Y-78305819D02*
X110966369Y-78305819D01*
X110966369Y-78305819D02*
X111061607Y-78258200D01*
X111061607Y-78258200D02*
X111109226Y-78210580D01*
X111109226Y-78210580D02*
X111156845Y-78115342D01*
X111156845Y-78115342D02*
X111156845Y-78020104D01*
X111156845Y-78020104D02*
X111109226Y-77924866D01*
X111109226Y-77924866D02*
X111061607Y-77877247D01*
X111061607Y-77877247D02*
X110966369Y-77829628D01*
X110966369Y-77829628D02*
X110775893Y-77782009D01*
X110775893Y-77782009D02*
X110680655Y-77734390D01*
X110680655Y-77734390D02*
X110633036Y-77686771D01*
X110633036Y-77686771D02*
X110585417Y-77591533D01*
X110585417Y-77591533D02*
X110585417Y-77496295D01*
X110585417Y-77496295D02*
X110633036Y-77401057D01*
X110633036Y-77401057D02*
X110680655Y-77353438D01*
X110680655Y-77353438D02*
X110775893Y-77305819D01*
X110775893Y-77305819D02*
X111013988Y-77305819D01*
X111013988Y-77305819D02*
X111156845Y-77353438D01*
X111490179Y-77305819D02*
X111728274Y-78305819D01*
X111728274Y-78305819D02*
X111918750Y-77591533D01*
X111918750Y-77591533D02*
X112109226Y-78305819D01*
X112109226Y-78305819D02*
X112347322Y-77305819D01*
X113156845Y-77305819D02*
X112966369Y-77305819D01*
X112966369Y-77305819D02*
X112871131Y-77353438D01*
X112871131Y-77353438D02*
X112823512Y-77401057D01*
X112823512Y-77401057D02*
X112728274Y-77543914D01*
X112728274Y-77543914D02*
X112680655Y-77734390D01*
X112680655Y-77734390D02*
X112680655Y-78115342D01*
X112680655Y-78115342D02*
X112728274Y-78210580D01*
X112728274Y-78210580D02*
X112775893Y-78258200D01*
X112775893Y-78258200D02*
X112871131Y-78305819D01*
X112871131Y-78305819D02*
X113061607Y-78305819D01*
X113061607Y-78305819D02*
X113156845Y-78258200D01*
X113156845Y-78258200D02*
X113204464Y-78210580D01*
X113204464Y-78210580D02*
X113252083Y-78115342D01*
X113252083Y-78115342D02*
X113252083Y-77877247D01*
X113252083Y-77877247D02*
X113204464Y-77782009D01*
X113204464Y-77782009D02*
X113156845Y-77734390D01*
X113156845Y-77734390D02*
X113061607Y-77686771D01*
X113061607Y-77686771D02*
X112871131Y-77686771D01*
X112871131Y-77686771D02*
X112775893Y-77734390D01*
X112775893Y-77734390D02*
X112728274Y-77782009D01*
X112728274Y-77782009D02*
X112680655Y-77877247D01*
X61246131Y-69731200D02*
X61388988Y-69778819D01*
X61388988Y-69778819D02*
X61627083Y-69778819D01*
X61627083Y-69778819D02*
X61722321Y-69731200D01*
X61722321Y-69731200D02*
X61769940Y-69683580D01*
X61769940Y-69683580D02*
X61817559Y-69588342D01*
X61817559Y-69588342D02*
X61817559Y-69493104D01*
X61817559Y-69493104D02*
X61769940Y-69397866D01*
X61769940Y-69397866D02*
X61722321Y-69350247D01*
X61722321Y-69350247D02*
X61627083Y-69302628D01*
X61627083Y-69302628D02*
X61436607Y-69255009D01*
X61436607Y-69255009D02*
X61341369Y-69207390D01*
X61341369Y-69207390D02*
X61293750Y-69159771D01*
X61293750Y-69159771D02*
X61246131Y-69064533D01*
X61246131Y-69064533D02*
X61246131Y-68969295D01*
X61246131Y-68969295D02*
X61293750Y-68874057D01*
X61293750Y-68874057D02*
X61341369Y-68826438D01*
X61341369Y-68826438D02*
X61436607Y-68778819D01*
X61436607Y-68778819D02*
X61674702Y-68778819D01*
X61674702Y-68778819D02*
X61817559Y-68826438D01*
X62150893Y-68778819D02*
X62388988Y-69778819D01*
X62388988Y-69778819D02*
X62579464Y-69064533D01*
X62579464Y-69064533D02*
X62769940Y-69778819D01*
X62769940Y-69778819D02*
X63008036Y-68778819D01*
X63150893Y-69874057D02*
X63912797Y-69874057D01*
X64150893Y-69778819D02*
X64150893Y-68778819D01*
X64150893Y-68778819D02*
X64531845Y-68778819D01*
X64531845Y-68778819D02*
X64627083Y-68826438D01*
X64627083Y-68826438D02*
X64674702Y-68874057D01*
X64674702Y-68874057D02*
X64722321Y-68969295D01*
X64722321Y-68969295D02*
X64722321Y-69112152D01*
X64722321Y-69112152D02*
X64674702Y-69207390D01*
X64674702Y-69207390D02*
X64627083Y-69255009D01*
X64627083Y-69255009D02*
X64531845Y-69302628D01*
X64531845Y-69302628D02*
X64150893Y-69302628D01*
X65579464Y-69112152D02*
X65579464Y-69778819D01*
X65150893Y-69112152D02*
X65150893Y-69635961D01*
X65150893Y-69635961D02*
X65198512Y-69731200D01*
X65198512Y-69731200D02*
X65293750Y-69778819D01*
X65293750Y-69778819D02*
X65436607Y-69778819D01*
X65436607Y-69778819D02*
X65531845Y-69731200D01*
X65531845Y-69731200D02*
X65579464Y-69683580D01*
X66008036Y-69731200D02*
X66103274Y-69778819D01*
X66103274Y-69778819D02*
X66293750Y-69778819D01*
X66293750Y-69778819D02*
X66388988Y-69731200D01*
X66388988Y-69731200D02*
X66436607Y-69635961D01*
X66436607Y-69635961D02*
X66436607Y-69588342D01*
X66436607Y-69588342D02*
X66388988Y-69493104D01*
X66388988Y-69493104D02*
X66293750Y-69445485D01*
X66293750Y-69445485D02*
X66150893Y-69445485D01*
X66150893Y-69445485D02*
X66055655Y-69397866D01*
X66055655Y-69397866D02*
X66008036Y-69302628D01*
X66008036Y-69302628D02*
X66008036Y-69255009D01*
X66008036Y-69255009D02*
X66055655Y-69159771D01*
X66055655Y-69159771D02*
X66150893Y-69112152D01*
X66150893Y-69112152D02*
X66293750Y-69112152D01*
X66293750Y-69112152D02*
X66388988Y-69159771D01*
X66865179Y-69778819D02*
X66865179Y-68778819D01*
X67293750Y-69778819D02*
X67293750Y-69255009D01*
X67293750Y-69255009D02*
X67246131Y-69159771D01*
X67246131Y-69159771D02*
X67150893Y-69112152D01*
X67150893Y-69112152D02*
X67008036Y-69112152D01*
X67008036Y-69112152D02*
X66912798Y-69159771D01*
X66912798Y-69159771D02*
X66865179Y-69207390D01*
X62960417Y-53983200D02*
X63103274Y-54030819D01*
X63103274Y-54030819D02*
X63341369Y-54030819D01*
X63341369Y-54030819D02*
X63436607Y-53983200D01*
X63436607Y-53983200D02*
X63484226Y-53935580D01*
X63484226Y-53935580D02*
X63531845Y-53840342D01*
X63531845Y-53840342D02*
X63531845Y-53745104D01*
X63531845Y-53745104D02*
X63484226Y-53649866D01*
X63484226Y-53649866D02*
X63436607Y-53602247D01*
X63436607Y-53602247D02*
X63341369Y-53554628D01*
X63341369Y-53554628D02*
X63150893Y-53507009D01*
X63150893Y-53507009D02*
X63055655Y-53459390D01*
X63055655Y-53459390D02*
X63008036Y-53411771D01*
X63008036Y-53411771D02*
X62960417Y-53316533D01*
X62960417Y-53316533D02*
X62960417Y-53221295D01*
X62960417Y-53221295D02*
X63008036Y-53126057D01*
X63008036Y-53126057D02*
X63055655Y-53078438D01*
X63055655Y-53078438D02*
X63150893Y-53030819D01*
X63150893Y-53030819D02*
X63388988Y-53030819D01*
X63388988Y-53030819D02*
X63531845Y-53078438D01*
X63865179Y-53030819D02*
X64103274Y-54030819D01*
X64103274Y-54030819D02*
X64293750Y-53316533D01*
X64293750Y-53316533D02*
X64484226Y-54030819D01*
X64484226Y-54030819D02*
X64722322Y-53030819D01*
X65627083Y-54030819D02*
X65055655Y-54030819D01*
X65341369Y-54030819D02*
X65341369Y-53030819D01*
X65341369Y-53030819D02*
X65246131Y-53173676D01*
X65246131Y-53173676D02*
X65150893Y-53268914D01*
X65150893Y-53268914D02*
X65055655Y-53316533D01*
X99094761Y-122174819D02*
X98523333Y-122174819D01*
X98809047Y-122174819D02*
X98809047Y-121174819D01*
X98809047Y-121174819D02*
X98713809Y-121317676D01*
X98713809Y-121317676D02*
X98618571Y-121412914D01*
X98618571Y-121412914D02*
X98523333Y-121460533D01*
X99523333Y-122174819D02*
X99523333Y-121174819D01*
X99523333Y-121174819D02*
X100094761Y-122174819D01*
X100094761Y-122174819D02*
X100094761Y-121174819D01*
X100999523Y-121508152D02*
X100999523Y-122174819D01*
X100761428Y-121127200D02*
X100523333Y-121841485D01*
X100523333Y-121841485D02*
X101142380Y-121841485D01*
X102047142Y-122174819D02*
X101475714Y-122174819D01*
X101761428Y-122174819D02*
X101761428Y-121174819D01*
X101761428Y-121174819D02*
X101666190Y-121317676D01*
X101666190Y-121317676D02*
X101570952Y-121412914D01*
X101570952Y-121412914D02*
X101475714Y-121460533D01*
X102904285Y-121508152D02*
X102904285Y-122174819D01*
X102666190Y-121127200D02*
X102428095Y-121841485D01*
X102428095Y-121841485D02*
X103047142Y-121841485D01*
X103570952Y-121603390D02*
X103475714Y-121555771D01*
X103475714Y-121555771D02*
X103428095Y-121508152D01*
X103428095Y-121508152D02*
X103380476Y-121412914D01*
X103380476Y-121412914D02*
X103380476Y-121365295D01*
X103380476Y-121365295D02*
X103428095Y-121270057D01*
X103428095Y-121270057D02*
X103475714Y-121222438D01*
X103475714Y-121222438D02*
X103570952Y-121174819D01*
X103570952Y-121174819D02*
X103761428Y-121174819D01*
X103761428Y-121174819D02*
X103856666Y-121222438D01*
X103856666Y-121222438D02*
X103904285Y-121270057D01*
X103904285Y-121270057D02*
X103951904Y-121365295D01*
X103951904Y-121365295D02*
X103951904Y-121412914D01*
X103951904Y-121412914D02*
X103904285Y-121508152D01*
X103904285Y-121508152D02*
X103856666Y-121555771D01*
X103856666Y-121555771D02*
X103761428Y-121603390D01*
X103761428Y-121603390D02*
X103570952Y-121603390D01*
X103570952Y-121603390D02*
X103475714Y-121651009D01*
X103475714Y-121651009D02*
X103428095Y-121698628D01*
X103428095Y-121698628D02*
X103380476Y-121793866D01*
X103380476Y-121793866D02*
X103380476Y-121984342D01*
X103380476Y-121984342D02*
X103428095Y-122079580D01*
X103428095Y-122079580D02*
X103475714Y-122127200D01*
X103475714Y-122127200D02*
X103570952Y-122174819D01*
X103570952Y-122174819D02*
X103761428Y-122174819D01*
X103761428Y-122174819D02*
X103856666Y-122127200D01*
X103856666Y-122127200D02*
X103904285Y-122079580D01*
X103904285Y-122079580D02*
X103951904Y-121984342D01*
X103951904Y-121984342D02*
X103951904Y-121793866D01*
X103951904Y-121793866D02*
X103904285Y-121698628D01*
X103904285Y-121698628D02*
X103856666Y-121651009D01*
X103856666Y-121651009D02*
X103761428Y-121603390D01*
X104285238Y-121174819D02*
X104523333Y-122174819D01*
X104523333Y-122174819D02*
X104713809Y-121460533D01*
X104713809Y-121460533D02*
X104904285Y-122174819D01*
X104904285Y-122174819D02*
X105142381Y-121174819D01*
X105380476Y-121174819D02*
X105951904Y-121174819D01*
X105666190Y-122174819D02*
X105666190Y-121174819D01*
X98118095Y-118254819D02*
X98118095Y-117254819D01*
X98689523Y-118254819D02*
X98260952Y-117683390D01*
X98689523Y-117254819D02*
X98118095Y-117826247D01*
D11*
X101518571Y-119963855D02*
X101518571Y-119163855D01*
X101518571Y-119163855D02*
X101709047Y-119163855D01*
X101709047Y-119163855D02*
X101823333Y-119201950D01*
X101823333Y-119201950D02*
X101899523Y-119278140D01*
X101899523Y-119278140D02*
X101937618Y-119354331D01*
X101937618Y-119354331D02*
X101975714Y-119506712D01*
X101975714Y-119506712D02*
X101975714Y-119620998D01*
X101975714Y-119620998D02*
X101937618Y-119773379D01*
X101937618Y-119773379D02*
X101899523Y-119849569D01*
X101899523Y-119849569D02*
X101823333Y-119925760D01*
X101823333Y-119925760D02*
X101709047Y-119963855D01*
X101709047Y-119963855D02*
X101518571Y-119963855D01*
X102737618Y-119963855D02*
X102280475Y-119963855D01*
X102509047Y-119963855D02*
X102509047Y-119163855D01*
X102509047Y-119163855D02*
X102432856Y-119278140D01*
X102432856Y-119278140D02*
X102356666Y-119354331D01*
X102356666Y-119354331D02*
X102280475Y-119392426D01*
X103461428Y-119163855D02*
X103080476Y-119163855D01*
X103080476Y-119163855D02*
X103042380Y-119544807D01*
X103042380Y-119544807D02*
X103080476Y-119506712D01*
X103080476Y-119506712D02*
X103156666Y-119468617D01*
X103156666Y-119468617D02*
X103347142Y-119468617D01*
X103347142Y-119468617D02*
X103423333Y-119506712D01*
X103423333Y-119506712D02*
X103461428Y-119544807D01*
X103461428Y-119544807D02*
X103499523Y-119620998D01*
X103499523Y-119620998D02*
X103499523Y-119811474D01*
X103499523Y-119811474D02*
X103461428Y-119887664D01*
X103461428Y-119887664D02*
X103423333Y-119925760D01*
X103423333Y-119925760D02*
X103347142Y-119963855D01*
X103347142Y-119963855D02*
X103156666Y-119963855D01*
X103156666Y-119963855D02*
X103080476Y-119925760D01*
X103080476Y-119925760D02*
X103042380Y-119887664D01*
D10*
X61194761Y-74274819D02*
X60623333Y-74274819D01*
X60909047Y-74274819D02*
X60909047Y-73274819D01*
X60909047Y-73274819D02*
X60813809Y-73417676D01*
X60813809Y-73417676D02*
X60718571Y-73512914D01*
X60718571Y-73512914D02*
X60623333Y-73560533D01*
X61623333Y-74274819D02*
X61623333Y-73274819D01*
X61623333Y-73274819D02*
X62194761Y-74274819D01*
X62194761Y-74274819D02*
X62194761Y-73274819D01*
X63099523Y-73608152D02*
X63099523Y-74274819D01*
X62861428Y-73227200D02*
X62623333Y-73941485D01*
X62623333Y-73941485D02*
X63242380Y-73941485D01*
X64147142Y-74274819D02*
X63575714Y-74274819D01*
X63861428Y-74274819D02*
X63861428Y-73274819D01*
X63861428Y-73274819D02*
X63766190Y-73417676D01*
X63766190Y-73417676D02*
X63670952Y-73512914D01*
X63670952Y-73512914D02*
X63575714Y-73560533D01*
X65004285Y-73608152D02*
X65004285Y-74274819D01*
X64766190Y-73227200D02*
X64528095Y-73941485D01*
X64528095Y-73941485D02*
X65147142Y-73941485D01*
X65670952Y-73703390D02*
X65575714Y-73655771D01*
X65575714Y-73655771D02*
X65528095Y-73608152D01*
X65528095Y-73608152D02*
X65480476Y-73512914D01*
X65480476Y-73512914D02*
X65480476Y-73465295D01*
X65480476Y-73465295D02*
X65528095Y-73370057D01*
X65528095Y-73370057D02*
X65575714Y-73322438D01*
X65575714Y-73322438D02*
X65670952Y-73274819D01*
X65670952Y-73274819D02*
X65861428Y-73274819D01*
X65861428Y-73274819D02*
X65956666Y-73322438D01*
X65956666Y-73322438D02*
X66004285Y-73370057D01*
X66004285Y-73370057D02*
X66051904Y-73465295D01*
X66051904Y-73465295D02*
X66051904Y-73512914D01*
X66051904Y-73512914D02*
X66004285Y-73608152D01*
X66004285Y-73608152D02*
X65956666Y-73655771D01*
X65956666Y-73655771D02*
X65861428Y-73703390D01*
X65861428Y-73703390D02*
X65670952Y-73703390D01*
X65670952Y-73703390D02*
X65575714Y-73751009D01*
X65575714Y-73751009D02*
X65528095Y-73798628D01*
X65528095Y-73798628D02*
X65480476Y-73893866D01*
X65480476Y-73893866D02*
X65480476Y-74084342D01*
X65480476Y-74084342D02*
X65528095Y-74179580D01*
X65528095Y-74179580D02*
X65575714Y-74227200D01*
X65575714Y-74227200D02*
X65670952Y-74274819D01*
X65670952Y-74274819D02*
X65861428Y-74274819D01*
X65861428Y-74274819D02*
X65956666Y-74227200D01*
X65956666Y-74227200D02*
X66004285Y-74179580D01*
X66004285Y-74179580D02*
X66051904Y-74084342D01*
X66051904Y-74084342D02*
X66051904Y-73893866D01*
X66051904Y-73893866D02*
X66004285Y-73798628D01*
X66004285Y-73798628D02*
X65956666Y-73751009D01*
X65956666Y-73751009D02*
X65861428Y-73703390D01*
X66385238Y-73274819D02*
X66623333Y-74274819D01*
X66623333Y-74274819D02*
X66813809Y-73560533D01*
X66813809Y-73560533D02*
X67004285Y-74274819D01*
X67004285Y-74274819D02*
X67242381Y-73274819D01*
X67480476Y-73274819D02*
X68051904Y-73274819D01*
X67766190Y-74274819D02*
X67766190Y-73274819D01*
D11*
X63999524Y-72063855D02*
X63999524Y-71263855D01*
X63999524Y-71263855D02*
X64190000Y-71263855D01*
X64190000Y-71263855D02*
X64304286Y-71301950D01*
X64304286Y-71301950D02*
X64380476Y-71378140D01*
X64380476Y-71378140D02*
X64418571Y-71454331D01*
X64418571Y-71454331D02*
X64456667Y-71606712D01*
X64456667Y-71606712D02*
X64456667Y-71720998D01*
X64456667Y-71720998D02*
X64418571Y-71873379D01*
X64418571Y-71873379D02*
X64380476Y-71949569D01*
X64380476Y-71949569D02*
X64304286Y-72025760D01*
X64304286Y-72025760D02*
X64190000Y-72063855D01*
X64190000Y-72063855D02*
X63999524Y-72063855D01*
X64723333Y-71263855D02*
X65256667Y-71263855D01*
X65256667Y-71263855D02*
X64913809Y-72063855D01*
D10*
X60218095Y-70354819D02*
X60218095Y-69354819D01*
X60789523Y-70354819D02*
X60360952Y-69783390D01*
X60789523Y-69354819D02*
X60218095Y-69926247D01*
X84894761Y-98474819D02*
X84323333Y-98474819D01*
X84609047Y-98474819D02*
X84609047Y-97474819D01*
X84609047Y-97474819D02*
X84513809Y-97617676D01*
X84513809Y-97617676D02*
X84418571Y-97712914D01*
X84418571Y-97712914D02*
X84323333Y-97760533D01*
X85323333Y-98474819D02*
X85323333Y-97474819D01*
X85323333Y-97474819D02*
X85894761Y-98474819D01*
X85894761Y-98474819D02*
X85894761Y-97474819D01*
X86799523Y-97808152D02*
X86799523Y-98474819D01*
X86561428Y-97427200D02*
X86323333Y-98141485D01*
X86323333Y-98141485D02*
X86942380Y-98141485D01*
X87847142Y-98474819D02*
X87275714Y-98474819D01*
X87561428Y-98474819D02*
X87561428Y-97474819D01*
X87561428Y-97474819D02*
X87466190Y-97617676D01*
X87466190Y-97617676D02*
X87370952Y-97712914D01*
X87370952Y-97712914D02*
X87275714Y-97760533D01*
X88704285Y-97808152D02*
X88704285Y-98474819D01*
X88466190Y-97427200D02*
X88228095Y-98141485D01*
X88228095Y-98141485D02*
X88847142Y-98141485D01*
X89370952Y-97903390D02*
X89275714Y-97855771D01*
X89275714Y-97855771D02*
X89228095Y-97808152D01*
X89228095Y-97808152D02*
X89180476Y-97712914D01*
X89180476Y-97712914D02*
X89180476Y-97665295D01*
X89180476Y-97665295D02*
X89228095Y-97570057D01*
X89228095Y-97570057D02*
X89275714Y-97522438D01*
X89275714Y-97522438D02*
X89370952Y-97474819D01*
X89370952Y-97474819D02*
X89561428Y-97474819D01*
X89561428Y-97474819D02*
X89656666Y-97522438D01*
X89656666Y-97522438D02*
X89704285Y-97570057D01*
X89704285Y-97570057D02*
X89751904Y-97665295D01*
X89751904Y-97665295D02*
X89751904Y-97712914D01*
X89751904Y-97712914D02*
X89704285Y-97808152D01*
X89704285Y-97808152D02*
X89656666Y-97855771D01*
X89656666Y-97855771D02*
X89561428Y-97903390D01*
X89561428Y-97903390D02*
X89370952Y-97903390D01*
X89370952Y-97903390D02*
X89275714Y-97951009D01*
X89275714Y-97951009D02*
X89228095Y-97998628D01*
X89228095Y-97998628D02*
X89180476Y-98093866D01*
X89180476Y-98093866D02*
X89180476Y-98284342D01*
X89180476Y-98284342D02*
X89228095Y-98379580D01*
X89228095Y-98379580D02*
X89275714Y-98427200D01*
X89275714Y-98427200D02*
X89370952Y-98474819D01*
X89370952Y-98474819D02*
X89561428Y-98474819D01*
X89561428Y-98474819D02*
X89656666Y-98427200D01*
X89656666Y-98427200D02*
X89704285Y-98379580D01*
X89704285Y-98379580D02*
X89751904Y-98284342D01*
X89751904Y-98284342D02*
X89751904Y-98093866D01*
X89751904Y-98093866D02*
X89704285Y-97998628D01*
X89704285Y-97998628D02*
X89656666Y-97951009D01*
X89656666Y-97951009D02*
X89561428Y-97903390D01*
X90085238Y-97474819D02*
X90323333Y-98474819D01*
X90323333Y-98474819D02*
X90513809Y-97760533D01*
X90513809Y-97760533D02*
X90704285Y-98474819D01*
X90704285Y-98474819D02*
X90942381Y-97474819D01*
X91180476Y-97474819D02*
X91751904Y-97474819D01*
X91466190Y-98474819D02*
X91466190Y-97474819D01*
X83918095Y-94554819D02*
X83918095Y-93554819D01*
X84489523Y-94554819D02*
X84060952Y-93983390D01*
X84489523Y-93554819D02*
X83918095Y-94126247D01*
D11*
X87318571Y-96263855D02*
X87318571Y-95463855D01*
X87318571Y-95463855D02*
X87509047Y-95463855D01*
X87509047Y-95463855D02*
X87623333Y-95501950D01*
X87623333Y-95501950D02*
X87699523Y-95578140D01*
X87699523Y-95578140D02*
X87737618Y-95654331D01*
X87737618Y-95654331D02*
X87775714Y-95806712D01*
X87775714Y-95806712D02*
X87775714Y-95920998D01*
X87775714Y-95920998D02*
X87737618Y-96073379D01*
X87737618Y-96073379D02*
X87699523Y-96149569D01*
X87699523Y-96149569D02*
X87623333Y-96225760D01*
X87623333Y-96225760D02*
X87509047Y-96263855D01*
X87509047Y-96263855D02*
X87318571Y-96263855D01*
X88537618Y-96263855D02*
X88080475Y-96263855D01*
X88309047Y-96263855D02*
X88309047Y-95463855D01*
X88309047Y-95463855D02*
X88232856Y-95578140D01*
X88232856Y-95578140D02*
X88156666Y-95654331D01*
X88156666Y-95654331D02*
X88080475Y-95692426D01*
X89299523Y-96263855D02*
X88842380Y-96263855D01*
X89070952Y-96263855D02*
X89070952Y-95463855D01*
X89070952Y-95463855D02*
X88994761Y-95578140D01*
X88994761Y-95578140D02*
X88918571Y-95654331D01*
X88918571Y-95654331D02*
X88842380Y-95692426D01*
D10*
X85058631Y-94006200D02*
X85201488Y-94053819D01*
X85201488Y-94053819D02*
X85439583Y-94053819D01*
X85439583Y-94053819D02*
X85534821Y-94006200D01*
X85534821Y-94006200D02*
X85582440Y-93958580D01*
X85582440Y-93958580D02*
X85630059Y-93863342D01*
X85630059Y-93863342D02*
X85630059Y-93768104D01*
X85630059Y-93768104D02*
X85582440Y-93672866D01*
X85582440Y-93672866D02*
X85534821Y-93625247D01*
X85534821Y-93625247D02*
X85439583Y-93577628D01*
X85439583Y-93577628D02*
X85249107Y-93530009D01*
X85249107Y-93530009D02*
X85153869Y-93482390D01*
X85153869Y-93482390D02*
X85106250Y-93434771D01*
X85106250Y-93434771D02*
X85058631Y-93339533D01*
X85058631Y-93339533D02*
X85058631Y-93244295D01*
X85058631Y-93244295D02*
X85106250Y-93149057D01*
X85106250Y-93149057D02*
X85153869Y-93101438D01*
X85153869Y-93101438D02*
X85249107Y-93053819D01*
X85249107Y-93053819D02*
X85487202Y-93053819D01*
X85487202Y-93053819D02*
X85630059Y-93101438D01*
X85963393Y-93053819D02*
X86201488Y-94053819D01*
X86201488Y-94053819D02*
X86391964Y-93339533D01*
X86391964Y-93339533D02*
X86582440Y-94053819D01*
X86582440Y-94053819D02*
X86820536Y-93053819D01*
X86963393Y-94149057D02*
X87725297Y-94149057D01*
X87963393Y-94053819D02*
X87963393Y-93053819D01*
X87963393Y-93053819D02*
X88344345Y-93053819D01*
X88344345Y-93053819D02*
X88439583Y-93101438D01*
X88439583Y-93101438D02*
X88487202Y-93149057D01*
X88487202Y-93149057D02*
X88534821Y-93244295D01*
X88534821Y-93244295D02*
X88534821Y-93387152D01*
X88534821Y-93387152D02*
X88487202Y-93482390D01*
X88487202Y-93482390D02*
X88439583Y-93530009D01*
X88439583Y-93530009D02*
X88344345Y-93577628D01*
X88344345Y-93577628D02*
X87963393Y-93577628D01*
X89391964Y-93387152D02*
X89391964Y-94053819D01*
X88963393Y-93387152D02*
X88963393Y-93910961D01*
X88963393Y-93910961D02*
X89011012Y-94006200D01*
X89011012Y-94006200D02*
X89106250Y-94053819D01*
X89106250Y-94053819D02*
X89249107Y-94053819D01*
X89249107Y-94053819D02*
X89344345Y-94006200D01*
X89344345Y-94006200D02*
X89391964Y-93958580D01*
X89820536Y-94006200D02*
X89915774Y-94053819D01*
X89915774Y-94053819D02*
X90106250Y-94053819D01*
X90106250Y-94053819D02*
X90201488Y-94006200D01*
X90201488Y-94006200D02*
X90249107Y-93910961D01*
X90249107Y-93910961D02*
X90249107Y-93863342D01*
X90249107Y-93863342D02*
X90201488Y-93768104D01*
X90201488Y-93768104D02*
X90106250Y-93720485D01*
X90106250Y-93720485D02*
X89963393Y-93720485D01*
X89963393Y-93720485D02*
X89868155Y-93672866D01*
X89868155Y-93672866D02*
X89820536Y-93577628D01*
X89820536Y-93577628D02*
X89820536Y-93530009D01*
X89820536Y-93530009D02*
X89868155Y-93434771D01*
X89868155Y-93434771D02*
X89963393Y-93387152D01*
X89963393Y-93387152D02*
X90106250Y-93387152D01*
X90106250Y-93387152D02*
X90201488Y-93434771D01*
X90677679Y-94053819D02*
X90677679Y-93053819D01*
X91106250Y-94053819D02*
X91106250Y-93530009D01*
X91106250Y-93530009D02*
X91058631Y-93434771D01*
X91058631Y-93434771D02*
X90963393Y-93387152D01*
X90963393Y-93387152D02*
X90820536Y-93387152D01*
X90820536Y-93387152D02*
X90725298Y-93434771D01*
X90725298Y-93434771D02*
X90677679Y-93482390D01*
X86772917Y-78258200D02*
X86915774Y-78305819D01*
X86915774Y-78305819D02*
X87153869Y-78305819D01*
X87153869Y-78305819D02*
X87249107Y-78258200D01*
X87249107Y-78258200D02*
X87296726Y-78210580D01*
X87296726Y-78210580D02*
X87344345Y-78115342D01*
X87344345Y-78115342D02*
X87344345Y-78020104D01*
X87344345Y-78020104D02*
X87296726Y-77924866D01*
X87296726Y-77924866D02*
X87249107Y-77877247D01*
X87249107Y-77877247D02*
X87153869Y-77829628D01*
X87153869Y-77829628D02*
X86963393Y-77782009D01*
X86963393Y-77782009D02*
X86868155Y-77734390D01*
X86868155Y-77734390D02*
X86820536Y-77686771D01*
X86820536Y-77686771D02*
X86772917Y-77591533D01*
X86772917Y-77591533D02*
X86772917Y-77496295D01*
X86772917Y-77496295D02*
X86820536Y-77401057D01*
X86820536Y-77401057D02*
X86868155Y-77353438D01*
X86868155Y-77353438D02*
X86963393Y-77305819D01*
X86963393Y-77305819D02*
X87201488Y-77305819D01*
X87201488Y-77305819D02*
X87344345Y-77353438D01*
X87677679Y-77305819D02*
X87915774Y-78305819D01*
X87915774Y-78305819D02*
X88106250Y-77591533D01*
X88106250Y-77591533D02*
X88296726Y-78305819D01*
X88296726Y-78305819D02*
X88534822Y-77305819D01*
X89391964Y-77305819D02*
X88915774Y-77305819D01*
X88915774Y-77305819D02*
X88868155Y-77782009D01*
X88868155Y-77782009D02*
X88915774Y-77734390D01*
X88915774Y-77734390D02*
X89011012Y-77686771D01*
X89011012Y-77686771D02*
X89249107Y-77686771D01*
X89249107Y-77686771D02*
X89344345Y-77734390D01*
X89344345Y-77734390D02*
X89391964Y-77782009D01*
X89391964Y-77782009D02*
X89439583Y-77877247D01*
X89439583Y-77877247D02*
X89439583Y-78115342D01*
X89439583Y-78115342D02*
X89391964Y-78210580D01*
X89391964Y-78210580D02*
X89344345Y-78258200D01*
X89344345Y-78258200D02*
X89249107Y-78305819D01*
X89249107Y-78305819D02*
X89011012Y-78305819D01*
X89011012Y-78305819D02*
X88915774Y-78258200D01*
X88915774Y-78258200D02*
X88868155Y-78210580D01*
X61246131Y-94006200D02*
X61388988Y-94053819D01*
X61388988Y-94053819D02*
X61627083Y-94053819D01*
X61627083Y-94053819D02*
X61722321Y-94006200D01*
X61722321Y-94006200D02*
X61769940Y-93958580D01*
X61769940Y-93958580D02*
X61817559Y-93863342D01*
X61817559Y-93863342D02*
X61817559Y-93768104D01*
X61817559Y-93768104D02*
X61769940Y-93672866D01*
X61769940Y-93672866D02*
X61722321Y-93625247D01*
X61722321Y-93625247D02*
X61627083Y-93577628D01*
X61627083Y-93577628D02*
X61436607Y-93530009D01*
X61436607Y-93530009D02*
X61341369Y-93482390D01*
X61341369Y-93482390D02*
X61293750Y-93434771D01*
X61293750Y-93434771D02*
X61246131Y-93339533D01*
X61246131Y-93339533D02*
X61246131Y-93244295D01*
X61246131Y-93244295D02*
X61293750Y-93149057D01*
X61293750Y-93149057D02*
X61341369Y-93101438D01*
X61341369Y-93101438D02*
X61436607Y-93053819D01*
X61436607Y-93053819D02*
X61674702Y-93053819D01*
X61674702Y-93053819D02*
X61817559Y-93101438D01*
X62150893Y-93053819D02*
X62388988Y-94053819D01*
X62388988Y-94053819D02*
X62579464Y-93339533D01*
X62579464Y-93339533D02*
X62769940Y-94053819D01*
X62769940Y-94053819D02*
X63008036Y-93053819D01*
X63150893Y-94149057D02*
X63912797Y-94149057D01*
X64150893Y-94053819D02*
X64150893Y-93053819D01*
X64150893Y-93053819D02*
X64531845Y-93053819D01*
X64531845Y-93053819D02*
X64627083Y-93101438D01*
X64627083Y-93101438D02*
X64674702Y-93149057D01*
X64674702Y-93149057D02*
X64722321Y-93244295D01*
X64722321Y-93244295D02*
X64722321Y-93387152D01*
X64722321Y-93387152D02*
X64674702Y-93482390D01*
X64674702Y-93482390D02*
X64627083Y-93530009D01*
X64627083Y-93530009D02*
X64531845Y-93577628D01*
X64531845Y-93577628D02*
X64150893Y-93577628D01*
X65579464Y-93387152D02*
X65579464Y-94053819D01*
X65150893Y-93387152D02*
X65150893Y-93910961D01*
X65150893Y-93910961D02*
X65198512Y-94006200D01*
X65198512Y-94006200D02*
X65293750Y-94053819D01*
X65293750Y-94053819D02*
X65436607Y-94053819D01*
X65436607Y-94053819D02*
X65531845Y-94006200D01*
X65531845Y-94006200D02*
X65579464Y-93958580D01*
X66008036Y-94006200D02*
X66103274Y-94053819D01*
X66103274Y-94053819D02*
X66293750Y-94053819D01*
X66293750Y-94053819D02*
X66388988Y-94006200D01*
X66388988Y-94006200D02*
X66436607Y-93910961D01*
X66436607Y-93910961D02*
X66436607Y-93863342D01*
X66436607Y-93863342D02*
X66388988Y-93768104D01*
X66388988Y-93768104D02*
X66293750Y-93720485D01*
X66293750Y-93720485D02*
X66150893Y-93720485D01*
X66150893Y-93720485D02*
X66055655Y-93672866D01*
X66055655Y-93672866D02*
X66008036Y-93577628D01*
X66008036Y-93577628D02*
X66008036Y-93530009D01*
X66008036Y-93530009D02*
X66055655Y-93434771D01*
X66055655Y-93434771D02*
X66150893Y-93387152D01*
X66150893Y-93387152D02*
X66293750Y-93387152D01*
X66293750Y-93387152D02*
X66388988Y-93434771D01*
X66865179Y-94053819D02*
X66865179Y-93053819D01*
X67293750Y-94053819D02*
X67293750Y-93530009D01*
X67293750Y-93530009D02*
X67246131Y-93434771D01*
X67246131Y-93434771D02*
X67150893Y-93387152D01*
X67150893Y-93387152D02*
X67008036Y-93387152D01*
X67008036Y-93387152D02*
X66912798Y-93434771D01*
X66912798Y-93434771D02*
X66865179Y-93482390D01*
X62960417Y-78258200D02*
X63103274Y-78305819D01*
X63103274Y-78305819D02*
X63341369Y-78305819D01*
X63341369Y-78305819D02*
X63436607Y-78258200D01*
X63436607Y-78258200D02*
X63484226Y-78210580D01*
X63484226Y-78210580D02*
X63531845Y-78115342D01*
X63531845Y-78115342D02*
X63531845Y-78020104D01*
X63531845Y-78020104D02*
X63484226Y-77924866D01*
X63484226Y-77924866D02*
X63436607Y-77877247D01*
X63436607Y-77877247D02*
X63341369Y-77829628D01*
X63341369Y-77829628D02*
X63150893Y-77782009D01*
X63150893Y-77782009D02*
X63055655Y-77734390D01*
X63055655Y-77734390D02*
X63008036Y-77686771D01*
X63008036Y-77686771D02*
X62960417Y-77591533D01*
X62960417Y-77591533D02*
X62960417Y-77496295D01*
X62960417Y-77496295D02*
X63008036Y-77401057D01*
X63008036Y-77401057D02*
X63055655Y-77353438D01*
X63055655Y-77353438D02*
X63150893Y-77305819D01*
X63150893Y-77305819D02*
X63388988Y-77305819D01*
X63388988Y-77305819D02*
X63531845Y-77353438D01*
X63865179Y-77305819D02*
X64103274Y-78305819D01*
X64103274Y-78305819D02*
X64293750Y-77591533D01*
X64293750Y-77591533D02*
X64484226Y-78305819D01*
X64484226Y-78305819D02*
X64722322Y-77305819D01*
X65531845Y-77639152D02*
X65531845Y-78305819D01*
X65293750Y-77258200D02*
X65055655Y-77972485D01*
X65055655Y-77972485D02*
X65674702Y-77972485D01*
X37204761Y-122274819D02*
X36633333Y-122274819D01*
X36919047Y-122274819D02*
X36919047Y-121274819D01*
X36919047Y-121274819D02*
X36823809Y-121417676D01*
X36823809Y-121417676D02*
X36728571Y-121512914D01*
X36728571Y-121512914D02*
X36633333Y-121560533D01*
X37633333Y-122274819D02*
X37633333Y-121274819D01*
X37633333Y-121274819D02*
X38204761Y-122274819D01*
X38204761Y-122274819D02*
X38204761Y-121274819D01*
X39109523Y-121608152D02*
X39109523Y-122274819D01*
X38871428Y-121227200D02*
X38633333Y-121941485D01*
X38633333Y-121941485D02*
X39252380Y-121941485D01*
X40157142Y-122274819D02*
X39585714Y-122274819D01*
X39871428Y-122274819D02*
X39871428Y-121274819D01*
X39871428Y-121274819D02*
X39776190Y-121417676D01*
X39776190Y-121417676D02*
X39680952Y-121512914D01*
X39680952Y-121512914D02*
X39585714Y-121560533D01*
X41014285Y-121608152D02*
X41014285Y-122274819D01*
X40776190Y-121227200D02*
X40538095Y-121941485D01*
X40538095Y-121941485D02*
X41157142Y-121941485D01*
X41680952Y-121703390D02*
X41585714Y-121655771D01*
X41585714Y-121655771D02*
X41538095Y-121608152D01*
X41538095Y-121608152D02*
X41490476Y-121512914D01*
X41490476Y-121512914D02*
X41490476Y-121465295D01*
X41490476Y-121465295D02*
X41538095Y-121370057D01*
X41538095Y-121370057D02*
X41585714Y-121322438D01*
X41585714Y-121322438D02*
X41680952Y-121274819D01*
X41680952Y-121274819D02*
X41871428Y-121274819D01*
X41871428Y-121274819D02*
X41966666Y-121322438D01*
X41966666Y-121322438D02*
X42014285Y-121370057D01*
X42014285Y-121370057D02*
X42061904Y-121465295D01*
X42061904Y-121465295D02*
X42061904Y-121512914D01*
X42061904Y-121512914D02*
X42014285Y-121608152D01*
X42014285Y-121608152D02*
X41966666Y-121655771D01*
X41966666Y-121655771D02*
X41871428Y-121703390D01*
X41871428Y-121703390D02*
X41680952Y-121703390D01*
X41680952Y-121703390D02*
X41585714Y-121751009D01*
X41585714Y-121751009D02*
X41538095Y-121798628D01*
X41538095Y-121798628D02*
X41490476Y-121893866D01*
X41490476Y-121893866D02*
X41490476Y-122084342D01*
X41490476Y-122084342D02*
X41538095Y-122179580D01*
X41538095Y-122179580D02*
X41585714Y-122227200D01*
X41585714Y-122227200D02*
X41680952Y-122274819D01*
X41680952Y-122274819D02*
X41871428Y-122274819D01*
X41871428Y-122274819D02*
X41966666Y-122227200D01*
X41966666Y-122227200D02*
X42014285Y-122179580D01*
X42014285Y-122179580D02*
X42061904Y-122084342D01*
X42061904Y-122084342D02*
X42061904Y-121893866D01*
X42061904Y-121893866D02*
X42014285Y-121798628D01*
X42014285Y-121798628D02*
X41966666Y-121751009D01*
X41966666Y-121751009D02*
X41871428Y-121703390D01*
X42395238Y-121274819D02*
X42633333Y-122274819D01*
X42633333Y-122274819D02*
X42823809Y-121560533D01*
X42823809Y-121560533D02*
X43014285Y-122274819D01*
X43014285Y-122274819D02*
X43252381Y-121274819D01*
X43490476Y-121274819D02*
X44061904Y-121274819D01*
X43776190Y-122274819D02*
X43776190Y-121274819D01*
D11*
X39628571Y-120063855D02*
X39628571Y-119263855D01*
X39628571Y-119263855D02*
X39819047Y-119263855D01*
X39819047Y-119263855D02*
X39933333Y-119301950D01*
X39933333Y-119301950D02*
X40009523Y-119378140D01*
X40009523Y-119378140D02*
X40047618Y-119454331D01*
X40047618Y-119454331D02*
X40085714Y-119606712D01*
X40085714Y-119606712D02*
X40085714Y-119720998D01*
X40085714Y-119720998D02*
X40047618Y-119873379D01*
X40047618Y-119873379D02*
X40009523Y-119949569D01*
X40009523Y-119949569D02*
X39933333Y-120025760D01*
X39933333Y-120025760D02*
X39819047Y-120063855D01*
X39819047Y-120063855D02*
X39628571Y-120063855D01*
X40847618Y-120063855D02*
X40390475Y-120063855D01*
X40619047Y-120063855D02*
X40619047Y-119263855D01*
X40619047Y-119263855D02*
X40542856Y-119378140D01*
X40542856Y-119378140D02*
X40466666Y-119454331D01*
X40466666Y-119454331D02*
X40390475Y-119492426D01*
X41114285Y-119263855D02*
X41609523Y-119263855D01*
X41609523Y-119263855D02*
X41342857Y-119568617D01*
X41342857Y-119568617D02*
X41457142Y-119568617D01*
X41457142Y-119568617D02*
X41533333Y-119606712D01*
X41533333Y-119606712D02*
X41571428Y-119644807D01*
X41571428Y-119644807D02*
X41609523Y-119720998D01*
X41609523Y-119720998D02*
X41609523Y-119911474D01*
X41609523Y-119911474D02*
X41571428Y-119987664D01*
X41571428Y-119987664D02*
X41533333Y-120025760D01*
X41533333Y-120025760D02*
X41457142Y-120063855D01*
X41457142Y-120063855D02*
X41228571Y-120063855D01*
X41228571Y-120063855D02*
X41152380Y-120025760D01*
X41152380Y-120025760D02*
X41114285Y-119987664D01*
D10*
X36228095Y-118354819D02*
X36228095Y-117354819D01*
X36799523Y-118354819D02*
X36370952Y-117783390D01*
X36799523Y-117354819D02*
X36228095Y-117926247D01*
X84958631Y-69731200D02*
X85101488Y-69778819D01*
X85101488Y-69778819D02*
X85339583Y-69778819D01*
X85339583Y-69778819D02*
X85434821Y-69731200D01*
X85434821Y-69731200D02*
X85482440Y-69683580D01*
X85482440Y-69683580D02*
X85530059Y-69588342D01*
X85530059Y-69588342D02*
X85530059Y-69493104D01*
X85530059Y-69493104D02*
X85482440Y-69397866D01*
X85482440Y-69397866D02*
X85434821Y-69350247D01*
X85434821Y-69350247D02*
X85339583Y-69302628D01*
X85339583Y-69302628D02*
X85149107Y-69255009D01*
X85149107Y-69255009D02*
X85053869Y-69207390D01*
X85053869Y-69207390D02*
X85006250Y-69159771D01*
X85006250Y-69159771D02*
X84958631Y-69064533D01*
X84958631Y-69064533D02*
X84958631Y-68969295D01*
X84958631Y-68969295D02*
X85006250Y-68874057D01*
X85006250Y-68874057D02*
X85053869Y-68826438D01*
X85053869Y-68826438D02*
X85149107Y-68778819D01*
X85149107Y-68778819D02*
X85387202Y-68778819D01*
X85387202Y-68778819D02*
X85530059Y-68826438D01*
X85863393Y-68778819D02*
X86101488Y-69778819D01*
X86101488Y-69778819D02*
X86291964Y-69064533D01*
X86291964Y-69064533D02*
X86482440Y-69778819D01*
X86482440Y-69778819D02*
X86720536Y-68778819D01*
X86863393Y-69874057D02*
X87625297Y-69874057D01*
X87863393Y-69778819D02*
X87863393Y-68778819D01*
X87863393Y-68778819D02*
X88244345Y-68778819D01*
X88244345Y-68778819D02*
X88339583Y-68826438D01*
X88339583Y-68826438D02*
X88387202Y-68874057D01*
X88387202Y-68874057D02*
X88434821Y-68969295D01*
X88434821Y-68969295D02*
X88434821Y-69112152D01*
X88434821Y-69112152D02*
X88387202Y-69207390D01*
X88387202Y-69207390D02*
X88339583Y-69255009D01*
X88339583Y-69255009D02*
X88244345Y-69302628D01*
X88244345Y-69302628D02*
X87863393Y-69302628D01*
X89291964Y-69112152D02*
X89291964Y-69778819D01*
X88863393Y-69112152D02*
X88863393Y-69635961D01*
X88863393Y-69635961D02*
X88911012Y-69731200D01*
X88911012Y-69731200D02*
X89006250Y-69778819D01*
X89006250Y-69778819D02*
X89149107Y-69778819D01*
X89149107Y-69778819D02*
X89244345Y-69731200D01*
X89244345Y-69731200D02*
X89291964Y-69683580D01*
X89720536Y-69731200D02*
X89815774Y-69778819D01*
X89815774Y-69778819D02*
X90006250Y-69778819D01*
X90006250Y-69778819D02*
X90101488Y-69731200D01*
X90101488Y-69731200D02*
X90149107Y-69635961D01*
X90149107Y-69635961D02*
X90149107Y-69588342D01*
X90149107Y-69588342D02*
X90101488Y-69493104D01*
X90101488Y-69493104D02*
X90006250Y-69445485D01*
X90006250Y-69445485D02*
X89863393Y-69445485D01*
X89863393Y-69445485D02*
X89768155Y-69397866D01*
X89768155Y-69397866D02*
X89720536Y-69302628D01*
X89720536Y-69302628D02*
X89720536Y-69255009D01*
X89720536Y-69255009D02*
X89768155Y-69159771D01*
X89768155Y-69159771D02*
X89863393Y-69112152D01*
X89863393Y-69112152D02*
X90006250Y-69112152D01*
X90006250Y-69112152D02*
X90101488Y-69159771D01*
X90577679Y-69778819D02*
X90577679Y-68778819D01*
X91006250Y-69778819D02*
X91006250Y-69255009D01*
X91006250Y-69255009D02*
X90958631Y-69159771D01*
X90958631Y-69159771D02*
X90863393Y-69112152D01*
X90863393Y-69112152D02*
X90720536Y-69112152D01*
X90720536Y-69112152D02*
X90625298Y-69159771D01*
X90625298Y-69159771D02*
X90577679Y-69207390D01*
X86672917Y-53983200D02*
X86815774Y-54030819D01*
X86815774Y-54030819D02*
X87053869Y-54030819D01*
X87053869Y-54030819D02*
X87149107Y-53983200D01*
X87149107Y-53983200D02*
X87196726Y-53935580D01*
X87196726Y-53935580D02*
X87244345Y-53840342D01*
X87244345Y-53840342D02*
X87244345Y-53745104D01*
X87244345Y-53745104D02*
X87196726Y-53649866D01*
X87196726Y-53649866D02*
X87149107Y-53602247D01*
X87149107Y-53602247D02*
X87053869Y-53554628D01*
X87053869Y-53554628D02*
X86863393Y-53507009D01*
X86863393Y-53507009D02*
X86768155Y-53459390D01*
X86768155Y-53459390D02*
X86720536Y-53411771D01*
X86720536Y-53411771D02*
X86672917Y-53316533D01*
X86672917Y-53316533D02*
X86672917Y-53221295D01*
X86672917Y-53221295D02*
X86720536Y-53126057D01*
X86720536Y-53126057D02*
X86768155Y-53078438D01*
X86768155Y-53078438D02*
X86863393Y-53030819D01*
X86863393Y-53030819D02*
X87101488Y-53030819D01*
X87101488Y-53030819D02*
X87244345Y-53078438D01*
X87577679Y-53030819D02*
X87815774Y-54030819D01*
X87815774Y-54030819D02*
X88006250Y-53316533D01*
X88006250Y-53316533D02*
X88196726Y-54030819D01*
X88196726Y-54030819D02*
X88434822Y-53030819D01*
X88768155Y-53126057D02*
X88815774Y-53078438D01*
X88815774Y-53078438D02*
X88911012Y-53030819D01*
X88911012Y-53030819D02*
X89149107Y-53030819D01*
X89149107Y-53030819D02*
X89244345Y-53078438D01*
X89244345Y-53078438D02*
X89291964Y-53126057D01*
X89291964Y-53126057D02*
X89339583Y-53221295D01*
X89339583Y-53221295D02*
X89339583Y-53316533D01*
X89339583Y-53316533D02*
X89291964Y-53459390D01*
X89291964Y-53459390D02*
X88720536Y-54030819D01*
X88720536Y-54030819D02*
X89339583Y-54030819D01*
X37433631Y-117818700D02*
X37576488Y-117866319D01*
X37576488Y-117866319D02*
X37814583Y-117866319D01*
X37814583Y-117866319D02*
X37909821Y-117818700D01*
X37909821Y-117818700D02*
X37957440Y-117771080D01*
X37957440Y-117771080D02*
X38005059Y-117675842D01*
X38005059Y-117675842D02*
X38005059Y-117580604D01*
X38005059Y-117580604D02*
X37957440Y-117485366D01*
X37957440Y-117485366D02*
X37909821Y-117437747D01*
X37909821Y-117437747D02*
X37814583Y-117390128D01*
X37814583Y-117390128D02*
X37624107Y-117342509D01*
X37624107Y-117342509D02*
X37528869Y-117294890D01*
X37528869Y-117294890D02*
X37481250Y-117247271D01*
X37481250Y-117247271D02*
X37433631Y-117152033D01*
X37433631Y-117152033D02*
X37433631Y-117056795D01*
X37433631Y-117056795D02*
X37481250Y-116961557D01*
X37481250Y-116961557D02*
X37528869Y-116913938D01*
X37528869Y-116913938D02*
X37624107Y-116866319D01*
X37624107Y-116866319D02*
X37862202Y-116866319D01*
X37862202Y-116866319D02*
X38005059Y-116913938D01*
X38338393Y-116866319D02*
X38576488Y-117866319D01*
X38576488Y-117866319D02*
X38766964Y-117152033D01*
X38766964Y-117152033D02*
X38957440Y-117866319D01*
X38957440Y-117866319D02*
X39195536Y-116866319D01*
X39338393Y-117961557D02*
X40100297Y-117961557D01*
X40338393Y-117866319D02*
X40338393Y-116866319D01*
X40338393Y-116866319D02*
X40719345Y-116866319D01*
X40719345Y-116866319D02*
X40814583Y-116913938D01*
X40814583Y-116913938D02*
X40862202Y-116961557D01*
X40862202Y-116961557D02*
X40909821Y-117056795D01*
X40909821Y-117056795D02*
X40909821Y-117199652D01*
X40909821Y-117199652D02*
X40862202Y-117294890D01*
X40862202Y-117294890D02*
X40814583Y-117342509D01*
X40814583Y-117342509D02*
X40719345Y-117390128D01*
X40719345Y-117390128D02*
X40338393Y-117390128D01*
X41766964Y-117199652D02*
X41766964Y-117866319D01*
X41338393Y-117199652D02*
X41338393Y-117723461D01*
X41338393Y-117723461D02*
X41386012Y-117818700D01*
X41386012Y-117818700D02*
X41481250Y-117866319D01*
X41481250Y-117866319D02*
X41624107Y-117866319D01*
X41624107Y-117866319D02*
X41719345Y-117818700D01*
X41719345Y-117818700D02*
X41766964Y-117771080D01*
X42195536Y-117818700D02*
X42290774Y-117866319D01*
X42290774Y-117866319D02*
X42481250Y-117866319D01*
X42481250Y-117866319D02*
X42576488Y-117818700D01*
X42576488Y-117818700D02*
X42624107Y-117723461D01*
X42624107Y-117723461D02*
X42624107Y-117675842D01*
X42624107Y-117675842D02*
X42576488Y-117580604D01*
X42576488Y-117580604D02*
X42481250Y-117532985D01*
X42481250Y-117532985D02*
X42338393Y-117532985D01*
X42338393Y-117532985D02*
X42243155Y-117485366D01*
X42243155Y-117485366D02*
X42195536Y-117390128D01*
X42195536Y-117390128D02*
X42195536Y-117342509D01*
X42195536Y-117342509D02*
X42243155Y-117247271D01*
X42243155Y-117247271D02*
X42338393Y-117199652D01*
X42338393Y-117199652D02*
X42481250Y-117199652D01*
X42481250Y-117199652D02*
X42576488Y-117247271D01*
X43052679Y-117866319D02*
X43052679Y-116866319D01*
X43481250Y-117866319D02*
X43481250Y-117342509D01*
X43481250Y-117342509D02*
X43433631Y-117247271D01*
X43433631Y-117247271D02*
X43338393Y-117199652D01*
X43338393Y-117199652D02*
X43195536Y-117199652D01*
X43195536Y-117199652D02*
X43100298Y-117247271D01*
X43100298Y-117247271D02*
X43052679Y-117294890D01*
X39147917Y-102070700D02*
X39290774Y-102118319D01*
X39290774Y-102118319D02*
X39528869Y-102118319D01*
X39528869Y-102118319D02*
X39624107Y-102070700D01*
X39624107Y-102070700D02*
X39671726Y-102023080D01*
X39671726Y-102023080D02*
X39719345Y-101927842D01*
X39719345Y-101927842D02*
X39719345Y-101832604D01*
X39719345Y-101832604D02*
X39671726Y-101737366D01*
X39671726Y-101737366D02*
X39624107Y-101689747D01*
X39624107Y-101689747D02*
X39528869Y-101642128D01*
X39528869Y-101642128D02*
X39338393Y-101594509D01*
X39338393Y-101594509D02*
X39243155Y-101546890D01*
X39243155Y-101546890D02*
X39195536Y-101499271D01*
X39195536Y-101499271D02*
X39147917Y-101404033D01*
X39147917Y-101404033D02*
X39147917Y-101308795D01*
X39147917Y-101308795D02*
X39195536Y-101213557D01*
X39195536Y-101213557D02*
X39243155Y-101165938D01*
X39243155Y-101165938D02*
X39338393Y-101118319D01*
X39338393Y-101118319D02*
X39576488Y-101118319D01*
X39576488Y-101118319D02*
X39719345Y-101165938D01*
X40052679Y-101118319D02*
X40290774Y-102118319D01*
X40290774Y-102118319D02*
X40481250Y-101404033D01*
X40481250Y-101404033D02*
X40671726Y-102118319D01*
X40671726Y-102118319D02*
X40909822Y-101118319D01*
X41195536Y-101118319D02*
X41862202Y-101118319D01*
X41862202Y-101118319D02*
X41433631Y-102118319D01*
X111466667Y-41177201D02*
X111609524Y-41224820D01*
X111609524Y-41224820D02*
X111847619Y-41224820D01*
X111847619Y-41224820D02*
X111942857Y-41177201D01*
X111942857Y-41177201D02*
X111990476Y-41129581D01*
X111990476Y-41129581D02*
X112038095Y-41034343D01*
X112038095Y-41034343D02*
X112038095Y-40939105D01*
X112038095Y-40939105D02*
X111990476Y-40843867D01*
X111990476Y-40843867D02*
X111942857Y-40796248D01*
X111942857Y-40796248D02*
X111847619Y-40748629D01*
X111847619Y-40748629D02*
X111657143Y-40701010D01*
X111657143Y-40701010D02*
X111561905Y-40653391D01*
X111561905Y-40653391D02*
X111514286Y-40605772D01*
X111514286Y-40605772D02*
X111466667Y-40510534D01*
X111466667Y-40510534D02*
X111466667Y-40415296D01*
X111466667Y-40415296D02*
X111514286Y-40320058D01*
X111514286Y-40320058D02*
X111561905Y-40272439D01*
X111561905Y-40272439D02*
X111657143Y-40224820D01*
X111657143Y-40224820D02*
X111895238Y-40224820D01*
X111895238Y-40224820D02*
X112038095Y-40272439D01*
X112466667Y-41224820D02*
X112466667Y-40224820D01*
X113038095Y-41224820D02*
X112609524Y-40653391D01*
X113038095Y-40224820D02*
X112466667Y-40796248D01*
X113895238Y-40224820D02*
X113704762Y-40224820D01*
X113704762Y-40224820D02*
X113609524Y-40272439D01*
X113609524Y-40272439D02*
X113561905Y-40320058D01*
X113561905Y-40320058D02*
X113466667Y-40462915D01*
X113466667Y-40462915D02*
X113419048Y-40653391D01*
X113419048Y-40653391D02*
X113419048Y-41034343D01*
X113419048Y-41034343D02*
X113466667Y-41129581D01*
X113466667Y-41129581D02*
X113514286Y-41177201D01*
X113514286Y-41177201D02*
X113609524Y-41224820D01*
X113609524Y-41224820D02*
X113800000Y-41224820D01*
X113800000Y-41224820D02*
X113895238Y-41177201D01*
X113895238Y-41177201D02*
X113942857Y-41129581D01*
X113942857Y-41129581D02*
X113990476Y-41034343D01*
X113990476Y-41034343D02*
X113990476Y-40796248D01*
X113990476Y-40796248D02*
X113942857Y-40701010D01*
X113942857Y-40701010D02*
X113895238Y-40653391D01*
X113895238Y-40653391D02*
X113800000Y-40605772D01*
X113800000Y-40605772D02*
X113609524Y-40605772D01*
X113609524Y-40605772D02*
X113514286Y-40653391D01*
X113514286Y-40653391D02*
X113466667Y-40701010D01*
X113466667Y-40701010D02*
X113419048Y-40796248D01*
X114561905Y-40653391D02*
X114466667Y-40605772D01*
X114466667Y-40605772D02*
X114419048Y-40558153D01*
X114419048Y-40558153D02*
X114371429Y-40462915D01*
X114371429Y-40462915D02*
X114371429Y-40415296D01*
X114371429Y-40415296D02*
X114419048Y-40320058D01*
X114419048Y-40320058D02*
X114466667Y-40272439D01*
X114466667Y-40272439D02*
X114561905Y-40224820D01*
X114561905Y-40224820D02*
X114752381Y-40224820D01*
X114752381Y-40224820D02*
X114847619Y-40272439D01*
X114847619Y-40272439D02*
X114895238Y-40320058D01*
X114895238Y-40320058D02*
X114942857Y-40415296D01*
X114942857Y-40415296D02*
X114942857Y-40462915D01*
X114942857Y-40462915D02*
X114895238Y-40558153D01*
X114895238Y-40558153D02*
X114847619Y-40605772D01*
X114847619Y-40605772D02*
X114752381Y-40653391D01*
X114752381Y-40653391D02*
X114561905Y-40653391D01*
X114561905Y-40653391D02*
X114466667Y-40701010D01*
X114466667Y-40701010D02*
X114419048Y-40748629D01*
X114419048Y-40748629D02*
X114371429Y-40843867D01*
X114371429Y-40843867D02*
X114371429Y-41034343D01*
X114371429Y-41034343D02*
X114419048Y-41129581D01*
X114419048Y-41129581D02*
X114466667Y-41177201D01*
X114466667Y-41177201D02*
X114561905Y-41224820D01*
X114561905Y-41224820D02*
X114752381Y-41224820D01*
X114752381Y-41224820D02*
X114847619Y-41177201D01*
X114847619Y-41177201D02*
X114895238Y-41129581D01*
X114895238Y-41129581D02*
X114942857Y-41034343D01*
X114942857Y-41034343D02*
X114942857Y-40843867D01*
X114942857Y-40843867D02*
X114895238Y-40748629D01*
X114895238Y-40748629D02*
X114847619Y-40701010D01*
X114847619Y-40701010D02*
X114752381Y-40653391D01*
X115895238Y-41224820D02*
X115323810Y-41224820D01*
X115609524Y-41224820D02*
X115609524Y-40224820D01*
X115609524Y-40224820D02*
X115514286Y-40367677D01*
X115514286Y-40367677D02*
X115419048Y-40462915D01*
X115419048Y-40462915D02*
X115323810Y-40510534D01*
X116276191Y-40320058D02*
X116323810Y-40272439D01*
X116323810Y-40272439D02*
X116419048Y-40224820D01*
X116419048Y-40224820D02*
X116657143Y-40224820D01*
X116657143Y-40224820D02*
X116752381Y-40272439D01*
X116752381Y-40272439D02*
X116800000Y-40320058D01*
X116800000Y-40320058D02*
X116847619Y-40415296D01*
X116847619Y-40415296D02*
X116847619Y-40510534D01*
X116847619Y-40510534D02*
X116800000Y-40653391D01*
X116800000Y-40653391D02*
X116228572Y-41224820D01*
X116228572Y-41224820D02*
X116847619Y-41224820D01*
X117276191Y-41224820D02*
X117276191Y-40224820D01*
X117276191Y-40224820D02*
X117609524Y-40939105D01*
X117609524Y-40939105D02*
X117942857Y-40224820D01*
X117942857Y-40224820D02*
X117942857Y-41224820D01*
X118419048Y-41224820D02*
X118419048Y-40224820D01*
X118895238Y-41224820D02*
X118895238Y-40224820D01*
X118895238Y-40224820D02*
X119466666Y-41224820D01*
X119466666Y-41224820D02*
X119466666Y-40224820D01*
X119942857Y-41224820D02*
X119942857Y-40224820D01*
X120419047Y-40843867D02*
X121180952Y-40843867D01*
X121657142Y-40701010D02*
X121990475Y-40701010D01*
X122133332Y-41224820D02*
X121657142Y-41224820D01*
X121657142Y-41224820D02*
X121657142Y-40224820D01*
X121657142Y-40224820D02*
X122133332Y-40224820D01*
X61204761Y-98474819D02*
X60633333Y-98474819D01*
X60919047Y-98474819D02*
X60919047Y-97474819D01*
X60919047Y-97474819D02*
X60823809Y-97617676D01*
X60823809Y-97617676D02*
X60728571Y-97712914D01*
X60728571Y-97712914D02*
X60633333Y-97760533D01*
X61633333Y-98474819D02*
X61633333Y-97474819D01*
X61633333Y-97474819D02*
X62204761Y-98474819D01*
X62204761Y-98474819D02*
X62204761Y-97474819D01*
X63109523Y-97808152D02*
X63109523Y-98474819D01*
X62871428Y-97427200D02*
X62633333Y-98141485D01*
X62633333Y-98141485D02*
X63252380Y-98141485D01*
X64157142Y-98474819D02*
X63585714Y-98474819D01*
X63871428Y-98474819D02*
X63871428Y-97474819D01*
X63871428Y-97474819D02*
X63776190Y-97617676D01*
X63776190Y-97617676D02*
X63680952Y-97712914D01*
X63680952Y-97712914D02*
X63585714Y-97760533D01*
X65014285Y-97808152D02*
X65014285Y-98474819D01*
X64776190Y-97427200D02*
X64538095Y-98141485D01*
X64538095Y-98141485D02*
X65157142Y-98141485D01*
X65680952Y-97903390D02*
X65585714Y-97855771D01*
X65585714Y-97855771D02*
X65538095Y-97808152D01*
X65538095Y-97808152D02*
X65490476Y-97712914D01*
X65490476Y-97712914D02*
X65490476Y-97665295D01*
X65490476Y-97665295D02*
X65538095Y-97570057D01*
X65538095Y-97570057D02*
X65585714Y-97522438D01*
X65585714Y-97522438D02*
X65680952Y-97474819D01*
X65680952Y-97474819D02*
X65871428Y-97474819D01*
X65871428Y-97474819D02*
X65966666Y-97522438D01*
X65966666Y-97522438D02*
X66014285Y-97570057D01*
X66014285Y-97570057D02*
X66061904Y-97665295D01*
X66061904Y-97665295D02*
X66061904Y-97712914D01*
X66061904Y-97712914D02*
X66014285Y-97808152D01*
X66014285Y-97808152D02*
X65966666Y-97855771D01*
X65966666Y-97855771D02*
X65871428Y-97903390D01*
X65871428Y-97903390D02*
X65680952Y-97903390D01*
X65680952Y-97903390D02*
X65585714Y-97951009D01*
X65585714Y-97951009D02*
X65538095Y-97998628D01*
X65538095Y-97998628D02*
X65490476Y-98093866D01*
X65490476Y-98093866D02*
X65490476Y-98284342D01*
X65490476Y-98284342D02*
X65538095Y-98379580D01*
X65538095Y-98379580D02*
X65585714Y-98427200D01*
X65585714Y-98427200D02*
X65680952Y-98474819D01*
X65680952Y-98474819D02*
X65871428Y-98474819D01*
X65871428Y-98474819D02*
X65966666Y-98427200D01*
X65966666Y-98427200D02*
X66014285Y-98379580D01*
X66014285Y-98379580D02*
X66061904Y-98284342D01*
X66061904Y-98284342D02*
X66061904Y-98093866D01*
X66061904Y-98093866D02*
X66014285Y-97998628D01*
X66014285Y-97998628D02*
X65966666Y-97951009D01*
X65966666Y-97951009D02*
X65871428Y-97903390D01*
X66395238Y-97474819D02*
X66633333Y-98474819D01*
X66633333Y-98474819D02*
X66823809Y-97760533D01*
X66823809Y-97760533D02*
X67014285Y-98474819D01*
X67014285Y-98474819D02*
X67252381Y-97474819D01*
X67490476Y-97474819D02*
X68061904Y-97474819D01*
X67776190Y-98474819D02*
X67776190Y-97474819D01*
D11*
X63628571Y-96263855D02*
X63628571Y-95463855D01*
X63628571Y-95463855D02*
X63819047Y-95463855D01*
X63819047Y-95463855D02*
X63933333Y-95501950D01*
X63933333Y-95501950D02*
X64009523Y-95578140D01*
X64009523Y-95578140D02*
X64047618Y-95654331D01*
X64047618Y-95654331D02*
X64085714Y-95806712D01*
X64085714Y-95806712D02*
X64085714Y-95920998D01*
X64085714Y-95920998D02*
X64047618Y-96073379D01*
X64047618Y-96073379D02*
X64009523Y-96149569D01*
X64009523Y-96149569D02*
X63933333Y-96225760D01*
X63933333Y-96225760D02*
X63819047Y-96263855D01*
X63819047Y-96263855D02*
X63628571Y-96263855D01*
X64847618Y-96263855D02*
X64390475Y-96263855D01*
X64619047Y-96263855D02*
X64619047Y-95463855D01*
X64619047Y-95463855D02*
X64542856Y-95578140D01*
X64542856Y-95578140D02*
X64466666Y-95654331D01*
X64466666Y-95654331D02*
X64390475Y-95692426D01*
X65342857Y-95463855D02*
X65419047Y-95463855D01*
X65419047Y-95463855D02*
X65495238Y-95501950D01*
X65495238Y-95501950D02*
X65533333Y-95540045D01*
X65533333Y-95540045D02*
X65571428Y-95616236D01*
X65571428Y-95616236D02*
X65609523Y-95768617D01*
X65609523Y-95768617D02*
X65609523Y-95959093D01*
X65609523Y-95959093D02*
X65571428Y-96111474D01*
X65571428Y-96111474D02*
X65533333Y-96187664D01*
X65533333Y-96187664D02*
X65495238Y-96225760D01*
X65495238Y-96225760D02*
X65419047Y-96263855D01*
X65419047Y-96263855D02*
X65342857Y-96263855D01*
X65342857Y-96263855D02*
X65266666Y-96225760D01*
X65266666Y-96225760D02*
X65228571Y-96187664D01*
X65228571Y-96187664D02*
X65190476Y-96111474D01*
X65190476Y-96111474D02*
X65152380Y-95959093D01*
X65152380Y-95959093D02*
X65152380Y-95768617D01*
X65152380Y-95768617D02*
X65190476Y-95616236D01*
X65190476Y-95616236D02*
X65228571Y-95540045D01*
X65228571Y-95540045D02*
X65266666Y-95501950D01*
X65266666Y-95501950D02*
X65342857Y-95463855D01*
D10*
X60228095Y-94554819D02*
X60228095Y-93554819D01*
X60799523Y-94554819D02*
X60370952Y-93983390D01*
X60799523Y-93554819D02*
X60228095Y-94126247D01*
X106466667Y-69977201D02*
X106609524Y-70024820D01*
X106609524Y-70024820D02*
X106847619Y-70024820D01*
X106847619Y-70024820D02*
X106942857Y-69977201D01*
X106942857Y-69977201D02*
X106990476Y-69929581D01*
X106990476Y-69929581D02*
X107038095Y-69834343D01*
X107038095Y-69834343D02*
X107038095Y-69739105D01*
X107038095Y-69739105D02*
X106990476Y-69643867D01*
X106990476Y-69643867D02*
X106942857Y-69596248D01*
X106942857Y-69596248D02*
X106847619Y-69548629D01*
X106847619Y-69548629D02*
X106657143Y-69501010D01*
X106657143Y-69501010D02*
X106561905Y-69453391D01*
X106561905Y-69453391D02*
X106514286Y-69405772D01*
X106514286Y-69405772D02*
X106466667Y-69310534D01*
X106466667Y-69310534D02*
X106466667Y-69215296D01*
X106466667Y-69215296D02*
X106514286Y-69120058D01*
X106514286Y-69120058D02*
X106561905Y-69072439D01*
X106561905Y-69072439D02*
X106657143Y-69024820D01*
X106657143Y-69024820D02*
X106895238Y-69024820D01*
X106895238Y-69024820D02*
X107038095Y-69072439D01*
X107466667Y-70024820D02*
X107466667Y-69024820D01*
X108038095Y-70024820D02*
X107609524Y-69453391D01*
X108038095Y-69024820D02*
X107466667Y-69596248D01*
X108895238Y-69024820D02*
X108704762Y-69024820D01*
X108704762Y-69024820D02*
X108609524Y-69072439D01*
X108609524Y-69072439D02*
X108561905Y-69120058D01*
X108561905Y-69120058D02*
X108466667Y-69262915D01*
X108466667Y-69262915D02*
X108419048Y-69453391D01*
X108419048Y-69453391D02*
X108419048Y-69834343D01*
X108419048Y-69834343D02*
X108466667Y-69929581D01*
X108466667Y-69929581D02*
X108514286Y-69977201D01*
X108514286Y-69977201D02*
X108609524Y-70024820D01*
X108609524Y-70024820D02*
X108800000Y-70024820D01*
X108800000Y-70024820D02*
X108895238Y-69977201D01*
X108895238Y-69977201D02*
X108942857Y-69929581D01*
X108942857Y-69929581D02*
X108990476Y-69834343D01*
X108990476Y-69834343D02*
X108990476Y-69596248D01*
X108990476Y-69596248D02*
X108942857Y-69501010D01*
X108942857Y-69501010D02*
X108895238Y-69453391D01*
X108895238Y-69453391D02*
X108800000Y-69405772D01*
X108800000Y-69405772D02*
X108609524Y-69405772D01*
X108609524Y-69405772D02*
X108514286Y-69453391D01*
X108514286Y-69453391D02*
X108466667Y-69501010D01*
X108466667Y-69501010D02*
X108419048Y-69596248D01*
X109561905Y-69453391D02*
X109466667Y-69405772D01*
X109466667Y-69405772D02*
X109419048Y-69358153D01*
X109419048Y-69358153D02*
X109371429Y-69262915D01*
X109371429Y-69262915D02*
X109371429Y-69215296D01*
X109371429Y-69215296D02*
X109419048Y-69120058D01*
X109419048Y-69120058D02*
X109466667Y-69072439D01*
X109466667Y-69072439D02*
X109561905Y-69024820D01*
X109561905Y-69024820D02*
X109752381Y-69024820D01*
X109752381Y-69024820D02*
X109847619Y-69072439D01*
X109847619Y-69072439D02*
X109895238Y-69120058D01*
X109895238Y-69120058D02*
X109942857Y-69215296D01*
X109942857Y-69215296D02*
X109942857Y-69262915D01*
X109942857Y-69262915D02*
X109895238Y-69358153D01*
X109895238Y-69358153D02*
X109847619Y-69405772D01*
X109847619Y-69405772D02*
X109752381Y-69453391D01*
X109752381Y-69453391D02*
X109561905Y-69453391D01*
X109561905Y-69453391D02*
X109466667Y-69501010D01*
X109466667Y-69501010D02*
X109419048Y-69548629D01*
X109419048Y-69548629D02*
X109371429Y-69643867D01*
X109371429Y-69643867D02*
X109371429Y-69834343D01*
X109371429Y-69834343D02*
X109419048Y-69929581D01*
X109419048Y-69929581D02*
X109466667Y-69977201D01*
X109466667Y-69977201D02*
X109561905Y-70024820D01*
X109561905Y-70024820D02*
X109752381Y-70024820D01*
X109752381Y-70024820D02*
X109847619Y-69977201D01*
X109847619Y-69977201D02*
X109895238Y-69929581D01*
X109895238Y-69929581D02*
X109942857Y-69834343D01*
X109942857Y-69834343D02*
X109942857Y-69643867D01*
X109942857Y-69643867D02*
X109895238Y-69548629D01*
X109895238Y-69548629D02*
X109847619Y-69501010D01*
X109847619Y-69501010D02*
X109752381Y-69453391D01*
X110895238Y-70024820D02*
X110323810Y-70024820D01*
X110609524Y-70024820D02*
X110609524Y-69024820D01*
X110609524Y-69024820D02*
X110514286Y-69167677D01*
X110514286Y-69167677D02*
X110419048Y-69262915D01*
X110419048Y-69262915D02*
X110323810Y-69310534D01*
X111276191Y-69120058D02*
X111323810Y-69072439D01*
X111323810Y-69072439D02*
X111419048Y-69024820D01*
X111419048Y-69024820D02*
X111657143Y-69024820D01*
X111657143Y-69024820D02*
X111752381Y-69072439D01*
X111752381Y-69072439D02*
X111800000Y-69120058D01*
X111800000Y-69120058D02*
X111847619Y-69215296D01*
X111847619Y-69215296D02*
X111847619Y-69310534D01*
X111847619Y-69310534D02*
X111800000Y-69453391D01*
X111800000Y-69453391D02*
X111228572Y-70024820D01*
X111228572Y-70024820D02*
X111847619Y-70024820D01*
X112276191Y-70024820D02*
X112276191Y-69024820D01*
X112276191Y-69024820D02*
X112609524Y-69739105D01*
X112609524Y-69739105D02*
X112942857Y-69024820D01*
X112942857Y-69024820D02*
X112942857Y-70024820D01*
X113419048Y-70024820D02*
X113419048Y-69024820D01*
X113895238Y-70024820D02*
X113895238Y-69024820D01*
X113895238Y-69024820D02*
X114466666Y-70024820D01*
X114466666Y-70024820D02*
X114466666Y-69024820D01*
X114942857Y-70024820D02*
X114942857Y-69024820D01*
X115419047Y-69643867D02*
X116180952Y-69643867D01*
X116657142Y-69501010D02*
X116990475Y-69501010D01*
X117133332Y-70024820D02*
X116657142Y-70024820D01*
X116657142Y-70024820D02*
X116657142Y-69024820D01*
X116657142Y-69024820D02*
X117133332Y-69024820D01*
X109104761Y-98474819D02*
X108533333Y-98474819D01*
X108819047Y-98474819D02*
X108819047Y-97474819D01*
X108819047Y-97474819D02*
X108723809Y-97617676D01*
X108723809Y-97617676D02*
X108628571Y-97712914D01*
X108628571Y-97712914D02*
X108533333Y-97760533D01*
X109533333Y-98474819D02*
X109533333Y-97474819D01*
X109533333Y-97474819D02*
X110104761Y-98474819D01*
X110104761Y-98474819D02*
X110104761Y-97474819D01*
X111009523Y-97808152D02*
X111009523Y-98474819D01*
X110771428Y-97427200D02*
X110533333Y-98141485D01*
X110533333Y-98141485D02*
X111152380Y-98141485D01*
X112057142Y-98474819D02*
X111485714Y-98474819D01*
X111771428Y-98474819D02*
X111771428Y-97474819D01*
X111771428Y-97474819D02*
X111676190Y-97617676D01*
X111676190Y-97617676D02*
X111580952Y-97712914D01*
X111580952Y-97712914D02*
X111485714Y-97760533D01*
X112914285Y-97808152D02*
X112914285Y-98474819D01*
X112676190Y-97427200D02*
X112438095Y-98141485D01*
X112438095Y-98141485D02*
X113057142Y-98141485D01*
X113580952Y-97903390D02*
X113485714Y-97855771D01*
X113485714Y-97855771D02*
X113438095Y-97808152D01*
X113438095Y-97808152D02*
X113390476Y-97712914D01*
X113390476Y-97712914D02*
X113390476Y-97665295D01*
X113390476Y-97665295D02*
X113438095Y-97570057D01*
X113438095Y-97570057D02*
X113485714Y-97522438D01*
X113485714Y-97522438D02*
X113580952Y-97474819D01*
X113580952Y-97474819D02*
X113771428Y-97474819D01*
X113771428Y-97474819D02*
X113866666Y-97522438D01*
X113866666Y-97522438D02*
X113914285Y-97570057D01*
X113914285Y-97570057D02*
X113961904Y-97665295D01*
X113961904Y-97665295D02*
X113961904Y-97712914D01*
X113961904Y-97712914D02*
X113914285Y-97808152D01*
X113914285Y-97808152D02*
X113866666Y-97855771D01*
X113866666Y-97855771D02*
X113771428Y-97903390D01*
X113771428Y-97903390D02*
X113580952Y-97903390D01*
X113580952Y-97903390D02*
X113485714Y-97951009D01*
X113485714Y-97951009D02*
X113438095Y-97998628D01*
X113438095Y-97998628D02*
X113390476Y-98093866D01*
X113390476Y-98093866D02*
X113390476Y-98284342D01*
X113390476Y-98284342D02*
X113438095Y-98379580D01*
X113438095Y-98379580D02*
X113485714Y-98427200D01*
X113485714Y-98427200D02*
X113580952Y-98474819D01*
X113580952Y-98474819D02*
X113771428Y-98474819D01*
X113771428Y-98474819D02*
X113866666Y-98427200D01*
X113866666Y-98427200D02*
X113914285Y-98379580D01*
X113914285Y-98379580D02*
X113961904Y-98284342D01*
X113961904Y-98284342D02*
X113961904Y-98093866D01*
X113961904Y-98093866D02*
X113914285Y-97998628D01*
X113914285Y-97998628D02*
X113866666Y-97951009D01*
X113866666Y-97951009D02*
X113771428Y-97903390D01*
X114295238Y-97474819D02*
X114533333Y-98474819D01*
X114533333Y-98474819D02*
X114723809Y-97760533D01*
X114723809Y-97760533D02*
X114914285Y-98474819D01*
X114914285Y-98474819D02*
X115152381Y-97474819D01*
X115390476Y-97474819D02*
X115961904Y-97474819D01*
X115676190Y-98474819D02*
X115676190Y-97474819D01*
D11*
X111528571Y-96263855D02*
X111528571Y-95463855D01*
X111528571Y-95463855D02*
X111719047Y-95463855D01*
X111719047Y-95463855D02*
X111833333Y-95501950D01*
X111833333Y-95501950D02*
X111909523Y-95578140D01*
X111909523Y-95578140D02*
X111947618Y-95654331D01*
X111947618Y-95654331D02*
X111985714Y-95806712D01*
X111985714Y-95806712D02*
X111985714Y-95920998D01*
X111985714Y-95920998D02*
X111947618Y-96073379D01*
X111947618Y-96073379D02*
X111909523Y-96149569D01*
X111909523Y-96149569D02*
X111833333Y-96225760D01*
X111833333Y-96225760D02*
X111719047Y-96263855D01*
X111719047Y-96263855D02*
X111528571Y-96263855D01*
X112747618Y-96263855D02*
X112290475Y-96263855D01*
X112519047Y-96263855D02*
X112519047Y-95463855D01*
X112519047Y-95463855D02*
X112442856Y-95578140D01*
X112442856Y-95578140D02*
X112366666Y-95654331D01*
X112366666Y-95654331D02*
X112290475Y-95692426D01*
X113052380Y-95540045D02*
X113090476Y-95501950D01*
X113090476Y-95501950D02*
X113166666Y-95463855D01*
X113166666Y-95463855D02*
X113357142Y-95463855D01*
X113357142Y-95463855D02*
X113433333Y-95501950D01*
X113433333Y-95501950D02*
X113471428Y-95540045D01*
X113471428Y-95540045D02*
X113509523Y-95616236D01*
X113509523Y-95616236D02*
X113509523Y-95692426D01*
X113509523Y-95692426D02*
X113471428Y-95806712D01*
X113471428Y-95806712D02*
X113014285Y-96263855D01*
X113014285Y-96263855D02*
X113509523Y-96263855D01*
D10*
X108128095Y-94554819D02*
X108128095Y-93554819D01*
X108699523Y-94554819D02*
X108270952Y-93983390D01*
X108699523Y-93554819D02*
X108128095Y-94126247D01*
X73266667Y-118077201D02*
X73409524Y-118124820D01*
X73409524Y-118124820D02*
X73647619Y-118124820D01*
X73647619Y-118124820D02*
X73742857Y-118077201D01*
X73742857Y-118077201D02*
X73790476Y-118029581D01*
X73790476Y-118029581D02*
X73838095Y-117934343D01*
X73838095Y-117934343D02*
X73838095Y-117839105D01*
X73838095Y-117839105D02*
X73790476Y-117743867D01*
X73790476Y-117743867D02*
X73742857Y-117696248D01*
X73742857Y-117696248D02*
X73647619Y-117648629D01*
X73647619Y-117648629D02*
X73457143Y-117601010D01*
X73457143Y-117601010D02*
X73361905Y-117553391D01*
X73361905Y-117553391D02*
X73314286Y-117505772D01*
X73314286Y-117505772D02*
X73266667Y-117410534D01*
X73266667Y-117410534D02*
X73266667Y-117315296D01*
X73266667Y-117315296D02*
X73314286Y-117220058D01*
X73314286Y-117220058D02*
X73361905Y-117172439D01*
X73361905Y-117172439D02*
X73457143Y-117124820D01*
X73457143Y-117124820D02*
X73695238Y-117124820D01*
X73695238Y-117124820D02*
X73838095Y-117172439D01*
X74266667Y-118124820D02*
X74266667Y-117124820D01*
X74838095Y-118124820D02*
X74409524Y-117553391D01*
X74838095Y-117124820D02*
X74266667Y-117696248D01*
X75695238Y-117124820D02*
X75504762Y-117124820D01*
X75504762Y-117124820D02*
X75409524Y-117172439D01*
X75409524Y-117172439D02*
X75361905Y-117220058D01*
X75361905Y-117220058D02*
X75266667Y-117362915D01*
X75266667Y-117362915D02*
X75219048Y-117553391D01*
X75219048Y-117553391D02*
X75219048Y-117934343D01*
X75219048Y-117934343D02*
X75266667Y-118029581D01*
X75266667Y-118029581D02*
X75314286Y-118077201D01*
X75314286Y-118077201D02*
X75409524Y-118124820D01*
X75409524Y-118124820D02*
X75600000Y-118124820D01*
X75600000Y-118124820D02*
X75695238Y-118077201D01*
X75695238Y-118077201D02*
X75742857Y-118029581D01*
X75742857Y-118029581D02*
X75790476Y-117934343D01*
X75790476Y-117934343D02*
X75790476Y-117696248D01*
X75790476Y-117696248D02*
X75742857Y-117601010D01*
X75742857Y-117601010D02*
X75695238Y-117553391D01*
X75695238Y-117553391D02*
X75600000Y-117505772D01*
X75600000Y-117505772D02*
X75409524Y-117505772D01*
X75409524Y-117505772D02*
X75314286Y-117553391D01*
X75314286Y-117553391D02*
X75266667Y-117601010D01*
X75266667Y-117601010D02*
X75219048Y-117696248D01*
X76361905Y-117553391D02*
X76266667Y-117505772D01*
X76266667Y-117505772D02*
X76219048Y-117458153D01*
X76219048Y-117458153D02*
X76171429Y-117362915D01*
X76171429Y-117362915D02*
X76171429Y-117315296D01*
X76171429Y-117315296D02*
X76219048Y-117220058D01*
X76219048Y-117220058D02*
X76266667Y-117172439D01*
X76266667Y-117172439D02*
X76361905Y-117124820D01*
X76361905Y-117124820D02*
X76552381Y-117124820D01*
X76552381Y-117124820D02*
X76647619Y-117172439D01*
X76647619Y-117172439D02*
X76695238Y-117220058D01*
X76695238Y-117220058D02*
X76742857Y-117315296D01*
X76742857Y-117315296D02*
X76742857Y-117362915D01*
X76742857Y-117362915D02*
X76695238Y-117458153D01*
X76695238Y-117458153D02*
X76647619Y-117505772D01*
X76647619Y-117505772D02*
X76552381Y-117553391D01*
X76552381Y-117553391D02*
X76361905Y-117553391D01*
X76361905Y-117553391D02*
X76266667Y-117601010D01*
X76266667Y-117601010D02*
X76219048Y-117648629D01*
X76219048Y-117648629D02*
X76171429Y-117743867D01*
X76171429Y-117743867D02*
X76171429Y-117934343D01*
X76171429Y-117934343D02*
X76219048Y-118029581D01*
X76219048Y-118029581D02*
X76266667Y-118077201D01*
X76266667Y-118077201D02*
X76361905Y-118124820D01*
X76361905Y-118124820D02*
X76552381Y-118124820D01*
X76552381Y-118124820D02*
X76647619Y-118077201D01*
X76647619Y-118077201D02*
X76695238Y-118029581D01*
X76695238Y-118029581D02*
X76742857Y-117934343D01*
X76742857Y-117934343D02*
X76742857Y-117743867D01*
X76742857Y-117743867D02*
X76695238Y-117648629D01*
X76695238Y-117648629D02*
X76647619Y-117601010D01*
X76647619Y-117601010D02*
X76552381Y-117553391D01*
X77695238Y-118124820D02*
X77123810Y-118124820D01*
X77409524Y-118124820D02*
X77409524Y-117124820D01*
X77409524Y-117124820D02*
X77314286Y-117267677D01*
X77314286Y-117267677D02*
X77219048Y-117362915D01*
X77219048Y-117362915D02*
X77123810Y-117410534D01*
X78076191Y-117220058D02*
X78123810Y-117172439D01*
X78123810Y-117172439D02*
X78219048Y-117124820D01*
X78219048Y-117124820D02*
X78457143Y-117124820D01*
X78457143Y-117124820D02*
X78552381Y-117172439D01*
X78552381Y-117172439D02*
X78600000Y-117220058D01*
X78600000Y-117220058D02*
X78647619Y-117315296D01*
X78647619Y-117315296D02*
X78647619Y-117410534D01*
X78647619Y-117410534D02*
X78600000Y-117553391D01*
X78600000Y-117553391D02*
X78028572Y-118124820D01*
X78028572Y-118124820D02*
X78647619Y-118124820D01*
X79076191Y-118124820D02*
X79076191Y-117124820D01*
X79076191Y-117124820D02*
X79409524Y-117839105D01*
X79409524Y-117839105D02*
X79742857Y-117124820D01*
X79742857Y-117124820D02*
X79742857Y-118124820D01*
X80219048Y-118124820D02*
X80219048Y-117124820D01*
X80695238Y-118124820D02*
X80695238Y-117124820D01*
X80695238Y-117124820D02*
X81266666Y-118124820D01*
X81266666Y-118124820D02*
X81266666Y-117124820D01*
X81742857Y-118124820D02*
X81742857Y-117124820D01*
X82219047Y-117743867D02*
X82980952Y-117743867D01*
X83457142Y-117601010D02*
X83790475Y-117601010D01*
X83933332Y-118124820D02*
X83457142Y-118124820D01*
X83457142Y-118124820D02*
X83457142Y-117124820D01*
X83457142Y-117124820D02*
X83933332Y-117124820D01*
X104254819Y-44066666D02*
X104254819Y-43876190D01*
X104254819Y-43876190D02*
X104302438Y-43780952D01*
X104302438Y-43780952D02*
X104397676Y-43685714D01*
X104397676Y-43685714D02*
X104588152Y-43638095D01*
X104588152Y-43638095D02*
X104921485Y-43638095D01*
X104921485Y-43638095D02*
X105111961Y-43685714D01*
X105111961Y-43685714D02*
X105207200Y-43780952D01*
X105207200Y-43780952D02*
X105254819Y-43876190D01*
X105254819Y-43876190D02*
X105254819Y-44066666D01*
X105254819Y-44066666D02*
X105207200Y-44161904D01*
X105207200Y-44161904D02*
X105111961Y-44257142D01*
X105111961Y-44257142D02*
X104921485Y-44304761D01*
X104921485Y-44304761D02*
X104588152Y-44304761D01*
X104588152Y-44304761D02*
X104397676Y-44257142D01*
X104397676Y-44257142D02*
X104302438Y-44161904D01*
X104302438Y-44161904D02*
X104254819Y-44066666D01*
X105254819Y-42733333D02*
X105254819Y-43209523D01*
X105254819Y-43209523D02*
X104254819Y-43209523D01*
X104731009Y-42399999D02*
X104731009Y-42066666D01*
X105254819Y-41923809D02*
X105254819Y-42399999D01*
X105254819Y-42399999D02*
X104254819Y-42399999D01*
X104254819Y-42399999D02*
X104254819Y-41923809D01*
X105254819Y-41495237D02*
X104254819Y-41495237D01*
X104254819Y-41495237D02*
X104254819Y-41257142D01*
X104254819Y-41257142D02*
X104302438Y-41114285D01*
X104302438Y-41114285D02*
X104397676Y-41019047D01*
X104397676Y-41019047D02*
X104492914Y-40971428D01*
X104492914Y-40971428D02*
X104683390Y-40923809D01*
X104683390Y-40923809D02*
X104826247Y-40923809D01*
X104826247Y-40923809D02*
X105016723Y-40971428D01*
X105016723Y-40971428D02*
X105111961Y-41019047D01*
X105111961Y-41019047D02*
X105207200Y-41114285D01*
X105207200Y-41114285D02*
X105254819Y-41257142D01*
X105254819Y-41257142D02*
X105254819Y-41495237D01*
X105350057Y-40733333D02*
X105350057Y-39971428D01*
X104254819Y-39542856D02*
X104254819Y-39447618D01*
X104254819Y-39447618D02*
X104302438Y-39352380D01*
X104302438Y-39352380D02*
X104350057Y-39304761D01*
X104350057Y-39304761D02*
X104445295Y-39257142D01*
X104445295Y-39257142D02*
X104635771Y-39209523D01*
X104635771Y-39209523D02*
X104873866Y-39209523D01*
X104873866Y-39209523D02*
X105064342Y-39257142D01*
X105064342Y-39257142D02*
X105159580Y-39304761D01*
X105159580Y-39304761D02*
X105207200Y-39352380D01*
X105207200Y-39352380D02*
X105254819Y-39447618D01*
X105254819Y-39447618D02*
X105254819Y-39542856D01*
X105254819Y-39542856D02*
X105207200Y-39638094D01*
X105207200Y-39638094D02*
X105159580Y-39685713D01*
X105159580Y-39685713D02*
X105064342Y-39733332D01*
X105064342Y-39733332D02*
X104873866Y-39780951D01*
X104873866Y-39780951D02*
X104635771Y-39780951D01*
X104635771Y-39780951D02*
X104445295Y-39733332D01*
X104445295Y-39733332D02*
X104350057Y-39685713D01*
X104350057Y-39685713D02*
X104302438Y-39638094D01*
X104302438Y-39638094D02*
X104254819Y-39542856D01*
X105159580Y-38780951D02*
X105207200Y-38733332D01*
X105207200Y-38733332D02*
X105254819Y-38780951D01*
X105254819Y-38780951D02*
X105207200Y-38828570D01*
X105207200Y-38828570D02*
X105159580Y-38780951D01*
X105159580Y-38780951D02*
X105254819Y-38780951D01*
X105254819Y-38257142D02*
X105254819Y-38066666D01*
X105254819Y-38066666D02*
X105207200Y-37971428D01*
X105207200Y-37971428D02*
X105159580Y-37923809D01*
X105159580Y-37923809D02*
X105016723Y-37828571D01*
X105016723Y-37828571D02*
X104826247Y-37780952D01*
X104826247Y-37780952D02*
X104445295Y-37780952D01*
X104445295Y-37780952D02*
X104350057Y-37828571D01*
X104350057Y-37828571D02*
X104302438Y-37876190D01*
X104302438Y-37876190D02*
X104254819Y-37971428D01*
X104254819Y-37971428D02*
X104254819Y-38161904D01*
X104254819Y-38161904D02*
X104302438Y-38257142D01*
X104302438Y-38257142D02*
X104350057Y-38304761D01*
X104350057Y-38304761D02*
X104445295Y-38352380D01*
X104445295Y-38352380D02*
X104683390Y-38352380D01*
X104683390Y-38352380D02*
X104778628Y-38304761D01*
X104778628Y-38304761D02*
X104826247Y-38257142D01*
X104826247Y-38257142D02*
X104873866Y-38161904D01*
X104873866Y-38161904D02*
X104873866Y-37971428D01*
X104873866Y-37971428D02*
X104826247Y-37876190D01*
X104826247Y-37876190D02*
X104778628Y-37828571D01*
X104778628Y-37828571D02*
X104683390Y-37780952D01*
X105254819Y-36828571D02*
X105254819Y-37399999D01*
X105254819Y-37114285D02*
X104254819Y-37114285D01*
X104254819Y-37114285D02*
X104397676Y-37209523D01*
X104397676Y-37209523D02*
X104492914Y-37304761D01*
X104492914Y-37304761D02*
X104540533Y-37399999D01*
X105350057Y-36638095D02*
X105350057Y-35876190D01*
X105254819Y-35114285D02*
X105254819Y-35685713D01*
X105254819Y-35399999D02*
X104254819Y-35399999D01*
X104254819Y-35399999D02*
X104397676Y-35495237D01*
X104397676Y-35495237D02*
X104492914Y-35590475D01*
X104492914Y-35590475D02*
X104540533Y-35685713D01*
X104350057Y-34733332D02*
X104302438Y-34685713D01*
X104302438Y-34685713D02*
X104254819Y-34590475D01*
X104254819Y-34590475D02*
X104254819Y-34352380D01*
X104254819Y-34352380D02*
X104302438Y-34257142D01*
X104302438Y-34257142D02*
X104350057Y-34209523D01*
X104350057Y-34209523D02*
X104445295Y-34161904D01*
X104445295Y-34161904D02*
X104540533Y-34161904D01*
X104540533Y-34161904D02*
X104683390Y-34209523D01*
X104683390Y-34209523D02*
X105254819Y-34780951D01*
X105254819Y-34780951D02*
X105254819Y-34161904D01*
X104683390Y-33590475D02*
X104635771Y-33685713D01*
X104635771Y-33685713D02*
X104588152Y-33733332D01*
X104588152Y-33733332D02*
X104492914Y-33780951D01*
X104492914Y-33780951D02*
X104445295Y-33780951D01*
X104445295Y-33780951D02*
X104350057Y-33733332D01*
X104350057Y-33733332D02*
X104302438Y-33685713D01*
X104302438Y-33685713D02*
X104254819Y-33590475D01*
X104254819Y-33590475D02*
X104254819Y-33399999D01*
X104254819Y-33399999D02*
X104302438Y-33304761D01*
X104302438Y-33304761D02*
X104350057Y-33257142D01*
X104350057Y-33257142D02*
X104445295Y-33209523D01*
X104445295Y-33209523D02*
X104492914Y-33209523D01*
X104492914Y-33209523D02*
X104588152Y-33257142D01*
X104588152Y-33257142D02*
X104635771Y-33304761D01*
X104635771Y-33304761D02*
X104683390Y-33399999D01*
X104683390Y-33399999D02*
X104683390Y-33590475D01*
X104683390Y-33590475D02*
X104731009Y-33685713D01*
X104731009Y-33685713D02*
X104778628Y-33733332D01*
X104778628Y-33733332D02*
X104873866Y-33780951D01*
X104873866Y-33780951D02*
X105064342Y-33780951D01*
X105064342Y-33780951D02*
X105159580Y-33733332D01*
X105159580Y-33733332D02*
X105207200Y-33685713D01*
X105207200Y-33685713D02*
X105254819Y-33590475D01*
X105254819Y-33590475D02*
X105254819Y-33399999D01*
X105254819Y-33399999D02*
X105207200Y-33304761D01*
X105207200Y-33304761D02*
X105159580Y-33257142D01*
X105159580Y-33257142D02*
X105064342Y-33209523D01*
X105064342Y-33209523D02*
X104873866Y-33209523D01*
X104873866Y-33209523D02*
X104778628Y-33257142D01*
X104778628Y-33257142D02*
X104731009Y-33304761D01*
X104731009Y-33304761D02*
X104683390Y-33399999D01*
X105254819Y-32876189D02*
X104588152Y-32352380D01*
X104588152Y-32876189D02*
X105254819Y-32352380D01*
X104254819Y-32066665D02*
X104254819Y-31447618D01*
X104254819Y-31447618D02*
X104635771Y-31780951D01*
X104635771Y-31780951D02*
X104635771Y-31638094D01*
X104635771Y-31638094D02*
X104683390Y-31542856D01*
X104683390Y-31542856D02*
X104731009Y-31495237D01*
X104731009Y-31495237D02*
X104826247Y-31447618D01*
X104826247Y-31447618D02*
X105064342Y-31447618D01*
X105064342Y-31447618D02*
X105159580Y-31495237D01*
X105159580Y-31495237D02*
X105207200Y-31542856D01*
X105207200Y-31542856D02*
X105254819Y-31638094D01*
X105254819Y-31638094D02*
X105254819Y-31923808D01*
X105254819Y-31923808D02*
X105207200Y-32019046D01*
X105207200Y-32019046D02*
X105159580Y-32066665D01*
X104350057Y-31066665D02*
X104302438Y-31019046D01*
X104302438Y-31019046D02*
X104254819Y-30923808D01*
X104254819Y-30923808D02*
X104254819Y-30685713D01*
X104254819Y-30685713D02*
X104302438Y-30590475D01*
X104302438Y-30590475D02*
X104350057Y-30542856D01*
X104350057Y-30542856D02*
X104445295Y-30495237D01*
X104445295Y-30495237D02*
X104540533Y-30495237D01*
X104540533Y-30495237D02*
X104683390Y-30542856D01*
X104683390Y-30542856D02*
X105254819Y-31114284D01*
X105254819Y-31114284D02*
X105254819Y-30495237D01*
X84038095Y-36854819D02*
X84038095Y-37664342D01*
X84038095Y-37664342D02*
X84085714Y-37759580D01*
X84085714Y-37759580D02*
X84133333Y-37807200D01*
X84133333Y-37807200D02*
X84228571Y-37854819D01*
X84228571Y-37854819D02*
X84419047Y-37854819D01*
X84419047Y-37854819D02*
X84514285Y-37807200D01*
X84514285Y-37807200D02*
X84561904Y-37759580D01*
X84561904Y-37759580D02*
X84609523Y-37664342D01*
X84609523Y-37664342D02*
X84609523Y-36854819D01*
X85038095Y-36950057D02*
X85085714Y-36902438D01*
X85085714Y-36902438D02*
X85180952Y-36854819D01*
X85180952Y-36854819D02*
X85419047Y-36854819D01*
X85419047Y-36854819D02*
X85514285Y-36902438D01*
X85514285Y-36902438D02*
X85561904Y-36950057D01*
X85561904Y-36950057D02*
X85609523Y-37045295D01*
X85609523Y-37045295D02*
X85609523Y-37140533D01*
X85609523Y-37140533D02*
X85561904Y-37283390D01*
X85561904Y-37283390D02*
X84990476Y-37854819D01*
X84990476Y-37854819D02*
X85609523Y-37854819D01*
X58966667Y-70077201D02*
X59109524Y-70124820D01*
X59109524Y-70124820D02*
X59347619Y-70124820D01*
X59347619Y-70124820D02*
X59442857Y-70077201D01*
X59442857Y-70077201D02*
X59490476Y-70029581D01*
X59490476Y-70029581D02*
X59538095Y-69934343D01*
X59538095Y-69934343D02*
X59538095Y-69839105D01*
X59538095Y-69839105D02*
X59490476Y-69743867D01*
X59490476Y-69743867D02*
X59442857Y-69696248D01*
X59442857Y-69696248D02*
X59347619Y-69648629D01*
X59347619Y-69648629D02*
X59157143Y-69601010D01*
X59157143Y-69601010D02*
X59061905Y-69553391D01*
X59061905Y-69553391D02*
X59014286Y-69505772D01*
X59014286Y-69505772D02*
X58966667Y-69410534D01*
X58966667Y-69410534D02*
X58966667Y-69315296D01*
X58966667Y-69315296D02*
X59014286Y-69220058D01*
X59014286Y-69220058D02*
X59061905Y-69172439D01*
X59061905Y-69172439D02*
X59157143Y-69124820D01*
X59157143Y-69124820D02*
X59395238Y-69124820D01*
X59395238Y-69124820D02*
X59538095Y-69172439D01*
X59966667Y-70124820D02*
X59966667Y-69124820D01*
X60538095Y-70124820D02*
X60109524Y-69553391D01*
X60538095Y-69124820D02*
X59966667Y-69696248D01*
X61395238Y-69124820D02*
X61204762Y-69124820D01*
X61204762Y-69124820D02*
X61109524Y-69172439D01*
X61109524Y-69172439D02*
X61061905Y-69220058D01*
X61061905Y-69220058D02*
X60966667Y-69362915D01*
X60966667Y-69362915D02*
X60919048Y-69553391D01*
X60919048Y-69553391D02*
X60919048Y-69934343D01*
X60919048Y-69934343D02*
X60966667Y-70029581D01*
X60966667Y-70029581D02*
X61014286Y-70077201D01*
X61014286Y-70077201D02*
X61109524Y-70124820D01*
X61109524Y-70124820D02*
X61300000Y-70124820D01*
X61300000Y-70124820D02*
X61395238Y-70077201D01*
X61395238Y-70077201D02*
X61442857Y-70029581D01*
X61442857Y-70029581D02*
X61490476Y-69934343D01*
X61490476Y-69934343D02*
X61490476Y-69696248D01*
X61490476Y-69696248D02*
X61442857Y-69601010D01*
X61442857Y-69601010D02*
X61395238Y-69553391D01*
X61395238Y-69553391D02*
X61300000Y-69505772D01*
X61300000Y-69505772D02*
X61109524Y-69505772D01*
X61109524Y-69505772D02*
X61014286Y-69553391D01*
X61014286Y-69553391D02*
X60966667Y-69601010D01*
X60966667Y-69601010D02*
X60919048Y-69696248D01*
X62061905Y-69553391D02*
X61966667Y-69505772D01*
X61966667Y-69505772D02*
X61919048Y-69458153D01*
X61919048Y-69458153D02*
X61871429Y-69362915D01*
X61871429Y-69362915D02*
X61871429Y-69315296D01*
X61871429Y-69315296D02*
X61919048Y-69220058D01*
X61919048Y-69220058D02*
X61966667Y-69172439D01*
X61966667Y-69172439D02*
X62061905Y-69124820D01*
X62061905Y-69124820D02*
X62252381Y-69124820D01*
X62252381Y-69124820D02*
X62347619Y-69172439D01*
X62347619Y-69172439D02*
X62395238Y-69220058D01*
X62395238Y-69220058D02*
X62442857Y-69315296D01*
X62442857Y-69315296D02*
X62442857Y-69362915D01*
X62442857Y-69362915D02*
X62395238Y-69458153D01*
X62395238Y-69458153D02*
X62347619Y-69505772D01*
X62347619Y-69505772D02*
X62252381Y-69553391D01*
X62252381Y-69553391D02*
X62061905Y-69553391D01*
X62061905Y-69553391D02*
X61966667Y-69601010D01*
X61966667Y-69601010D02*
X61919048Y-69648629D01*
X61919048Y-69648629D02*
X61871429Y-69743867D01*
X61871429Y-69743867D02*
X61871429Y-69934343D01*
X61871429Y-69934343D02*
X61919048Y-70029581D01*
X61919048Y-70029581D02*
X61966667Y-70077201D01*
X61966667Y-70077201D02*
X62061905Y-70124820D01*
X62061905Y-70124820D02*
X62252381Y-70124820D01*
X62252381Y-70124820D02*
X62347619Y-70077201D01*
X62347619Y-70077201D02*
X62395238Y-70029581D01*
X62395238Y-70029581D02*
X62442857Y-69934343D01*
X62442857Y-69934343D02*
X62442857Y-69743867D01*
X62442857Y-69743867D02*
X62395238Y-69648629D01*
X62395238Y-69648629D02*
X62347619Y-69601010D01*
X62347619Y-69601010D02*
X62252381Y-69553391D01*
X63395238Y-70124820D02*
X62823810Y-70124820D01*
X63109524Y-70124820D02*
X63109524Y-69124820D01*
X63109524Y-69124820D02*
X63014286Y-69267677D01*
X63014286Y-69267677D02*
X62919048Y-69362915D01*
X62919048Y-69362915D02*
X62823810Y-69410534D01*
X63776191Y-69220058D02*
X63823810Y-69172439D01*
X63823810Y-69172439D02*
X63919048Y-69124820D01*
X63919048Y-69124820D02*
X64157143Y-69124820D01*
X64157143Y-69124820D02*
X64252381Y-69172439D01*
X64252381Y-69172439D02*
X64300000Y-69220058D01*
X64300000Y-69220058D02*
X64347619Y-69315296D01*
X64347619Y-69315296D02*
X64347619Y-69410534D01*
X64347619Y-69410534D02*
X64300000Y-69553391D01*
X64300000Y-69553391D02*
X63728572Y-70124820D01*
X63728572Y-70124820D02*
X64347619Y-70124820D01*
X64776191Y-70124820D02*
X64776191Y-69124820D01*
X64776191Y-69124820D02*
X65109524Y-69839105D01*
X65109524Y-69839105D02*
X65442857Y-69124820D01*
X65442857Y-69124820D02*
X65442857Y-70124820D01*
X65919048Y-70124820D02*
X65919048Y-69124820D01*
X66395238Y-70124820D02*
X66395238Y-69124820D01*
X66395238Y-69124820D02*
X66966666Y-70124820D01*
X66966666Y-70124820D02*
X66966666Y-69124820D01*
X67442857Y-70124820D02*
X67442857Y-69124820D01*
X67919047Y-69743867D02*
X68680952Y-69743867D01*
X69157142Y-69601010D02*
X69490475Y-69601010D01*
X69633332Y-70124820D02*
X69157142Y-70124820D01*
X69157142Y-70124820D02*
X69157142Y-69124820D01*
X69157142Y-69124820D02*
X69633332Y-69124820D01*
D12*
X36615476Y-34221979D02*
X37038809Y-34856979D01*
X37038809Y-34221979D02*
X36615476Y-34856979D01*
X37280714Y-34856979D02*
X37280714Y-34221979D01*
X37552857Y-34675550D02*
X37855238Y-34675550D01*
X37492381Y-34856979D02*
X37704047Y-34221979D01*
X37704047Y-34221979D02*
X37915714Y-34856979D01*
X38248333Y-34221979D02*
X38369286Y-34221979D01*
X38369286Y-34221979D02*
X38429762Y-34252217D01*
X38429762Y-34252217D02*
X38490238Y-34312693D01*
X38490238Y-34312693D02*
X38520476Y-34433645D01*
X38520476Y-34433645D02*
X38520476Y-34645312D01*
X38520476Y-34645312D02*
X38490238Y-34766264D01*
X38490238Y-34766264D02*
X38429762Y-34826741D01*
X38429762Y-34826741D02*
X38369286Y-34856979D01*
X38369286Y-34856979D02*
X38248333Y-34856979D01*
X38248333Y-34856979D02*
X38187857Y-34826741D01*
X38187857Y-34826741D02*
X38127381Y-34766264D01*
X38127381Y-34766264D02*
X38097143Y-34645312D01*
X38097143Y-34645312D02*
X38097143Y-34433645D01*
X38097143Y-34433645D02*
X38127381Y-34312693D01*
X38127381Y-34312693D02*
X38187857Y-34252217D01*
X38187857Y-34252217D02*
X38248333Y-34221979D01*
X38792619Y-34615074D02*
X39276429Y-34615074D01*
X39941666Y-34856979D02*
X39729999Y-34554598D01*
X39578809Y-34856979D02*
X39578809Y-34221979D01*
X39578809Y-34221979D02*
X39820714Y-34221979D01*
X39820714Y-34221979D02*
X39881190Y-34252217D01*
X39881190Y-34252217D02*
X39911428Y-34282455D01*
X39911428Y-34282455D02*
X39941666Y-34342931D01*
X39941666Y-34342931D02*
X39941666Y-34433645D01*
X39941666Y-34433645D02*
X39911428Y-34494121D01*
X39911428Y-34494121D02*
X39881190Y-34524360D01*
X39881190Y-34524360D02*
X39820714Y-34554598D01*
X39820714Y-34554598D02*
X39578809Y-34554598D01*
X40213809Y-34856979D02*
X40213809Y-34221979D01*
X40213809Y-34221979D02*
X40455714Y-34221979D01*
X40455714Y-34221979D02*
X40516190Y-34252217D01*
X40516190Y-34252217D02*
X40546428Y-34282455D01*
X40546428Y-34282455D02*
X40576666Y-34342931D01*
X40576666Y-34342931D02*
X40576666Y-34433645D01*
X40576666Y-34433645D02*
X40546428Y-34494121D01*
X40546428Y-34494121D02*
X40516190Y-34524360D01*
X40516190Y-34524360D02*
X40455714Y-34554598D01*
X40455714Y-34554598D02*
X40213809Y-34554598D01*
X40818571Y-34282455D02*
X40848809Y-34252217D01*
X40848809Y-34252217D02*
X40909285Y-34221979D01*
X40909285Y-34221979D02*
X41060476Y-34221979D01*
X41060476Y-34221979D02*
X41120952Y-34252217D01*
X41120952Y-34252217D02*
X41151190Y-34282455D01*
X41151190Y-34282455D02*
X41181428Y-34342931D01*
X41181428Y-34342931D02*
X41181428Y-34403407D01*
X41181428Y-34403407D02*
X41151190Y-34494121D01*
X41151190Y-34494121D02*
X40788333Y-34856979D01*
X40788333Y-34856979D02*
X41181428Y-34856979D01*
X41574523Y-34221979D02*
X41635000Y-34221979D01*
X41635000Y-34221979D02*
X41695476Y-34252217D01*
X41695476Y-34252217D02*
X41725714Y-34282455D01*
X41725714Y-34282455D02*
X41755952Y-34342931D01*
X41755952Y-34342931D02*
X41786190Y-34463883D01*
X41786190Y-34463883D02*
X41786190Y-34615074D01*
X41786190Y-34615074D02*
X41755952Y-34736026D01*
X41755952Y-34736026D02*
X41725714Y-34796502D01*
X41725714Y-34796502D02*
X41695476Y-34826741D01*
X41695476Y-34826741D02*
X41635000Y-34856979D01*
X41635000Y-34856979D02*
X41574523Y-34856979D01*
X41574523Y-34856979D02*
X41514047Y-34826741D01*
X41514047Y-34826741D02*
X41483809Y-34796502D01*
X41483809Y-34796502D02*
X41453571Y-34736026D01*
X41453571Y-34736026D02*
X41423333Y-34615074D01*
X41423333Y-34615074D02*
X41423333Y-34463883D01*
X41423333Y-34463883D02*
X41453571Y-34342931D01*
X41453571Y-34342931D02*
X41483809Y-34282455D01*
X41483809Y-34282455D02*
X41514047Y-34252217D01*
X41514047Y-34252217D02*
X41574523Y-34221979D01*
X42330476Y-34433645D02*
X42330476Y-34856979D01*
X42179285Y-34191741D02*
X42028095Y-34645312D01*
X42028095Y-34645312D02*
X42421190Y-34645312D01*
X42784047Y-34221979D02*
X42844524Y-34221979D01*
X42844524Y-34221979D02*
X42905000Y-34252217D01*
X42905000Y-34252217D02*
X42935238Y-34282455D01*
X42935238Y-34282455D02*
X42965476Y-34342931D01*
X42965476Y-34342931D02*
X42995714Y-34463883D01*
X42995714Y-34463883D02*
X42995714Y-34615074D01*
X42995714Y-34615074D02*
X42965476Y-34736026D01*
X42965476Y-34736026D02*
X42935238Y-34796502D01*
X42935238Y-34796502D02*
X42905000Y-34826741D01*
X42905000Y-34826741D02*
X42844524Y-34856979D01*
X42844524Y-34856979D02*
X42784047Y-34856979D01*
X42784047Y-34856979D02*
X42723571Y-34826741D01*
X42723571Y-34826741D02*
X42693333Y-34796502D01*
X42693333Y-34796502D02*
X42663095Y-34736026D01*
X42663095Y-34736026D02*
X42632857Y-34615074D01*
X42632857Y-34615074D02*
X42632857Y-34463883D01*
X42632857Y-34463883D02*
X42663095Y-34342931D01*
X42663095Y-34342931D02*
X42693333Y-34282455D01*
X42693333Y-34282455D02*
X42723571Y-34252217D01*
X42723571Y-34252217D02*
X42784047Y-34221979D01*
X43267857Y-34615074D02*
X43751667Y-34615074D01*
X44054047Y-34856979D02*
X44054047Y-34221979D01*
X44054047Y-34221979D02*
X44205237Y-34221979D01*
X44205237Y-34221979D02*
X44295952Y-34252217D01*
X44295952Y-34252217D02*
X44356428Y-34312693D01*
X44356428Y-34312693D02*
X44386666Y-34373169D01*
X44386666Y-34373169D02*
X44416904Y-34494121D01*
X44416904Y-34494121D02*
X44416904Y-34584836D01*
X44416904Y-34584836D02*
X44386666Y-34705788D01*
X44386666Y-34705788D02*
X44356428Y-34766264D01*
X44356428Y-34766264D02*
X44295952Y-34826741D01*
X44295952Y-34826741D02*
X44205237Y-34856979D01*
X44205237Y-34856979D02*
X44054047Y-34856979D01*
X44689047Y-34856979D02*
X44689047Y-34221979D01*
X44991428Y-34856979D02*
X44991428Y-34221979D01*
X44991428Y-34221979D02*
X45233333Y-34221979D01*
X45233333Y-34221979D02*
X45293809Y-34252217D01*
X45293809Y-34252217D02*
X45324047Y-34282455D01*
X45324047Y-34282455D02*
X45354285Y-34342931D01*
X45354285Y-34342931D02*
X45354285Y-34433645D01*
X45354285Y-34433645D02*
X45324047Y-34494121D01*
X45324047Y-34494121D02*
X45293809Y-34524360D01*
X45293809Y-34524360D02*
X45233333Y-34554598D01*
X45233333Y-34554598D02*
X44991428Y-34554598D01*
D10*
X58966667Y-94077201D02*
X59109524Y-94124820D01*
X59109524Y-94124820D02*
X59347619Y-94124820D01*
X59347619Y-94124820D02*
X59442857Y-94077201D01*
X59442857Y-94077201D02*
X59490476Y-94029581D01*
X59490476Y-94029581D02*
X59538095Y-93934343D01*
X59538095Y-93934343D02*
X59538095Y-93839105D01*
X59538095Y-93839105D02*
X59490476Y-93743867D01*
X59490476Y-93743867D02*
X59442857Y-93696248D01*
X59442857Y-93696248D02*
X59347619Y-93648629D01*
X59347619Y-93648629D02*
X59157143Y-93601010D01*
X59157143Y-93601010D02*
X59061905Y-93553391D01*
X59061905Y-93553391D02*
X59014286Y-93505772D01*
X59014286Y-93505772D02*
X58966667Y-93410534D01*
X58966667Y-93410534D02*
X58966667Y-93315296D01*
X58966667Y-93315296D02*
X59014286Y-93220058D01*
X59014286Y-93220058D02*
X59061905Y-93172439D01*
X59061905Y-93172439D02*
X59157143Y-93124820D01*
X59157143Y-93124820D02*
X59395238Y-93124820D01*
X59395238Y-93124820D02*
X59538095Y-93172439D01*
X59966667Y-94124820D02*
X59966667Y-93124820D01*
X60538095Y-94124820D02*
X60109524Y-93553391D01*
X60538095Y-93124820D02*
X59966667Y-93696248D01*
X61395238Y-93124820D02*
X61204762Y-93124820D01*
X61204762Y-93124820D02*
X61109524Y-93172439D01*
X61109524Y-93172439D02*
X61061905Y-93220058D01*
X61061905Y-93220058D02*
X60966667Y-93362915D01*
X60966667Y-93362915D02*
X60919048Y-93553391D01*
X60919048Y-93553391D02*
X60919048Y-93934343D01*
X60919048Y-93934343D02*
X60966667Y-94029581D01*
X60966667Y-94029581D02*
X61014286Y-94077201D01*
X61014286Y-94077201D02*
X61109524Y-94124820D01*
X61109524Y-94124820D02*
X61300000Y-94124820D01*
X61300000Y-94124820D02*
X61395238Y-94077201D01*
X61395238Y-94077201D02*
X61442857Y-94029581D01*
X61442857Y-94029581D02*
X61490476Y-93934343D01*
X61490476Y-93934343D02*
X61490476Y-93696248D01*
X61490476Y-93696248D02*
X61442857Y-93601010D01*
X61442857Y-93601010D02*
X61395238Y-93553391D01*
X61395238Y-93553391D02*
X61300000Y-93505772D01*
X61300000Y-93505772D02*
X61109524Y-93505772D01*
X61109524Y-93505772D02*
X61014286Y-93553391D01*
X61014286Y-93553391D02*
X60966667Y-93601010D01*
X60966667Y-93601010D02*
X60919048Y-93696248D01*
X62061905Y-93553391D02*
X61966667Y-93505772D01*
X61966667Y-93505772D02*
X61919048Y-93458153D01*
X61919048Y-93458153D02*
X61871429Y-93362915D01*
X61871429Y-93362915D02*
X61871429Y-93315296D01*
X61871429Y-93315296D02*
X61919048Y-93220058D01*
X61919048Y-93220058D02*
X61966667Y-93172439D01*
X61966667Y-93172439D02*
X62061905Y-93124820D01*
X62061905Y-93124820D02*
X62252381Y-93124820D01*
X62252381Y-93124820D02*
X62347619Y-93172439D01*
X62347619Y-93172439D02*
X62395238Y-93220058D01*
X62395238Y-93220058D02*
X62442857Y-93315296D01*
X62442857Y-93315296D02*
X62442857Y-93362915D01*
X62442857Y-93362915D02*
X62395238Y-93458153D01*
X62395238Y-93458153D02*
X62347619Y-93505772D01*
X62347619Y-93505772D02*
X62252381Y-93553391D01*
X62252381Y-93553391D02*
X62061905Y-93553391D01*
X62061905Y-93553391D02*
X61966667Y-93601010D01*
X61966667Y-93601010D02*
X61919048Y-93648629D01*
X61919048Y-93648629D02*
X61871429Y-93743867D01*
X61871429Y-93743867D02*
X61871429Y-93934343D01*
X61871429Y-93934343D02*
X61919048Y-94029581D01*
X61919048Y-94029581D02*
X61966667Y-94077201D01*
X61966667Y-94077201D02*
X62061905Y-94124820D01*
X62061905Y-94124820D02*
X62252381Y-94124820D01*
X62252381Y-94124820D02*
X62347619Y-94077201D01*
X62347619Y-94077201D02*
X62395238Y-94029581D01*
X62395238Y-94029581D02*
X62442857Y-93934343D01*
X62442857Y-93934343D02*
X62442857Y-93743867D01*
X62442857Y-93743867D02*
X62395238Y-93648629D01*
X62395238Y-93648629D02*
X62347619Y-93601010D01*
X62347619Y-93601010D02*
X62252381Y-93553391D01*
X63395238Y-94124820D02*
X62823810Y-94124820D01*
X63109524Y-94124820D02*
X63109524Y-93124820D01*
X63109524Y-93124820D02*
X63014286Y-93267677D01*
X63014286Y-93267677D02*
X62919048Y-93362915D01*
X62919048Y-93362915D02*
X62823810Y-93410534D01*
X63776191Y-93220058D02*
X63823810Y-93172439D01*
X63823810Y-93172439D02*
X63919048Y-93124820D01*
X63919048Y-93124820D02*
X64157143Y-93124820D01*
X64157143Y-93124820D02*
X64252381Y-93172439D01*
X64252381Y-93172439D02*
X64300000Y-93220058D01*
X64300000Y-93220058D02*
X64347619Y-93315296D01*
X64347619Y-93315296D02*
X64347619Y-93410534D01*
X64347619Y-93410534D02*
X64300000Y-93553391D01*
X64300000Y-93553391D02*
X63728572Y-94124820D01*
X63728572Y-94124820D02*
X64347619Y-94124820D01*
X64776191Y-94124820D02*
X64776191Y-93124820D01*
X64776191Y-93124820D02*
X65109524Y-93839105D01*
X65109524Y-93839105D02*
X65442857Y-93124820D01*
X65442857Y-93124820D02*
X65442857Y-94124820D01*
X65919048Y-94124820D02*
X65919048Y-93124820D01*
X66395238Y-94124820D02*
X66395238Y-93124820D01*
X66395238Y-93124820D02*
X66966666Y-94124820D01*
X66966666Y-94124820D02*
X66966666Y-93124820D01*
X67442857Y-94124820D02*
X67442857Y-93124820D01*
X67919047Y-93743867D02*
X68680952Y-93743867D01*
X69157142Y-93601010D02*
X69490475Y-93601010D01*
X69633332Y-94124820D02*
X69157142Y-94124820D01*
X69157142Y-94124820D02*
X69157142Y-93124820D01*
X69157142Y-93124820D02*
X69633332Y-93124820D01*
X109104761Y-74174819D02*
X108533333Y-74174819D01*
X108819047Y-74174819D02*
X108819047Y-73174819D01*
X108819047Y-73174819D02*
X108723809Y-73317676D01*
X108723809Y-73317676D02*
X108628571Y-73412914D01*
X108628571Y-73412914D02*
X108533333Y-73460533D01*
X109533333Y-74174819D02*
X109533333Y-73174819D01*
X109533333Y-73174819D02*
X110104761Y-74174819D01*
X110104761Y-74174819D02*
X110104761Y-73174819D01*
X111009523Y-73508152D02*
X111009523Y-74174819D01*
X110771428Y-73127200D02*
X110533333Y-73841485D01*
X110533333Y-73841485D02*
X111152380Y-73841485D01*
X112057142Y-74174819D02*
X111485714Y-74174819D01*
X111771428Y-74174819D02*
X111771428Y-73174819D01*
X111771428Y-73174819D02*
X111676190Y-73317676D01*
X111676190Y-73317676D02*
X111580952Y-73412914D01*
X111580952Y-73412914D02*
X111485714Y-73460533D01*
X112914285Y-73508152D02*
X112914285Y-74174819D01*
X112676190Y-73127200D02*
X112438095Y-73841485D01*
X112438095Y-73841485D02*
X113057142Y-73841485D01*
X113580952Y-73603390D02*
X113485714Y-73555771D01*
X113485714Y-73555771D02*
X113438095Y-73508152D01*
X113438095Y-73508152D02*
X113390476Y-73412914D01*
X113390476Y-73412914D02*
X113390476Y-73365295D01*
X113390476Y-73365295D02*
X113438095Y-73270057D01*
X113438095Y-73270057D02*
X113485714Y-73222438D01*
X113485714Y-73222438D02*
X113580952Y-73174819D01*
X113580952Y-73174819D02*
X113771428Y-73174819D01*
X113771428Y-73174819D02*
X113866666Y-73222438D01*
X113866666Y-73222438D02*
X113914285Y-73270057D01*
X113914285Y-73270057D02*
X113961904Y-73365295D01*
X113961904Y-73365295D02*
X113961904Y-73412914D01*
X113961904Y-73412914D02*
X113914285Y-73508152D01*
X113914285Y-73508152D02*
X113866666Y-73555771D01*
X113866666Y-73555771D02*
X113771428Y-73603390D01*
X113771428Y-73603390D02*
X113580952Y-73603390D01*
X113580952Y-73603390D02*
X113485714Y-73651009D01*
X113485714Y-73651009D02*
X113438095Y-73698628D01*
X113438095Y-73698628D02*
X113390476Y-73793866D01*
X113390476Y-73793866D02*
X113390476Y-73984342D01*
X113390476Y-73984342D02*
X113438095Y-74079580D01*
X113438095Y-74079580D02*
X113485714Y-74127200D01*
X113485714Y-74127200D02*
X113580952Y-74174819D01*
X113580952Y-74174819D02*
X113771428Y-74174819D01*
X113771428Y-74174819D02*
X113866666Y-74127200D01*
X113866666Y-74127200D02*
X113914285Y-74079580D01*
X113914285Y-74079580D02*
X113961904Y-73984342D01*
X113961904Y-73984342D02*
X113961904Y-73793866D01*
X113961904Y-73793866D02*
X113914285Y-73698628D01*
X113914285Y-73698628D02*
X113866666Y-73651009D01*
X113866666Y-73651009D02*
X113771428Y-73603390D01*
X114295238Y-73174819D02*
X114533333Y-74174819D01*
X114533333Y-74174819D02*
X114723809Y-73460533D01*
X114723809Y-73460533D02*
X114914285Y-74174819D01*
X114914285Y-74174819D02*
X115152381Y-73174819D01*
X115390476Y-73174819D02*
X115961904Y-73174819D01*
X115676190Y-74174819D02*
X115676190Y-73174819D01*
X108128095Y-70254819D02*
X108128095Y-69254819D01*
X108699523Y-70254819D02*
X108270952Y-69683390D01*
X108699523Y-69254819D02*
X108128095Y-69826247D01*
D11*
X111909524Y-71963855D02*
X111909524Y-71163855D01*
X111909524Y-71163855D02*
X112100000Y-71163855D01*
X112100000Y-71163855D02*
X112214286Y-71201950D01*
X112214286Y-71201950D02*
X112290476Y-71278140D01*
X112290476Y-71278140D02*
X112328571Y-71354331D01*
X112328571Y-71354331D02*
X112366667Y-71506712D01*
X112366667Y-71506712D02*
X112366667Y-71620998D01*
X112366667Y-71620998D02*
X112328571Y-71773379D01*
X112328571Y-71773379D02*
X112290476Y-71849569D01*
X112290476Y-71849569D02*
X112214286Y-71925760D01*
X112214286Y-71925760D02*
X112100000Y-71963855D01*
X112100000Y-71963855D02*
X111909524Y-71963855D01*
X112747619Y-71963855D02*
X112900000Y-71963855D01*
X112900000Y-71963855D02*
X112976190Y-71925760D01*
X112976190Y-71925760D02*
X113014286Y-71887664D01*
X113014286Y-71887664D02*
X113090476Y-71773379D01*
X113090476Y-71773379D02*
X113128571Y-71620998D01*
X113128571Y-71620998D02*
X113128571Y-71316236D01*
X113128571Y-71316236D02*
X113090476Y-71240045D01*
X113090476Y-71240045D02*
X113052381Y-71201950D01*
X113052381Y-71201950D02*
X112976190Y-71163855D01*
X112976190Y-71163855D02*
X112823809Y-71163855D01*
X112823809Y-71163855D02*
X112747619Y-71201950D01*
X112747619Y-71201950D02*
X112709524Y-71240045D01*
X112709524Y-71240045D02*
X112671428Y-71316236D01*
X112671428Y-71316236D02*
X112671428Y-71506712D01*
X112671428Y-71506712D02*
X112709524Y-71582902D01*
X112709524Y-71582902D02*
X112747619Y-71620998D01*
X112747619Y-71620998D02*
X112823809Y-71659093D01*
X112823809Y-71659093D02*
X112976190Y-71659093D01*
X112976190Y-71659093D02*
X113052381Y-71620998D01*
X113052381Y-71620998D02*
X113090476Y-71582902D01*
X113090476Y-71582902D02*
X113128571Y-71506712D01*
D10*
X75533631Y-117818700D02*
X75676488Y-117866319D01*
X75676488Y-117866319D02*
X75914583Y-117866319D01*
X75914583Y-117866319D02*
X76009821Y-117818700D01*
X76009821Y-117818700D02*
X76057440Y-117771080D01*
X76057440Y-117771080D02*
X76105059Y-117675842D01*
X76105059Y-117675842D02*
X76105059Y-117580604D01*
X76105059Y-117580604D02*
X76057440Y-117485366D01*
X76057440Y-117485366D02*
X76009821Y-117437747D01*
X76009821Y-117437747D02*
X75914583Y-117390128D01*
X75914583Y-117390128D02*
X75724107Y-117342509D01*
X75724107Y-117342509D02*
X75628869Y-117294890D01*
X75628869Y-117294890D02*
X75581250Y-117247271D01*
X75581250Y-117247271D02*
X75533631Y-117152033D01*
X75533631Y-117152033D02*
X75533631Y-117056795D01*
X75533631Y-117056795D02*
X75581250Y-116961557D01*
X75581250Y-116961557D02*
X75628869Y-116913938D01*
X75628869Y-116913938D02*
X75724107Y-116866319D01*
X75724107Y-116866319D02*
X75962202Y-116866319D01*
X75962202Y-116866319D02*
X76105059Y-116913938D01*
X76438393Y-116866319D02*
X76676488Y-117866319D01*
X76676488Y-117866319D02*
X76866964Y-117152033D01*
X76866964Y-117152033D02*
X77057440Y-117866319D01*
X77057440Y-117866319D02*
X77295536Y-116866319D01*
X77438393Y-117961557D02*
X78200297Y-117961557D01*
X78438393Y-117866319D02*
X78438393Y-116866319D01*
X78438393Y-116866319D02*
X78819345Y-116866319D01*
X78819345Y-116866319D02*
X78914583Y-116913938D01*
X78914583Y-116913938D02*
X78962202Y-116961557D01*
X78962202Y-116961557D02*
X79009821Y-117056795D01*
X79009821Y-117056795D02*
X79009821Y-117199652D01*
X79009821Y-117199652D02*
X78962202Y-117294890D01*
X78962202Y-117294890D02*
X78914583Y-117342509D01*
X78914583Y-117342509D02*
X78819345Y-117390128D01*
X78819345Y-117390128D02*
X78438393Y-117390128D01*
X79866964Y-117199652D02*
X79866964Y-117866319D01*
X79438393Y-117199652D02*
X79438393Y-117723461D01*
X79438393Y-117723461D02*
X79486012Y-117818700D01*
X79486012Y-117818700D02*
X79581250Y-117866319D01*
X79581250Y-117866319D02*
X79724107Y-117866319D01*
X79724107Y-117866319D02*
X79819345Y-117818700D01*
X79819345Y-117818700D02*
X79866964Y-117771080D01*
X80295536Y-117818700D02*
X80390774Y-117866319D01*
X80390774Y-117866319D02*
X80581250Y-117866319D01*
X80581250Y-117866319D02*
X80676488Y-117818700D01*
X80676488Y-117818700D02*
X80724107Y-117723461D01*
X80724107Y-117723461D02*
X80724107Y-117675842D01*
X80724107Y-117675842D02*
X80676488Y-117580604D01*
X80676488Y-117580604D02*
X80581250Y-117532985D01*
X80581250Y-117532985D02*
X80438393Y-117532985D01*
X80438393Y-117532985D02*
X80343155Y-117485366D01*
X80343155Y-117485366D02*
X80295536Y-117390128D01*
X80295536Y-117390128D02*
X80295536Y-117342509D01*
X80295536Y-117342509D02*
X80343155Y-117247271D01*
X80343155Y-117247271D02*
X80438393Y-117199652D01*
X80438393Y-117199652D02*
X80581250Y-117199652D01*
X80581250Y-117199652D02*
X80676488Y-117247271D01*
X81152679Y-117866319D02*
X81152679Y-116866319D01*
X81581250Y-117866319D02*
X81581250Y-117342509D01*
X81581250Y-117342509D02*
X81533631Y-117247271D01*
X81533631Y-117247271D02*
X81438393Y-117199652D01*
X81438393Y-117199652D02*
X81295536Y-117199652D01*
X81295536Y-117199652D02*
X81200298Y-117247271D01*
X81200298Y-117247271D02*
X81152679Y-117294890D01*
X77247917Y-102070700D02*
X77390774Y-102118319D01*
X77390774Y-102118319D02*
X77628869Y-102118319D01*
X77628869Y-102118319D02*
X77724107Y-102070700D01*
X77724107Y-102070700D02*
X77771726Y-102023080D01*
X77771726Y-102023080D02*
X77819345Y-101927842D01*
X77819345Y-101927842D02*
X77819345Y-101832604D01*
X77819345Y-101832604D02*
X77771726Y-101737366D01*
X77771726Y-101737366D02*
X77724107Y-101689747D01*
X77724107Y-101689747D02*
X77628869Y-101642128D01*
X77628869Y-101642128D02*
X77438393Y-101594509D01*
X77438393Y-101594509D02*
X77343155Y-101546890D01*
X77343155Y-101546890D02*
X77295536Y-101499271D01*
X77295536Y-101499271D02*
X77247917Y-101404033D01*
X77247917Y-101404033D02*
X77247917Y-101308795D01*
X77247917Y-101308795D02*
X77295536Y-101213557D01*
X77295536Y-101213557D02*
X77343155Y-101165938D01*
X77343155Y-101165938D02*
X77438393Y-101118319D01*
X77438393Y-101118319D02*
X77676488Y-101118319D01*
X77676488Y-101118319D02*
X77819345Y-101165938D01*
X78152679Y-101118319D02*
X78390774Y-102118319D01*
X78390774Y-102118319D02*
X78581250Y-101404033D01*
X78581250Y-101404033D02*
X78771726Y-102118319D01*
X78771726Y-102118319D02*
X79009822Y-101118319D01*
X79533631Y-101546890D02*
X79438393Y-101499271D01*
X79438393Y-101499271D02*
X79390774Y-101451652D01*
X79390774Y-101451652D02*
X79343155Y-101356414D01*
X79343155Y-101356414D02*
X79343155Y-101308795D01*
X79343155Y-101308795D02*
X79390774Y-101213557D01*
X79390774Y-101213557D02*
X79438393Y-101165938D01*
X79438393Y-101165938D02*
X79533631Y-101118319D01*
X79533631Y-101118319D02*
X79724107Y-101118319D01*
X79724107Y-101118319D02*
X79819345Y-101165938D01*
X79819345Y-101165938D02*
X79866964Y-101213557D01*
X79866964Y-101213557D02*
X79914583Y-101308795D01*
X79914583Y-101308795D02*
X79914583Y-101356414D01*
X79914583Y-101356414D02*
X79866964Y-101451652D01*
X79866964Y-101451652D02*
X79819345Y-101499271D01*
X79819345Y-101499271D02*
X79724107Y-101546890D01*
X79724107Y-101546890D02*
X79533631Y-101546890D01*
X79533631Y-101546890D02*
X79438393Y-101594509D01*
X79438393Y-101594509D02*
X79390774Y-101642128D01*
X79390774Y-101642128D02*
X79343155Y-101737366D01*
X79343155Y-101737366D02*
X79343155Y-101927842D01*
X79343155Y-101927842D02*
X79390774Y-102023080D01*
X79390774Y-102023080D02*
X79438393Y-102070700D01*
X79438393Y-102070700D02*
X79533631Y-102118319D01*
X79533631Y-102118319D02*
X79724107Y-102118319D01*
X79724107Y-102118319D02*
X79819345Y-102070700D01*
X79819345Y-102070700D02*
X79866964Y-102023080D01*
X79866964Y-102023080D02*
X79914583Y-101927842D01*
X79914583Y-101927842D02*
X79914583Y-101737366D01*
X79914583Y-101737366D02*
X79866964Y-101642128D01*
X79866964Y-101642128D02*
X79819345Y-101594509D01*
X79819345Y-101594509D02*
X79724107Y-101546890D01*
X35066667Y-117877201D02*
X35209524Y-117924820D01*
X35209524Y-117924820D02*
X35447619Y-117924820D01*
X35447619Y-117924820D02*
X35542857Y-117877201D01*
X35542857Y-117877201D02*
X35590476Y-117829581D01*
X35590476Y-117829581D02*
X35638095Y-117734343D01*
X35638095Y-117734343D02*
X35638095Y-117639105D01*
X35638095Y-117639105D02*
X35590476Y-117543867D01*
X35590476Y-117543867D02*
X35542857Y-117496248D01*
X35542857Y-117496248D02*
X35447619Y-117448629D01*
X35447619Y-117448629D02*
X35257143Y-117401010D01*
X35257143Y-117401010D02*
X35161905Y-117353391D01*
X35161905Y-117353391D02*
X35114286Y-117305772D01*
X35114286Y-117305772D02*
X35066667Y-117210534D01*
X35066667Y-117210534D02*
X35066667Y-117115296D01*
X35066667Y-117115296D02*
X35114286Y-117020058D01*
X35114286Y-117020058D02*
X35161905Y-116972439D01*
X35161905Y-116972439D02*
X35257143Y-116924820D01*
X35257143Y-116924820D02*
X35495238Y-116924820D01*
X35495238Y-116924820D02*
X35638095Y-116972439D01*
X36066667Y-117924820D02*
X36066667Y-116924820D01*
X36638095Y-117924820D02*
X36209524Y-117353391D01*
X36638095Y-116924820D02*
X36066667Y-117496248D01*
X37495238Y-116924820D02*
X37304762Y-116924820D01*
X37304762Y-116924820D02*
X37209524Y-116972439D01*
X37209524Y-116972439D02*
X37161905Y-117020058D01*
X37161905Y-117020058D02*
X37066667Y-117162915D01*
X37066667Y-117162915D02*
X37019048Y-117353391D01*
X37019048Y-117353391D02*
X37019048Y-117734343D01*
X37019048Y-117734343D02*
X37066667Y-117829581D01*
X37066667Y-117829581D02*
X37114286Y-117877201D01*
X37114286Y-117877201D02*
X37209524Y-117924820D01*
X37209524Y-117924820D02*
X37400000Y-117924820D01*
X37400000Y-117924820D02*
X37495238Y-117877201D01*
X37495238Y-117877201D02*
X37542857Y-117829581D01*
X37542857Y-117829581D02*
X37590476Y-117734343D01*
X37590476Y-117734343D02*
X37590476Y-117496248D01*
X37590476Y-117496248D02*
X37542857Y-117401010D01*
X37542857Y-117401010D02*
X37495238Y-117353391D01*
X37495238Y-117353391D02*
X37400000Y-117305772D01*
X37400000Y-117305772D02*
X37209524Y-117305772D01*
X37209524Y-117305772D02*
X37114286Y-117353391D01*
X37114286Y-117353391D02*
X37066667Y-117401010D01*
X37066667Y-117401010D02*
X37019048Y-117496248D01*
X38161905Y-117353391D02*
X38066667Y-117305772D01*
X38066667Y-117305772D02*
X38019048Y-117258153D01*
X38019048Y-117258153D02*
X37971429Y-117162915D01*
X37971429Y-117162915D02*
X37971429Y-117115296D01*
X37971429Y-117115296D02*
X38019048Y-117020058D01*
X38019048Y-117020058D02*
X38066667Y-116972439D01*
X38066667Y-116972439D02*
X38161905Y-116924820D01*
X38161905Y-116924820D02*
X38352381Y-116924820D01*
X38352381Y-116924820D02*
X38447619Y-116972439D01*
X38447619Y-116972439D02*
X38495238Y-117020058D01*
X38495238Y-117020058D02*
X38542857Y-117115296D01*
X38542857Y-117115296D02*
X38542857Y-117162915D01*
X38542857Y-117162915D02*
X38495238Y-117258153D01*
X38495238Y-117258153D02*
X38447619Y-117305772D01*
X38447619Y-117305772D02*
X38352381Y-117353391D01*
X38352381Y-117353391D02*
X38161905Y-117353391D01*
X38161905Y-117353391D02*
X38066667Y-117401010D01*
X38066667Y-117401010D02*
X38019048Y-117448629D01*
X38019048Y-117448629D02*
X37971429Y-117543867D01*
X37971429Y-117543867D02*
X37971429Y-117734343D01*
X37971429Y-117734343D02*
X38019048Y-117829581D01*
X38019048Y-117829581D02*
X38066667Y-117877201D01*
X38066667Y-117877201D02*
X38161905Y-117924820D01*
X38161905Y-117924820D02*
X38352381Y-117924820D01*
X38352381Y-117924820D02*
X38447619Y-117877201D01*
X38447619Y-117877201D02*
X38495238Y-117829581D01*
X38495238Y-117829581D02*
X38542857Y-117734343D01*
X38542857Y-117734343D02*
X38542857Y-117543867D01*
X38542857Y-117543867D02*
X38495238Y-117448629D01*
X38495238Y-117448629D02*
X38447619Y-117401010D01*
X38447619Y-117401010D02*
X38352381Y-117353391D01*
X39495238Y-117924820D02*
X38923810Y-117924820D01*
X39209524Y-117924820D02*
X39209524Y-116924820D01*
X39209524Y-116924820D02*
X39114286Y-117067677D01*
X39114286Y-117067677D02*
X39019048Y-117162915D01*
X39019048Y-117162915D02*
X38923810Y-117210534D01*
X39876191Y-117020058D02*
X39923810Y-116972439D01*
X39923810Y-116972439D02*
X40019048Y-116924820D01*
X40019048Y-116924820D02*
X40257143Y-116924820D01*
X40257143Y-116924820D02*
X40352381Y-116972439D01*
X40352381Y-116972439D02*
X40400000Y-117020058D01*
X40400000Y-117020058D02*
X40447619Y-117115296D01*
X40447619Y-117115296D02*
X40447619Y-117210534D01*
X40447619Y-117210534D02*
X40400000Y-117353391D01*
X40400000Y-117353391D02*
X39828572Y-117924820D01*
X39828572Y-117924820D02*
X40447619Y-117924820D01*
X40876191Y-117924820D02*
X40876191Y-116924820D01*
X40876191Y-116924820D02*
X41209524Y-117639105D01*
X41209524Y-117639105D02*
X41542857Y-116924820D01*
X41542857Y-116924820D02*
X41542857Y-117924820D01*
X42019048Y-117924820D02*
X42019048Y-116924820D01*
X42495238Y-117924820D02*
X42495238Y-116924820D01*
X42495238Y-116924820D02*
X43066666Y-117924820D01*
X43066666Y-117924820D02*
X43066666Y-116924820D01*
X43542857Y-117924820D02*
X43542857Y-116924820D01*
X44019047Y-117543867D02*
X44780952Y-117543867D01*
X45257142Y-117401010D02*
X45590475Y-117401010D01*
X45733332Y-117924820D02*
X45257142Y-117924820D01*
X45257142Y-117924820D02*
X45257142Y-116924820D01*
X45257142Y-116924820D02*
X45733332Y-116924820D01*
X108871131Y-69731200D02*
X109013988Y-69778819D01*
X109013988Y-69778819D02*
X109252083Y-69778819D01*
X109252083Y-69778819D02*
X109347321Y-69731200D01*
X109347321Y-69731200D02*
X109394940Y-69683580D01*
X109394940Y-69683580D02*
X109442559Y-69588342D01*
X109442559Y-69588342D02*
X109442559Y-69493104D01*
X109442559Y-69493104D02*
X109394940Y-69397866D01*
X109394940Y-69397866D02*
X109347321Y-69350247D01*
X109347321Y-69350247D02*
X109252083Y-69302628D01*
X109252083Y-69302628D02*
X109061607Y-69255009D01*
X109061607Y-69255009D02*
X108966369Y-69207390D01*
X108966369Y-69207390D02*
X108918750Y-69159771D01*
X108918750Y-69159771D02*
X108871131Y-69064533D01*
X108871131Y-69064533D02*
X108871131Y-68969295D01*
X108871131Y-68969295D02*
X108918750Y-68874057D01*
X108918750Y-68874057D02*
X108966369Y-68826438D01*
X108966369Y-68826438D02*
X109061607Y-68778819D01*
X109061607Y-68778819D02*
X109299702Y-68778819D01*
X109299702Y-68778819D02*
X109442559Y-68826438D01*
X109775893Y-68778819D02*
X110013988Y-69778819D01*
X110013988Y-69778819D02*
X110204464Y-69064533D01*
X110204464Y-69064533D02*
X110394940Y-69778819D01*
X110394940Y-69778819D02*
X110633036Y-68778819D01*
X110775893Y-69874057D02*
X111537797Y-69874057D01*
X111775893Y-69778819D02*
X111775893Y-68778819D01*
X111775893Y-68778819D02*
X112156845Y-68778819D01*
X112156845Y-68778819D02*
X112252083Y-68826438D01*
X112252083Y-68826438D02*
X112299702Y-68874057D01*
X112299702Y-68874057D02*
X112347321Y-68969295D01*
X112347321Y-68969295D02*
X112347321Y-69112152D01*
X112347321Y-69112152D02*
X112299702Y-69207390D01*
X112299702Y-69207390D02*
X112252083Y-69255009D01*
X112252083Y-69255009D02*
X112156845Y-69302628D01*
X112156845Y-69302628D02*
X111775893Y-69302628D01*
X113204464Y-69112152D02*
X113204464Y-69778819D01*
X112775893Y-69112152D02*
X112775893Y-69635961D01*
X112775893Y-69635961D02*
X112823512Y-69731200D01*
X112823512Y-69731200D02*
X112918750Y-69778819D01*
X112918750Y-69778819D02*
X113061607Y-69778819D01*
X113061607Y-69778819D02*
X113156845Y-69731200D01*
X113156845Y-69731200D02*
X113204464Y-69683580D01*
X113633036Y-69731200D02*
X113728274Y-69778819D01*
X113728274Y-69778819D02*
X113918750Y-69778819D01*
X113918750Y-69778819D02*
X114013988Y-69731200D01*
X114013988Y-69731200D02*
X114061607Y-69635961D01*
X114061607Y-69635961D02*
X114061607Y-69588342D01*
X114061607Y-69588342D02*
X114013988Y-69493104D01*
X114013988Y-69493104D02*
X113918750Y-69445485D01*
X113918750Y-69445485D02*
X113775893Y-69445485D01*
X113775893Y-69445485D02*
X113680655Y-69397866D01*
X113680655Y-69397866D02*
X113633036Y-69302628D01*
X113633036Y-69302628D02*
X113633036Y-69255009D01*
X113633036Y-69255009D02*
X113680655Y-69159771D01*
X113680655Y-69159771D02*
X113775893Y-69112152D01*
X113775893Y-69112152D02*
X113918750Y-69112152D01*
X113918750Y-69112152D02*
X114013988Y-69159771D01*
X114490179Y-69778819D02*
X114490179Y-68778819D01*
X114918750Y-69778819D02*
X114918750Y-69255009D01*
X114918750Y-69255009D02*
X114871131Y-69159771D01*
X114871131Y-69159771D02*
X114775893Y-69112152D01*
X114775893Y-69112152D02*
X114633036Y-69112152D01*
X114633036Y-69112152D02*
X114537798Y-69159771D01*
X114537798Y-69159771D02*
X114490179Y-69207390D01*
X110585417Y-53983200D02*
X110728274Y-54030819D01*
X110728274Y-54030819D02*
X110966369Y-54030819D01*
X110966369Y-54030819D02*
X111061607Y-53983200D01*
X111061607Y-53983200D02*
X111109226Y-53935580D01*
X111109226Y-53935580D02*
X111156845Y-53840342D01*
X111156845Y-53840342D02*
X111156845Y-53745104D01*
X111156845Y-53745104D02*
X111109226Y-53649866D01*
X111109226Y-53649866D02*
X111061607Y-53602247D01*
X111061607Y-53602247D02*
X110966369Y-53554628D01*
X110966369Y-53554628D02*
X110775893Y-53507009D01*
X110775893Y-53507009D02*
X110680655Y-53459390D01*
X110680655Y-53459390D02*
X110633036Y-53411771D01*
X110633036Y-53411771D02*
X110585417Y-53316533D01*
X110585417Y-53316533D02*
X110585417Y-53221295D01*
X110585417Y-53221295D02*
X110633036Y-53126057D01*
X110633036Y-53126057D02*
X110680655Y-53078438D01*
X110680655Y-53078438D02*
X110775893Y-53030819D01*
X110775893Y-53030819D02*
X111013988Y-53030819D01*
X111013988Y-53030819D02*
X111156845Y-53078438D01*
X111490179Y-53030819D02*
X111728274Y-54030819D01*
X111728274Y-54030819D02*
X111918750Y-53316533D01*
X111918750Y-53316533D02*
X112109226Y-54030819D01*
X112109226Y-54030819D02*
X112347322Y-53030819D01*
X112633036Y-53030819D02*
X113252083Y-53030819D01*
X113252083Y-53030819D02*
X112918750Y-53411771D01*
X112918750Y-53411771D02*
X113061607Y-53411771D01*
X113061607Y-53411771D02*
X113156845Y-53459390D01*
X113156845Y-53459390D02*
X113204464Y-53507009D01*
X113204464Y-53507009D02*
X113252083Y-53602247D01*
X113252083Y-53602247D02*
X113252083Y-53840342D01*
X113252083Y-53840342D02*
X113204464Y-53935580D01*
X113204464Y-53935580D02*
X113156845Y-53983200D01*
X113156845Y-53983200D02*
X113061607Y-54030819D01*
X113061607Y-54030819D02*
X112775893Y-54030819D01*
X112775893Y-54030819D02*
X112680655Y-53983200D01*
X112680655Y-53983200D02*
X112633036Y-53935580D01*
X82666667Y-69777201D02*
X82809524Y-69824820D01*
X82809524Y-69824820D02*
X83047619Y-69824820D01*
X83047619Y-69824820D02*
X83142857Y-69777201D01*
X83142857Y-69777201D02*
X83190476Y-69729581D01*
X83190476Y-69729581D02*
X83238095Y-69634343D01*
X83238095Y-69634343D02*
X83238095Y-69539105D01*
X83238095Y-69539105D02*
X83190476Y-69443867D01*
X83190476Y-69443867D02*
X83142857Y-69396248D01*
X83142857Y-69396248D02*
X83047619Y-69348629D01*
X83047619Y-69348629D02*
X82857143Y-69301010D01*
X82857143Y-69301010D02*
X82761905Y-69253391D01*
X82761905Y-69253391D02*
X82714286Y-69205772D01*
X82714286Y-69205772D02*
X82666667Y-69110534D01*
X82666667Y-69110534D02*
X82666667Y-69015296D01*
X82666667Y-69015296D02*
X82714286Y-68920058D01*
X82714286Y-68920058D02*
X82761905Y-68872439D01*
X82761905Y-68872439D02*
X82857143Y-68824820D01*
X82857143Y-68824820D02*
X83095238Y-68824820D01*
X83095238Y-68824820D02*
X83238095Y-68872439D01*
X83666667Y-69824820D02*
X83666667Y-68824820D01*
X84238095Y-69824820D02*
X83809524Y-69253391D01*
X84238095Y-68824820D02*
X83666667Y-69396248D01*
X85095238Y-68824820D02*
X84904762Y-68824820D01*
X84904762Y-68824820D02*
X84809524Y-68872439D01*
X84809524Y-68872439D02*
X84761905Y-68920058D01*
X84761905Y-68920058D02*
X84666667Y-69062915D01*
X84666667Y-69062915D02*
X84619048Y-69253391D01*
X84619048Y-69253391D02*
X84619048Y-69634343D01*
X84619048Y-69634343D02*
X84666667Y-69729581D01*
X84666667Y-69729581D02*
X84714286Y-69777201D01*
X84714286Y-69777201D02*
X84809524Y-69824820D01*
X84809524Y-69824820D02*
X85000000Y-69824820D01*
X85000000Y-69824820D02*
X85095238Y-69777201D01*
X85095238Y-69777201D02*
X85142857Y-69729581D01*
X85142857Y-69729581D02*
X85190476Y-69634343D01*
X85190476Y-69634343D02*
X85190476Y-69396248D01*
X85190476Y-69396248D02*
X85142857Y-69301010D01*
X85142857Y-69301010D02*
X85095238Y-69253391D01*
X85095238Y-69253391D02*
X85000000Y-69205772D01*
X85000000Y-69205772D02*
X84809524Y-69205772D01*
X84809524Y-69205772D02*
X84714286Y-69253391D01*
X84714286Y-69253391D02*
X84666667Y-69301010D01*
X84666667Y-69301010D02*
X84619048Y-69396248D01*
X85761905Y-69253391D02*
X85666667Y-69205772D01*
X85666667Y-69205772D02*
X85619048Y-69158153D01*
X85619048Y-69158153D02*
X85571429Y-69062915D01*
X85571429Y-69062915D02*
X85571429Y-69015296D01*
X85571429Y-69015296D02*
X85619048Y-68920058D01*
X85619048Y-68920058D02*
X85666667Y-68872439D01*
X85666667Y-68872439D02*
X85761905Y-68824820D01*
X85761905Y-68824820D02*
X85952381Y-68824820D01*
X85952381Y-68824820D02*
X86047619Y-68872439D01*
X86047619Y-68872439D02*
X86095238Y-68920058D01*
X86095238Y-68920058D02*
X86142857Y-69015296D01*
X86142857Y-69015296D02*
X86142857Y-69062915D01*
X86142857Y-69062915D02*
X86095238Y-69158153D01*
X86095238Y-69158153D02*
X86047619Y-69205772D01*
X86047619Y-69205772D02*
X85952381Y-69253391D01*
X85952381Y-69253391D02*
X85761905Y-69253391D01*
X85761905Y-69253391D02*
X85666667Y-69301010D01*
X85666667Y-69301010D02*
X85619048Y-69348629D01*
X85619048Y-69348629D02*
X85571429Y-69443867D01*
X85571429Y-69443867D02*
X85571429Y-69634343D01*
X85571429Y-69634343D02*
X85619048Y-69729581D01*
X85619048Y-69729581D02*
X85666667Y-69777201D01*
X85666667Y-69777201D02*
X85761905Y-69824820D01*
X85761905Y-69824820D02*
X85952381Y-69824820D01*
X85952381Y-69824820D02*
X86047619Y-69777201D01*
X86047619Y-69777201D02*
X86095238Y-69729581D01*
X86095238Y-69729581D02*
X86142857Y-69634343D01*
X86142857Y-69634343D02*
X86142857Y-69443867D01*
X86142857Y-69443867D02*
X86095238Y-69348629D01*
X86095238Y-69348629D02*
X86047619Y-69301010D01*
X86047619Y-69301010D02*
X85952381Y-69253391D01*
X87095238Y-69824820D02*
X86523810Y-69824820D01*
X86809524Y-69824820D02*
X86809524Y-68824820D01*
X86809524Y-68824820D02*
X86714286Y-68967677D01*
X86714286Y-68967677D02*
X86619048Y-69062915D01*
X86619048Y-69062915D02*
X86523810Y-69110534D01*
X87476191Y-68920058D02*
X87523810Y-68872439D01*
X87523810Y-68872439D02*
X87619048Y-68824820D01*
X87619048Y-68824820D02*
X87857143Y-68824820D01*
X87857143Y-68824820D02*
X87952381Y-68872439D01*
X87952381Y-68872439D02*
X88000000Y-68920058D01*
X88000000Y-68920058D02*
X88047619Y-69015296D01*
X88047619Y-69015296D02*
X88047619Y-69110534D01*
X88047619Y-69110534D02*
X88000000Y-69253391D01*
X88000000Y-69253391D02*
X87428572Y-69824820D01*
X87428572Y-69824820D02*
X88047619Y-69824820D01*
X88476191Y-69824820D02*
X88476191Y-68824820D01*
X88476191Y-68824820D02*
X88809524Y-69539105D01*
X88809524Y-69539105D02*
X89142857Y-68824820D01*
X89142857Y-68824820D02*
X89142857Y-69824820D01*
X89619048Y-69824820D02*
X89619048Y-68824820D01*
X90095238Y-69824820D02*
X90095238Y-68824820D01*
X90095238Y-68824820D02*
X90666666Y-69824820D01*
X90666666Y-69824820D02*
X90666666Y-68824820D01*
X91142857Y-69824820D02*
X91142857Y-68824820D01*
X91619047Y-69443867D02*
X92380952Y-69443867D01*
X92857142Y-69301010D02*
X93190475Y-69301010D01*
X93333332Y-69824820D02*
X92857142Y-69824820D01*
X92857142Y-69824820D02*
X92857142Y-68824820D01*
X92857142Y-68824820D02*
X93333332Y-68824820D01*
X75404761Y-122274819D02*
X74833333Y-122274819D01*
X75119047Y-122274819D02*
X75119047Y-121274819D01*
X75119047Y-121274819D02*
X75023809Y-121417676D01*
X75023809Y-121417676D02*
X74928571Y-121512914D01*
X74928571Y-121512914D02*
X74833333Y-121560533D01*
X75833333Y-122274819D02*
X75833333Y-121274819D01*
X75833333Y-121274819D02*
X76404761Y-122274819D01*
X76404761Y-122274819D02*
X76404761Y-121274819D01*
X77309523Y-121608152D02*
X77309523Y-122274819D01*
X77071428Y-121227200D02*
X76833333Y-121941485D01*
X76833333Y-121941485D02*
X77452380Y-121941485D01*
X78357142Y-122274819D02*
X77785714Y-122274819D01*
X78071428Y-122274819D02*
X78071428Y-121274819D01*
X78071428Y-121274819D02*
X77976190Y-121417676D01*
X77976190Y-121417676D02*
X77880952Y-121512914D01*
X77880952Y-121512914D02*
X77785714Y-121560533D01*
X79214285Y-121608152D02*
X79214285Y-122274819D01*
X78976190Y-121227200D02*
X78738095Y-121941485D01*
X78738095Y-121941485D02*
X79357142Y-121941485D01*
X79880952Y-121703390D02*
X79785714Y-121655771D01*
X79785714Y-121655771D02*
X79738095Y-121608152D01*
X79738095Y-121608152D02*
X79690476Y-121512914D01*
X79690476Y-121512914D02*
X79690476Y-121465295D01*
X79690476Y-121465295D02*
X79738095Y-121370057D01*
X79738095Y-121370057D02*
X79785714Y-121322438D01*
X79785714Y-121322438D02*
X79880952Y-121274819D01*
X79880952Y-121274819D02*
X80071428Y-121274819D01*
X80071428Y-121274819D02*
X80166666Y-121322438D01*
X80166666Y-121322438D02*
X80214285Y-121370057D01*
X80214285Y-121370057D02*
X80261904Y-121465295D01*
X80261904Y-121465295D02*
X80261904Y-121512914D01*
X80261904Y-121512914D02*
X80214285Y-121608152D01*
X80214285Y-121608152D02*
X80166666Y-121655771D01*
X80166666Y-121655771D02*
X80071428Y-121703390D01*
X80071428Y-121703390D02*
X79880952Y-121703390D01*
X79880952Y-121703390D02*
X79785714Y-121751009D01*
X79785714Y-121751009D02*
X79738095Y-121798628D01*
X79738095Y-121798628D02*
X79690476Y-121893866D01*
X79690476Y-121893866D02*
X79690476Y-122084342D01*
X79690476Y-122084342D02*
X79738095Y-122179580D01*
X79738095Y-122179580D02*
X79785714Y-122227200D01*
X79785714Y-122227200D02*
X79880952Y-122274819D01*
X79880952Y-122274819D02*
X80071428Y-122274819D01*
X80071428Y-122274819D02*
X80166666Y-122227200D01*
X80166666Y-122227200D02*
X80214285Y-122179580D01*
X80214285Y-122179580D02*
X80261904Y-122084342D01*
X80261904Y-122084342D02*
X80261904Y-121893866D01*
X80261904Y-121893866D02*
X80214285Y-121798628D01*
X80214285Y-121798628D02*
X80166666Y-121751009D01*
X80166666Y-121751009D02*
X80071428Y-121703390D01*
X80595238Y-121274819D02*
X80833333Y-122274819D01*
X80833333Y-122274819D02*
X81023809Y-121560533D01*
X81023809Y-121560533D02*
X81214285Y-122274819D01*
X81214285Y-122274819D02*
X81452381Y-121274819D01*
X81690476Y-121274819D02*
X82261904Y-121274819D01*
X81976190Y-122274819D02*
X81976190Y-121274819D01*
X74428095Y-118354819D02*
X74428095Y-117354819D01*
X74999523Y-118354819D02*
X74570952Y-117783390D01*
X74999523Y-117354819D02*
X74428095Y-117926247D01*
D11*
X77828571Y-120063855D02*
X77828571Y-119263855D01*
X77828571Y-119263855D02*
X78019047Y-119263855D01*
X78019047Y-119263855D02*
X78133333Y-119301950D01*
X78133333Y-119301950D02*
X78209523Y-119378140D01*
X78209523Y-119378140D02*
X78247618Y-119454331D01*
X78247618Y-119454331D02*
X78285714Y-119606712D01*
X78285714Y-119606712D02*
X78285714Y-119720998D01*
X78285714Y-119720998D02*
X78247618Y-119873379D01*
X78247618Y-119873379D02*
X78209523Y-119949569D01*
X78209523Y-119949569D02*
X78133333Y-120025760D01*
X78133333Y-120025760D02*
X78019047Y-120063855D01*
X78019047Y-120063855D02*
X77828571Y-120063855D01*
X79047618Y-120063855D02*
X78590475Y-120063855D01*
X78819047Y-120063855D02*
X78819047Y-119263855D01*
X78819047Y-119263855D02*
X78742856Y-119378140D01*
X78742856Y-119378140D02*
X78666666Y-119454331D01*
X78666666Y-119454331D02*
X78590475Y-119492426D01*
X79733333Y-119530521D02*
X79733333Y-120063855D01*
X79542857Y-119225760D02*
X79352380Y-119797188D01*
X79352380Y-119797188D02*
X79847619Y-119797188D01*
D10*
X82666667Y-94077201D02*
X82809524Y-94124820D01*
X82809524Y-94124820D02*
X83047619Y-94124820D01*
X83047619Y-94124820D02*
X83142857Y-94077201D01*
X83142857Y-94077201D02*
X83190476Y-94029581D01*
X83190476Y-94029581D02*
X83238095Y-93934343D01*
X83238095Y-93934343D02*
X83238095Y-93839105D01*
X83238095Y-93839105D02*
X83190476Y-93743867D01*
X83190476Y-93743867D02*
X83142857Y-93696248D01*
X83142857Y-93696248D02*
X83047619Y-93648629D01*
X83047619Y-93648629D02*
X82857143Y-93601010D01*
X82857143Y-93601010D02*
X82761905Y-93553391D01*
X82761905Y-93553391D02*
X82714286Y-93505772D01*
X82714286Y-93505772D02*
X82666667Y-93410534D01*
X82666667Y-93410534D02*
X82666667Y-93315296D01*
X82666667Y-93315296D02*
X82714286Y-93220058D01*
X82714286Y-93220058D02*
X82761905Y-93172439D01*
X82761905Y-93172439D02*
X82857143Y-93124820D01*
X82857143Y-93124820D02*
X83095238Y-93124820D01*
X83095238Y-93124820D02*
X83238095Y-93172439D01*
X83666667Y-94124820D02*
X83666667Y-93124820D01*
X84238095Y-94124820D02*
X83809524Y-93553391D01*
X84238095Y-93124820D02*
X83666667Y-93696248D01*
X85095238Y-93124820D02*
X84904762Y-93124820D01*
X84904762Y-93124820D02*
X84809524Y-93172439D01*
X84809524Y-93172439D02*
X84761905Y-93220058D01*
X84761905Y-93220058D02*
X84666667Y-93362915D01*
X84666667Y-93362915D02*
X84619048Y-93553391D01*
X84619048Y-93553391D02*
X84619048Y-93934343D01*
X84619048Y-93934343D02*
X84666667Y-94029581D01*
X84666667Y-94029581D02*
X84714286Y-94077201D01*
X84714286Y-94077201D02*
X84809524Y-94124820D01*
X84809524Y-94124820D02*
X85000000Y-94124820D01*
X85000000Y-94124820D02*
X85095238Y-94077201D01*
X85095238Y-94077201D02*
X85142857Y-94029581D01*
X85142857Y-94029581D02*
X85190476Y-93934343D01*
X85190476Y-93934343D02*
X85190476Y-93696248D01*
X85190476Y-93696248D02*
X85142857Y-93601010D01*
X85142857Y-93601010D02*
X85095238Y-93553391D01*
X85095238Y-93553391D02*
X85000000Y-93505772D01*
X85000000Y-93505772D02*
X84809524Y-93505772D01*
X84809524Y-93505772D02*
X84714286Y-93553391D01*
X84714286Y-93553391D02*
X84666667Y-93601010D01*
X84666667Y-93601010D02*
X84619048Y-93696248D01*
X85761905Y-93553391D02*
X85666667Y-93505772D01*
X85666667Y-93505772D02*
X85619048Y-93458153D01*
X85619048Y-93458153D02*
X85571429Y-93362915D01*
X85571429Y-93362915D02*
X85571429Y-93315296D01*
X85571429Y-93315296D02*
X85619048Y-93220058D01*
X85619048Y-93220058D02*
X85666667Y-93172439D01*
X85666667Y-93172439D02*
X85761905Y-93124820D01*
X85761905Y-93124820D02*
X85952381Y-93124820D01*
X85952381Y-93124820D02*
X86047619Y-93172439D01*
X86047619Y-93172439D02*
X86095238Y-93220058D01*
X86095238Y-93220058D02*
X86142857Y-93315296D01*
X86142857Y-93315296D02*
X86142857Y-93362915D01*
X86142857Y-93362915D02*
X86095238Y-93458153D01*
X86095238Y-93458153D02*
X86047619Y-93505772D01*
X86047619Y-93505772D02*
X85952381Y-93553391D01*
X85952381Y-93553391D02*
X85761905Y-93553391D01*
X85761905Y-93553391D02*
X85666667Y-93601010D01*
X85666667Y-93601010D02*
X85619048Y-93648629D01*
X85619048Y-93648629D02*
X85571429Y-93743867D01*
X85571429Y-93743867D02*
X85571429Y-93934343D01*
X85571429Y-93934343D02*
X85619048Y-94029581D01*
X85619048Y-94029581D02*
X85666667Y-94077201D01*
X85666667Y-94077201D02*
X85761905Y-94124820D01*
X85761905Y-94124820D02*
X85952381Y-94124820D01*
X85952381Y-94124820D02*
X86047619Y-94077201D01*
X86047619Y-94077201D02*
X86095238Y-94029581D01*
X86095238Y-94029581D02*
X86142857Y-93934343D01*
X86142857Y-93934343D02*
X86142857Y-93743867D01*
X86142857Y-93743867D02*
X86095238Y-93648629D01*
X86095238Y-93648629D02*
X86047619Y-93601010D01*
X86047619Y-93601010D02*
X85952381Y-93553391D01*
X87095238Y-94124820D02*
X86523810Y-94124820D01*
X86809524Y-94124820D02*
X86809524Y-93124820D01*
X86809524Y-93124820D02*
X86714286Y-93267677D01*
X86714286Y-93267677D02*
X86619048Y-93362915D01*
X86619048Y-93362915D02*
X86523810Y-93410534D01*
X87476191Y-93220058D02*
X87523810Y-93172439D01*
X87523810Y-93172439D02*
X87619048Y-93124820D01*
X87619048Y-93124820D02*
X87857143Y-93124820D01*
X87857143Y-93124820D02*
X87952381Y-93172439D01*
X87952381Y-93172439D02*
X88000000Y-93220058D01*
X88000000Y-93220058D02*
X88047619Y-93315296D01*
X88047619Y-93315296D02*
X88047619Y-93410534D01*
X88047619Y-93410534D02*
X88000000Y-93553391D01*
X88000000Y-93553391D02*
X87428572Y-94124820D01*
X87428572Y-94124820D02*
X88047619Y-94124820D01*
X88476191Y-94124820D02*
X88476191Y-93124820D01*
X88476191Y-93124820D02*
X88809524Y-93839105D01*
X88809524Y-93839105D02*
X89142857Y-93124820D01*
X89142857Y-93124820D02*
X89142857Y-94124820D01*
X89619048Y-94124820D02*
X89619048Y-93124820D01*
X90095238Y-94124820D02*
X90095238Y-93124820D01*
X90095238Y-93124820D02*
X90666666Y-94124820D01*
X90666666Y-94124820D02*
X90666666Y-93124820D01*
X91142857Y-94124820D02*
X91142857Y-93124820D01*
X91619047Y-93743867D02*
X92380952Y-93743867D01*
X92857142Y-93601010D02*
X93190475Y-93601010D01*
X93333332Y-94124820D02*
X92857142Y-94124820D01*
X92857142Y-94124820D02*
X92857142Y-93124820D01*
X92857142Y-93124820D02*
X93333332Y-93124820D01*
X85004761Y-74274819D02*
X84433333Y-74274819D01*
X84719047Y-74274819D02*
X84719047Y-73274819D01*
X84719047Y-73274819D02*
X84623809Y-73417676D01*
X84623809Y-73417676D02*
X84528571Y-73512914D01*
X84528571Y-73512914D02*
X84433333Y-73560533D01*
X85433333Y-74274819D02*
X85433333Y-73274819D01*
X85433333Y-73274819D02*
X86004761Y-74274819D01*
X86004761Y-74274819D02*
X86004761Y-73274819D01*
X86909523Y-73608152D02*
X86909523Y-74274819D01*
X86671428Y-73227200D02*
X86433333Y-73941485D01*
X86433333Y-73941485D02*
X87052380Y-73941485D01*
X87957142Y-74274819D02*
X87385714Y-74274819D01*
X87671428Y-74274819D02*
X87671428Y-73274819D01*
X87671428Y-73274819D02*
X87576190Y-73417676D01*
X87576190Y-73417676D02*
X87480952Y-73512914D01*
X87480952Y-73512914D02*
X87385714Y-73560533D01*
X88814285Y-73608152D02*
X88814285Y-74274819D01*
X88576190Y-73227200D02*
X88338095Y-73941485D01*
X88338095Y-73941485D02*
X88957142Y-73941485D01*
X89480952Y-73703390D02*
X89385714Y-73655771D01*
X89385714Y-73655771D02*
X89338095Y-73608152D01*
X89338095Y-73608152D02*
X89290476Y-73512914D01*
X89290476Y-73512914D02*
X89290476Y-73465295D01*
X89290476Y-73465295D02*
X89338095Y-73370057D01*
X89338095Y-73370057D02*
X89385714Y-73322438D01*
X89385714Y-73322438D02*
X89480952Y-73274819D01*
X89480952Y-73274819D02*
X89671428Y-73274819D01*
X89671428Y-73274819D02*
X89766666Y-73322438D01*
X89766666Y-73322438D02*
X89814285Y-73370057D01*
X89814285Y-73370057D02*
X89861904Y-73465295D01*
X89861904Y-73465295D02*
X89861904Y-73512914D01*
X89861904Y-73512914D02*
X89814285Y-73608152D01*
X89814285Y-73608152D02*
X89766666Y-73655771D01*
X89766666Y-73655771D02*
X89671428Y-73703390D01*
X89671428Y-73703390D02*
X89480952Y-73703390D01*
X89480952Y-73703390D02*
X89385714Y-73751009D01*
X89385714Y-73751009D02*
X89338095Y-73798628D01*
X89338095Y-73798628D02*
X89290476Y-73893866D01*
X89290476Y-73893866D02*
X89290476Y-74084342D01*
X89290476Y-74084342D02*
X89338095Y-74179580D01*
X89338095Y-74179580D02*
X89385714Y-74227200D01*
X89385714Y-74227200D02*
X89480952Y-74274819D01*
X89480952Y-74274819D02*
X89671428Y-74274819D01*
X89671428Y-74274819D02*
X89766666Y-74227200D01*
X89766666Y-74227200D02*
X89814285Y-74179580D01*
X89814285Y-74179580D02*
X89861904Y-74084342D01*
X89861904Y-74084342D02*
X89861904Y-73893866D01*
X89861904Y-73893866D02*
X89814285Y-73798628D01*
X89814285Y-73798628D02*
X89766666Y-73751009D01*
X89766666Y-73751009D02*
X89671428Y-73703390D01*
X90195238Y-73274819D02*
X90433333Y-74274819D01*
X90433333Y-74274819D02*
X90623809Y-73560533D01*
X90623809Y-73560533D02*
X90814285Y-74274819D01*
X90814285Y-74274819D02*
X91052381Y-73274819D01*
X91290476Y-73274819D02*
X91861904Y-73274819D01*
X91576190Y-74274819D02*
X91576190Y-73274819D01*
X84028095Y-70354819D02*
X84028095Y-69354819D01*
X84599523Y-70354819D02*
X84170952Y-69783390D01*
X84599523Y-69354819D02*
X84028095Y-69926247D01*
D11*
X87809524Y-72063855D02*
X87809524Y-71263855D01*
X87809524Y-71263855D02*
X88000000Y-71263855D01*
X88000000Y-71263855D02*
X88114286Y-71301950D01*
X88114286Y-71301950D02*
X88190476Y-71378140D01*
X88190476Y-71378140D02*
X88228571Y-71454331D01*
X88228571Y-71454331D02*
X88266667Y-71606712D01*
X88266667Y-71606712D02*
X88266667Y-71720998D01*
X88266667Y-71720998D02*
X88228571Y-71873379D01*
X88228571Y-71873379D02*
X88190476Y-71949569D01*
X88190476Y-71949569D02*
X88114286Y-72025760D01*
X88114286Y-72025760D02*
X88000000Y-72063855D01*
X88000000Y-72063855D02*
X87809524Y-72063855D01*
X88723809Y-71606712D02*
X88647619Y-71568617D01*
X88647619Y-71568617D02*
X88609524Y-71530521D01*
X88609524Y-71530521D02*
X88571428Y-71454331D01*
X88571428Y-71454331D02*
X88571428Y-71416236D01*
X88571428Y-71416236D02*
X88609524Y-71340045D01*
X88609524Y-71340045D02*
X88647619Y-71301950D01*
X88647619Y-71301950D02*
X88723809Y-71263855D01*
X88723809Y-71263855D02*
X88876190Y-71263855D01*
X88876190Y-71263855D02*
X88952381Y-71301950D01*
X88952381Y-71301950D02*
X88990476Y-71340045D01*
X88990476Y-71340045D02*
X89028571Y-71416236D01*
X89028571Y-71416236D02*
X89028571Y-71454331D01*
X89028571Y-71454331D02*
X88990476Y-71530521D01*
X88990476Y-71530521D02*
X88952381Y-71568617D01*
X88952381Y-71568617D02*
X88876190Y-71606712D01*
X88876190Y-71606712D02*
X88723809Y-71606712D01*
X88723809Y-71606712D02*
X88647619Y-71644807D01*
X88647619Y-71644807D02*
X88609524Y-71682902D01*
X88609524Y-71682902D02*
X88571428Y-71759093D01*
X88571428Y-71759093D02*
X88571428Y-71911474D01*
X88571428Y-71911474D02*
X88609524Y-71987664D01*
X88609524Y-71987664D02*
X88647619Y-72025760D01*
X88647619Y-72025760D02*
X88723809Y-72063855D01*
X88723809Y-72063855D02*
X88876190Y-72063855D01*
X88876190Y-72063855D02*
X88952381Y-72025760D01*
X88952381Y-72025760D02*
X88990476Y-71987664D01*
X88990476Y-71987664D02*
X89028571Y-71911474D01*
X89028571Y-71911474D02*
X89028571Y-71759093D01*
X89028571Y-71759093D02*
X88990476Y-71682902D01*
X88990476Y-71682902D02*
X88952381Y-71644807D01*
X88952381Y-71644807D02*
X88876190Y-71606712D01*
G04 #@! TO.C,SW10*
X96143750Y-103737500D02*
X108143750Y-103737500D01*
X96143750Y-115337500D02*
X96143750Y-103737500D01*
X102143750Y-112537500D02*
X102143750Y-106537500D01*
X105143750Y-109537500D02*
X99143750Y-109537500D01*
X107143750Y-115337500D02*
X96143750Y-115337500D01*
X108143750Y-103737500D02*
X108143750Y-114237500D01*
X108143750Y-114237500D02*
X107143750Y-115337500D01*
X105143750Y-109537500D02*
G75*
G02*
X99143750Y-109537500I-3000000J0D01*
G01*
X99143750Y-109537500D02*
G75*
G02*
X105143750Y-109537500I3000000J0D01*
G01*
D13*
G04 #@! TO.C,SW6*
X105568750Y-79375000D02*
X118268750Y-79375000D01*
X105568750Y-92075000D02*
X105568750Y-79375000D01*
X118268750Y-79375000D02*
X118268750Y-92075000D01*
X118268750Y-92075000D02*
X105568750Y-92075000D01*
G04 #@! TO.C,SW1*
X57943750Y-55100000D02*
X70643750Y-55100000D01*
X57943750Y-67800000D02*
X57943750Y-55100000D01*
X70643750Y-55100000D02*
X70643750Y-67800000D01*
X70643750Y-67800000D02*
X57943750Y-67800000D01*
G04 #@! TO.C,D15*
X98380000Y-119600000D02*
X100190000Y-119600000D01*
X100690000Y-118600000D02*
X100690000Y-120600000D01*
X100790000Y-118600000D02*
X100790000Y-120600000D01*
X100890000Y-118600000D02*
X100890000Y-120600000D01*
X106000000Y-119600000D02*
X104190000Y-119600000D01*
X100190000Y-118600000D02*
X104190000Y-118600000D01*
X104190000Y-120600000D01*
X100190000Y-120600000D01*
X100190000Y-118600000D01*
G04 #@! TO.C,D7*
X60480000Y-71700000D02*
X62290000Y-71700000D01*
X62790000Y-70700000D02*
X62790000Y-72700000D01*
X62890000Y-70700000D02*
X62890000Y-72700000D01*
X62990000Y-70700000D02*
X62990000Y-72700000D01*
X68100000Y-71700000D02*
X66290000Y-71700000D01*
X62290000Y-70700000D02*
X66290000Y-70700000D01*
X66290000Y-72700000D01*
X62290000Y-72700000D01*
X62290000Y-70700000D01*
G04 #@! TO.C,D11*
X84180000Y-95900000D02*
X85990000Y-95900000D01*
X86490000Y-94900000D02*
X86490000Y-96900000D01*
X86590000Y-94900000D02*
X86590000Y-96900000D01*
X86690000Y-94900000D02*
X86690000Y-96900000D01*
X91800000Y-95900000D02*
X89990000Y-95900000D01*
X85990000Y-94900000D02*
X89990000Y-94900000D01*
X89990000Y-96900000D01*
X85990000Y-96900000D01*
X85990000Y-94900000D01*
G04 #@! TO.C,SW5*
X81756250Y-79375000D02*
X94456250Y-79375000D01*
X81756250Y-92075000D02*
X81756250Y-79375000D01*
X94456250Y-79375000D02*
X94456250Y-92075000D01*
X94456250Y-92075000D02*
X81756250Y-92075000D01*
G04 #@! TO.C,SW4*
X57943750Y-79375000D02*
X70643750Y-79375000D01*
X57943750Y-92075000D02*
X57943750Y-79375000D01*
X70643750Y-79375000D02*
X70643750Y-92075000D01*
X70643750Y-92075000D02*
X57943750Y-92075000D01*
G04 #@! TO.C,D13*
X36490000Y-119700000D02*
X38300000Y-119700000D01*
X38800000Y-118700000D02*
X38800000Y-120700000D01*
X38900000Y-118700000D02*
X38900000Y-120700000D01*
X39000000Y-118700000D02*
X39000000Y-120700000D01*
X44110000Y-119700000D02*
X42300000Y-119700000D01*
X38300000Y-118700000D02*
X42300000Y-118700000D01*
X42300000Y-120700000D01*
X38300000Y-120700000D01*
X38300000Y-118700000D01*
G04 #@! TO.C,SW2*
X81656250Y-55100000D02*
X94356250Y-55100000D01*
X81656250Y-67800000D02*
X81656250Y-55100000D01*
X94356250Y-55100000D02*
X94356250Y-67800000D01*
X94356250Y-67800000D02*
X81656250Y-67800000D01*
G04 #@! TO.C,SW7*
X34131250Y-103187500D02*
X46831250Y-103187500D01*
X34131250Y-115887500D02*
X34131250Y-103187500D01*
X46831250Y-103187500D02*
X46831250Y-115887500D01*
X46831250Y-115887500D02*
X34131250Y-115887500D01*
G04 #@! TO.C,D10*
X60490000Y-95900000D02*
X62300000Y-95900000D01*
X62800000Y-94900000D02*
X62800000Y-96900000D01*
X62900000Y-94900000D02*
X62900000Y-96900000D01*
X63000000Y-94900000D02*
X63000000Y-96900000D01*
X68110000Y-95900000D02*
X66300000Y-95900000D01*
X62300000Y-94900000D02*
X66300000Y-94900000D01*
X66300000Y-96900000D01*
X62300000Y-96900000D01*
X62300000Y-94900000D01*
G04 #@! TO.C,D12*
X108390000Y-95900000D02*
X110200000Y-95900000D01*
X110700000Y-94900000D02*
X110700000Y-96900000D01*
X110800000Y-94900000D02*
X110800000Y-96900000D01*
X110900000Y-94900000D02*
X110900000Y-96900000D01*
X116010000Y-95900000D02*
X114200000Y-95900000D01*
X110200000Y-94900000D02*
X114200000Y-94900000D01*
X114200000Y-96900000D01*
X110200000Y-96900000D01*
X110200000Y-94900000D01*
G04 #@! TO.C,U2*
X66200000Y-41210000D02*
X65800000Y-40810000D01*
X66200000Y-41210000D02*
X65800000Y-41610000D01*
X65800000Y-43400000D02*
X103800000Y-43400000D01*
X103800000Y-31400000D01*
X65800000Y-31400000D01*
X65800000Y-43400000D01*
G04 #@! TO.C,U1*
X32100000Y-24018500D02*
X49900000Y-24018500D01*
X49900000Y-44993500D01*
X32100000Y-44993500D01*
X32100000Y-24018500D01*
D14*
X33448000Y-25142500D02*
G75*
G02*
X32944000Y-25142500I-252000J0D01*
G01*
X32944000Y-25142500D02*
G75*
G02*
X33448000Y-25142500I252000J0D01*
G01*
D13*
G04 #@! TO.C,D9*
X108390000Y-71600000D02*
X110200000Y-71600000D01*
X110700000Y-70600000D02*
X110700000Y-72600000D01*
X110800000Y-70600000D02*
X110800000Y-72600000D01*
X110900000Y-70600000D02*
X110900000Y-72600000D01*
X116010000Y-71600000D02*
X114200000Y-71600000D01*
X110200000Y-70600000D02*
X114200000Y-70600000D01*
X114200000Y-72600000D01*
X110200000Y-72600000D01*
X110200000Y-70600000D01*
G04 #@! TO.C,SW8*
X72231250Y-103187500D02*
X84931250Y-103187500D01*
X72231250Y-115887500D02*
X72231250Y-103187500D01*
X84931250Y-103187500D02*
X84931250Y-115887500D01*
X84931250Y-115887500D02*
X72231250Y-115887500D01*
G04 #@! TO.C,SW3*
X105568750Y-55100000D02*
X118268750Y-55100000D01*
X105568750Y-67800000D02*
X105568750Y-55100000D01*
X118268750Y-55100000D02*
X118268750Y-67800000D01*
X118268750Y-67800000D02*
X105568750Y-67800000D01*
G04 #@! TO.C,D14*
X74690000Y-119700000D02*
X76500000Y-119700000D01*
X77000000Y-118700000D02*
X77000000Y-120700000D01*
X77100000Y-118700000D02*
X77100000Y-120700000D01*
X77200000Y-118700000D02*
X77200000Y-120700000D01*
X82310000Y-119700000D02*
X80500000Y-119700000D01*
X76500000Y-118700000D02*
X80500000Y-118700000D01*
X80500000Y-120700000D01*
X76500000Y-120700000D01*
X76500000Y-118700000D01*
G04 #@! TO.C,D8*
X84290000Y-71700000D02*
X86100000Y-71700000D01*
X86600000Y-70700000D02*
X86600000Y-72700000D01*
X86700000Y-70700000D02*
X86700000Y-72700000D01*
X86800000Y-70700000D02*
X86800000Y-72700000D01*
X91910000Y-71700000D02*
X90100000Y-71700000D01*
X86100000Y-70700000D02*
X90100000Y-70700000D01*
X90100000Y-72700000D01*
X86100000Y-72700000D01*
X86100000Y-70700000D01*
G04 #@! TD*
G04 #@! TO.C,SW10*
X108643750Y-111037500D02*
X108643750Y-113037500D01*
X110643750Y-113037500D01*
X110643750Y-111037500D01*
X108643750Y-111037500D01*
X110643750Y-107037500D02*
G75*
G02*
X108643750Y-107037500I-1000000J0D01*
G01*
X108643750Y-107037500D02*
G75*
G02*
X110643750Y-107037500I1000000J0D01*
G01*
X110643750Y-109537500D02*
G75*
G02*
X108643750Y-109537500I-1000000J0D01*
G01*
X108643750Y-109537500D02*
G75*
G02*
X110643750Y-109537500I1000000J0D01*
G01*
X100543750Y-114137500D02*
X100543750Y-116137500D01*
X103743750Y-116137500D01*
X103743750Y-114137500D01*
X100543750Y-114137500D01*
X100543750Y-102937500D02*
X100543750Y-104937500D01*
X103743750Y-104937500D01*
X103743750Y-102937500D01*
X100543750Y-102937500D01*
X96143750Y-107037500D02*
G75*
G02*
X94143750Y-107037500I-1000000J0D01*
G01*
X94143750Y-107037500D02*
G75*
G02*
X96143750Y-107037500I1000000J0D01*
G01*
X96143750Y-112037500D02*
G75*
G02*
X94143750Y-112037500I-1000000J0D01*
G01*
X94143750Y-112037500D02*
G75*
G02*
X96143750Y-112037500I1000000J0D01*
G01*
G04 #@! TD*
G04 #@! TO.C,SW6*
X107688750Y-85725000D02*
G75*
G02*
X105988750Y-85725000I-850000J0D01*
G01*
X105988750Y-85725000D02*
G75*
G02*
X107688750Y-85725000I850000J0D01*
G01*
X113918750Y-85725000D02*
G75*
G02*
X109918750Y-85725000I-2000000J0D01*
G01*
X109918750Y-85725000D02*
G75*
G02*
X113918750Y-85725000I2000000J0D01*
G01*
X117848750Y-85725000D02*
G75*
G02*
X116148750Y-85725000I-850000J0D01*
G01*
X116148750Y-85725000D02*
G75*
G02*
X117848750Y-85725000I850000J0D01*
G01*
X115558750Y-80645000D02*
G75*
G02*
X113358750Y-80645000I-1100000J0D01*
G01*
X113358750Y-80645000D02*
G75*
G02*
X115558750Y-80645000I1100000J0D01*
G01*
X109208750Y-83185000D02*
G75*
G02*
X107008750Y-83185000I-1100000J0D01*
G01*
X107008750Y-83185000D02*
G75*
G02*
X109208750Y-83185000I1100000J0D01*
G01*
G04 #@! TD*
G04 #@! TO.C,SW1*
X60063750Y-61450000D02*
G75*
G02*
X58363750Y-61450000I-850000J0D01*
G01*
X58363750Y-61450000D02*
G75*
G02*
X60063750Y-61450000I850000J0D01*
G01*
X66293750Y-61450000D02*
G75*
G02*
X62293750Y-61450000I-2000000J0D01*
G01*
X62293750Y-61450000D02*
G75*
G02*
X66293750Y-61450000I2000000J0D01*
G01*
X70223750Y-61450000D02*
G75*
G02*
X68523750Y-61450000I-850000J0D01*
G01*
X68523750Y-61450000D02*
G75*
G02*
X70223750Y-61450000I850000J0D01*
G01*
X67933750Y-56370000D02*
G75*
G02*
X65733750Y-56370000I-1100000J0D01*
G01*
X65733750Y-56370000D02*
G75*
G02*
X67933750Y-56370000I1100000J0D01*
G01*
X61583750Y-58910000D02*
G75*
G02*
X59383750Y-58910000I-1100000J0D01*
G01*
X59383750Y-58910000D02*
G75*
G02*
X61583750Y-58910000I1100000J0D01*
G01*
G04 #@! TD*
D15*
G04 #@! TO.C,D15*
D13*
X97580000Y-119050000D02*
X97599030Y-118954329D01*
X97653223Y-118873223D01*
X97734329Y-118819030D01*
X97830000Y-118800000D01*
X98930000Y-118800000D01*
X99025671Y-118819030D01*
X99106777Y-118873223D01*
X99160970Y-118954329D01*
X99180000Y-119050000D01*
X99180000Y-120150000D01*
X99160970Y-120245671D01*
X99106777Y-120326777D01*
X99025671Y-120380970D01*
X98930000Y-120400000D01*
X97830000Y-120400000D01*
X97734329Y-120380970D01*
X97653223Y-120326777D01*
X97599030Y-120245671D01*
X97580000Y-120150000D01*
X97580000Y-119050000D01*
X106800000Y-119600000D02*
G75*
G02*
X105200000Y-119600000I-800000J0D01*
G01*
X105200000Y-119600000D02*
G75*
G02*
X106800000Y-119600000I800000J0D01*
G01*
G04 #@! TD*
D15*
G04 #@! TO.C,D7*
D13*
X59680000Y-71150000D02*
X59699030Y-71054329D01*
X59753223Y-70973223D01*
X59834329Y-70919030D01*
X59930000Y-70900000D01*
X61030000Y-70900000D01*
X61125671Y-70919030D01*
X61206777Y-70973223D01*
X61260970Y-71054329D01*
X61280000Y-71150000D01*
X61280000Y-72250000D01*
X61260970Y-72345671D01*
X61206777Y-72426777D01*
X61125671Y-72480970D01*
X61030000Y-72500000D01*
X59930000Y-72500000D01*
X59834329Y-72480970D01*
X59753223Y-72426777D01*
X59699030Y-72345671D01*
X59680000Y-72250000D01*
X59680000Y-71150000D01*
X68900000Y-71700000D02*
G75*
G02*
X67300000Y-71700000I-800000J0D01*
G01*
X67300000Y-71700000D02*
G75*
G02*
X68900000Y-71700000I800000J0D01*
G01*
G04 #@! TD*
D15*
G04 #@! TO.C,D11*
D13*
X83380000Y-95350000D02*
X83399030Y-95254329D01*
X83453223Y-95173223D01*
X83534329Y-95119030D01*
X83630000Y-95100000D01*
X84730000Y-95100000D01*
X84825671Y-95119030D01*
X84906777Y-95173223D01*
X84960970Y-95254329D01*
X84980000Y-95350000D01*
X84980000Y-96450000D01*
X84960970Y-96545671D01*
X84906777Y-96626777D01*
X84825671Y-96680970D01*
X84730000Y-96700000D01*
X83630000Y-96700000D01*
X83534329Y-96680970D01*
X83453223Y-96626777D01*
X83399030Y-96545671D01*
X83380000Y-96450000D01*
X83380000Y-95350000D01*
X92600000Y-95900000D02*
G75*
G02*
X91000000Y-95900000I-800000J0D01*
G01*
X91000000Y-95900000D02*
G75*
G02*
X92600000Y-95900000I800000J0D01*
G01*
G04 #@! TD*
G04 #@! TO.C,SW5*
X83876250Y-85725000D02*
G75*
G02*
X82176250Y-85725000I-850000J0D01*
G01*
X82176250Y-85725000D02*
G75*
G02*
X83876250Y-85725000I850000J0D01*
G01*
X90106250Y-85725000D02*
G75*
G02*
X86106250Y-85725000I-2000000J0D01*
G01*
X86106250Y-85725000D02*
G75*
G02*
X90106250Y-85725000I2000000J0D01*
G01*
X94036250Y-85725000D02*
G75*
G02*
X92336250Y-85725000I-850000J0D01*
G01*
X92336250Y-85725000D02*
G75*
G02*
X94036250Y-85725000I850000J0D01*
G01*
X91746250Y-80645000D02*
G75*
G02*
X89546250Y-80645000I-1100000J0D01*
G01*
X89546250Y-80645000D02*
G75*
G02*
X91746250Y-80645000I1100000J0D01*
G01*
X85396250Y-83185000D02*
G75*
G02*
X83196250Y-83185000I-1100000J0D01*
G01*
X83196250Y-83185000D02*
G75*
G02*
X85396250Y-83185000I1100000J0D01*
G01*
G04 #@! TD*
G04 #@! TO.C,SW4*
X60063750Y-85725000D02*
G75*
G02*
X58363750Y-85725000I-850000J0D01*
G01*
X58363750Y-85725000D02*
G75*
G02*
X60063750Y-85725000I850000J0D01*
G01*
X66293750Y-85725000D02*
G75*
G02*
X62293750Y-85725000I-2000000J0D01*
G01*
X62293750Y-85725000D02*
G75*
G02*
X66293750Y-85725000I2000000J0D01*
G01*
X70223750Y-85725000D02*
G75*
G02*
X68523750Y-85725000I-850000J0D01*
G01*
X68523750Y-85725000D02*
G75*
G02*
X70223750Y-85725000I850000J0D01*
G01*
X67933750Y-80645000D02*
G75*
G02*
X65733750Y-80645000I-1100000J0D01*
G01*
X65733750Y-80645000D02*
G75*
G02*
X67933750Y-80645000I1100000J0D01*
G01*
X61583750Y-83185000D02*
G75*
G02*
X59383750Y-83185000I-1100000J0D01*
G01*
X59383750Y-83185000D02*
G75*
G02*
X61583750Y-83185000I1100000J0D01*
G01*
G04 #@! TD*
D15*
G04 #@! TO.C,D13*
D13*
X35690000Y-119150000D02*
X35709030Y-119054329D01*
X35763223Y-118973223D01*
X35844329Y-118919030D01*
X35940000Y-118900000D01*
X37040000Y-118900000D01*
X37135671Y-118919030D01*
X37216777Y-118973223D01*
X37270970Y-119054329D01*
X37290000Y-119150000D01*
X37290000Y-120250000D01*
X37270970Y-120345671D01*
X37216777Y-120426777D01*
X37135671Y-120480970D01*
X37040000Y-120500000D01*
X35940000Y-120500000D01*
X35844329Y-120480970D01*
X35763223Y-120426777D01*
X35709030Y-120345671D01*
X35690000Y-120250000D01*
X35690000Y-119150000D01*
X44910000Y-119700000D02*
G75*
G02*
X43310000Y-119700000I-800000J0D01*
G01*
X43310000Y-119700000D02*
G75*
G02*
X44910000Y-119700000I800000J0D01*
G01*
G04 #@! TD*
G04 #@! TO.C,SW2*
X83776250Y-61450000D02*
G75*
G02*
X82076250Y-61450000I-850000J0D01*
G01*
X82076250Y-61450000D02*
G75*
G02*
X83776250Y-61450000I850000J0D01*
G01*
X90006250Y-61450000D02*
G75*
G02*
X86006250Y-61450000I-2000000J0D01*
G01*
X86006250Y-61450000D02*
G75*
G02*
X90006250Y-61450000I2000000J0D01*
G01*
X93936250Y-61450000D02*
G75*
G02*
X92236250Y-61450000I-850000J0D01*
G01*
X92236250Y-61450000D02*
G75*
G02*
X93936250Y-61450000I850000J0D01*
G01*
X91646250Y-56370000D02*
G75*
G02*
X89446250Y-56370000I-1100000J0D01*
G01*
X89446250Y-56370000D02*
G75*
G02*
X91646250Y-56370000I1100000J0D01*
G01*
X85296250Y-58910000D02*
G75*
G02*
X83096250Y-58910000I-1100000J0D01*
G01*
X83096250Y-58910000D02*
G75*
G02*
X85296250Y-58910000I1100000J0D01*
G01*
G04 #@! TD*
G04 #@! TO.C,SW7*
X36251250Y-109537500D02*
G75*
G02*
X34551250Y-109537500I-850000J0D01*
G01*
X34551250Y-109537500D02*
G75*
G02*
X36251250Y-109537500I850000J0D01*
G01*
X42481250Y-109537500D02*
G75*
G02*
X38481250Y-109537500I-2000000J0D01*
G01*
X38481250Y-109537500D02*
G75*
G02*
X42481250Y-109537500I2000000J0D01*
G01*
X46411250Y-109537500D02*
G75*
G02*
X44711250Y-109537500I-850000J0D01*
G01*
X44711250Y-109537500D02*
G75*
G02*
X46411250Y-109537500I850000J0D01*
G01*
X44121250Y-104457500D02*
G75*
G02*
X41921250Y-104457500I-1100000J0D01*
G01*
X41921250Y-104457500D02*
G75*
G02*
X44121250Y-104457500I1100000J0D01*
G01*
X37771250Y-106997500D02*
G75*
G02*
X35571250Y-106997500I-1100000J0D01*
G01*
X35571250Y-106997500D02*
G75*
G02*
X37771250Y-106997500I1100000J0D01*
G01*
G04 #@! TD*
D15*
G04 #@! TO.C,D10*
D13*
X59690000Y-95350000D02*
X59709030Y-95254329D01*
X59763223Y-95173223D01*
X59844329Y-95119030D01*
X59940000Y-95100000D01*
X61040000Y-95100000D01*
X61135671Y-95119030D01*
X61216777Y-95173223D01*
X61270970Y-95254329D01*
X61290000Y-95350000D01*
X61290000Y-96450000D01*
X61270970Y-96545671D01*
X61216777Y-96626777D01*
X61135671Y-96680970D01*
X61040000Y-96700000D01*
X59940000Y-96700000D01*
X59844329Y-96680970D01*
X59763223Y-96626777D01*
X59709030Y-96545671D01*
X59690000Y-96450000D01*
X59690000Y-95350000D01*
X68910000Y-95900000D02*
G75*
G02*
X67310000Y-95900000I-800000J0D01*
G01*
X67310000Y-95900000D02*
G75*
G02*
X68910000Y-95900000I800000J0D01*
G01*
G04 #@! TD*
D15*
G04 #@! TO.C,D12*
D13*
X107590000Y-95350000D02*
X107609030Y-95254329D01*
X107663223Y-95173223D01*
X107744329Y-95119030D01*
X107840000Y-95100000D01*
X108940000Y-95100000D01*
X109035671Y-95119030D01*
X109116777Y-95173223D01*
X109170970Y-95254329D01*
X109190000Y-95350000D01*
X109190000Y-96450000D01*
X109170970Y-96545671D01*
X109116777Y-96626777D01*
X109035671Y-96680970D01*
X108940000Y-96700000D01*
X107840000Y-96700000D01*
X107744329Y-96680970D01*
X107663223Y-96626777D01*
X107609030Y-96545671D01*
X107590000Y-96450000D01*
X107590000Y-95350000D01*
X116810000Y-95900000D02*
G75*
G02*
X115210000Y-95900000I-800000J0D01*
G01*
X115210000Y-95900000D02*
G75*
G02*
X116810000Y-95900000I800000J0D01*
G01*
G04 #@! TD*
D15*
G04 #@! TO.C,U2*
D13*
X66620000Y-42060000D02*
X66554944Y-42047060D01*
X66499792Y-42010208D01*
X66462940Y-41955056D01*
X66450000Y-41890000D01*
X66450000Y-40530000D01*
X66462940Y-40464944D01*
X66499792Y-40409792D01*
X66554944Y-40372940D01*
X66620000Y-40360000D01*
X67980000Y-40360000D01*
X68045056Y-40372940D01*
X68100208Y-40409792D01*
X68137060Y-40464944D01*
X68150000Y-40530000D01*
X68150000Y-41890000D01*
X68137060Y-41955056D01*
X68100208Y-42010208D01*
X68045056Y-42047060D01*
X67980000Y-42060000D01*
X66620000Y-42060000D01*
X68150000Y-38670000D02*
G75*
G02*
X66450000Y-38670000I-850000J0D01*
G01*
X66450000Y-38670000D02*
G75*
G02*
X68150000Y-38670000I850000J0D01*
G01*
X68150000Y-36130000D02*
G75*
G02*
X66450000Y-36130000I-850000J0D01*
G01*
X66450000Y-36130000D02*
G75*
G02*
X68150000Y-36130000I850000J0D01*
G01*
X68150000Y-33590000D02*
G75*
G02*
X66450000Y-33590000I-850000J0D01*
G01*
X66450000Y-33590000D02*
G75*
G02*
X68150000Y-33590000I850000J0D01*
G01*
G04 #@! TD*
D15*
G04 #@! TO.C,U1*
D13*
X33761000Y-27558100D02*
X33749399Y-27616421D01*
X33716363Y-27665863D01*
X33666921Y-27698899D01*
X33608600Y-27710500D01*
X31481400Y-27710500D01*
X31423079Y-27698899D01*
X31373637Y-27665863D01*
X31340601Y-27616421D01*
X31329000Y-27558100D01*
X31329000Y-26338900D01*
X31340601Y-26280579D01*
X31373637Y-26231137D01*
X31423079Y-26198101D01*
X31481400Y-26186500D01*
X33608600Y-26186500D01*
X33666921Y-26198101D01*
X33716363Y-26231137D01*
X33749399Y-26280579D01*
X33761000Y-26338900D01*
X33761000Y-27558100D01*
X34142000Y-26948500D02*
G75*
G02*
X32618000Y-26948500I-762000J0D01*
G01*
X32618000Y-26948500D02*
G75*
G02*
X34142000Y-26948500I762000J0D01*
G01*
D15*
D13*
X33761000Y-30098100D02*
X33749399Y-30156421D01*
X33716363Y-30205863D01*
X33666921Y-30238899D01*
X33608600Y-30250500D01*
X31481400Y-30250500D01*
X31423079Y-30238899D01*
X31373637Y-30205863D01*
X31340601Y-30156421D01*
X31329000Y-30098100D01*
X31329000Y-28878900D01*
X31340601Y-28820579D01*
X31373637Y-28771137D01*
X31423079Y-28738101D01*
X31481400Y-28726500D01*
X33608600Y-28726500D01*
X33666921Y-28738101D01*
X33716363Y-28771137D01*
X33749399Y-28820579D01*
X33761000Y-28878900D01*
X33761000Y-30098100D01*
X34142000Y-29488500D02*
G75*
G02*
X32618000Y-29488500I-762000J0D01*
G01*
X32618000Y-29488500D02*
G75*
G02*
X34142000Y-29488500I762000J0D01*
G01*
D15*
D13*
X33761000Y-32638100D02*
X33749399Y-32696421D01*
X33716363Y-32745863D01*
X33666921Y-32778899D01*
X33608600Y-32790500D01*
X31481400Y-32790500D01*
X31423079Y-32778899D01*
X31373637Y-32745863D01*
X31340601Y-32696421D01*
X31329000Y-32638100D01*
X31329000Y-31418900D01*
X31340601Y-31360579D01*
X31373637Y-31311137D01*
X31423079Y-31278101D01*
X31481400Y-31266500D01*
X33608600Y-31266500D01*
X33666921Y-31278101D01*
X33716363Y-31311137D01*
X33749399Y-31360579D01*
X33761000Y-31418900D01*
X33761000Y-32638100D01*
X34142000Y-32028500D02*
G75*
G02*
X32618000Y-32028500I-762000J0D01*
G01*
X32618000Y-32028500D02*
G75*
G02*
X34142000Y-32028500I762000J0D01*
G01*
D15*
D13*
X33761000Y-35178100D02*
X33749399Y-35236421D01*
X33716363Y-35285863D01*
X33666921Y-35318899D01*
X33608600Y-35330500D01*
X31481400Y-35330500D01*
X31423079Y-35318899D01*
X31373637Y-35285863D01*
X31340601Y-35236421D01*
X31329000Y-35178100D01*
X31329000Y-33958900D01*
X31340601Y-33900579D01*
X31373637Y-33851137D01*
X31423079Y-33818101D01*
X31481400Y-33806500D01*
X33608600Y-33806500D01*
X33666921Y-33818101D01*
X33716363Y-33851137D01*
X33749399Y-33900579D01*
X33761000Y-33958900D01*
X33761000Y-35178100D01*
X34142000Y-34568500D02*
G75*
G02*
X32618000Y-34568500I-762000J0D01*
G01*
X32618000Y-34568500D02*
G75*
G02*
X34142000Y-34568500I762000J0D01*
G01*
D15*
D13*
X33761000Y-37718100D02*
X33749399Y-37776421D01*
X33716363Y-37825863D01*
X33666921Y-37858899D01*
X33608600Y-37870500D01*
X31481400Y-37870500D01*
X31423079Y-37858899D01*
X31373637Y-37825863D01*
X31340601Y-37776421D01*
X31329000Y-37718100D01*
X31329000Y-36498900D01*
X31340601Y-36440579D01*
X31373637Y-36391137D01*
X31423079Y-36358101D01*
X31481400Y-36346500D01*
X33608600Y-36346500D01*
X33666921Y-36358101D01*
X33716363Y-36391137D01*
X33749399Y-36440579D01*
X33761000Y-36498900D01*
X33761000Y-37718100D01*
X34142000Y-37108500D02*
G75*
G02*
X32618000Y-37108500I-762000J0D01*
G01*
X32618000Y-37108500D02*
G75*
G02*
X34142000Y-37108500I762000J0D01*
G01*
D15*
D13*
X33761000Y-40258100D02*
X33749399Y-40316421D01*
X33716363Y-40365863D01*
X33666921Y-40398899D01*
X33608600Y-40410500D01*
X31481400Y-40410500D01*
X31423079Y-40398899D01*
X31373637Y-40365863D01*
X31340601Y-40316421D01*
X31329000Y-40258100D01*
X31329000Y-39038900D01*
X31340601Y-38980579D01*
X31373637Y-38931137D01*
X31423079Y-38898101D01*
X31481400Y-38886500D01*
X33608600Y-38886500D01*
X33666921Y-38898101D01*
X33716363Y-38931137D01*
X33749399Y-38980579D01*
X33761000Y-39038900D01*
X33761000Y-40258100D01*
X34142000Y-39648500D02*
G75*
G02*
X32618000Y-39648500I-762000J0D01*
G01*
X32618000Y-39648500D02*
G75*
G02*
X34142000Y-39648500I762000J0D01*
G01*
D15*
D13*
X33761000Y-42798100D02*
X33749399Y-42856421D01*
X33716363Y-42905863D01*
X33666921Y-42938899D01*
X33608600Y-42950500D01*
X31481400Y-42950500D01*
X31423079Y-42938899D01*
X31373637Y-42905863D01*
X31340601Y-42856421D01*
X31329000Y-42798100D01*
X31329000Y-41578900D01*
X31340601Y-41520579D01*
X31373637Y-41471137D01*
X31423079Y-41438101D01*
X31481400Y-41426500D01*
X33608600Y-41426500D01*
X33666921Y-41438101D01*
X33716363Y-41471137D01*
X33749399Y-41520579D01*
X33761000Y-41578900D01*
X33761000Y-42798100D01*
X34142000Y-42188500D02*
G75*
G02*
X32618000Y-42188500I-762000J0D01*
G01*
X32618000Y-42188500D02*
G75*
G02*
X34142000Y-42188500I762000J0D01*
G01*
X49382000Y-42188500D02*
G75*
G02*
X47858000Y-42188500I-762000J0D01*
G01*
X47858000Y-42188500D02*
G75*
G02*
X49382000Y-42188500I762000J0D01*
G01*
D15*
D13*
X48239000Y-41578900D02*
X48250601Y-41520579D01*
X48283637Y-41471137D01*
X48333079Y-41438101D01*
X48391400Y-41426500D01*
X50518600Y-41426500D01*
X50576921Y-41438101D01*
X50626363Y-41471137D01*
X50659399Y-41520579D01*
X50671000Y-41578900D01*
X50671000Y-42798100D01*
X50659399Y-42856421D01*
X50626363Y-42905863D01*
X50576921Y-42938899D01*
X50518600Y-42950500D01*
X48391400Y-42950500D01*
X48333079Y-42938899D01*
X48283637Y-42905863D01*
X48250601Y-42856421D01*
X48239000Y-42798100D01*
X48239000Y-41578900D01*
X49382000Y-39648500D02*
G75*
G02*
X47858000Y-39648500I-762000J0D01*
G01*
X47858000Y-39648500D02*
G75*
G02*
X49382000Y-39648500I762000J0D01*
G01*
D15*
D13*
X48239000Y-39038900D02*
X48250601Y-38980579D01*
X48283637Y-38931137D01*
X48333079Y-38898101D01*
X48391400Y-38886500D01*
X50518600Y-38886500D01*
X50576921Y-38898101D01*
X50626363Y-38931137D01*
X50659399Y-38980579D01*
X50671000Y-39038900D01*
X50671000Y-40258100D01*
X50659399Y-40316421D01*
X50626363Y-40365863D01*
X50576921Y-40398899D01*
X50518600Y-40410500D01*
X48391400Y-40410500D01*
X48333079Y-40398899D01*
X48283637Y-40365863D01*
X48250601Y-40316421D01*
X48239000Y-40258100D01*
X48239000Y-39038900D01*
X49382000Y-37108500D02*
G75*
G02*
X47858000Y-37108500I-762000J0D01*
G01*
X47858000Y-37108500D02*
G75*
G02*
X49382000Y-37108500I762000J0D01*
G01*
D15*
D13*
X48239000Y-36498900D02*
X48250601Y-36440579D01*
X48283637Y-36391137D01*
X48333079Y-36358101D01*
X48391400Y-36346500D01*
X50518600Y-36346500D01*
X50576921Y-36358101D01*
X50626363Y-36391137D01*
X50659399Y-36440579D01*
X50671000Y-36498900D01*
X50671000Y-37718100D01*
X50659399Y-37776421D01*
X50626363Y-37825863D01*
X50576921Y-37858899D01*
X50518600Y-37870500D01*
X48391400Y-37870500D01*
X48333079Y-37858899D01*
X48283637Y-37825863D01*
X48250601Y-37776421D01*
X48239000Y-37718100D01*
X48239000Y-36498900D01*
X49382000Y-34568500D02*
G75*
G02*
X47858000Y-34568500I-762000J0D01*
G01*
X47858000Y-34568500D02*
G75*
G02*
X49382000Y-34568500I762000J0D01*
G01*
D15*
D13*
X48239000Y-33958900D02*
X48250601Y-33900579D01*
X48283637Y-33851137D01*
X48333079Y-33818101D01*
X48391400Y-33806500D01*
X50518600Y-33806500D01*
X50576921Y-33818101D01*
X50626363Y-33851137D01*
X50659399Y-33900579D01*
X50671000Y-33958900D01*
X50671000Y-35178100D01*
X50659399Y-35236421D01*
X50626363Y-35285863D01*
X50576921Y-35318899D01*
X50518600Y-35330500D01*
X48391400Y-35330500D01*
X48333079Y-35318899D01*
X48283637Y-35285863D01*
X48250601Y-35236421D01*
X48239000Y-35178100D01*
X48239000Y-33958900D01*
X49382000Y-32028500D02*
G75*
G02*
X47858000Y-32028500I-762000J0D01*
G01*
X47858000Y-32028500D02*
G75*
G02*
X49382000Y-32028500I762000J0D01*
G01*
D15*
D13*
X48239000Y-31418900D02*
X48250601Y-31360579D01*
X48283637Y-31311137D01*
X48333079Y-31278101D01*
X48391400Y-31266500D01*
X50518600Y-31266500D01*
X50576921Y-31278101D01*
X50626363Y-31311137D01*
X50659399Y-31360579D01*
X50671000Y-31418900D01*
X50671000Y-32638100D01*
X50659399Y-32696421D01*
X50626363Y-32745863D01*
X50576921Y-32778899D01*
X50518600Y-32790500D01*
X48391400Y-32790500D01*
X48333079Y-32778899D01*
X48283637Y-32745863D01*
X48250601Y-32696421D01*
X48239000Y-32638100D01*
X48239000Y-31418900D01*
X49382000Y-29488500D02*
G75*
G02*
X47858000Y-29488500I-762000J0D01*
G01*
X47858000Y-29488500D02*
G75*
G02*
X49382000Y-29488500I762000J0D01*
G01*
D15*
D13*
X48239000Y-28878900D02*
X48250601Y-28820579D01*
X48283637Y-28771137D01*
X48333079Y-28738101D01*
X48391400Y-28726500D01*
X50518600Y-28726500D01*
X50576921Y-28738101D01*
X50626363Y-28771137D01*
X50659399Y-28820579D01*
X50671000Y-28878900D01*
X50671000Y-30098100D01*
X50659399Y-30156421D01*
X50626363Y-30205863D01*
X50576921Y-30238899D01*
X50518600Y-30250500D01*
X48391400Y-30250500D01*
X48333079Y-30238899D01*
X48283637Y-30205863D01*
X48250601Y-30156421D01*
X48239000Y-30098100D01*
X48239000Y-28878900D01*
X49382000Y-26948500D02*
G75*
G02*
X47858000Y-26948500I-762000J0D01*
G01*
X47858000Y-26948500D02*
G75*
G02*
X49382000Y-26948500I762000J0D01*
G01*
D15*
D13*
X48239000Y-26338900D02*
X48250601Y-26280579D01*
X48283637Y-26231137D01*
X48333079Y-26198101D01*
X48391400Y-26186500D01*
X50518600Y-26186500D01*
X50576921Y-26198101D01*
X50626363Y-26231137D01*
X50659399Y-26280579D01*
X50671000Y-26338900D01*
X50671000Y-27558100D01*
X50659399Y-27616421D01*
X50626363Y-27665863D01*
X50576921Y-27698899D01*
X50518600Y-27710500D01*
X48391400Y-27710500D01*
X48333079Y-27698899D01*
X48283637Y-27665863D01*
X48250601Y-27616421D01*
X48239000Y-27558100D01*
X48239000Y-26338900D01*
G04 #@! TD*
D15*
G04 #@! TO.C,D9*
D13*
X107590000Y-71050000D02*
X107609030Y-70954329D01*
X107663223Y-70873223D01*
X107744329Y-70819030D01*
X107840000Y-70800000D01*
X108940000Y-70800000D01*
X109035671Y-70819030D01*
X109116777Y-70873223D01*
X109170970Y-70954329D01*
X109190000Y-71050000D01*
X109190000Y-72150000D01*
X109170970Y-72245671D01*
X109116777Y-72326777D01*
X109035671Y-72380970D01*
X108940000Y-72400000D01*
X107840000Y-72400000D01*
X107744329Y-72380970D01*
X107663223Y-72326777D01*
X107609030Y-72245671D01*
X107590000Y-72150000D01*
X107590000Y-71050000D01*
X116810000Y-71600000D02*
G75*
G02*
X115210000Y-71600000I-800000J0D01*
G01*
X115210000Y-71600000D02*
G75*
G02*
X116810000Y-71600000I800000J0D01*
G01*
G04 #@! TD*
G04 #@! TO.C,SW8*
X74351250Y-109537500D02*
G75*
G02*
X72651250Y-109537500I-850000J0D01*
G01*
X72651250Y-109537500D02*
G75*
G02*
X74351250Y-109537500I850000J0D01*
G01*
X80581250Y-109537500D02*
G75*
G02*
X76581250Y-109537500I-2000000J0D01*
G01*
X76581250Y-109537500D02*
G75*
G02*
X80581250Y-109537500I2000000J0D01*
G01*
X84511250Y-109537500D02*
G75*
G02*
X82811250Y-109537500I-850000J0D01*
G01*
X82811250Y-109537500D02*
G75*
G02*
X84511250Y-109537500I850000J0D01*
G01*
X82221250Y-104457500D02*
G75*
G02*
X80021250Y-104457500I-1100000J0D01*
G01*
X80021250Y-104457500D02*
G75*
G02*
X82221250Y-104457500I1100000J0D01*
G01*
X75871250Y-106997500D02*
G75*
G02*
X73671250Y-106997500I-1100000J0D01*
G01*
X73671250Y-106997500D02*
G75*
G02*
X75871250Y-106997500I1100000J0D01*
G01*
G04 #@! TD*
G04 #@! TO.C,SW3*
X107688750Y-61450000D02*
G75*
G02*
X105988750Y-61450000I-850000J0D01*
G01*
X105988750Y-61450000D02*
G75*
G02*
X107688750Y-61450000I850000J0D01*
G01*
X113918750Y-61450000D02*
G75*
G02*
X109918750Y-61450000I-2000000J0D01*
G01*
X109918750Y-61450000D02*
G75*
G02*
X113918750Y-61450000I2000000J0D01*
G01*
X117848750Y-61450000D02*
G75*
G02*
X116148750Y-61450000I-850000J0D01*
G01*
X116148750Y-61450000D02*
G75*
G02*
X117848750Y-61450000I850000J0D01*
G01*
X115558750Y-56370000D02*
G75*
G02*
X113358750Y-56370000I-1100000J0D01*
G01*
X113358750Y-56370000D02*
G75*
G02*
X115558750Y-56370000I1100000J0D01*
G01*
X109208750Y-58910000D02*
G75*
G02*
X107008750Y-58910000I-1100000J0D01*
G01*
X107008750Y-58910000D02*
G75*
G02*
X109208750Y-58910000I1100000J0D01*
G01*
G04 #@! TD*
D15*
G04 #@! TO.C,D14*
D13*
X73890000Y-119150000D02*
X73909030Y-119054329D01*
X73963223Y-118973223D01*
X74044329Y-118919030D01*
X74140000Y-118900000D01*
X75240000Y-118900000D01*
X75335671Y-118919030D01*
X75416777Y-118973223D01*
X75470970Y-119054329D01*
X75490000Y-119150000D01*
X75490000Y-120250000D01*
X75470970Y-120345671D01*
X75416777Y-120426777D01*
X75335671Y-120480970D01*
X75240000Y-120500000D01*
X74140000Y-120500000D01*
X74044329Y-120480970D01*
X73963223Y-120426777D01*
X73909030Y-120345671D01*
X73890000Y-120250000D01*
X73890000Y-119150000D01*
X83110000Y-119700000D02*
G75*
G02*
X81510000Y-119700000I-800000J0D01*
G01*
X81510000Y-119700000D02*
G75*
G02*
X83110000Y-119700000I800000J0D01*
G01*
G04 #@! TD*
D15*
G04 #@! TO.C,D8*
D13*
X83490000Y-71150000D02*
X83509030Y-71054329D01*
X83563223Y-70973223D01*
X83644329Y-70919030D01*
X83740000Y-70900000D01*
X84840000Y-70900000D01*
X84935671Y-70919030D01*
X85016777Y-70973223D01*
X85070970Y-71054329D01*
X85090000Y-71150000D01*
X85090000Y-72250000D01*
X85070970Y-72345671D01*
X85016777Y-72426777D01*
X84935671Y-72480970D01*
X84840000Y-72500000D01*
X83740000Y-72500000D01*
X83644329Y-72480970D01*
X83563223Y-72426777D01*
X83509030Y-72345671D01*
X83490000Y-72250000D01*
X83490000Y-71150000D01*
X92710000Y-71700000D02*
G75*
G02*
X91110000Y-71700000I-800000J0D01*
G01*
X91110000Y-71700000D02*
G75*
G02*
X92710000Y-71700000I800000J0D01*
G01*
G04 #@! TD*
M02*
