G04 #@! TF.GenerationSoftware,KiCad,Pcbnew,9.0.7*
G04 #@! TF.CreationDate,2026-02-07T22:14:11-08:00*
G04 #@! TF.ProjectId,hackpad,6861636b-7061-4642-9e6b-696361645f70,rev?*
G04 #@! TF.SameCoordinates,Original*
G04 #@! TF.FileFunction,Copper,L2,Bot*
G04 #@! TF.FilePolarity,Positive*
%FSLAX46Y46*%
G04 Gerber Fmt 4.6, Leading zero omitted, Abs format (unit mm)*
G04 Created by KiCad (PCBNEW 9.0.7) date 2026-02-07 22:14:11*
%MOMM*%
%LPD*%
G01*
G04 APERTURE LIST*
G04 Aperture macros list*
%AMRoundRect*
0 Rectangle with rounded corners*
0 $1 Rounding radius*
0 $2 $3 $4 $5 $6 $7 $8 $9 X,Y pos of 4 corners*
0 Add a 4 corners polygon primitive as box body*
4,1,4,$2,$3,$4,$5,$6,$7,$8,$9,$2,$3,0*
0 Add four circle primitives for the rounded corners*
1,1,$1+$1,$2,$3*
1,1,$1+$1,$4,$5*
1,1,$1+$1,$6,$7*
1,1,$1+$1,$8,$9*
0 Add four rect primitives between the rounded corners*
20,1,$1+$1,$2,$3,$4,$5,0*
20,1,$1+$1,$4,$5,$6,$7,0*
20,1,$1+$1,$6,$7,$8,$9,0*
20,1,$1+$1,$8,$9,$2,$3,0*%
G04 Aperture macros list end*
G04 #@! TA.AperFunction,SMDPad,CuDef*
%ADD10RoundRect,0.082000X-0.718000X0.328000X-0.718000X-0.328000X0.718000X-0.328000X0.718000X0.328000X0*%
G04 #@! TD*
G04 #@! TA.AperFunction,ComponentPad*
%ADD11R,2.000000X2.000000*%
G04 #@! TD*
G04 #@! TA.AperFunction,ComponentPad*
%ADD12C,2.000000*%
G04 #@! TD*
G04 #@! TA.AperFunction,ComponentPad*
%ADD13R,3.200000X2.000000*%
G04 #@! TD*
G04 #@! TA.AperFunction,ComponentPad*
%ADD14C,2.200000*%
G04 #@! TD*
G04 #@! TA.AperFunction,ComponentPad*
%ADD15RoundRect,0.250000X-0.550000X-0.550000X0.550000X-0.550000X0.550000X0.550000X-0.550000X0.550000X0*%
G04 #@! TD*
G04 #@! TA.AperFunction,ComponentPad*
%ADD16C,1.600000*%
G04 #@! TD*
G04 #@! TA.AperFunction,ComponentPad*
%ADD17RoundRect,0.170000X0.680000X-0.680000X0.680000X0.680000X-0.680000X0.680000X-0.680000X-0.680000X0*%
G04 #@! TD*
G04 #@! TA.AperFunction,ComponentPad*
%ADD18C,1.700000*%
G04 #@! TD*
G04 #@! TA.AperFunction,ComponentPad*
%ADD19C,1.524000*%
G04 #@! TD*
G04 #@! TA.AperFunction,ViaPad*
%ADD20C,0.600000*%
G04 #@! TD*
G04 #@! TA.AperFunction,Conductor*
%ADD21C,0.200000*%
G04 #@! TD*
G04 APERTURE END LIST*
D10*
G04 #@! TO.P,D17,1,VDD*
G04 #@! TO.N,+5V*
X109200001Y-89647158D03*
G04 #@! TO.P,D17,2,DOUT*
G04 #@! TO.N,Net-(D17-DOUT)*
X109200001Y-91147158D03*
G04 #@! TO.P,D17,3,VSS*
G04 #@! TO.N,GND*
X114400001Y-91147158D03*
G04 #@! TO.P,D17,4,DIN*
G04 #@! TO.N,Net-(D16-DOUT)*
X114400001Y-89647158D03*
G04 #@! TD*
D11*
G04 #@! TO.P,SW10,A,A*
G04 #@! TO.N,EC11A*
X109643750Y-112037500D03*
D12*
G04 #@! TO.P,SW10,B,B*
G04 #@! TO.N,EC11B*
X109643750Y-107037500D03*
G04 #@! TO.P,SW10,C,C*
G04 #@! TO.N,GND*
X109643750Y-109537500D03*
D13*
G04 #@! TO.P,SW10,MP*
G04 #@! TO.N,N/C*
X102143750Y-115137500D03*
X102143750Y-103937500D03*
D12*
G04 #@! TO.P,SW10,S1,S1*
G04 #@! TO.N,C2*
X95143750Y-107037500D03*
G04 #@! TO.P,SW10,S2,S2*
G04 #@! TO.N,EC11SWA*
X95143750Y-112037500D03*
G04 #@! TD*
D14*
G04 #@! TO.P,SW6,1,1*
G04 #@! TO.N,C2*
X114458750Y-80645000D03*
G04 #@! TO.P,SW6,2,2*
G04 #@! TO.N,Net-(D12-A)*
X108108750Y-83185000D03*
G04 #@! TD*
G04 #@! TO.P,SW1,1,1*
G04 #@! TO.N,C0*
X66833750Y-56370000D03*
G04 #@! TO.P,SW1,2,2*
G04 #@! TO.N,Net-(D7-A)*
X60483750Y-58910000D03*
G04 #@! TD*
D15*
G04 #@! TO.P,D15,1,K*
G04 #@! TO.N,R2*
X98380000Y-119600000D03*
D16*
G04 #@! TO.P,D15,2,A*
G04 #@! TO.N,EC11SWA*
X106000000Y-119600000D03*
G04 #@! TD*
D15*
G04 #@! TO.P,D7,1,K*
G04 #@! TO.N,R0*
X60480000Y-71700000D03*
D16*
G04 #@! TO.P,D7,2,A*
G04 #@! TO.N,Net-(D7-A)*
X68100000Y-71700000D03*
G04 #@! TD*
D15*
G04 #@! TO.P,D11,1,K*
G04 #@! TO.N,R1*
X84180000Y-95900000D03*
D16*
G04 #@! TO.P,D11,2,A*
G04 #@! TO.N,Net-(D11-A)*
X91800000Y-95900000D03*
G04 #@! TD*
D14*
G04 #@! TO.P,SW5,1,1*
G04 #@! TO.N,C1*
X90646250Y-80645000D03*
G04 #@! TO.P,SW5,2,2*
G04 #@! TO.N,Net-(D11-A)*
X84296250Y-83185000D03*
G04 #@! TD*
G04 #@! TO.P,SW4,1,1*
G04 #@! TO.N,C0*
X66833750Y-80645000D03*
G04 #@! TO.P,SW4,2,2*
G04 #@! TO.N,Net-(D10-A)*
X60483750Y-83185000D03*
G04 #@! TD*
D15*
G04 #@! TO.P,D13,1,K*
G04 #@! TO.N,R2*
X36490000Y-119700000D03*
D16*
G04 #@! TO.P,D13,2,A*
G04 #@! TO.N,Net-(D13-A)*
X44110000Y-119700000D03*
G04 #@! TD*
D14*
G04 #@! TO.P,SW2,1,1*
G04 #@! TO.N,C1*
X90546250Y-56370000D03*
G04 #@! TO.P,SW2,2,2*
G04 #@! TO.N,Net-(D8-A)*
X84196250Y-58910000D03*
G04 #@! TD*
G04 #@! TO.P,SW7,1,1*
G04 #@! TO.N,C0*
X43021250Y-104457500D03*
G04 #@! TO.P,SW7,2,2*
G04 #@! TO.N,Net-(D13-A)*
X36671250Y-106997500D03*
G04 #@! TD*
D10*
G04 #@! TO.P,D18,1,VDD*
G04 #@! TO.N,+5V*
X114200001Y-36547158D03*
G04 #@! TO.P,D18,2,DOUT*
G04 #@! TO.N,unconnected-(D18-DOUT-Pad2)*
X114200001Y-38047158D03*
G04 #@! TO.P,D18,3,VSS*
G04 #@! TO.N,GND*
X119400001Y-38047158D03*
G04 #@! TO.P,D18,4,DIN*
G04 #@! TO.N,Net-(D17-DOUT)*
X119400001Y-36547158D03*
G04 #@! TD*
D15*
G04 #@! TO.P,D10,1,K*
G04 #@! TO.N,R1*
X60490000Y-95900000D03*
D16*
G04 #@! TO.P,D10,2,A*
G04 #@! TO.N,Net-(D10-A)*
X68110000Y-95900000D03*
G04 #@! TD*
D10*
G04 #@! TO.P,D16,1,VDD*
G04 #@! TO.N,+5V*
X109200001Y-65347158D03*
G04 #@! TO.P,D16,2,DOUT*
G04 #@! TO.N,Net-(D16-DOUT)*
X109200001Y-66847158D03*
G04 #@! TO.P,D16,3,VSS*
G04 #@! TO.N,GND*
X114400001Y-66847158D03*
G04 #@! TO.P,D16,4,DIN*
G04 #@! TO.N,Net-(D16-DIN)*
X114400001Y-65347158D03*
G04 #@! TD*
D15*
G04 #@! TO.P,D12,1,K*
G04 #@! TO.N,R1*
X108390000Y-95900000D03*
D16*
G04 #@! TO.P,D12,2,A*
G04 #@! TO.N,Net-(D12-A)*
X116010000Y-95900000D03*
G04 #@! TD*
D10*
G04 #@! TO.P,D4,1,VDD*
G04 #@! TO.N,+5V*
X76000001Y-113447158D03*
G04 #@! TO.P,D4,2,DOUT*
G04 #@! TO.N,Net-(D4-DOUT)*
X76000001Y-114947158D03*
G04 #@! TO.P,D4,3,VSS*
G04 #@! TO.N,GND*
X81200001Y-114947158D03*
G04 #@! TO.P,D4,4,DIN*
G04 #@! TO.N,Net-(D3-DOUT)*
X81200001Y-113447158D03*
G04 #@! TD*
D17*
G04 #@! TO.P,U2,1,GND*
G04 #@! TO.N,GND*
X67300000Y-41210000D03*
D18*
G04 #@! TO.P,U2,2,VCC*
G04 #@! TO.N,+5V*
X67300000Y-38670000D03*
G04 #@! TO.P,U2,3,SCL*
G04 #@! TO.N,Net-(U1-GPIO7{slash}SCL)*
X67300000Y-36130000D03*
G04 #@! TO.P,U2,4,SDA*
G04 #@! TO.N,Net-(U1-GPIO6{slash}SDA)*
X67300000Y-33590000D03*
G04 #@! TD*
D10*
G04 #@! TO.P,D1,1,VDD*
G04 #@! TO.N,+5V*
X61700001Y-65447158D03*
G04 #@! TO.P,D1,2,DOUT*
G04 #@! TO.N,Net-(D1-DOUT)*
X61700001Y-66947158D03*
G04 #@! TO.P,D1,3,VSS*
G04 #@! TO.N,GND*
X66900001Y-66947158D03*
G04 #@! TO.P,D1,4,DIN*
G04 #@! TO.N,LED*
X66900001Y-65447158D03*
G04 #@! TD*
D19*
G04 #@! TO.P,U1,1,GPIO26/ADC0/A0*
G04 #@! TO.N,R0*
X33380000Y-26948500D03*
G04 #@! TO.P,U1,2,GPIO27/ADC1/A1*
G04 #@! TO.N,R1*
X33380000Y-29488500D03*
G04 #@! TO.P,U1,3,GPIO28/ADC2/A2*
G04 #@! TO.N,R2*
X33380000Y-32028500D03*
G04 #@! TO.P,U1,4,GPIO29/ADC3/A3*
G04 #@! TO.N,EC11B*
X33380000Y-34568500D03*
G04 #@! TO.P,U1,5,GPIO6/SDA*
G04 #@! TO.N,Net-(U1-GPIO6{slash}SDA)*
X33380000Y-37108500D03*
G04 #@! TO.P,U1,6,GPIO7/SCL*
G04 #@! TO.N,Net-(U1-GPIO7{slash}SCL)*
X33380000Y-39648500D03*
G04 #@! TO.P,U1,7,GPIO0/TX*
G04 #@! TO.N,LED*
X33380000Y-42188500D03*
G04 #@! TO.P,U1,8,GPIO1/RX*
G04 #@! TO.N,EC11A*
X48620000Y-42188500D03*
G04 #@! TO.P,U1,9,GPIO2/SCK*
G04 #@! TO.N,C2*
X48620000Y-39648500D03*
G04 #@! TO.P,U1,10,GPIO4/MISO*
G04 #@! TO.N,C1*
X48620000Y-37108500D03*
G04 #@! TO.P,U1,11,GPIO3/MOSI*
G04 #@! TO.N,C0*
X48620000Y-34568500D03*
G04 #@! TO.P,U1,12,3V3*
G04 #@! TO.N,unconnected-(U1-3V3-Pad12)*
X48620000Y-32028500D03*
G04 #@! TO.P,U1,13,GND*
G04 #@! TO.N,GND*
X48620000Y-29488500D03*
G04 #@! TO.P,U1,14,VBUS*
G04 #@! TO.N,+5V*
X48620000Y-26948500D03*
G04 #@! TD*
D10*
G04 #@! TO.P,D2,1,VDD*
G04 #@! TO.N,+5V*
X61700001Y-89447158D03*
G04 #@! TO.P,D2,2,DOUT*
G04 #@! TO.N,Net-(D2-DOUT)*
X61700001Y-90947158D03*
G04 #@! TO.P,D2,3,VSS*
G04 #@! TO.N,GND*
X66900001Y-90947158D03*
G04 #@! TO.P,D2,4,DIN*
G04 #@! TO.N,Net-(D1-DOUT)*
X66900001Y-89447158D03*
G04 #@! TD*
D15*
G04 #@! TO.P,D9,1,K*
G04 #@! TO.N,R0*
X108390000Y-71600000D03*
D16*
G04 #@! TO.P,D9,2,A*
G04 #@! TO.N,Net-(D9-A)*
X116010000Y-71600000D03*
G04 #@! TD*
D14*
G04 #@! TO.P,SW8,1,1*
G04 #@! TO.N,C1*
X81121250Y-104457500D03*
G04 #@! TO.P,SW8,2,2*
G04 #@! TO.N,Net-(D14-A)*
X74771250Y-106997500D03*
G04 #@! TD*
D10*
G04 #@! TO.P,D3,1,VDD*
G04 #@! TO.N,+5V*
X37800001Y-113247158D03*
G04 #@! TO.P,D3,2,DOUT*
G04 #@! TO.N,Net-(D3-DOUT)*
X37800001Y-114747158D03*
G04 #@! TO.P,D3,3,VSS*
G04 #@! TO.N,GND*
X43000001Y-114747158D03*
G04 #@! TO.P,D3,4,DIN*
G04 #@! TO.N,Net-(D2-DOUT)*
X43000001Y-113247158D03*
G04 #@! TD*
D14*
G04 #@! TO.P,SW3,1,1*
G04 #@! TO.N,C2*
X114458750Y-56370000D03*
G04 #@! TO.P,SW3,2,2*
G04 #@! TO.N,Net-(D9-A)*
X108108750Y-58910000D03*
G04 #@! TD*
D10*
G04 #@! TO.P,D6,1,VDD*
G04 #@! TO.N,+5V*
X85400001Y-65147158D03*
G04 #@! TO.P,D6,2,DOUT*
G04 #@! TO.N,Net-(D16-DIN)*
X85400001Y-66647158D03*
G04 #@! TO.P,D6,3,VSS*
G04 #@! TO.N,GND*
X90600001Y-66647158D03*
G04 #@! TO.P,D6,4,DIN*
G04 #@! TO.N,Net-(D5-DOUT)*
X90600001Y-65147158D03*
G04 #@! TD*
D15*
G04 #@! TO.P,D14,1,K*
G04 #@! TO.N,R2*
X74690000Y-119700000D03*
D16*
G04 #@! TO.P,D14,2,A*
G04 #@! TO.N,Net-(D14-A)*
X82310000Y-119700000D03*
G04 #@! TD*
D10*
G04 #@! TO.P,D5,1,VDD*
G04 #@! TO.N,+5V*
X85400001Y-89447158D03*
G04 #@! TO.P,D5,2,DOUT*
G04 #@! TO.N,Net-(D5-DOUT)*
X85400001Y-90947158D03*
G04 #@! TO.P,D5,3,VSS*
G04 #@! TO.N,GND*
X90600001Y-90947158D03*
G04 #@! TO.P,D5,4,DIN*
G04 #@! TO.N,Net-(D4-DOUT)*
X90600001Y-89447158D03*
G04 #@! TD*
D15*
G04 #@! TO.P,D8,1,K*
G04 #@! TO.N,R0*
X84290000Y-71700000D03*
D16*
G04 #@! TO.P,D8,2,A*
G04 #@! TO.N,Net-(D8-A)*
X91910000Y-71700000D03*
G04 #@! TD*
D20*
G04 #@! TO.N,LED*
X39200000Y-42200000D03*
G04 #@! TO.N,+5V*
X81600000Y-94000000D03*
X98700000Y-66700000D03*
X108800000Y-87500000D03*
X81600000Y-89100000D03*
X98700000Y-80400000D03*
X52100000Y-98300000D03*
X44700000Y-55800000D03*
X74000000Y-101000000D03*
X63700000Y-46200000D03*
X103900000Y-89400000D03*
X59700000Y-46200000D03*
X60100000Y-42600000D03*
G04 #@! TO.N,GND*
X74200000Y-89500000D03*
X77300000Y-46600000D03*
X106600000Y-100400000D03*
X93000000Y-90800000D03*
X75800000Y-67000000D03*
X80800000Y-77500000D03*
X94900000Y-101700000D03*
X89700000Y-101700000D03*
X96000000Y-77500000D03*
X96300000Y-90200000D03*
G04 #@! TO.N,R0*
X94900000Y-74300000D03*
X71000000Y-73800000D03*
G04 #@! TO.N,R1*
X78500000Y-98600000D03*
X44500000Y-96000000D03*
X99600000Y-98300000D03*
G04 #@! TO.N,R2*
X38100000Y-73300000D03*
G04 #@! TO.N,Net-(D17-DOUT)*
X122300000Y-47100000D03*
X100500000Y-73600000D03*
X120900000Y-48500000D03*
X101400000Y-49700000D03*
G04 #@! TO.N,C1*
X57100000Y-37100000D03*
G04 #@! TO.N,C2*
X71800000Y-47700000D03*
G04 #@! TO.N,EC11A*
X76200000Y-45400000D03*
G04 #@! TO.N,EC11B*
X57900000Y-44500000D03*
G04 #@! TD*
D21*
G04 #@! TO.N,LED*
X64200000Y-56500000D02*
X52900000Y-56500000D01*
X40500000Y-42200000D02*
X39200000Y-42200000D01*
X52900000Y-56500000D02*
X40500000Y-44100000D01*
X66900001Y-65447158D02*
X66900000Y-59200000D01*
X40500000Y-44100000D02*
X40500000Y-42200000D01*
X66900000Y-59200000D02*
X64200000Y-56500000D01*
G04 #@! TO.N,+5V*
X45200000Y-100200000D02*
X31100000Y-100200000D01*
X33247158Y-113247158D02*
X37800001Y-113247158D01*
X30800000Y-123100000D02*
X65600000Y-123100000D01*
X87800000Y-58000000D02*
X101052843Y-58000000D01*
X54347158Y-65447158D02*
X44700000Y-55800000D01*
X98700000Y-80400000D02*
X98700000Y-82500000D01*
X57200000Y-69147159D02*
X57200000Y-85747157D01*
X107200000Y-29547157D02*
X107200000Y-27500000D01*
X70130000Y-38670000D02*
X67300000Y-38670000D01*
X37000001Y-113247158D02*
X30800000Y-119447159D01*
X84800000Y-85200000D02*
X87200000Y-82800000D01*
X85400001Y-60399999D02*
X87800000Y-58000000D01*
X60952842Y-89447158D02*
X52100000Y-98300000D01*
X114200001Y-36547158D02*
X107200000Y-29547157D01*
X60900001Y-89447158D02*
X61700001Y-89447158D01*
X97300000Y-82800000D02*
X97850000Y-83350000D01*
X81600000Y-89100000D02*
X82000000Y-89100000D01*
X108400001Y-65347158D02*
X109200001Y-65347158D01*
X60400000Y-42300000D02*
X63670000Y-42300000D01*
X85400001Y-65147158D02*
X85400001Y-60399999D01*
X70900000Y-32600000D02*
X70900000Y-37900000D01*
X37800001Y-113247158D02*
X37000001Y-113247158D01*
X31100000Y-111100000D02*
X33247158Y-113247158D01*
X65600000Y-123100000D02*
X75252842Y-113447158D01*
X75252842Y-113447158D02*
X76000001Y-113447158D01*
X84800000Y-88847157D02*
X84800000Y-85300000D01*
X60900001Y-65447158D02*
X57200000Y-69147159D01*
X81000000Y-94000000D02*
X81600000Y-94000000D01*
X55952842Y-89447158D02*
X45200000Y-100200000D01*
X87200000Y-82800000D02*
X97300000Y-82800000D01*
X85400001Y-89447158D02*
X84800000Y-88847157D01*
X60100000Y-42600000D02*
X60400000Y-42300000D01*
X82347158Y-89447158D02*
X85400001Y-89447158D01*
X107200000Y-27500000D02*
X76000000Y-27500000D01*
X70900000Y-37900000D02*
X70130000Y-38670000D01*
X84800000Y-85300000D02*
X84800000Y-85200000D01*
X59700000Y-46200000D02*
X63700000Y-46200000D01*
X61700001Y-65447158D02*
X60900001Y-65447158D01*
X31100000Y-100200000D02*
X31100000Y-111100000D01*
X57200000Y-85747157D02*
X60900001Y-89447158D01*
X98700000Y-82500000D02*
X97850000Y-83350000D01*
X109200001Y-87900001D02*
X109200001Y-89647158D01*
X82000000Y-89100000D02*
X82347158Y-89447158D01*
X30800000Y-119447159D02*
X30800000Y-123100000D01*
X101052843Y-58000000D02*
X108400001Y-65347158D01*
X61700001Y-89447158D02*
X60952842Y-89447158D01*
X61700001Y-65447158D02*
X54347158Y-65447158D01*
X108800000Y-87500000D02*
X109200001Y-87900001D01*
X97850000Y-83350000D02*
X103900000Y-89400000D01*
X74000000Y-101000000D02*
X81000000Y-94000000D01*
X76000000Y-27500000D02*
X70900000Y-32600000D01*
X109200001Y-65347158D02*
X100052842Y-65347158D01*
X100052842Y-65347158D02*
X98700000Y-66700000D01*
X63670000Y-42300000D02*
X67300000Y-38670000D01*
X61700001Y-89447158D02*
X55952842Y-89447158D01*
G04 #@! TO.N,GND*
X89700000Y-107700000D02*
X89700000Y-101700000D01*
X94900000Y-101700000D02*
X95700000Y-101700000D01*
X90400000Y-69200000D02*
X78000000Y-69200000D01*
X114400001Y-91147158D02*
X115200001Y-91147158D01*
X82452842Y-114947158D02*
X89700000Y-107700000D01*
X72800000Y-42400000D02*
X71600000Y-41200000D01*
X121300000Y-66800000D02*
X121000000Y-66800000D01*
X101600000Y-100200000D02*
X97200000Y-100200000D01*
X72000000Y-95800000D02*
X72000000Y-90947158D01*
X77300000Y-56637073D02*
X77300000Y-46600000D01*
X81200001Y-114947158D02*
X82452842Y-114947158D01*
X121000000Y-66800000D02*
X120952842Y-66847158D01*
X96000000Y-77500000D02*
X80800000Y-77500000D01*
X90600001Y-90947158D02*
X92852842Y-90947158D01*
X102800000Y-99000000D02*
X101700000Y-100100000D01*
X118600000Y-95347157D02*
X118600000Y-97700000D01*
X66989915Y-66947158D02*
X77300000Y-56637073D01*
X75747158Y-66947158D02*
X75800000Y-67000000D01*
X66900001Y-66947158D02*
X66989915Y-66947158D01*
X72000000Y-90947158D02*
X66900001Y-90947158D01*
X101700000Y-100100000D02*
X101600000Y-100200000D01*
X74200000Y-89500000D02*
X72752842Y-90947158D01*
X90400000Y-66847159D02*
X90400000Y-69200000D01*
X78000000Y-69200000D02*
X75800000Y-67000000D01*
X121300000Y-85047159D02*
X121300000Y-66800000D01*
X118600000Y-97700000D02*
X104100000Y-97700000D01*
X72752842Y-90947158D02*
X72000000Y-90947158D01*
X104100000Y-97700000D02*
X102800000Y-99000000D01*
X95700000Y-101700000D02*
X97200000Y-100200000D01*
X71590000Y-41210000D02*
X67300000Y-41210000D01*
X121300000Y-39947157D02*
X121300000Y-42400000D01*
X66900001Y-66947158D02*
X75747158Y-66947158D01*
X92852842Y-90947158D02*
X93000000Y-90800000D01*
X121300000Y-42400000D02*
X72800000Y-42400000D01*
X90600001Y-66647158D02*
X90400000Y-66847159D01*
X97200000Y-91100000D02*
X96300000Y-90200000D01*
X43000001Y-114747158D02*
X53052842Y-114747158D01*
X53052842Y-114747158D02*
X72000000Y-95800000D01*
X104200000Y-100400000D02*
X102800000Y-99000000D01*
X106600000Y-100400000D02*
X104200000Y-100400000D01*
X115200001Y-91147158D02*
X121300000Y-85047159D01*
X97200000Y-100200000D02*
X97200000Y-91100000D01*
X120952842Y-66847158D02*
X114400001Y-66847158D01*
X119400001Y-38047158D02*
X121300000Y-39947157D01*
X71600000Y-41200000D02*
X71590000Y-41210000D01*
X114400001Y-91147158D02*
X118600000Y-95347157D01*
G04 #@! TO.N,Net-(D1-DOUT)*
X61700001Y-66947158D02*
X61700001Y-75100001D01*
X64300000Y-81200000D02*
X66900001Y-83800001D01*
X61700001Y-75100001D02*
X64300000Y-77700000D01*
X64300000Y-77700000D02*
X64300000Y-81200000D01*
X66900001Y-83800001D02*
X66900001Y-89447158D01*
G04 #@! TO.N,Net-(D2-DOUT)*
X61700001Y-90947158D02*
X43900000Y-108747159D01*
X43900000Y-112347159D02*
X43000001Y-113247158D01*
X43900000Y-108747159D02*
X43900000Y-112347159D01*
G04 #@! TO.N,Net-(D3-DOUT)*
X80700000Y-106600000D02*
X81900000Y-107800000D01*
X31800000Y-122400000D02*
X63600000Y-122400000D01*
X81900000Y-112747159D02*
X81200001Y-113447158D01*
X77900000Y-106600000D02*
X80700000Y-106600000D01*
X81900000Y-107800000D02*
X81900000Y-112747159D01*
X63600000Y-122400000D02*
X75400000Y-110600000D01*
X37800001Y-114747158D02*
X31800000Y-120747159D01*
X75400000Y-110600000D02*
X75400000Y-109100000D01*
X75400000Y-109100000D02*
X77900000Y-106600000D01*
X31800000Y-120747159D02*
X31800000Y-122400000D01*
G04 #@! TO.N,Net-(D4-DOUT)*
X91500000Y-99500000D02*
X93600000Y-99500000D01*
X76000001Y-114947158D02*
X70500000Y-120447159D01*
X93600000Y-99500000D02*
X93900000Y-99200000D01*
X70500000Y-122500000D02*
X87900000Y-122500000D01*
X93900000Y-90300000D02*
X93047158Y-89447158D01*
X93047158Y-89447158D02*
X90600001Y-89447158D01*
X91500000Y-118900000D02*
X91500000Y-99500000D01*
X93900000Y-99200000D02*
X93900000Y-90300000D01*
X70500000Y-120447159D02*
X70500000Y-122500000D01*
X87900000Y-122500000D02*
X91500000Y-118900000D01*
G04 #@! TO.N,Net-(D5-DOUT)*
X93200000Y-73600000D02*
X93800000Y-73000000D01*
X85400001Y-90947158D02*
X80347158Y-90947158D01*
X93747158Y-65147158D02*
X90600001Y-65147158D01*
X79100000Y-89700000D02*
X79100000Y-75500000D01*
X79100000Y-75500000D02*
X92700000Y-75500000D01*
X93800000Y-65200000D02*
X93747158Y-65147158D01*
X80347158Y-90947158D02*
X79100000Y-89700000D01*
X92700000Y-75500000D02*
X93200000Y-75000000D01*
X93200000Y-75000000D02*
X93200000Y-73600000D01*
X93800000Y-73000000D02*
X93800000Y-65200000D01*
G04 #@! TO.N,Net-(D16-DIN)*
X119152842Y-65347158D02*
X114400001Y-65347158D01*
X79500000Y-65700000D02*
X79500000Y-51200000D01*
X80447158Y-66647158D02*
X79500000Y-65700000D01*
X79500000Y-51200000D02*
X117900000Y-51200000D01*
X85400001Y-66647158D02*
X80447158Y-66647158D01*
X117900000Y-51200000D02*
X119200000Y-52500000D01*
X119200000Y-65300000D02*
X119152842Y-65347158D01*
X119200000Y-52500000D02*
X119200000Y-65300000D01*
G04 #@! TO.N,R0*
X71000000Y-73800000D02*
X73100000Y-71700000D01*
X94900000Y-74300000D02*
X97600000Y-71600000D01*
X73100000Y-71700000D02*
X84290000Y-71700000D01*
X97600000Y-71600000D02*
X108390000Y-71600000D01*
G04 #@! TO.N,R1*
X30311500Y-29488500D02*
X33380000Y-29488500D01*
X78500000Y-98600000D02*
X78800000Y-98600000D01*
X78800000Y-98600000D02*
X81500000Y-95900000D01*
X99600000Y-98300000D02*
X102000000Y-95900000D01*
X33300000Y-96100000D02*
X30300000Y-93100000D01*
X81500000Y-95900000D02*
X84180000Y-95900000D01*
X33400000Y-96000000D02*
X33300000Y-96100000D01*
X30300000Y-29500000D02*
X30311500Y-29488500D01*
X102000000Y-95900000D02*
X108390000Y-95900000D01*
X44500000Y-96000000D02*
X33400000Y-96000000D01*
X30300000Y-93100000D02*
X30300000Y-29500000D01*
G04 #@! TO.N,R2*
X38100000Y-73300000D02*
X38100000Y-36748500D01*
X38100000Y-36748500D02*
X33380000Y-32028500D01*
G04 #@! TO.N,Net-(D16-DOUT)*
X118600000Y-69300000D02*
X118600000Y-74900000D01*
X109200000Y-69300000D02*
X118600000Y-69300000D01*
X118600000Y-74900000D02*
X115200000Y-78300000D01*
X109200001Y-66847158D02*
X109200000Y-69300000D01*
X111100000Y-78300000D02*
X111100000Y-80800000D01*
X115200000Y-78300000D02*
X111100000Y-78300000D01*
X111100000Y-80800000D02*
X114400001Y-84100001D01*
X114400001Y-84100001D02*
X114400001Y-89647158D01*
G04 #@! TO.N,Net-(D17-DOUT)*
X101400000Y-49700000D02*
X119700000Y-49700000D01*
X122800000Y-46600000D02*
X122800000Y-36600000D01*
X119700000Y-49700000D02*
X120900000Y-48500000D01*
X122300000Y-47100000D02*
X122800000Y-46600000D01*
X100500000Y-83247157D02*
X100500000Y-73600000D01*
X122800000Y-36600000D02*
X122747158Y-36547158D01*
X108400001Y-91147158D02*
X100500000Y-83247157D01*
X109200001Y-91147158D02*
X108400001Y-91147158D01*
X122747158Y-36547158D02*
X119400001Y-36547158D01*
G04 #@! TO.N,C1*
X57091500Y-37108500D02*
X48620000Y-37108500D01*
X57100000Y-37100000D02*
X57091500Y-37108500D01*
G04 #@! TO.N,C2*
X59600000Y-47700000D02*
X51548500Y-39648500D01*
X71800000Y-47700000D02*
X59600000Y-47700000D01*
X51548500Y-39648500D02*
X48620000Y-39648500D01*
G04 #@! TO.N,EC11A*
X72000000Y-49800000D02*
X59100000Y-49800000D01*
X59100000Y-49800000D02*
X51488500Y-42188500D01*
X72000000Y-49600000D02*
X72000000Y-49800000D01*
X51488500Y-42188500D02*
X48620000Y-42188500D01*
X76200000Y-45400000D02*
X72000000Y-49600000D01*
G04 #@! TO.N,EC11B*
X123000000Y-98500000D02*
X123000000Y-48800000D01*
X109643750Y-107037500D02*
X118181250Y-98500000D01*
X123000000Y-48800000D02*
X120500000Y-46300000D01*
X118181250Y-98500000D02*
X123000000Y-98500000D01*
X120500000Y-46300000D02*
X81000000Y-46300000D01*
X79200000Y-44500000D02*
X57900000Y-44500000D01*
X81000000Y-46300000D02*
X79200000Y-44500000D01*
G04 #@! TD*
M02*
