M48
; DRILL file {KiCad 9.0.7} date 2026-02-07T22:16:38-0800
; FORMAT={-:-/ absolute / metric / decimal}
; #@! TF.CreationDate,2026-02-07T22:16:38-08:00
; #@! TF.GenerationSoftware,Kicad,Pcbnew,9.0.7
; #@! TF.FileFunction,Plated,1,2,PTH
FMAT,2
METRIC
; #@! TA.AperFunction,Plated,PTH,ViaDrill
T1C0.300
; #@! TA.AperFunction,Plated,PTH,ComponentDrill
T2C0.800
; #@! TA.AperFunction,Plated,PTH,ComponentDrill
T3C0.889
; #@! TA.AperFunction,Plated,PTH,ComponentDrill
T4C1.000
; #@! TA.AperFunction,Plated,PTH,ComponentDrill
T5C1.500
%
G90
G05
T1
X38.1Y-73.3
X39.2Y-42.2
X44.5Y-96.0
X44.7Y-55.8
X52.1Y-98.3
X57.1Y-37.1
X57.9Y-44.5
X59.7Y-46.2
X60.1Y-42.6
X63.7Y-46.2
X71.0Y-73.8
X71.8Y-47.7
X74.0Y-101.0
X74.2Y-89.5
X75.8Y-67.0
X76.2Y-45.4
X77.3Y-46.6
X78.5Y-98.6
X80.8Y-77.5
X81.6Y-89.1
X81.6Y-94.0
X89.7Y-101.7
X93.0Y-90.8
X94.9Y-74.3
X94.9Y-101.7
X96.0Y-77.5
X96.3Y-90.2
X98.7Y-66.7
X98.7Y-80.4
X99.6Y-98.3
X100.5Y-73.6
X101.4Y-49.7
X103.9Y-89.4
X106.6Y-100.4
X108.8Y-87.5
X120.9Y-48.5
X122.3Y-47.1
T2
X36.49Y-119.7
X44.11Y-119.7
X60.48Y-71.7
X60.49Y-95.9
X68.1Y-71.7
X68.11Y-95.9
X74.69Y-119.7
X82.31Y-119.7
X84.18Y-95.9
X84.29Y-71.7
X91.8Y-95.9
X91.91Y-71.7
X98.38Y-119.6
X106.0Y-119.6
X108.39Y-71.6
X108.39Y-95.9
X116.01Y-71.6
X116.01Y-95.9
T3
X33.38Y-26.948
X33.38Y-29.488
X33.38Y-32.029
X33.38Y-34.569
X33.38Y-37.108
X33.38Y-39.648
X33.38Y-42.188
X48.62Y-26.948
X48.62Y-29.488
X48.62Y-32.029
X48.62Y-34.569
X48.62Y-37.108
X48.62Y-39.648
X48.62Y-42.188
T4
X67.3Y-33.59
X67.3Y-36.13
X67.3Y-38.67
X67.3Y-41.21
X95.144Y-107.037
X95.144Y-112.037
X109.644Y-107.037
X109.644Y-109.537
X109.644Y-112.037
T5
X36.671Y-106.997
X43.021Y-104.457
X60.484Y-58.91
X60.484Y-83.185
X66.834Y-56.37
X66.834Y-80.645
X74.771Y-106.997
X81.121Y-104.457
X84.196Y-58.91
X84.296Y-83.185
X90.546Y-56.37
X90.646Y-80.645
X108.109Y-58.91
X108.109Y-83.185
X114.459Y-56.37
X114.459Y-80.645
T5
X102.794Y-103.938G85X101.494Y-103.938
G05
X102.794Y-115.137G85X101.494Y-115.137
G05
M30
